<mxfile host="app.diagrams.net" agent="Mozilla/5.0 (Windows NT 10.0; Win64; x64) AppleWebKit/537.36 (KHTML, like Gecko) Chrome/138.0.0.0 Safari/537.36 Edg/138.0.0.0" version="28.0.5">
  <diagram name="第 1 页" id="31hcqLBZpBwJc8qPRVE_">
    <mxGraphModel dx="3062" dy="1180" grid="1" gridSize="10" guides="1" tooltips="1" connect="1" arrows="1" fold="1" page="1" pageScale="1" pageWidth="827" pageHeight="1169" math="0" shadow="0">
      <root>
        <mxCell id="0" />
        <mxCell id="1" parent="0" />
        <mxCell id="aaJPajtyvaREXIOq8BXy-1" value="" style="shape=image;verticalLabelPosition=bottom;labelBackgroundColor=default;verticalAlign=top;aspect=fixed;imageAspect=0;image=data:image/png,iVBORw0KGgoAAAANSUhEUgAABLAAAAO/CAYAAADf0D+UAAAAAXNSR0IArs4c6QAAIABJREFUeF7svVd3W1eWtb2QIwGSyjlnOcmp7LKra/TV92/6uu+67/q6/9DbVU7lnJRzliiJAUTO35gbhEzRJHFAgkR6do8aDjo4Z+9nb7B9Jueay9dsNpvGgAAEIAABCEAAAhCAAAQgAAEIQAACEIDAgBLwIWAN6M4wLQhAAAIQgAAEIAABCEAAAhCAAAQgAAFHAAGLgwABCEAAAhCAAAQgAAEIQAACEIAABCAw0AQQsAZ6e5gcBCAAAQhAAAIQgAAEIAABCEAAAhCAAAIWZwACEIAABCAAAQhAAAIQgAAEIAABCEBgoAkgYA309jA5CEAAAhCAAAQgAAEIQAACEIAABCAAAQQszgAEIAABCEAAAhCAAAQgAAEIQAACEIDAQBNAwBro7WFyEIAABCAAAQhAAAIQgAAEIAABCEAAAghYnAEIQAACEIAABCAAAQhAAAIQgAAEIACBgSaAgDXQ28PkIAABCEAAAhCAAAQgAAEIQAACEIAABBCwOAMQgAAEIAABCEAAAhCAAAQgAAEIQAACA00AAWugt4fJQQACEIAABCAAAQhAAAIQgAAEIAABCCBgcQYgAAEIQAACEIAABCAAAQhAAAIQgAAEBprAhgWsXC5nmUzGEomE+Xy+gV4kk4MABCAAAQhAAAIQgAAEIAABCEAAAhDoH4FisWj1et327dtnfr+/64lsWMD6z//8T/uf//mfrh/IByAAAQhAAAIQgAAEIAABCEAAAhCAAATGk8CTJ09s//79XS9+wwLWf/3Xf9l///d/22effWbRaLTrB/MBCEAAAhCAAAQgAAEIQAACEIAABCAAgfEg8OOPP9r8/Lw9f/7c9uzZ0/WiNyxg/e///q/9x3/8hz148MAOHz7c9YP5AAQgAAEIQAACEIAABCAAAQhAAAIQgMB4EPj3f/93+3//7/+5OKpUKtX1ohGwukbGByAAAQhAAAIQgAAEIAABCEAAAhCAAAS6IYCA1Q0troUABCAAAQhAAAIQgAAEIAABCEAAAhDYdgIIWNuOnAdCAAIQgAAEIAABCEAAAhCAAAQgAAEIdEMAAasbWlwLAQhAAAIQgAAEIAABCEAAAhCAAAQgsO0EELC2HTkPhAAEIAABCEAAAhCAAAQgAAEIQAACEOiGAAJWN7S4FgIQgAAEIAABCEAAAhCAAAQgAAEIQGDbCSBgbTtyHggBCEAAAhCAAAQgAAEIQAACEIAABCDQDQEErG5ocS0EIAABCEAAAhCAAAQgAAEIQAACEIDAthNAwNp25DwQAhCAAAQgAAEIQAACEIAABCAAAQhAoBsCCFjd0OJaCEAAAhCAAAQgAAEIQAACEIAABCAAgW0ngIC17ch5IAQgAAEIQAACEIAABCAAAQhAAAIQgEA3BBCwuqHFtRCAAAQgAAEIQAACEIAABCAAAQhAAALbTgABa9uR80AIQAACEIAABCAAAQhAAAIQgAAEIACBbgggYHVDi2shAAEIQAACEIAABCAAAQhAAAIQgAAEtp0AAta2I+eBEIAABCAAAQhAAAIQgAAEIAABCEAAAt0QQMDqhhbXQgACEIAABCAAAQhAAAIQgAAEIAABCGw7AQSsbUfOAyEAAQhAAAIQgAAEIAABCEAAAhCAAAS6IYCA1Q0troUABCAAAQhAAAIQgAAEIAABCEAAAhDYdgIIWNuOnAdCAAIQgAAEIAABCEAAAhCAAAQgAAEIdEMAAasbWlwLAQhAAAIQgAAEIAABCEAAAhCAAAQgsO0EELC2HTkPhAAEIAABCEAAAhCAAAQgAAEIQAACEOiGAAJWN7S4FgIQgAAEIAABCEAAAhCAAAQgAAEIQGDbCSBgbTtyHggBCEAAAhCAAAQgAAEIQAACEIAABCDQDQEErG5ocS0EIAABCEAAAhCAAAQgAAEIQAACEIDAthNAwNp25DwQAhCAAAQgAAEIQAACEIAABCAAAQhAoBsCCFjd0OJaCEAAAhCAAAQgAAEIQAACEIAABCAAgW0ngIC17ch5IAQgAAEIQAACEIAABCAAAQhAAAIQgEA3BBCwuqHFtRCAAAQgAAEIQAACEIAABCAAAQhAAALbTgABa9uR80AIQAACEIAABCAAAQhAAAIQgAAEIACBbgggYHVDi2shAAEIQAACEIAABCAAAQhAAAIQgAAEtp0AAta2I+eBEIAABCAAAQhAAAIQgAAEIAABCEAAAt0QQMDqhhbXQgACEIAABCAAAQhAAAIQgAAEIAABCGw7AQSsbUfOAyEAAQhAAALjQ6DZbNqzhYrNLlbcoqcnQrZvMmJ+v298ILBSCEAAAhCAAAQgAIFNE0DA2jRCbgABCEAAAhCAwEoCEq6+ubFglWrDqvWm1RpNs6ZZMOBz/wsH/fbx6bQFA37gQQACEIAABCAAAQhAoCMBBKyOiLgAAhCAAAQgAIFuCBRKNfvudsZKlYZVag3z+1qilUat3rRGs2mhgN9iEb+9eyxlk4lQN7fnWghAAAIQgAAEIACBMSSAgDWGm86SIQABCEAAAltFQOLUPy/PWa5Ud4+IRwLmW1Et2GyaFct1GbIsEQ3YJ2cnLRoKbNWUuC8EIAABCEAAAhCAwAgQQMAagU1kCRCAAARGiYAcO88XypYt1E3VZTtSYds5ETLfShVklBY9Qmv56uq8ZUs157SSOLXeKJTrzp01EQvaX89N/UnoGiEsLAUCEIAABCAAAQhAYJMEELA2CZCPQwACEIBAbwjkijX77UHWykuZSfVG02TcUemZys2mkiF760gSIas3uLfkLtqzf16Zs2yx5kQpL0P7nogG7ZMzkxaL4MLywoxrIAABCEAAAhCAwDgSQMAax11nzRCAAAQGjMCjV0W786xghUrdOXfUoS7o95mCwGsNTbZpkWDAOXo+PJm2cIjg7wHbQjedJ7Mlu/oo50TITu6r9vzlwpJAefpAwo7ujg3ispgTBCAAAQhAAAIQgMAAEEDAGoBNYAoQgAAExpnAy0zZfn+Qs3y57kSrSMj/p1KyRqNphUrD/Xk60XLrUFI4eKfml3uL9nSubMpr9yoyqmS03jDbOxW2S8fTg7coZgQBCEAAAhCAAAQgMBAEELAGYhuYBAQgAIHxJKCSs6+vzdtisWaBJfFqLRJyY+XLDYsE/XZwZ9TOH0qOJ7QBXvXPdxft2Xx3Ala11rCqBKzJsL1/AgFrgLeXqUEAAhCAAAQgAIG+EkDA6it+Hg4BCEBgvAk8nSvZlYfeS87q9aaVqg1LxYP2+XmFfq9obzfeOPu++gcvi3bjSd4qXZQQqhthIOCzE/sSdnJvvO9rYAIQgAAEIAABCEAAAoNJAAFrMPeFWUEAAhAYCwK/P8ja41cl83dRcpYr1S0e9tt7J9I2nQyNBadhWaTcVF9em+86xD0eDdrHp9KW9Bj8Piw8mCcEIAABCEAAAhCAQO8IIGD1jiV3ggAEIACBLgl8e3PBXi5WXFmgug16GcVK3QJ+v53eH7dje3DseGG2ndf84/Kc5Ut1F7zfqatgsdJwQf3qQvi3C1Pmx1G3nVvFsyAAAQhAAAIQgMBQEUDAGqrtYrIQgAAERovAv24s2KtsxaJBvysj8zJKlbr5/X47tS9ux7soOVMQ/IvFii0Wau4xU8mQ7ZwIUYboBXoX12h/vrmxYLmihEZbU8QqVRqu46S6FX5wMmWpOG66LjBzKQQgAAEIQAACEBg7AghYY7flLBgCEIDA4BD49d6iPZkruQD3cNDvaWJy90TDfnv7aMp2p8MdP1OtN+zXe1nLlWpWqzWt1mi6z8jxFQr4XZ7Wu8cmELI6kvR+wYuFsl1+lLNSuWH1ZsM55trbW2uY1RsN57aKhQN25kDCDuyIer85V0IAAhCAAAQgAAEIjCUBBKyx3HYWDQEIQGAwCLRDv5WdFI8EOk5KLqpCpWETsYB9fn7aCV/rjUy+ar/cz5qCwiVk+cy39BkJWfpk08LBgMUjfvvwZNqi4c5z6DhJLnAEssWa/XRn0QmGtbrcVi0wErKCgZbjTsLhZALnFUcGAhCAAAQgAAEIQKAzAQSszoy4AgIQgAAEtohApdawr67Nu8ykcNBnoQ4uLF0n59TeyYi9ezy17qxUyqYSRX1GnivlMa3Uu9qCWMDns0QsYH+js2FPd1pmt1yxai8yFVvIt0o35XiTcy4VC5q/gwDZ08lwMwhAAAIQgAAEIACBoSaAgDXU28fkIQABCAw/gYcvi3bzad6K5YYTscKhP5cSNptmCm/XmIgF7S9nJtctOdT1Eq8yharVG82O7i51NgwH/DY9EbIPT6WHHyorgAAEIAABCEAAAhCAwIgRQMAasQ1lORCAAASGjYDEphtPcvZktmTqSqeh8rKg3+c61KkErV5vOneWsq/eOZpyAezrjXypZt/ezJj+qg53nZrbaQ7KyJI49veL0+RhDdshYr4QgAAEIAABCEAAAiNPAAFr5LeYBUIAAhAYfAISkJ7Nl+zGk7xzTKk7nf6qobwklQ0mIwG7eDRpiUiw44LuvSjYrScFl3vlJVtLN5QLKxb228UjE65EkQEBCEAAAhCAAAQgAAEIDA4BBKzB2QtmAgEIQGDsCVTrTZvPVezVYtVlV/n95kK+d6VCNhELdXRStQH+dDdjz+crFvCb5+6G5WrDJKQd3Bm1t45MjP1eAAACEIAABCAAAQhAAAKDRAABa5B2g7lAAAIQgEBPCPxwO2MzCxULBaxjMHz7gZVqw+pNswPTEXvn2PoB8T2Z5IjdRIH8d54VLFuqmf5eIxz020Q0aCf2xT0LiSOGheVAAAIQgAAEIAABCPSIAAJWj0ByGwhAAAIQGBwCKkW8N1MwVSGqLNDLyJdbQe5nDibsyK6Yl49wzRKBW0/z9ni2ZJWayj8bjruGmgyqBFTh/HK2ndqXgBkEIAABCEAAAhCAAAQ2RAABa0PY+BAEIAABCAwygflc1X66s2iFSs2S0c6ZWVpLttgKcf/s3JRn19YgM9iuuf3+IGsvFspWqDScYCXXlf6qISFLbiz9NR722+7JyMCWZ+aKNbv/suhKV1XKqiVEQn7bMRGyw7tiFmgvarvA8hwIQAACEIAABCAAgTcIIGBxICAAAQhAYOQIKAD+iytzJleVhAcJEeuNYlklb01LxoL2twvTI8djqxb0fL5sVx/lXAdHOd3ktlptyJWlDpMSE88fStreqcEJyddZuf44ZzOZirky0kbTCW4SsNS9Ut0vtbaT++K2byq6VSi5LwQgAAEIQAACEIBABwIIWBwRCEAAAhDYdgJyOz1c7nbxmUXldkmF7eCOaE/cLq8WK/bb/axz1ISCa4tYpUrDdT1MxgL20am0JTw6trYd2oA9sNFo2j8kEpbqrkRQQs96o1pruBLDRDRg/3Zh2vwD4GiSWPXz3UWby1WtXK1b0N/qeNmemjLRJGpJyIpFAnZyb9y5sRgQgAAEIAABCEAAAttPAAFr+5nzRAhAAAJjS+C122Wh4krLlrtdJBpIBIlHAnZqf9x2pzfn0lEM073nBbv3omilSt11GJQ40S4F07MlXOm50XDAzhxI2IEdOGy8Hs5MoWo/3F60fKlVeullqEwvHg3ahyfTlop7+4yX+270mhtPcvbwZclK1brFwoE1hVN1qGyLnJeOD8bcN7pmPgcBCEAAAhCAAASGlQAC1rDuHPOGAAQgsAkCs9mKPZktudyiukQcvzKKAq60S8KRHCe9HhKMlEs1n/+z20Vikxw9cujo2RKxTu/fvKCk+yqf6dqjnMs1qjWaTjTT8iRkSdBSZtOFw0nbMRHu9ZJH+n5/BOU3nfjjZRQrdfP7fHZ8T9xOH+hvoLucY9/eWnACXCwUsEBg/UMvEVSFhbsnw/b+ibSX5XINBCAAAQhAAAIQgEAPCSBg9RAmt4IABCAw6ASq9Yb9fj/rRKRKtWn1ZtM5k/TqrpIulYLJGXPh8IQlIt5ECa9rloj0aLbkSrXWdLs0zcq1lttFrp73T6Y8h7CvNw/dTyWFEu5ypboTyXR/BXTvnAgPRDmbV469uE5Ckko4s8W6yV0kHtGw36YS3gPLf7qTsecLFVPslURAL6PlujPbOxm2S30WgW4/y9ud50WrNxqeBDjlYrXdZn89O2XhDrlqXnhwDQQgAAEIQAACEICAdwIIWN5ZcSUEIACBoSYg8epfN+Q4qbvyPYkOcp1IepBTSe4k5f2EAn6LRfzOZeK1NKwTGJWOfXcrY/myN7dLsVx3opIcYe8eS3W6PX/ukUCj2bTbTwv2ZK7k3G4KV5eAqSEXnkLYYyG/ndgXt/3T65dT/vYga09elZz41Skkvz09iWV63sGd0b53I3QC3HzZufA65Xe156/vjtZ68ciE7RugIHqP289lEIAABCAAAQhAYKgJIGAN9fYxeQhAAALeCXxzfd4WCjVXMqiuaquFaEtckDvH5/PZRCxgn5yZci/4mx3KGro/U7J606PbpdG0Qrnh5vDpuSnPDp/NznOUPy/xSu67F5mKlaoN07ZKuFEGWKuE05yw6QLLwwE7tidmx/bE10Qi8efyw+xSd0Fvbj2533T2Lh6e6Hsnwm9uLDhHnpoHtHPROu2/ygj9fr/LaFMZJAMCEIAABCAAAQhAYPsIIGBtH2ueBAEIQKBvBF66jnwK3K5bMhpwAtV6I1eqWTQUcDlFR3rQde2H2xmbWSg7wSTkURBru13eOTax6UD3voEfoAffnynY7ecFk7tNofVrCZNySSkvbCIasPdOpCwdD626Crm3vrg6b+ooqXLTTl0FlXGWL9edq+/z8xJGvZUdbhXC724t2MtMxYmjXkXaQrnuHIpnDyboRrhVG8N9IQABCEAAAhCAwBoEELA4GhCAAATGgMCX1+ZsIa+Xb295RcqMkksnJbHhwpQL3t7M+Pr6vM1lqy5nyavbRU6wgL8lFvRCRNvM/If9s9pLOfDkgIpIRAx2CixvWNOaNpUM2ydnJtdc/m/3s/Z8oexyzSRirSWMNpst8SoSCtjeyYi9fXSi70ivPsq6DoQaXkog5VLLD1gXxb5DZAIQgAAEIAABCEBgGwkgYG0jbB4FAQhAoF8E/u/yrC0Wai4Q3asWpdyqRDRon56dcsLTZsa/bi64EHWJJ125XYJ+O38oaQd3rJ/HtJm5jcNnH88W7dqjvCsRVIfHTkOlpHLhyS2l/V9L4FFHx6+uzZucScpYk2tv5f62xNCWc0nP/uu5Kc8iZqd5bubPX2TKJgFOQmki0vl7Ua01rVJv2HQy5JgwIAABCEAAAhCAAAS2lwAC1vby5mkQgAAE+kLg/36ftcViS5DwOiRgxCNB+8vpSUtEO4se69339wdZe9xF4HdbQJHg9uGp3oXJe137qF0noebJbHeB63JMqbzu3MGEHdoZWxOJSg5/vJNx5anqINlsNF+XE6ps0Of3OeFSZ0iNAby4nbaDv7oK/nBLOVhVk0Msto6wp3VIpNM1J/cl7OjutXlsx9x5BgQgAAEIQAACEBhHAghY47jrrBkCEBg7Aq8dWLGgeS0GbAtYKiHz4tpZD+qz+ZJdeZjz7HaRU0jOnemJkAuSZ2yOwHc3F0w5aN3kPUmY0pBYc/Zgct0JSAC6/6Joj2db3Q0l+GgoFysc9DkHne7TKXttc6vs/tNyJf50tyW+STRtl7hWdf4aWoeZwu/1V0V27Z6M2Men1y6p7H4GfAICEIAABCAAAQhAwCsBBCyvpLgOAhCAwBAT+MflOVdCGI+s3n1w5dJeO6Bc4Pa05+D1tRBJBPjuZsbmclVTzzt1uVtrqCxNQeNyu5zZn7BDPQiRH+Kt+9PUFZ6+WKi7jDK/31wov5xq643XIfoBnwvS9zJUWicB6uTeuHMdeRkSspSzJbeShoRPL00DvNx7q65RNtuVR1k3Z4l2Eqs0WhLcH0MCltaydypiZw4kB6IMcquYcF8IQAACEIAABCAwiAQQsAZxV5gTBCAAgR4T0Av641dlk7PESzmgEy98PtszGbH3jqd6MpuFfNV+ubvowrw1VEq2PNBdoplylCrVhgv73pUO9+zZPVlAn2+iPbn7vOCcVHKnyeQkN50YSphUmd+BNbLCbj3Lu89KHFxPPFy+RGWgqYT00omUTSVX70TYZyQ9e7yEq8sPsvZkruzcYxKvlBUnviqBVOdMiXP1etOdzclE0N4/mUbE6tkOcCMIQAACEIAABCDQmQACVmdGXAEBCEBg6AlIuPji6pxli8o1UlnX2i4ciUjlioSu3udPKcj96qNWKaFKzeRzaXc41BwlxkjY2pkK21tHJl4LBHLHyNmjazT3VCzg2Uk09JtnZgocv/44/wa3gM/nhJY2t2jIbztWcGuvXeKhcqoKpbrb105B/u3g9cl4yD6/MD0KCNddgwQslVkqJ05DQfQqdwz4WmWQ7SEBq1hVJ0c5scL29tHeiLsjD5gFQgACEIAABCAAgR4QQMDqAURuAQEIQEAv/NlSzQk/KutSVzMvTqftJPf4VdFuPi04B5T0q3DI/1o80jzkgFL2lFxaKt87sjtmpzyWjnWzjpKcRDNFJ8r82UkUsEM7o6+dRDMLZXv4suiENwk1GhJfgn6fE7mO7YkPHOduWHi5dj5XtV/vbc65pr1VGeFstuI4rpdppnJPCV3RcMAO74rZmQPeyge9rGVQr7n+OGcPXhatVmtavEPDgnaJq4TAD06mLRX33hhhUNfPvCAAAQhAAAIQgMAwEEDAGoZdYo4QgMDAEpBz4+5MwV4sVFz5m4QCDS9lXf1Y1L2ZggvbVn5StSb3U8sBpdgflU7JeRINBezAjoid3p/s6NTZzBqc6FestbKcfMoX+kP001yuPc7Z84WKlat1J3TJCSMvjEq5mk1lOflcOdyp/XHbPx3dzFQG9rMSk769uWDzOTmDusgOO5B0QuDyoaDy728vOHFKWmA7sHz5NToT4i2XWzoRsr+cGf3Acp2tr67NO/dVLPxmWetaB6NUabj6wgPTEVxYA/vtYWIQgAAEIAABCIwaAQSsUdtR1gMBCGwbAblZrj7MWWGVcjgJMBJcViuH27YJrvGgTKFmErLk7NHLu8v7WRLd0vGgc17J3dTPoTLDJ7Mlk1tLoeMSVJaXvYmvC9xumnNgXTictN3pSD+nvCXPfjpXel1yKVdfp9I/ueeqrntj2NQ9cuVQKeHvD7IuJL/sSjjNlcnp716fWZVoJoIufyyk5PIRH6688nbGfY87heG3UciFJRFL35NxEPlG/AiwPAhAAAIQgAAEhoQAAtaQbBTThAAEBotAplC1nxVIXlojkNzMleK1A8l3pkJ26UR6oBYhAUidCeUcU0neRDzoOeB7KxYiUUCOrNls1e48K1ipWneOmOA6IoquUdc4CW+fnp16I69oK+a43ff89f6iPZ0tu7LU9XLL2vN63T0yGrSPTqUtGftzeZvKRMX3RablGlyqzHSuQeVoyc12bE9su5fat+epTPW3+1lXPrteaeXyCboyy3LDphJB++z86GeE9W1zeDAEIAABCEAAAhBYRgABi+MAAQhAoEsCeuH//taCzWWrrpxNeVFrjXZejq45tT9hR3aNjzDgFauENJU1Pp9XJlbDCpWG6/YmW5iENYXOy4W16miay/SS0+3kvrjLxBql8a8bC/YqW7Fo0G8BWaU8DAXei9fFw8l1Syt1NiVgynmkMlI52VKrCF4eHjnUl6iro7pjltWhc53v8hsCVqPpzul0MmR/PTc11Otn8hCAAAQgAAEIQGBYCCBgDctOMU8IQGBgCMix4cqwKnUX1u61rGsqGXIuIcYfBFTGeHmJpUraJAjWFci1NMS2HdquvKvVWKtkTm63XemwfXRqtDKbvr4+74TS1fKq1jpHOpdBv9/OHUrYoZ0Ipp2+bxL8JBTmSjVXQtjp+6z7tc+cylY/PDVYzspO6+XPIQABCEAAAhCAwLASQMAa1p1j3hCAQN8IXH6YtUevSi43Ss6fTkP5QrlizdS1TGVdE2PoclmNkdw/P93NvBEqrhI4OYKaDXNlc3K76d8p5F0B86uVeCm7SZ+RQPjZudEq5/r+dsZeLJRd+aDW72WorFWlgO8cSzlRj9GZgILylWkX8Plcd871hr7PCsLXdXL9HR8x119nWlwBAQhAAAIQgAAE+kMAAas/3HkqBCAwxAT0svtqsdKVqODKugK4YtrbLlFKZZjKu1pehqlQ+eUClq7XtRKyJGiplG6lwNDKI6rbZCJkn49YHtH1xzm7/6JkjWbDUz6ZE/PKDZuIBVxp25qll0P8/duKqT+bL9vVh1l3jlTuqzywtYZKXlV+qdy1T85OrXvtVsyVe0IAAhCAAAQgAIFxJYCANa47z7ohAIENE/jm+rwTXrot6wr4/XbmQMKO7qas60WmFZy9sgxTwoAyrRTMvjy7XSKW/qccqGT0zcyxdke46YnRK9FUqP33tzKWL9csFgqsm4MlIa9YVih70zkDlc+kYP6dE2ETG+VcMdYm8Ou9RZvJVKxcabmrJDi/0fmyudT5smEWjwbs/MGk7Z0avc6XnBEIQAACEIAABCAwqAQQsAZ1Z5gXBCAwsAR+vJOxmfmyBRUuvk6HvOULUFmXRIW3jk7Y3kleeq88ytrDl38uw2x30VMOlkwwywUE/TvhVhnhcoeMHDFyaO2bCtt7x0cvj+jqo5w9ni1Z2XVlXN0dpA56Eq9U3iZm4iN++qtKD1W+ev5QwtLx0JZ8r/R8uZckJuqZ2iMvXRO3ZDIbvKnmrmy72cWKlZZcVlqLeEpQ1RkLBX2uM+aJvXHyxTbImY9BAAIQgAAEIACBjRJAwNooOT4HAQgMJAGVUCnL5lW2anKvSBBRdzW5UXalwj0pqbr1NG93Z4pWb3gs62o2TQKWOrx9em5q6F7st2Kjv7u5YOr+tlq2U6nSMAkiLvtqWRyRRASJCXK+tcUR7bccWwrffu94yuVgjdqQsPLTnYzN52tOxFJAu0QpCVRQ/Ki+AAAgAElEQVQSrCTgVWr6uxYf17VxSVitNZqus6M+I+HlwuGJnuZi6Tt2b6bgHImaZ3tI+NmZCrmukNqbYRqPX5WcYChBTvzaGWyhgM/SiZDLvSLHbph2lLlCAAIQgAAEIDAqBBCwRmUnWQcEIGDqaHflYc5K1bopS0kv1HqlVjCzXvj1Anr6QML2TUU9dRpbC6m6lX1301tZl+6hMjmf+WzPZMQunUixU2b2zY2lMsyQ/08ZQi7TqiTxwFxQflvEkj7SDs6Xm60V3t5wrpjd6bBdGkH3Vfuw6CwrD2tmoeLEPf2zeIhBWzeSZiWRKrjCFSgBRt8J/VXCixoJRMNvlmFu5FA+fFm0288Kbj4S0Hy+pitT1P41mz4npGmfTu1L2MGd0Y08oq+fUeOFTKHmRCyF4kscHTZXWV8B8nAIQAACEIAABCDQYwIIWD0Gyu0gAIH+EHg2X7Lrj/NWrLRe7iVYBZeCmPXPErQ09IJ/aFfMvVRvJhJIYsLDV+uXdel5csfo2clY0N4/kRpY50a13ipB08u63DPitJUv653KMMVMwt/yLoROwPL90fmxWms4gUTOtg9PTXru0tefE9qbp8rx9OhV0XKlusmpJoFF5zsisSgccALfWkOOIu2thFS51TYz5FC68STnAuPVHDES9r+RsSURq6zvohyQkYCdPZiw/dPDJ2JthhGfhQAEIAABCEAAAhDoLQEErN7y5G4QgEAfCOjFXCVpeqmX+WQtd0llqdRKAcwXDiVs79TGX6hdWdfdRef6Wq2sS2KLnifBRXlAKjs6tHNz4e0u56jScK4bhZlLZPKawbXWthTLdbv/omjPF8ruvu0iMDlpdqgEbHfcUvHel4Ddepa3u8/XL8MU4/Z6XYj70iLkpJMQI/Fqx0TIlcVJsBy3odK9W08LJvFRZ6zTaDvW1KHws3PTG2YmUfbr6/Pu+xYO+P7UFXL5PHRtVQJuNGCfnZ92LkgGBCAAAQhAAAIQgAAENkIAAWsj1PgMBCAwUATUFXAhr7yrpsU6vMhLVGq/UP91ky/Ur8u6MhUnVrXLuvSK3soiauUOndyf2FRw+/KcobbI1Cqtk5sm7ESmTutebcMkWl1/lLNyrWHlaqsEzOfzOY7tEjCt4diemB3dHd+UY23l872WYUq0ktNKbiMNzUcd9STYHNoZtclEd5lX2iNlpCmzSVzF8XWnvmTIMR2W8cu9RXs6V3Jinle3nLLYVA739rEJ253eWDOByw+z9mS25JyFXoQzPVPzUxnh+UPJYcHLPCEAAQhAAAIQgAAEBowAAtaAbQjTgQAEuiMg98mXV+edGKGwaC9lge4lPuy3t49u/CV++Sz17Acviy6oXeKYNJC2O0iuq+Ud87pZnVxHD18V7c6KnKHlIlMk1BIvzh1KdiWSKUD98oOsc9G057t8nq4EzIlyZnF1XdsXdyJWL0f3ZZgBl3O1UUfYy0zZrjzMW63RKutsh463O/XJzaYzMSxB8N/cWHBiXDTod448L6NUqZvf77dT++N2fE/3+ylm/7wyZ9li3RLRN8sG13q+zlK+1DA5v/5+cYen76iXtXANBCAAAQhAAAIQgMB4EUDAGq/9ZrUQGDkCyuK5JhdRteG6DXoZulbj8K7YQDtCFJKtUrs1c4YaTStVGy4nSmt/63DSdnlw1UhQ+EKiX6G2bsmlGLUDupVj9NHpdE87yr3RXa9Sd+HjCmR3ImTTXH5SuwxTDrMTe+J2ZPfGyjAfvCjYnedFl6slYVAlh23BTmKWy/5yHQ6HJ6/p26VOjpFgqyuhl6GS0UDAb2cOJOzoBljqPEgwloOum058Enl1/d8uTG9Y0PWyPq6BAAQgAAEIQAACEBhdAghYo7u3rAwCY0Hg6qOccz+1u9N5WbQEC72Iq3Odwr8HcSjX6183FixfVvnV+iVira6L6jAXcAKB8qvWGxLF7s8UnfilbKJOQ6KHSusUwi2HUi+HRCzt4ctMxZUyus6RS2FXcoaF2mWY++Kue+RGxnyuYj/fzTqHnAQyueNWGypTbAXuB+zj05OeyuM2Mp9efUalfI9elt4Itu9071yx7tZ16WTKprosv9S92wJWvlRzjQm8DgQsr6S4DgIQgAAEIAABCEBgLQIIWJwNCEBgqAmoDE0h5MptWiu8feUClamkUj91Y/vgZHog1//7A+UblT3nDKkUUMKMXDWn9yfWXdMXV+dcZpjyubyUNy4vAduqIG4JHBLVJNjV6gq/b4WD70iGnOvKyzxXW7QEsS+uzFu+XHPCnkpH1xvqxCj7VyIatH+7OD2QZ6M9qWdzJbvyKOfyweSQW7cFoZk7S3IfTiaCLlB9I0Pfmy+uzI20A0sinTi1nXr6Xm30/G2EMZ+BAAQgAAEIQAACEFidAAIWJwMCEBhqAnLu/Hp/0XWr8+Im0mJ1rboVHt8bt1P71hd7+gFHQoNEpm5yhiTUqNQwFW/lDK03/nF5zjKFqufMMN1LJWNy7vzl9JTnUs1+sFv5TK3zh9uLVii3MtK8jLZb6LNzU84BNqhDgf7Kwcrkq86FtZ6AK4E3X264APcju2J2+sDGzr3uowysxWIrDN5L6aLOs9x+qaUSQi85df1gninU7O7zvM3nWg0hZASUkBr0+1wAvZoGeA3L78f8eSYEIAABCEAAAhAYdQIIWKO+w6wPAiNOoPVCPW+LxarFw4GOXeTkqpAbR9e+fzLddRe77cCpnKavry90JbpoXhJeJBL8/a31Baz/uzxriwXvofe6t0rGYmHlYE12lX20HbzWe8bNp3m7N1NwpYmav5fR7pqnnKiNZm55eU4vrpldrNhvD1rlkS6MX9+BFRWk9XrTitWGhQI+m0yG7ONTaSfMbHQom01cVVrqpYxQ51Li59mDSTu4Y2NloBudq5fP6WfI7WcFe/Sq5MpYq7WljpzmsyUZy4l1cmKphLbbzpde5sA1EIAABCAAAQhAAAKdCSBgdWbEFRCAwIAT+OXuor1YylBSKdV67+Z66dbLezoRtL+cmfrTy/4gLFVldMq/6sY11I2A9Q85aPJVVybnVcdoObCC9smZwc+GWr6HP97J2PP5ioUCrTwtL0PB8QqQ3z8dsXePpbx8pK/XPJ0r2a2nBVNuWrv8Ug5DOYjqdbmIWl0xFaJ+6URq0y4iiYFfXWt1/tSQMLjaOZJYXKjUXWWjnv35+WnP5207gd54krdHrxTw33JmRkNvrqddeqk1qlnCpRNpJxQzIAABCEAAAhCAAAS2lwAC1vby5mkQgMAWEJCDQi/UKmtqOW3+nFmjTn2lpQ50eglV9lU3XdS2YNpr3lKZRl9fn3euJy8OF91IYkVODqx4sGMJoVjN56ouHN6LqCOmerlXSLxEiGHKA/rpbkvAkjDhtfxL+Uc6Lwd3ROzto4MvYGn/dVauPsq7vyqnSnsmwSXo91s45LNdqbBzQPVqyPH1/W01GWhYvd4qTQwEfKb/0/dRz1fZoDpLxiN+F4rv1QHXqzl6uc9stmK/3pODrWaRsN9COihrDInfgjqVDLpSWq/ir5d5cA0EIAABCEAAAhCAQGcCCFidGXEFBCAwBATKVb1QL1qhVLeyWvKZsms0cV+rs5013cupXqIvHk7ajlR4YFflgseXMrC8Bq1LtJDwko4HXSfC9cbz+Vb4t0QI5UJ1ehF3JXUhvx3fE7eT++IDy221iSng/+aTvFXrDc9dBRWIHwv57cKRCds3FRmq9apBwavFqsssU+fI6WTIppKhLVmDHF+/3FO+WN3K1aY1mgrAbw2/z2/RkM8xf+9EyrmaBnHIofdioex+TnQK+HflxyqljQTs3KGkHZgevHLIfjOWkC6h7+VixeZyVVP5aizidwKqul56Ecz7vQaeDwEIQAACEIDA4BJAwBrcvWFmEIBAlwTk/Pj9Qc7m81XTi7xKfzTkGAoFfZaIBF2GjcqpBn3cfV6wO88LVqq2RKb1hl6sJViofPLcoQlX+tZpfH1t3hYKNVMQuESGtUrA9Hy5kSaiQfvk7KRnF9PK50tgU9j4i8WKExm1J9MTIfdiu1YJWqc1ePlziSsqx5Tw4KVkss1S7ry/X1TJ28azorzMb7uvkTi6WKjai0zVlQAqL0sC16502H0/NrJcdct8PFu0Sq3pzpOEM7n7Du2M9UwAbGfXqWmD3IPuTMaCtjsdslQ8tCFXoLLmvrm+4L47XoRc7ZU6FKosc+9U2JUSMv4goNJbCePan1qj6X7+at9kalPYv77zEsAP7oht6JzBGgIQgAAEIAABCCBgcQYgAIGRIyAhazZbdUKWXqCUVyOhRCVOwzIkwCnIPSsnjbU6zK2ZM6RcL7/P0rGAfXZ+ffdVe/16EZewI7eRcpMk6ukl05WAmUrAzMqVuhMjJHApC2ojTh7xfzZfMuUMSTzRS63u7crbAq0Ob3KNXTyyNcKinv/NjXnL5GvWaLbEuvWGeIQDykgL2V/OTA7Lcek4T0m5Cny//CDr9qFVZri0D36f+26oscG7xyacw2iQhhw9v9zLujwtOXokjrSFEQXTSxjR+ZGrsptvuFxCys+Tc1FlxV6GK42sNJz4+unZKS8fGYtr5NL84U7GsZEbVnvifp74zJ0z7ZvOYDzsd/v0ztEUItZYnAwWCQEIQAACEOgtAQSs3vLkbhCAAAR6RiBTqNrPdxZNoe5ytqjDnNwMr0Wm+h85Q3JfSXDpxl0mEesnd/+alSpvloDpGSqpciWXR5KWjndfhiaR4cqjrM3MV0xuF73CKpOpHTDeErOaFgn6nUD3/omU58yvbiAr+6wt1ulzqznO5OiRW0uOJLlx/nZBGUfdyCHdzGh7r5VwIEefyinFQkLe8n2QuKB9UF6VSlYlVqpb4SCMhVzVlSkqg01Cq4SRVtZWSxipNRrm9+msBuzo7pgd3xv3LGI9ny/b7w+yzlXVSdhssxC7QrnhyuE+Oz9YApYLzS/XXEOLtktNmXh70mH3vdqq7DqdHX2/1NlUf7+Wo1PdHSVuSSA9uDNqZw/0LpNtEM4qc4AABCAAAQhAYOsJIGBtPWOeAAEIQGDDBFTm9ev9rBMe5G5o+RhaY3nOkMqZuhGvlk9oZqFsD16oBKwVXi7dRnlhKkVUGdhGdRyJJndnCi4TR3NbLf+m9dLdcnqlYhLhppxzo9dD5Yty8UhIk7tN4pTcX6IpR49i8MMScCIB+/BUeiADxzfKREKNhMRCqeFKaVc7J9oHJzKqNC8etE/PTPY9r+i1C7FYc2dwrVJTOagkjsSjfrtwaML2eswtU4D7z3cX3XdL5aVeRtuBtSMVsk/ODI6Ape/YT1qLOmguc6kFA3I6+i3g89k7x5I2lex99t/tZwW7N6Ny54Yl5d5b5+sr0bpdFi1+nXLHvOwJ10AAAhCAAAQgMD4EELDGZ69ZKQQgMKQEJCo8mi3a09myCyPXP8spJEHo8K7e5Qz1Eo9EhVYnxbqnboet6/x2aGfUBWRvxZCDR44zlaJJ8JAYoeFKGQM+57ySC2xUnFdamwSDL6/OORefHDidRE6XTxbw2Y6JsBPy+jm+v5UxiUwSZOIdSvx03rSfciKqjNaLCCrBVh05s8W6JSJ+J6J2Gu0OlRJ35VQbhDGfqzhxVgK3zrjWodJKt/8q31tyqUkAVAaVfmb0asiR9uXVeee+apchd7q3hFK55vRdv3B4otPlXf9524k2s1BxZeQak4mQ7ZkMWzwSdD87GRCAAAQgAAEIDCcBBKzh3DdmDQEIQGCgCdx6mre7M0X3Qu2lPEsiRbHaMJU8fX5+yr3gbtVQOeZMpuJC5eUWkStldyo0UsJVm53yxy4/yHnOeWqVUtZcQPrn56e3rOys097+0Ymz5ll0kAgqEUUlr/umvHUI/O3+oimEXmeiU/aXxBo9Q3lZ7x5L246J/pdZyqX21fV5yxXrzqW21netJW413dzfOTbhBMpejEyhZj/cWnCicKdmE+3naW8lBO5Mhe3j073NmdPZ/f7W4lLeXsOqaozZlEi95ETz++zDkynPjrteMOIeEIAABCAAAQj0jgACVu9YcicIQAACEFgi8OOdjKl0Ta4qL24YfUwB6spgev9EekOB8cD/M4ErD7P28FXJVXV1cl+1P90Wgt46OmF7Jzt3tNwK7s8Xyvb7/axn4U1zkCgiT93hLpw9uWLNfridsWyp7lxLazFSYwhlX+ksq2OjzuggDHVRXMhXW91EO7jUJGJJhFO3yc8vTPVEnFT58W/3u8wRazStUFGOWNBz0wkvrF8tVuy3B1krleXGa+WltX/2tPP2An6/RSN+u3goabv7dLa9rIVrIAABCEAAAhBYnQACFicDAmNGQL/9Vq6SyivUPl7/ka/fhKtLXzjk9xyAPGbYWG6XBFQ+OJetuowbr+HRyvEJBv12/lDSDu7w5qDpclpjd/m3NxdM3fYUlO9VSJTQITfPsT1xO3Mg0Rdm6lqpXCWVg3nNSZJIUa413M+ybpw9j14V7dbTgsti09DzljsAVbYrcUwluxPRgLv3anlu2w3KudSuzNlisebcT15Mi22R+L1jKdcNcLNjUwJWMmSfnetNjphyzL5RV9Wi8vTWdqLpZ4zC/xPK2zuddu4+BgQgAAEIQAACw0MAAWt49oqZQmBTBORMeLlQtquPclZvmguy1l/lzGi3ok8ngvb20QkX4M2AwGYIbEbAunAoaQcQsDaD//Vnv7u1YC8zla6ccBIDlAOmjn6n9/dHwLqpEtTnErCarsOglyEBS7lWckh9dKq70rRn82VT2auCyCVWSTnTz0yJQq5ZQriVkXbpeGogxCvxeDJXsqsPvZeH6jNtcfLonlhPugDqlyHf3cpYoVTz3EF0M/u02jnQPv3z8pwr79SudSpZloil/88nx9q/XZj2JPx5OX9cAwEIQAACEIDA1hNAwNp6xjwBAn0noP/Av/E457Je5DLQf+S78gq/z3Wd0wuFSksioYBFQ34X3tzpJaDvi2ICA03gp7utEsKgX90HveVZyT0Rj/jtg5OTJjGVsXkC1x7nXIdJDa8lhG2XzjtHU04M6seQ6Pbr/UUrVhqW7FAa156fE57M7MjumJ072H0jADma7jwv2ItMpRXwv9SRU2WwCj+XU3WQxkbKQ2u1plXqDdudVkh/dyLfWmv/8tqcZfI194sPL991/f8gdUY8ujtqZw50v08r51Gu1u2rawvOUazsNi9DwpsEyU/OTHbMPvNyP66BAAQgAAEIQGB7CCBgbQ9nngKBvhK4/6Jgd561SmT0MqZSwZWj1blJ5Rc+S8UD9umZKU9dufq6MB4+sATuzhTs9rOCc/p5EUNd+Ve14YQrlRWNUifAfm7Si0wro0jOGwV4dxrKUlIgdyoWsr9d6N8+yHn1zyvztlisWjwc8PSzSA4clf/JRbo73Z/srk58e/nnctM+eFk0X9MsEvbmmtX3sVpv2p7JiH1wsjc5XhJI5V5Td0GdsfW+u3p+pdZ0QtNfz015Lmtdj9v9F0W7+STvOrR6+Vmje+n/10lwO7k/bsf3xHu5LdwLAhCAAAQgAIEtJICAtYVwuTUEBoGA61J1bd4FZIeDvo7lL3oJlMilFufnDm3+t+ODwGA75yAnm16O5D5SNk07Y2x3KtyR/XbOc6ufJUFK505OB7kydKbWGhIr8uWGc/8d3R2zU30qW9tqJv24vwSpL/X9L9acsLBenpRE7PySyC2HznvHU/2Y8utn/nx30bmhVBaYiEgYWXs6Euh0jpKxlgAqIX7Uh4LuL0ucrHoTJ8VDnITmWI/LQ5W1tpCrur1SN8fVcu8qVYlXDVe6J9FIGWu9GDonKgEN+OyNn7HrnRf9/8Vaw2zvZNguDUggfy9YcA8IQAACEIDAqBNAwBr1HWZ9Y0/gzvO83XlW9PzbaZXOqGwnFQ/a3873z4ExjBs3n6vYr/eyrixTbgCFBWu4jLGAzyaiQXvv+IQrnxmH0Q7HlijqOryt4hJpOX4a7s/lvvrL6UncVz0+HHPZiv1yP2v5Yt0JC+rCtlLeaYtXAZ/PJuKBgXDBSZCS+JYt1K3uuuf9WcRSeXSr61zTBXO/e3TCpicGq9Svx9v5+nbi848rc5Yt1CzhOcS95hxtEm2mkqGeTU0/7767mXHivTLUNNQ0QKKp9kb/k6ioPdw7FdlQiedak1W58uPZsjUbzT+JnArbVwODlWKWxDRlQO6dCtul471xovUMJjeCAAQgAAEIQGBNAghYHA4IjDiBDWURleoWC/tdq/hevuSMMuo7z/L24GXJldHoZa3dwl3CwOuMsWDAOWDGKWNMpUWPZ0vuxbbNRWz08i0uEiBi4YD730en0+s6tUb5/Gz12p7OluyGyrzKdatJTPD5WuVbElsbTbcfysDT9/6jU2nPwelbPW+JIQoJl6iurCMJIiFZiHx/fK+U5SfXz5n9Cds/ZuH/391csLlc1X2XOpWI6meTNX2WjAXss/NTb3Ra7NU+XnuUs5lM2er1loivn3/qChgO+J2If+Fw0nb0UGBcyFft25s6H3X3rJXDHRWfOdFOz2+Pdgnh6QMJ5/pkQAACEIAABCAwHAQQsIZjn5glBDZMYMPd4AJ+O3coYYd28h/3neA/nSuZwrILpZaTaDWn0euMsSWHi/JfJCJsx3B51EtvdxIAtru6SqVFvz3IOgGrWms6AUVLb73UmnuhvXg4ifNqiw9DoVyzH+8sOrFDOUj6q/ZBZ1ZilkKt3z+RGrh90NnVvBXS3Z67jrPm3J675h2PeAvw3mLM23p7lxV2dd5yhZoTg5UBtdqPFQmXcoTKpfbBiZSl4r1zX6224Nls1ZS/pu+7BLN9UxEnUvdySLxS+aDK43UuNJabW3VG9LOv/e+Xi1jtEPdPz04OjFjbSzbcCwIQgAAEIDCqBBCwRnVnWRcElghsTsBKuiwsxtoE9OL05dU5lx0kJ8hqAfnLP+3K6YJ+90KnsOmtHHIZ/HJv0YWjLx/Ko3rnWMpzd7dezVFuGmXVZIvqQuZzndAGrbNbr9Y6yPdR/o/2YSFfc+6YXamw24tBD86XWKNMrJeLFWs0zCYTQfc90vdpnIfEqZZLre4yptruOsnjEiqVy6eyZbnrzh9KugD3YR/6ufvF1TknXkm0qtUlVrU6R+pMLx86K9KxdJ1EWvFy5YzRgH1+fnrdbLVh58T8IQABCEAAAqNGAAFr1HaU9UBgBYFWwG3Jgn5vLc71cb0UxMN+u3QybVOJrf1N/bBvmHKerj/OO5GoUwmP1vo6YywW3LIub3pZ+/F2xgWoq/Sq1g7jWoIdWHqZnYgFXJnodjnBhn2vmT8EBpWAxL12KV19yWGnnwNth5rKdgepNHSzHG8/y9u9maKVqnUnSmmtalSgH3US7laKWPr3S5WnTqiVK0wu2PWaS2x2jnweAhCAAAQgAIHeE0DA6j1T7giBgSJwd6Zgt58VTK4LLy3G9ZttiTEKcf+cEPeOe/nb/aw9mS21cl48OkEkEMoN8e6x1JY4kNT9T26Mds7Lys5z5UrDKvXG6+wpvchtUzVjR55cAAEIbJyAhKznCxV7JZdas+kyDPdPRUaqcYTW9Y/Lc87JGY/4X3c8VEMIOWFbJdMtIav9c61dSqh/TseDdul4ytL8cmbjB41PQgACEIAABPpEAAGrT+B5LAS2i0C7xE2iSSjoW19kaZrlynWLhPx2eGfMzh5MbNc0h/Y5/7qxYK+yFYsGWyHFXoZK6fx+v53aH3ft5Hs57r8o2t3nBZcXlIwqD2f1OelFV2ciEQna0T0xO7G3t/Po5Zq4FwQgAIE2AZVFfnFF5YM1m4j9OfdMwpaKBpcqCt3H9FNQIpacaP/fpZ2ef9kAdQhAAAIQgAAEBosAAtZg7QezgcCWEHj0smg3n+VN+UtyCUmgWjn0H/vtHCe5rxRuO+iZOFsCq8ubDpKApT38v8uzrnRwZdet1ZalUqNCpe5eAj87P+3KjRgQgAAEBpmAcr6+vDpveYn0qwhY7blX1DBiqXxaGWDqYqnr/3Z+utWBkwEBCEAAAhCAwNARQMAaui1jwhDYGIGbT/P2+FXJlZWpBEO/idZ/xEv00G+05ciJhgKug95fTk+uKnJt7Mmj/alBKiGcz1fs5zvZNZ0Jq+2EXAyxcNDeOTphu9Lh0d4sVgcBCAw9gU4OrLUWKGFfYv3fLky/LjscehgsAAIQgAAEIDBmBBCwxmzDWe54E5jLVey3e1lXSlGtN14H3qq0UILWZCJk7x6bwHnVxTEZpBD3q49y9vBl0QmUXlvWKwTZmj47vCtqFw5vbVfELrByKQQgAIFVCayVgbUeLjXPKJQbpsYVf7+4g8w/zhYEIAABCEBgSAkgYA3pxjFtCGyUgLo1lcp1ezpftsVCzbmwdqfDtisVdq3FGd0RaGeMtcsvw6uUZy6/o3KnVMa5bypibx/trWD0091Fez5fdu3ivQbKK9y/2jDbmw7b+yfT3S2eqyEAAQj0gcDKLoSdpiD3lUT943vj5P11gsWfQwACEIAABAaYAALWAG8OU4MABIaDwLO5kl19nLNCqeFypFSGuXKoVFPlm36fzybirRbu+vtejs04sA7tjNrFI70V1Hq5Nu4FAQhAoE1Avzj44qqC3OtOsF/PcVos163eNNfUgvJBzhAEIAABCEBguAkgYA33/jF7CEBgQAjceV6wBy+KVqzUTeUqyzPG9LKlspdIMGDRsN8+PJW2eCTQ85mrRPTnu1kXbrxad67VHtjOwHr7yITtniQDq+eb0ocb6vzdepq3mUzFZdtpSCpVl8zT+xK2ezLSh1nxSAj0lsBCvmo/3110IpbCHGORwBvZVvoeSLxSvaDEq/dPpE0NShgQgAAEIAABCAwvAQSs4d07Zg4BCAwYgflc1X69t/hGxpimKFeWSjWT0aBdOpHasgDhP7Jh6EI4YEdj26YjN+CNp3lTB7ZypWFNawlYGnL8xSJ+51b54GTaczb4Pz4AACAASURBVJnptk2eB0GgSwJtEUu/JChWGmbLzrtk21jY7372Il51CZbLIQABCEAAAgNKAAFrQDeGaUEAAsNJoF0q+HyhbJlCzZW3KF9MOWNq5b7V4+5Mwe49L1q+XHOuA98aZYpy5si5ICfYkV0xO7U/sdVT4/5bTEANBW49LZjy2OS4kttPuXb6e53LWr1hpWrDnUOdjb+cmUTEWtqTtmvtxZJrTbKfvjsSn0/ti9uuNK61LT6+G7699u7eTNF0/p1c6zav5To8vCtmR3fHtuyXBhueNB+EAAQgAAEIQGBDBBCwNoSND0EAAhAYTAJ6d/vq2rwrnVE5Yzjg/1MmV7nasEqtYdFwwOLhgH16brLneVyDSWd0Z6WQ6h9uZ5wo6XLY1mgm0BZYVU64cyJkH56aHF0oHlf2dK7khL9yrWH6biwvu/T55VjzWSLSKkELBbdehPY4bS5bQUBnW2JWe6iMu8cxgzCHAAQgAAEIQKDPBBCw+rwBPB4CEIBArwnoBfzHO4uuy6QcN3LetOPi9XoXcC/lfkvGWi/letFjDDeB3+4v2tO5sjUarSyg9YZe9JV9logG7O0jKduVHt/ss4cvi3b72QrX2jLVo1pviVoSrpxr7fQkItZwf1WYPQQgAAEIQAACQ0wAAWuIN4+pQwACEFiPgFw5vz/ILrlKWlfq3Twc9NvFwxOWThBoPAonSG46ue6yxbolon5Pbjp9pt4w2zsVtkvH06OAoes1eHetNa1QbrgQ/N2psL1/cjx5dQ2YD0AAAhCAAAQgAIEeE0DA6jFQbgcBCEBg0AiorKZdWqNMpCCOq0Hbok3NZy5btZ/uZqxUkYDlTZTUeShVGjY9EbJPz05t6vnD+uFf7y/aM7nW1MEuvL5rTdfkS+IbsHeOpmxnanxda8O638wbAhCAAAQgAIHhJ4CANfx7yAogAAEIQGCMCcwslO23+1mXa6ZQfi9DgoxcRZOJoH1+ftrLR0bqGuVdfd2la02lhIpY2j8dsXePpUaKB4uBAAQgAAEIQAACw0AAAWsYdok59o1AvdGwmYWqZQpVlyE0PRG2XanQmp3d+jZRHgwBCIwtgVeLFfvl3iIOrC5OwGaY7UiF7JMz4+la6wIxl0IAAhCAAAQgAIGeE0DA6jlSbjgKBCrVhv18d9F1cavWm1ZrNJ2AFQy02qono0G7dCKFkNWHzVZA+YvFis3nqqYw6slEyPakw6bSOMbqBByzzBIzg9monZNStW5fX1twHQgVNO6l85rcWrW62d7J8cx0ejZftssPNuZam0qE7LPzCFij9j1iPRCAAAQgAAEIDD4BBKzB3yNmuM0EZrMVu/wgZ4WyxKuGC0RWZpC6t0nIMmtaOBCweNRvH55MW7RDdso2T39kH9furKfuaTWJivWm2xPtTSjos3g4YO+dSFkoQJv79iEQsx9uL1q+vDYzCbFBmA399+bnuxl7Pl9x64iG1/8OSPjNl2quW+H5Q0nbPx0d+vV3u4CXmZZrTaWECY9ll+SGdUuZ6yEAAQhAAAIQgEBvCSBg9ZYndxtyAnqp++5WxoX1ysWgYN+Vbga1qS9UWsLWRCxgn5+fwom1xfsuJ9z3tzJWLNetotZp1hIV5bmSqCihRm3utV/vHJtwrqxBHBJE5YRS9zOdHwVo70huTUmqWH1/+w9motUOb1/J7N3jE5aODyazQdzHQZyTHIlyjebLdYsEJequLWJJnPfp/CWD9vFp/fwaxBVt7Zz0M+Wb63Kt1Zyj1gsDOjdu7Z5wdwhAAAIQgAAEINCJAAJWJ0L8+dgQkCvh6+vztlioua5U64Uhy/kjkSsc8DsR4sNTtFXfqoMiceqfV+bdi6YMcNqXldWC2jsJNtoXlVD95czkQDnjNLffHmTdHFWS2u4IqJLUcNBvU8mQXTyc7JkQqvP7zytzli+2mMhpsxozCRkaYvbJ2UmLhLwFgG/VXnPfzRG4/SxvD14UncAe8LWcWBKq2kOuRZUbSjxVN70PTqadeDOu48c7GXuxUHaCeDeutQuHJ2zfVGRcsbFuCEAAAhCAAAQg0DcCCFh9Q8+DB43AYqFq399etEK5ZslIUO806w6JKXJspeJB+7cL0z0THwaNS7/n8+2NBVvIV61SbzqhZb0hQUYv5+lE0IUse3FVbPX6ns+X7fqT/JJ4tbwkVdlqenrTIsHAa0EhEtp8CeS/lphJsJBQsS6zUt0Cfp+lBojZVu/JqN5fQu69FwW7P1N0HQkrtab5fJIw3TEzfSGiIb/pjKmLnn52jfNQufiv97Lu57iYeHOthezj05MD8bNlnPeOtUMAAhCAAAQgMJ4EELDGc99Z9SoE7jwvmBwMcseoFM3LUGhyLOy3t45M2J5JfiPvhVk318h99X+X51zJnZcyn3a2TyKq0qi06a/9HCrrUs6O3HpyQCkvbaWopvNWrDRceZ9EpE/P6OV44zVdKnH9x5XumLXLqOTC8nr2+8mVZ69PQD+X7jzL21yu6lyLGjpREiqP7I7ZgR1R14yCYXbzSd4eviq6hh3iEw29+R3FtcYpgQAEIAABCEAAAoNDAAFrcPaCmfSZgMpJ5JbRi916v4lfPs1ypWFNn9nhnVFTWQmjtwTUKeyKSu+qjY7uq/aT5cJSkPupAwk7tjvW2wl1cTcJSd/cWLBMoWZqAbBe2L+Euny5YZGg3/ZPR+zikY2fpadzJbvyMGflaqOj++oNZkG/nTmQsCO7+sesC7xc6oGAxBc5sSTsSpwJB31061zBTWzuPM/bw5elN1xrkvf0Z23XmkoM3zmKa83DseMSCEAAAhCAAAQgsGUEELC2DC03HjYCCrxWHkpXAla19XJ4cGfUubAYvSXw2/2sPZktOdeS19K6QQlafpkp26/3s85dlVSXsw6Gl7YTKx0PbqoxwK/3F+3JbNk5vjwzqzas3jSX6/Pe8VRvN5G7QWAICMjleftZwebz1ZZwtcy1dnhXzP2Mx7U2BBvJFCEAAQhAAAIQGGkCCFgjvb0srhsC15/kXHaMXl46Bfq276vSMIkEZw8m7dDO8WtF3w3fjVyr8runc2UXSB32mA1VrTWsWjfbMxl2IdX9Gtce51ygtoZXIaldkvre8bTtmNhYV0B1opNzrWtmDbO9k2F7/0T/mPVrr3guBNoE1GShol9MWNO51uSK9K/sgAAuCEAAAhCAAAQgAIG+EEDA6gt2HjqIBBToq5d/ZaF46cwloUvZQROxlmMmGNh8+PYgcunnnB68LNqNJ3n3QtkpjLw9T5dl4/PZsb1xO70/0bfpf3drwV5mKq7LoLoNehmlSt18fp+d3Bu3k/s2Nvf7L4ou16dab6zbSXP5fNr5Pyc28Vwv6+MaCEAAAhCAAAQgAAEIQAACGyWAgLVRcnxu5AjUGk378sqc5cutMN9OrhllLSlsW528Pjs3NXI8BmFBEmG+vDrvQtwlFHoZEhXj4aB9cDJl6cTGXExentPpmm9vLtjLxYpzcHQlYPl8dnwT4lu5Wrevry90zywStI9OpT1z7rR+/hwCEIAABCAAAQhAAAIQgEAvCSBg9ZIm9xp6Aq8WKy63qFCqWyi4toglx0q9YTYRDdjHZ+jctpUb/4/Lc67NvUZMWVLrjFKlYY1m0xKRoH1+YcoJkf0avz/I2uNX3eV3tUtSFeKuPKqNDnVuLDhmPotF1ncGLmf2twtTlEttFDqfgwAEIAABCEAAAhCAAAS2lAAC1pbi5ebDRkDZvfdnCnZ3pmgq53LduwI+C/p9pk5xEq1qjYYF/H6Lhf12/lDS9kxuXGgYNj79mK+cbnIz5Yp1CwaUT7a6iKWue9Va05UavntswqYnwv2Y7utnPp4t2bVHOSvXGpboILzpQ42mOdFpwjn6pj27tlZbpAS/725llpj51sx0UxdNZf6I2aUTKZvso2Otr5vFwyEAAQhAAAIQgAAEIACBgSeAgDXwW8QEt5uARCx1kLv6MGcqK1QrenWI05CjR+VgKi98+8hEX0vUtptLP5/3bK5k1x7nnaiobnkSFPU/dfbT3miP1KkwFg7Y8b0xO7o73s/pumerG+JX1+ZNriq5+ZSFtd6QUKfztTO1fvh8o9G0uVzVlQhqpOIhm04GXTnr8vF0rmTXVzJbyuLSua4vY3ZiX9yO7Ir1nRkTgAAEIAABCEAAAhCAAAQgsBYBBCzOBgTWICBRZD5XsVfZlljQzrvaNRGyyWTI/CsEA0BuLYGFfNV+u591wtBqomLQ77cLhxO2K70xR5yEsIcvizabrZrcXJIsQwGfcycd3R3zFOy/ksDjV60Q+kK5YeHQ6iKWXH6lat0aKkmNBe3j0+lVXWa1esOuPsrbfK7qAtrlBtRQ7wCJY9PJkF04nHxDyNK1Yqbr12J28UjSiWYMCEAAAhCAAAQgAAEIQAACg0wAAWuQd4e5QQACbxCQ+2g+X7VXi1VbLFSdyCTRZ+dEyJUMbjTzSg6v288LVlRJXa3hSkd1b5m8dM9wyG970mE7ezDZ1TN0nxtPcvZktuTurSEHn+65vCRV4ls07LeLh5OrCnASUH+5u2iFSt0qtZYbUIYu/V1byFJYfDwasA9PpiwS+qPM0jHLVe1ltmLZQq1nzDiaEIAABCAAAQhAAAIQgAAEtpMAAtZ20uZZEIDAwBF48KJod2YKViy3Ms8kVi1V2rl/VkaUcs8kCsnl9N7xVNcilsr5bj7NOxeUyvckKmm0S1LjkYATr1QOuHLIDfbNjVYpouYjoWulUCf3mAQy/ftkNGCfn5/6U0nhwIFnQhCAAAQgAAEIQAACEIAABLoggIDVBSwuhQAERovAYqFmP939I+xc2WarjZZAVLdoKGCHd0XtzIFk1yBU+jibrbgSReVdqQQ1FW+5x9YqSZVg9f2tBZd5JfFL5YxrDV2bL9dNTqwdqZC9fyLd9Rz5AAQgAAEIQAACEIAABCAAgUElgIA1qDvDvCAAgS0n8MPtjL3MVEzFeGt1N2xPQqHnxWrdEtGgfXxqcl0xqVcTl9D1rxsLlivVXAZXp9g1iVi6VmWVf784jQurVxvBfSAAAQhAAAIQgAAEIACBvhNAwOr7FjABCECgHwRUmvf19XkX0C9RSnlXnYbKDAMBv53cF7cTe7e+0+GDl60QeOVyqczQy8iV6hYL++2tIynbM0k4uxdmXAMBCEAAAhCAAAQgAAEIDD4BBKzB3yNmCAEIbAGBZ/Nlu/wg6zoOrleat/zREpKUYbV3KmKXjm99id7PdxdN82x3GvSCoVxpdVA8uDNqbx2Z8PIRroHAWBJQFp2+Xy8XK65EWJ1AQ0HlyAXt0M6oczIyIAABCEAAAhCAAAQGhwAC1uDsBTOBAAS2kcDd5wW79axgjUajY/lge1rKwipVG7ZjImyfnJnc8tmqxHFmoWJqKhhS20EPo1JtWL1ptn86Yu8eS3n4BJdAYPwIzGUrdv1J3uXGVWt/NFZQma7rPBr0Owdjt51Hx48kK4YABCAAAQhAAALbRwABa/tY8yQIrEtAId2PZ4s2n6s5N4CGQsUV9H1oZ8yiawSMg/VNAqVq3TL5mlVqTQsGWkHpiVXK71x53mN1BmxYzGN5nvZIYey70mH76NTWC1gqH7w3U7BGs2mxsLcSQuVmhQJ+O7U/bsf2bH2ZI+cPAsNGYGahbFcf5VznTonS4aDPiVaqIlaDUNcttN7qPDqZDLqGCCs7fw7bmpkvBCAAAQhAAAIQGAUCCFijsIusYegJPJkt2Z3nBefu0YuTSlk05AYIBvzuBUvd747vSXQM8h56GBtcQCZftbszBVvI19wLqMro9EKqF89kLGBHdsVsz2Tk9d0zhZrJ4VQo1SwRC7prOw2VG2oc3hWz84e670TY6f4r/3w+V7Gf7mStUGmFuHsZyvRS6dOnZ6ecADpqI1+q22KxtiQ8+G0yEXRuGQYEvBCQwPv9rYxrdqDcO4lUqzVHaHcejQQDtn9HxC4ephzXC1+ugQAEIAABCEAAAltJAAFrK+lybwh4IKBStvsvis51pS5yehn3L72Pyw2g3CX9+2hYJS2tF6lO3eg8PHakLpFLSQxLlYZV6w3z+3yOobjpRVROLL2o7p0M27lDSffnGgpxn8tVLRzwu+yb9YbulS/XnBPqnaMp58La6qG5f3FlzhTMHgr4LNxBkNL65daS2PVvF6e3enrben9lFT18WTQJWOIigVJfk0DAZ1PJkAvVJ7NoW7dkKB+m3Dv9wkBZdp0aIzgRq9zqPPrBqbSlyMQayj1n0hCAAAQgAAEIjA4BBKzR2UtWMoQE5Br66e6i5Yp157JaS6CQKKNwbr1wnTmQsIM7Y0O42q2Z8qNXRbv1tOCybGTEEcO2QKUnSnhS2Z+EQJUKHtwRdbk2GhK9bj/Lu5dUsfWv04pQ1/h8PtsxEbIPTk166lrYixW/yJTt9wc5K5TqFg61snlWG3KHKctHbjOVPKl0chSGgravPMrZi4WKqTxUooIr9/KZcypK5NV3RwKvRCyV2zIgsBoB/Rz96po6j7Y6dXopC5QorLOmUPcLuLA4WBCAAAQgAAEIQKCvBBCw+oqfh487gS+vzZtELAkuegFfb0iAUa6TOub99dwUZVPWcld9eXXelZQ5AXCdUjKVZuplVG6KSydSNpkIOdw/3snY7GLVylUJRHJi+d8oJ3TB7UsvsWJ/SeLQNjox5DS69TRvEuqK5dbLtBxlgSUXWb3ZdMKV/lHusON7Y3Z09+hkX11+mLVnc2UrVSTyLu3PMrOcHGcS7yRmxaMBO3cwafum/igVHfefMaz/DwKz2Yqps6fOkn4OeBmvc+9SYfvo9Nbn3nmZE9dAAAIQgAAEIACBcSWAgDWuO8+6+05AbpJvri+YMotU8uWlLFDlUxK63joy8UaeU98X06cJXHucs0cvS85hJXGp05AQJXVqdzrsXEoaekH9/cGizWYlYkkIab52Ykkc0QciQZ9zb8mBMZ1sCV/bOTSLJ7NFu/20YJV60+r6n5ubOSFLgpbEnTMHE7Z3Wc7Xds5xK571MlOx3x5kXU5ZNBxw61xraO9UFpaOt/K/vLhrtmLO3HNwCTydK9nlhzmrLbkxvcxUPw8KlYb73usXBwwIQAACEIAABCAAgf4RQMDqH3uePOYE7r8s2s3HeZfZ1CmLpY1KL+mSLQ5TzuKQfHl1zubzyqXyVg4kzUfhzRIMPzv/potNuTgPX5VcOaFcVxoSFdXRb89k2HX063coupxWz+ZLNp+vOjeWhoQ7ZUDJdTRqos33txbs5aIciq2OnJ2GBF656I7vidvJfaPjQuu0bv7cG4Hn8yrHzTrB2+vP3LYDc3oi5IRRBgQgAAEIQAACEIBA/wggYPWPPU8ecwIqjXr0quTK1by8nAuXyuBURrg7HbEPT7UcROM8/nF5zhYLVVcO5MXBJlYSsOLhgCsHWi30WyKIwtqlYUVDfnfNqAlDw3Bm1NRADsW24Ohlf+WmK9catisVto8p9xqGbd7WOeosfXez1YHQq+tVYle9YU4gfu94alvny8MgAAEIQAACEIAABN4kgIDFiYBAnwhcf5xzIeLNZtOVR3kZrZeppisTUxbTuA8JWJlC1fPLqHi1yzA/OjU5MkHno3gO1B3ypzuZpdwyb98PlXwWynWbSoTss/Oj1YVxFPe4H2v6180Fm12svC67XW8OcmzqPOkXDGcPJmgQ0I8N45kQgAAEIAABCEBgGQEELI4DBPpE4FW2Yr/ezVqhXLOkx1BwlbcFA347tT/uStrGffzzSkvASkS6dGBFgvbJmUnPZUTjznn5+pUJNJMpu8wwiYF6yVcu22QiaHunos611ovxarFiP99btErVe7mX5iL33GQ8ZJ9fQMDqxT6M2j1UKqxfHkiYUq7deu5Khb3LiSlB9C9nJtftUjpqnFgPBCAAAQhAAAIQGEQCCFiDuCvMaWwIuBK4YtV1j+tUpuZezlX+Fg3aR6fSq5a/jQ24pYX+68aCE1LUfFDZR52GSsxK1YZzXn1+booX0k7AVvy5RKUbT/JWqNStVvsjSF4ZVUG/OgT67OjumB3ZHXOdNTczFgs1UwaWnqVyLy9D4lpRgdvkFXnBNbbX/Hpv0WYyFSurs6U6jwb8b5Qg6xy5hg7KmIsEXNOMnanw2PJi4RCAAAQgAAEIQGBQCCBgDcpOMI+xJHDlYdaezpWdqJKI6CVq7Zd+OQYkculFSh30NqkPjATvuWzFfrmXXcq0CazLTwvOqYtjyG8n9yXs2J7YSDDYrkWog5vEK7kA5UpRR0CdR51YdUSUONh2Y6nE9fzh5KZELJXKfnl13haL3kP6nejQNNs7GabEdrsOxhA+R2fr8oOsSZDVz179c/ss6/yohUMo4HO/WDhzIGF7pyJDuEqmDAEIQAACEIAABEaPAALW6O0pKxoyAl9dm7dssWbVetOJKxIGlo92Fyy/3+fcAB+dTrsXK0aLwHe3FmwuW3X84mH/qq4qCSsKBZdAOBELuHIguS4Y3gjI+ff97UXLFWsmbNFQwJxytWJUaw3nXFFp1ql9CefE2sy4+TRv92cKrnGBui2uN+SayZdbbq1LJ1I2mQht5tF8dgwIqJxQjTT0ywH9nJVw5dyEAZ/tmAjbib1xyozH4BywRAhAAAIQgAAEhocAAtbw7BUzHVECeun/8c6iE7HUQa3ZMCcSaNT1RqUuhUG/xSN+e/toiuDxFedAzp9vb7a61Uk8CQX9FpQzyGfOEaQXUzFWdpiElUvHYdjtV0mlfK8Wq67hgBiuN8S6LTh9enbKc4fN1e6p/fzu5oJzYUkvU7OD1ZyHEq8KlYaFgz7bnQ7be8dpcNDtHo/z9XJmSpzVzwr9EiGVCCJwj/OBYO0QgAAEIAABCAwsAQSsgd0aJjZuBG4/K9jz+ZKVq29mC0mQ2ZUKu+B2XEOrnwqJWCrHVB5Wu1OjxCupHgGfz2UzpeNBO3co6TlPadzO31rrFc+vr7VK+RLRoHOodBpytOjcnutB5zZ1I/zt/qIVyir1kkjld3uqvdUea+9r9YaFQwEn7n54Mv0nF2On+fLnEIAABCAAAQhAAAIQgMDgE0DAGvw9YoZjRiBTqDk3gPSXeCRgk/EgYeMez8BCvuoyxeTGkrChXBsx3DMZcSIguWEeQS67TNlXVx7mnLutUxlf+2MSvRoNswM7Is41uNmhQPdrj3OtUtt2eHzT3H5qjyVq7UqH7dzBJOLVZmHzeQhAAAIQgAAEIAABCAwoAQSsAd0YpgUBCEBgEAgoh+ru84IrH1QJn5ch8VDlsBINPz496eUjHa+R22pmoWwvMmXnxmo0my5oW66wAzuizmHHgAAEIAABCEAAAhCAAARGlwAC1ujuLSuDAAR6QEDh7y8zFZvPV61UaTjHz0Q8aLsmQjaVHH1X153nBbv9LO/ygbw2D5CAJReW8qg+PNUbAasHW8ktIAABCEAAAhCAAAQgAIEhJoCANcSbx9QhAIGtIyCHz/2Zoj14WXQdDpWz1FDZmrXK1uT+kZB1fsRztZRB9fMdZVDVLRnz5sAqVRuO09HdMTt7MLl1m8SdIQABCEAAAhCAAAQgAIGxIYCANTZbzUIhAAGvBCRe/XYva6+yFZMDy+/zuWwl/bVpTavXzWqNpc6GYb+9czRlU8mQ19sP3XVfXJ2zhXzNYiG/BQLrp7ir1C9frjm31rvHUrYzFR669TJhCEAAAhCAAAQgAAEIQGDwCCBgDd6eMCMIQKDPBG48ydnDlyUrVeou90ni1cohoUbilv5ETixlPSlMfBTH9cc5e/SqZHJWJSJ+862Tht9i4rPJZMg+Pp12oh8DAhCAAAQgAAEIQAACEIDAZgkgYG2WIJ+HAAQGnoDLsVqs2HyuamXlWAV8NpkIuZDxiVjwje6EKpX79uaC62QYDa0uXi1fcL5Ut1DQZ4d2xlw54SgOBbh/ezNj6vKocspoyP8nUa/RaDqBSyMRCdh7J1KWjo+uK20U95k1QQACEIAABCAAAQhAYJAJIGAN8u4wNwhAYFMEJKoohPzxbOl1jpWcUy7HKtASYaaTITt3MPG6w57cRvdflqzRaHgKLVe4ebHSsFQsaJ+dn3L5WFsxJCLpOQpH14iE/J7m16u56Lk/3V20bKFm5WrDxDHgNyf+1RtmTTOXCxaPBOzcwaTtSlM62Cv23AcCEIAABCAAAQhAAAIQMEPA4hRAAAIjSUDi1Q93MpbJ11wpoN//R46VMq4kPKlbnoQglQl+cCJtiWjAvr+dsRcLZVcOuFrp4GqwcqW6xcJ+u3Qi7QSxXg6t4+lc2e69KFi11jTNXUOleZr7ib1x2zsV6eUj17yXRLRbTwv2IlO2crVpNaXaSwz0mQWDPpuMh+zsMjFwWybFQyAAAQhAAAIQgAAEIACBsSCAgDUW28wiITAYBPKl2lIpX82q9YYTiaYnQrZzIuycO70cv95btJlMxcoViUuBVcPHpQWpZFCuqdRSjpXKB9V5Lx72O9HLyyiW6xYM+u3CoaQd2BH18hFP18jp9NOdjOXLdVee12w0X+dPSUzS/FTOp7lLPNsq99dqk1U5ocRBCWqJaNAJd14FP0+L5yIIQAACEIAABCAAAQhAAALLCCBgcRwgAIEtJyCx6sbjvL3IVJzrSR38XCmfnDsq5fP77MCOiJ3cl+iJCKP8qu9vZSxXrDlhbF0hqmmWK9edEHRqf8KezpVsLlu1aNjveS4SwUJBv711OGn7pnsjYInZN9cXnMCmv48EAy5ra/lQWV+l2nBOLIlIfz03teV7yQMgAAEIQAACEIAABCAAAQj0gwACVj+o80wIjBEBuYjkaipVGlaqttxOcuqoBK6uUr56q5xPLimJTX85M+lZOFoLo1xLMwsV98cSojoNiWqap5xMCiCfyZQt6Pf/STBa6z5OKIsG7aNTaRcK34vx+4OsPZsrW7lWd3Naq/OfnFgKko9FAnZ4Z8xOH0j04vHcAwIQyMBigAAAIABJREFUgAAEIAABCEAAAhCAwEARQMAaqO1gMhAYLQIqL/v2xoJlCq2SwXh4dTdUKwi9bpGg3yaTIfvo1OSmQHx1bd51HFQuldcyQLm24pGg7ZkMu8wpOZuUidVpKJdKa5tKhuzTs71xQImF3Feak8SrTmuQCFio1J0A9/eLOzpNmT+HAAQgAAEIQAACEIAABCAwdAQQsIZuy5gwBIaHwPOFsl15kHVlcBKD1nIRaUVyEikMPRkN2gen0q6r30bHP6/MWaZQtUQk6MoUvQy5mOTWeudoyq4/ydlioeacYCrPW2tIoCu4APeAndyfsKO7Y14e1fGaR6+Kdv1x3sq1hhOwvIxsUWKXsrBSTkxjQAACEIAABCAAAQhAAAIQGCUCCFijtJusBQIDREAZV19ek5BUs1DAb+EV+U2rTVVlfPWG2WRic3lOmxGw3j+Rdl0Lrz3Ou/B05XNJxFophKnsUNeFQwqiD9uHJ9M9o//LvUXnAlOG/HoC2vIHyrWlsswju2N27mCyZ3PhRhCAAAQgAAEIQAACEIAABAaBAALWIOwCc4DACBJQwPiXV+ddGVw3uVByEsl99fe3Nl4K9/X1+a6D2PVcub8+OTvpHFX3XxTt/ouCc49JrFIZX8Bn1jRzuV1yk/3RATDlwuh7Nf5/9u48TLLsrO/8L27sS65V1bVXdW1dS++7Wt1CAnsGAwbDmE2AQAwIzOKZP+AZw8N4Gw+PPRg/gA02iBnEAEYIg1lmYxNqLb2od6m7a9+z9twzY4+4N+Z5T1RWV1XnElUZkRlx83vlslqqiHvP+ZzbJfLX73nPayebPbziMbnwr5XLtjz6DWnrcFIP7+pv5St8BgEEEEAAAQQQQAABBBDoGQECrJ5ZKgaKQG8JWPDz0jE7Ra8ZDLV6WZBkgdfXLiPAevf8rC6MV1S3vlstbMGz8KfeaGg4l9Az+9/rv2XbCI9eyLtKLAuxrFeXOznR85SMR7RxMOlOLmz39c75WY2Mld1tLSRr5TJva46/Z1PGnebIhQACCCCAAAIIIIAAAgiESYAAK0yryVwQ6CKB1QywLGyyRu4zpbqSsYjisUX6WAUNV2VlQdcDO/tcKHX7ZVsbx2aqN7YUDvfFNZjtXJ+pq1MV2SmEdnJjK43kbbxzFWRP3zfY8ne66HVhKAgggAACCCCAAAIIIIDAogIEWLwgCCDQEYFaPdAXr28hzKVjaqWXuvXNsi2Hy91CaBM6faWoM7YFsOy7ACsRW7iPVTIe1fqBuB7b3b4+VstBte2XFsDlS3WlElFXWbXYZZ+30xCtcu3DDwwv59F8FwEEEEAAAQQQQAABBBDoSgECrK5cFgaFQDgEvnx8SuOzNRde2Ql/S12lSqCIJ23oT+iJNjRFP3IhryuTFVdhZdv/7FRB+2WnB7q+VtbHKuFpIGOn9w243+uWy/pvnbxcVKniK52MLjg22yZZqgZum+b9O3LzVpB1y5wYBwIIIIAAAggggAACCCBwtwIEWHcrx/cQQGBJgalCTW+cmnFVVdlk1DVCX+iyxujFqu+qiJ49OOQqptpxjc9UdfxSQeVas0rJwivXxyrque2FW9eltGtjph2Paus9bJyvn5yRGdpphzZeO8nRmsfb1Wg05E5tbDSUSUS1rj+hR2je3tY14GYIIIAAAggggAACCCDQPQIEWN2zFowEgVAKfOXMjK5NV1Wq+krHo4rFbg2x7FS/ej1wAZOFXJuHkzq0va/tFvb80emqq8ayLYXr+xOu8ur2yyqz6kFDtp3RDgC0UwCvZ0ZtH9NSN7QxWEN3679lPlZtNXdFFHFbC63J+6bhpA5szS11O34fAQQQQAABBBBAAAEEEOhZAQKsnl06Bo5AbwjMVRLZiX7Fat0FQxa82PY929Znv+yvrYn6UC6uR3f3r8rErN/UsUsF2ThtjHOXjXXf5ozbmrdYBVknB23bCG07pG0VNC+7bLtjLh3VoW25RZvUd3Jc3BsBBBBAAAEEEEAAAQQQWCkBAqyVkuY5CKxxgfOjJZ0bLbltfDU/kOUwtqPQKpwScU97N2W0aej9JwB2ms3CqqMX8ro8WVHFNUMPblRc2e/N9cmyPlSP7e5XOhHt9JA6cv+5vl82J7eF0ousWiDXkQlyUwQQQAABBBBAAAEEEAi1AAFWqJeXyYVVwMII6xllIZCFEXPNyXthvlbhNDptYVFD6YSnewaSyqZWLxT66tlZXZtuNnq3PlO2Je/mLYMWuFVqvmIxz21xfPq+QSXj7enPtRLrZVsirSH8yFj5lsoym+OW4aR2b8xQwbUSC8EzEEAAAQQQQAABBBBAYFkCBFjL4uPLCKysgG0fuzBe1tmrRd3UDskFLhsGEtq7OesCGK7WBOyEwsMjeddk3sI0C7DmvRoNFSqB2/poWwlXa5tja7N671PWAP7N0zPuxEXbfig1G9ir4f5KqUTEVcA9sLPPnfzIhQACCCCAAAIIIIAAAgh0qwABVreuDONC4DYBC1nsRL9qPXBhhJ1Cd3MYkYxH3Ml9ezdntG19Wguf9wftnMDLxyY1Pltz2+lsG+NiVyNoKF/xXbXYY7sHXL+ubr5mijW97k6A9F1iZVsfrVJv7gqCZqhlHbWssuzBewmxunk9GRsCCCCAAAIIIIAAAmtdgABrrb8BzL8nBAoVX6+emFKh7MuCh1Qi6qqBboQRjYbK1WZfqUzS+klltfOedE/MbbUGaYHgK8enXfVVLhVr6aTBctVXJBLRro0Z7d+aXa2hL/lc63P1/DvjLryyorLF+nbZnOqBlEtF9ezBIReCciGAAAIIIIAAAggggAAC3SZAgNVtK8J4ELhNwCpkXjo6qcl83VXS2Gl9C11WnVWtN1xFzRN7B9SfiXWdp22DvH6QnmvifnNV0EoO9vxYSUdHCq6h/GKmN4/JPms9sTYOJvTE3sGVHO4dPevUlYJOXy3JTi/sSy/9DlgwmohHtHNDM5izAMzWyd49i0k9r9nMngsBBBBAAAEEEEAAAQQQWC0BAqzVkue5CLQocHGirCMjeddkvJVKIQstPC+iLcMpPXRvX4tP6ezHLAiZLtT0zvm8O+XPAhK7LBNJJTw9tLN/xRu5n7pS1MnLRQVB4CraWrks1CnXAq3rS+iZ/d0ZYBnt82+Pa7bku2q8VgJCq+qzHl9WhbVrY9qdFulCxpvWyU6ItMq+eIwgq5V3hc8ggAACCCCAAAIIIIBAewUIsNrryd0QaLvAK8enNDpTUzyqlk6LsxMKC+VAfbYl7NDqbwmz0Of1k7ZVz3c9l/zAmom/d7mT/xKeBrMxPbproKWtfO1Atmb41sDdArU7r8BKugq3brzmtg/OluotVV/NzcE+b5eFeRXXG+t6etWMGt0axaMRHdqec43suRBAAAEEEEAAAQQQQACBlRQgwFpJbZ6FwF0IfOmIbR+supCl1W1chXLdBRFP7BnQ4Co2G7fKnhePTqlY9WW9lqy/UvK2ZunWu2tuG59tfXzmwNBdKN35V6yi7eVjU3fUA6tU9eVFPO3elNZ9W7qzB5ZVTn3+HavAaj3Asu/MFJsB1lzPrFt6rN3W8P3g9qw2D6XuHJ1vIIAAAggggAACCCCAAAJ3KUCAdZdwfA2BlRL4wrsTmi7WlE221mjcxmXhjJ2q9+iufq3vT6zUUN/3nOMXCzo/WpIFP3Z6nzVAn+9qVo01t0ju2ZRpewN6txvOSpNubImLuEqvLx+f0thM1W2zuz1Yu32czW12zTE+vndAA13YX8zGfDcVWNbIvu43+131ZxZep0rNwsaG22r49H2DLVeurdoLyIMRQAABBBBAAAEEEEAgNAIEWKFZSiYSVoEbFViJqOtt1cplgYSdPGfb3Aaz8Va+0vbPWNjxwtFJ5Ut111R+qbH7fsNValnj+Y88sK4t47Ew5+JEyfW6muu7NXdj6+k0lI27bYRNL0+2nXG+y8IvC68Ssag2DyX00L39bRnf3dykGca5qMpt7bMg7va34nN30AOrWgvc1k67m01/qabvFo5addb29Wm3nZALAQQQQAABBBBAAAEEEFgJAQKslVDmGQgsQ+CVE1Mana4pFpXbgrfUdaMHVjqqZw+uXg+sS5NlHT6Xd03Prfqqlcu2vVmFUztOULQti6+cmJadzOgCmlsSrPd6OsVjnio131WAWSWWBX83F4rZ9y2MM3ubxzP7h1yAs9KXras1nr8wVr7l0TYSa7y+Y0PmxrjPXms2qLewaalAaq76yrJRm6P1ulrsuvn9+tCh4VWxWGl7nocAAggggAACCCCAAAKrL0CAtfprwAgQWFTgsgVB5/M3tq8tsAvvxj0stLAgZuu6lB7cuXqnEH717IwujldcqLLU9ry5wTd7TEW065609m+7++qecq3Z38pCKWsib6HULT2dGg2VKs2qI6sOSyc9WS8uC6ossLr58jxPmYTnPvPk3sFVCWwm8zW9dWZGdb/hwrgbeyHdQCPutMGYF9HT+wfdXOdOIrTG+RZMLdakfqZQl93Rqq9aOeXSnmihVybR3EaYS8f4OxgBBBBAAAEEEEAAAQQQ6LgAAVbHiXkAAssXeOmYNXKvy/owLVbNdHOPoif3DbhAYrWu105O6+pUVfGYFF9ga97tY7PwyA+kLcNJPbLr7rfpvXBkUlOFujtJzwKqha6bvR7bPaDT14qaytdu+bgFX/fv6NPwKjXDn8hX9daZWRfG2d7BdDLqAsq5ywI6Cy2tv5j1pvrA9RDLwsBmk3rfVZ9ZiDXf98zbLvtuq5VlNhar1LJAbyC7eu/Yar3bPBcBBBBAAAEEEEAAAQRWXoAAa+XNeSICdyxgQYuFWNaHyXpFLVVRZCfkbVu/uqfErVYF1qWJso6M3FnFmgU329aldf+Ou6/6uuNFbeELFuhZGGch1NzpgAt9zUIsO02wLx290UNsLsRqhlzvr9yyvl+21bL5vdYPCaACq4XF4yMIIIAAAggggAACCCDQVgECrLZycjMEOidg2+JeOT6tWj1QcZGeTge2ZbV5aHXDK1NYrR5YLx+b1NhMXYl4a5VfN/d0eu7QsOKr0N9qobfm+KW8zl4ryRqtZ1uoprMeYlZptW9LVjs3pN1tbTvhuWslnblafN9jdmxI6/JE2VWr2TbPViqw6IHVub/HuTMCCCCAAAIIIIAAAggsLECAxduBQA8JWB9yC4ZOXirKgoSbr42DSVnlVSshxEpM+U5PIWz2d1r+KYRfPDyhqULNBTnWT6uVa66i6Ml9g+4UxG64rGrqC+9OaLbkux5XN2//W2h89aDZ26s/814V1s2ftVemeXahbjR8Hxkr6djFQrPhu4VkS5BxCmE3vB2MAQEEEEAAAQQQQACBtSdAgLX21pwZh0TAtn3NNfOOKHLLyXndMsXjFws6P1pywZT17rI+TfNdzaoe3/Xs2rM5c6N66G7mYaHPdLGmbLL1LXG2NTMV9/T4ngENrVKvq9vnak3lXzxq20abJzO2elkVlm0H/NoH17X6FVnoN12su+xqsYbvN/cM+8B9g64fFxcCCCCAAAIIIIAAAgggsBICBFgrocwzEFijAtZ0/sWjUypWfddrKRHz3ncioQU1NT9wwYk1XH/mwNCytMJSgWWVTi8dm1JxBQIse9Yrx6eUtz5a853aaJVdtm31+qmNB7fntHkouax14ssIIIAAAggggAACCCCAwJ0IEGDdiRafRQCBOxawrXCvn5pWvuS7EMQPrh97d/1OsagnayZup9k9untgqR1sSz7fmt2Pz9SUiEdaOv3wlh5YB4cUj3lLPmMlPmBVay8dnVqRCiybj1WhvXZi2oWJtg3RTnB874q4UwetP9ih7TnZdlUuBBBAAAEEEEAAAQQQQGAlBQiwVlKbZyGwhgVsi9rb52ZdE/q5aMS2rFkw8tDOfrfFsB3XhfGSjl5o9nSyrXdLtcGyz1l/qa3rUnpwZ187htCWe9zcAyub9OR5S/fzmjttcKEeWEsNzMK8kbGya/g+1y/LvmNPtoqrPZuzXdXkfqn58PsIIIAAAggggAACCCAQHgECrPCsJTNBoCcELGSZ6z9vmUwrwcydTuyFI5OukbtdrfR0sq2LT903qFybQrQ7He9Cnz96Ie96iFXrjZYCvrlTCHdvymj3xsxdD8PWx8KsuXWygG+pIPCuH8YXEUAAAQQQQAABBBBAAIEWBAiwWkDiIwgg0FsCth3u1eO2/a7Z0ymViN5yOqOFM81tcnJ9t/ZtyWj7+nTXTdKaplsj93zZl+1stHksdJUqvvyG1JeO6sMPrFv2Vsyuw2BACCCAAAIIIIAAAgggsKYFCLDW9PIzeQTCK5Av1/X6qRm3ZdE1IG80XKjT3L4YUTIecU3l79ua1dbhVNdCXJuu6J1zeRfG2fitX9jNVWtW0Wb9smxOVkH2xN4BdwohFwIIIIAAAggggAACCCAQJgECrDCtJnNBAIFbBCzcuWA9na4VdXPveNsOd89gUns3Zd53KmI3Eo5aiHU+7xqsl6sWwTXclr7mFr+IC7Wswfqje/o1kIl34xQYEwIIIIAAAggggAACCCCwLAECrGXx8WUEEOgFAQt66q73VrP+KuZFOtJ7q5MW1Xqg01dLujxRvtGbysVXEWnHhrR2bkjfsk2yk2Ph3ggggAACCCCAAAIIIIDASgsQYK20OM9DAAEEliFgPb2aYVwzvIpFI/LosL4MUb6KAAIIIIAAAggggAACvSBAgNULq8QYEUAAAQQ6KmCN/a9NVzWZr7leY4O5uDYOJBQhHOyoOzdHAAEEEEAAAQQQQKBVAQKsVqX4HAIIdI2ANWgfna6qXAtcI/YNA3H1p+n91DUL1EMDsT5pr5+cVrHqq15vqBY0m/3bNtNYLKJMIqYn9vVT5dZDa8pQEUAAAQQQQAABBMIpQIAVznVlVgiEUuDqVEUnLxdVqQWuofncNrp41FMiHnF9oLavT4dy7kyq/QKzpbreODXjTnG00yqt2sqCK7vcNk01ZO9WOhnVE3v6lU1xumP7V4E7IoAAAggggAACCCDQmgABVmtOfAoBBCTZNqtz10qyIKnmN/sweV5EyVhE927MaEN/omNOb52Z0cRszVXKWB+oqBdxv/xGQ77fcBUyFjQMZGJ6bA8VMx1biJDc2AKrF45MKl/23YwyyajrKXbzFTSkUsV3FVnZdFQfOjTs3jkuBBBAAAEEEEAAAQQQWHkBAqyVN+eJCPSkwPhsVUdG8ipVA1cBZdUpc5cX8ZRKRNSXjumRXf1uW187L3vupYmyChVfqbinWNS7JWywkdj2r3LNVzoR1cbBhB66t7+dQ+BeIRKw9+Xlo1OaLtZU9xvKpqKLzq5Q9l2z/IFMXM8cGAyRBFNBAAEEEEAAAQQQQKB3BAiwemetGCkCqyZwbaqid0fyKlZ8V4WVikfleVJEERdkWQhgoVY85qkvFdVT9w22LcSySpkvHZmUbffKJDxFowuHY9bPyMaYS8X0+J4BDWTZ8rVqL00XP7hS8/XCkSlZLzV7V5bq026VhvZZC2g/dGjIBahcCCCAAAIIIIAAAgggsLICBFgr683TEOg5AesP9MrxaRcg2c/tFl65PVW3XY2GhUeBotGI1vfF9eS+9lSqvH5q2jVst22DtkVwqatcteowaV1fXE/f154xLPVMfr+3BM6PlXTsQkHVWqDMEtVXczOzKqxk3NPB7TltW5fqrQkzWgQQQAABBBBAAAEEQiBAgBWCRWQKCHRS4MiFvM6PllyVlfUJWuyyEMt6CtmWLNvC146eWM+/Pa6ZUmuVMjY2C6/y1z9vPYviMXoWdfL96MV7v3lmRpcnKopGpES8tWoqC7v8hrRlOOm2yXIhgAACCCCAAAIIIIDAygoQYK2sN09DoKcE7KS/Fw7b9j1f6aTXUgPraj1Q3ZfrQ/XE3oFlz/dzb4+76i/bvtXqZdu9MsmYntk/uGTo1uo9+Vx4BN44Na0rU1VZqzbb9trKNRdgbR5K6tHdBFitmPEZBBBAAAEEEEAAAQTaKUCA1U5N7oVAyASmi3W9dmLKnfxnvYJauWyrn31+OJfQsweHWvnKop8hwFo2ITe4TeDUlaJOXi60VFU491XrrRaPetq3JaNdGzOYIoAAAggggAACCCCAwAoLEGCtMDiPQ6CXBOzkwTdPz7gG7UttH5yblzW8LlTq7sS2r7l/eNnTndtCeCcVWFaxZYHbc4eG2tZMftkT4QZdI1Ao1/Xl49Oyf8+1WNk390598MCgUomle7F1zWQZCAIIIIAAAggggAACIREgwArJQjINBDohMJmvyZqol6vW16rFCizXzN3XUDau5w4tP8B64cikpgrNBvLWRHupq1pvyLY+DmRieu7g8JInzC11P34/fAJBQ/rCuxMuwPIiEaUSi79XJTsYoNFwfw98+H7eqfC9EcwIAQQQQAABBBBAoBcECLB6YZUYIwKrJGCVVxYgWWP2XCraUhhU8xuyPljWwL0dpwDO2DbGk9OyvlbNMSzclN1CBjstzqrF7t/Rp01DyVWS47HdLjBTrOm1kzPufYlFFw6x7FRLO8Agm47qqb0DLVdsdfv8GR8CCCCAAAIIIIAAAr0mQIDVayvGeBFYYYE3TzcbXtvxfktVqsxtH0zFo9q3Jat770m3ZbSvHJ/SZKHmgrF0IjpvM3nrvVWqWhjhaSAbc+GZVddwIbCQwMhYSScuFd17Y+9u1Iu4MMsuC63qQUNeRO6d2781q63rUmAigAACCCCAAAIIIIDAKgkQYK0SPI9FoFcEbBuh9cEqVHwlY5FFT22zrYa2PWsgG5f1CmpXgOQHDb18bEpWjWVVYZZLuV/2r+sZVdBoyIIzC9ksvGplu2GvrAHj7JyA9Xl7+1xedb9ZaWXvml1zYZYFog/dm3OHEnAhgAACCCCAAAIIIIDA6gkQYK2ePU9GoGcETlwq6NxoSdYLKOZFXDh0c3GT/dBvwZL96J9NRvXwrr62/sBvlVcWoo3PVGU9rpoRw3uXjcV6ZFmFzIM7+hYN2XoGnYGumIC9vxbUjs5UZc3a7epPx7S+P6GhXHzeir8VGxwPQgABBBBAAAEEEEAAASdAgMWLgAACSwpYb6mTV4oaGS2rUg9Uq9vWqoYrg7Lfs1ooq85KxqM6tCPn+l+167LwyqqvrAKsVg9unCpoocP1YhnZ9sFoNOJ6ZD1hfYpabDjfrjFyHwQQQAABBBBAAAEEEEAAgc4KEGB11pe7IxAqgalCTWeully1im3Zs8t28Fl4tHkopZ0b0kv2ybpTEGsiP12su5DKmrPP19bKhmJ9jOz3+tIxPbN/6EYvozt9Hp9HAAEEEEAAAQQQQAABBBDoPgECrO5bE0aEQNcL2HZB63flN6R4NOKaXM81v27n4K9OVfTO+Vl3UpxVVS3Vk91OKrSx3Lclqx0b2tNAvp3z4V4IIIAAAggggAACCCCAAAJ3J0CAdXdufAsBBFZA4AvvTrjG7YmYp3hs6RMFrQl3uRa4/kUfun+obU3kV2CqPAIBBBBAAAEEEEAAAQQQQGARAQIsXg8EEOhagc+9Pe6aatu2wFYv+7xVaz17cIiTCFtF43MIIIAAAggggAACCCCAQJcLEGB1+QIxPATWssDdBFi2jTCTtD5Yg65nFhcCCCCAAAIIIIAAAggggEDvCxBg9f4aMgMEQitwtwFW1gKsA4OuHxYXAggggAACCCCAAAIIIIBA7wsQYPX+GjIDBEIr0AywfGVTXkv9rBqNhvLlQH3pqD50aLitjeWtsuvCeFn5kq9qPXDjSSc9re9PaPNgUp63dI+u0C4UE0MAAQQQQAABBBBAAAEEOixAgNVhYG6PAAJ3L/Du+VldHK+4wCibWrqaqljxFfUi2jyc1MP39t/9g2/6ph80dPxiQZenKqrWGvKDQI1G8wMWWllz+Vwyqv1bsxruS7TlmdwEAQQQQAABBBBAAAEEEEDgVgECLN4IBBDoWgELj+wkwnzZVyIaUSLuLTjWWj1Qpd5QNhnV0/sH3b8v97Lnv3l6RhP5miq1ZjgWj3qKXC+2st+v1hvuv08nPB3antPGweRyH8v3EUAAAQQQQAABBBBAAAEEbhMgwOKVQACBrhawbXtWAVVw1VVyJwva9r25y6qhKrVA9aChTMLTrk0Z7d6YacucDo/k3bZBC6/S8aii0fdvE2w+31fQkHLpmJ7cO0Dz+LbocxMEEEAAAQQQQAABBBBA4D0BAizeBgQQ6HqBc9dKOn216IIqq3jyIg1FIhFZzysLjqwqyoKtHRtS2rMpe6NCajkTy5fqeuXktArl+oLh1c33n9u+uHU4pQfv7VvOo/kuAggggAACCCCAAAIIIIDAbQIEWLwSCCDQEwIzxbrOXCtqYrYm27pnlU9WiGXVWIO5uHbdk9ZQLt62uRy5kJcFZ0Gj0dJphkHQULHabCD/7MEhF6pxIYAAAggggAACCCCAAAIItEeAAKs9jtwFAQRWSKBaCzRbrqtWb7hTBm3bXmqR3lh3O6xXT0zp2nRViZjX8mmGhbKvVMLTI7v63emEXAgggAACCCCAAAIIIIAAAu0RIMBqjyN3QQCBkAm8cHRSk7M1F0hZk/ZWrlLFVyzm6dC2nLatT7XyFT6DAAIIIIAAAggggAACCCDQggABVgtIfAQBBO5coFoPdHmyoql8TaVqIEXkTgYczsW1aSjZcih0509uzzdeOjap8Zk7C7CsD1Y85umBHTltGSbAas9KcBcEEEAAAQQQQAABBBBAQCLA4i1AAIG2ClhvqpGxkk5fKarqN1T3A9do3a5oJOK241nD9f1bs9o4mGzrs9t5s7fOzOjSRMWdfGjbCJe6bIqFUl3ZVExP7RtwWxu5EEAAAQQQQAABBBBAAAEE2iNAgNUeR+6CAAKSa6x+7GJeF8fLrurKmqxbYGXBlV1+o+F6V9l/TCei2rM5o50b0l1pd2G8pCMjBXfyYSYZXfJkQ6s4q/sNDfeLrVdmAAAgAElEQVTF9cz+oa6cE4NCAAEEEEAAAQQQQAABBHpVgACrV1eOcSPQhQKXJ8s6PFJQsVx3VVa2nW6+y0IhC7Jy6aie2Dugvi6sVrJTBV8+PuW2QFrglkpEFxS3UxGt/1U6GdX+rTltp/9VF76dDAkBBBBAAAEEEEAAAQR6WYAAq5dXj7Ej0EUCNb+hFw5PKF/2FY9GlFjiZMByNVCj0VB/Jq7nDnVnxdLYTFVvn5tVoeLLojgL5bybGrrbtsF6PXBVWsl4VBsGEnp0d38XrQpDQQABBBBAAAEEEEAAAQTCIUCAFY51ZBYIrLrA6HRFXzk7KwumsqmFq5XmBmrhT75Ud9VXzx4YWjLwWq0JXpms6NilgquwspDONkN6XnO7pFVpWaBlwda6voQe3NnntkxyIYAAAggggAACCCCAAAIItFeAAKu9ntwNgTUrcHgkr/OjJRfspBJLNz03KHdqX9TT/m3Zru2FNTfOk5eLmshXXZ+ruab0MS+idNLTtnVptg2u2TefiSOAAAIIIIAAAggggMBKCBBgrYQyz0BgDQi8enJa16YqbvvgQr2vbmewrXcWeG1bn3LVS91+1eqBpot116DeTie06rFu7N/V7Y6MDwEEEEAAAQQQQAABBBC4UwECrDsV4/MIIDCvwBunpnVlqqKoF1Figebtt3+xXPVlHdLtJMJD23PIIoAAAggggAACCCCAAAIIIDCvAAEWLwYCCLRF4PTVok5eKqruB+40vlYua/ieTnh6+N5+1wCdCwEEEEAAAQQQQAABBBBAAIH5BAiweC8QQKAtArOlul45Ma1iua5sKmaFVYte1gDdemD1ZWL68P3Diiz1hbaMkpsggAACCCCAAAIIIIAAAgj0ogABVi+uGmNGoAsFrJfVqyemNJGvyQ8ayixShdVoNFSoBErGPG0cTOjhXf1dOCOGhAACCCCAAAIIIIAAAggg0C0CBFjdshKMA4EQCJQqvr58YkqFsu+as9v2QM+7tRTL9xsq1QLZCX65dFTPHRyi+ioEa88UEEAAAQQQQAABBBBAAIFOChBgdVKXeyOwBgWmCzV99eys2x5Y9Ruy+MpO7GtI8gO5/2xN3i28enzPgJJxbw0qMWUEEEAAAQQQQAABBBBAAIE7ESDAuhMtPosAAi0J1OqBDl8oaCpfU80PXHBllx1OGI95Wt+f0MFtWSqvWtLkQwgggAACCCCAAAIIIIAAAgRYvAMIINAxAWvUPp6vKV+qu7CqPxPTUNYavC/R4b1jI+LGCCCAAAIIIIAAAggggAACvShAgNWLq8aYEUAAAQQQQAABBBBAAAEEEEAAgTUkQIC1hhabqSKAQPsEqvVAlVrgmtXHohHXyyt6W8P69j2NOyGAAAIIIIAAAggggAACa1uAAGttrz+zRwCBOxSYKtR06kpR04W6Go2Ga05vWyLtVMUdG1Latj6luHWt50IAAQQQQAABBBBAAAEEEGibAAFW2yi5EQIIhFkgaDR0/GJBlyYqqtQDWaN6a+UVUUTXYyyl4p5SCU8P39vv+n1xIYAAAggggAACCCCAAAIItEeAAKs9jtwFAQRCLnB4JK9LE2WVKr5iUc9tGbQKrJrfkB80ZA3r/evbCbPJqJ7cN6BcihAr5K8F00MAAQQQQAABBBBAAIEVEiDAWiFoHoMAAr0rcG2qorfP51Us112Fled5Kld9F1xZDyzbRuiu639tlVnr++L64MEheZy42LsLz8gRQAABBBBAAAEEEECgawQIsLpmKRgIAgh0q8CrJ6Y0OlN1YZQ1bC9WfAUWVjVsC6H1wLqRX7n/zi7r575tXUqP7Rm48fvdOj/GhQACCCCAAAIIIIAAAgh0uwABVrevEONDAIFVFbCw6uVjU8qX68qmoi688v3rIdUCvdqDoFmVlYhFdN/WrPZtzq7qHHg4AggggAACCCCAAAIIINDrAgRYvb6CjB8BBDoqcHmyonfOzapaD1wFlv27VVl5ixw0aL9vFVpWmTWQiemZ/UNu6yEXAggggAACCCCAAAIIIIDA3QkQYN2dG99CAIE1InBhrKzDF/Kq+4HqrmF7c3vgYq2trPrKqrDsM+lEVPfek9L+rbk1IsY0EUAAAQQQQAABBBBAAIH2CxBgtd+UOyKAQIgErk1X9JUzsypV/WbD9iWqr2zqcxVYUU+KehFtHEzqib0DIVJhKggggAACCCCAAAIIIIDAygoQYK2sN09DAIEeE6jUAr14dFIzxfqN0watAmuxy7YP2hXzrBdWRMO5uJ49ONRjM2e4CCCAAAIIIIAAAggggED3CBBgdc9aMBIEEOhSgTdPz+jyRFmVesNtC1wswJqrvrLPpOKean5Dw31xffAAAVaXLi/DQgABBBBAAAEEEEAAgR4QIMDqgUViiAggsLoCVn316skpzRSbxw/a1sD5rpubt8ejEcVjnur1QBuHknp8D1sIV3cVeToCCCCAAAIIIIAAAgj0sgABVi+vHmNHAIEVEzh7rai3z+ZVv74/8PZG7vZfW4BlFVrW9yqb9FSqBi7E2rMp435xIYAAAggggAACCCCAAAII3J0AAdbdufEtBBBYgwLvnJvVqatFd8Lg7ZcFV9Yay8KrTLK5ddB+9aVjevbAkGLRJRpnrUFPpowAAggggAACCCCAAAIItCpAgNWqFJ9DAAEEJL10bFLjMzXV/WY/rLngKhKJKBn3FI1GVK0GLrzKpqLatyWj7evT2CGAAAIIIIAAAggggAACCCxDgABrGXh8FQEE1p5ArR7olRPTKlZ8lWu+HTPoqqsswPKDhvvVrMKKavv6lPZuzq49JGaMAAIIIIAAAggggAACCLRZgACrzaDcDgEE1obA4fN5jc5UXSVWzQ8sx1I0Yo3bI4pHPT2wI6fBXHxtYDBLBBBAAAEEEEAAAQQQQKDDAgRYHQbm9gggEG6B8dmaRqcrLsjKpWPaNJhUKrHAMYXhpmB2CCCAAAIIIIAAAggggEDHBAiwOkbLjRFAAAEEEEAAAQQQQAABBBBAAAEE2iFAgNUORe6BAAIIIIAAAggggAACCCCAAAIIINAxAQKsjtFyYwQQQAABBBBAAAEEEEAAAQQQQACBdggQYLVDkXsggAACCCCAAAIIIIAAAggggAACCHRMgACrY7TcGAEEEEAAAQQQQAABBBBAAAEEEECgHQIEWO1Q5B4IIIAAAggggAACCCCAAAIIIIAAAh0TIMDqGC03RgABBBBAAAEEEEAAAQQQQAABBBBohwABVjsUuQcCCCCAAAIIIIAAAggggAACCCCAQMcECLA6RsuNEUAAAQQQQAABBBBAAAEEEEAAAQTaIUCA1Q5F7oEAAggggAACCCCAAAIIIIAAAggg0DEBAqyO0XJjBBBAAAEEEEAAAQQQQAABBBBAAIF2CBBgtUOReyCAAAIIIIAAAggggAACCCCAAAIIdEyAAKtjtNwYAQQQQAABBBBAAAEEEEAAAQQQQKAdAgRY7VDkHggggAACCCCAAAIIIIAAAggggAACHRMgwOoYLTdGAAEEEEAAAQQQQAABBBBAAAEEEGiHAAFWOxS5BwIIIIAAAggggAACCCCAAAIIIIBAxwQIsDpGy40RQAABBBBAAAEEEEAAAQQQQAABBNohQIDVDkXugQACCCCAAAIIIIAAAggggAACCCDQMQECrI7RcmMEEEAAAQQQQAABBBBAAAEEEEAAgXYIEGC1Q5F7IIAAAggggAACCCCAAAIIIIAAAgh0TIAAq2O03BgBBBBAAAEEEEAAAQQQQAABBBBAoB0CBFjtUOQeCCCAAAIIIIAAAggggAACCCCAAAIdEyDA6hgtN0YAAQQQQAABBBBAAAEEEEAAAQQQaIcAAVY7FLkHAggggAACCCCAAAIIIIAAAggggEDHBAiwOkbLjRFAAAEEEEAAAQQQQAABBBBAAAEE2iFAgNUORe6BAAIIIIAAAggggAACCCCAAAIIINAxAQKsjtFyYwQQQAABBBBAAAEEEEAAAQQQQACBdggQYLVDkXsggAACCCCAAAIIIIAAAggggAACCHRMgACrY7TcGAEEEEAAAQQQQAABBBBAAAEEEECgHQIEWO1Q5B4IIIAAAggggAACCCCAAAIIIIAAAh0TIMDqGC03RgABBBBAAAEEEEAAAQQQQAABBBBohwABVjsUuQcCCCCAAAIIIIAAAggggAACCCCAQMcECLA6RsuNEUAAAQQQQAABBBBAAAEEEEAAAQTaIUCA1Q5F7oEAAggggAACCCCAAAIIIIAAAggg0DEBAqyO0XJjBBBAAAEEEEAAAQQQQAABBBBAAIF2CBBgtUOReyCAAAIIIIAAAggggAACCCCAAAIIdEyAAKtjtNwYAQQQQAABBBBAAAEEEEAAAQQQQKAdAgRY7VDkHggggAACCCCAAAIIIIAAAggggAACHRMgwOoYLTdGAAEEEEAAAQQQQAABBBBAAAEEEGiHAAFWOxS5BwIIIIAAAggggAACCCCAAAIIIIBAxwQIsDpGy40RQAABBBBAAAEEEEAAAQQQQAABBNohQIDVDkXugQACCCCAAAIIIIAAAggggAACCCDQMQECrI7RcmMEEEAAAQQQQAABBBBAAAEEEEAAgXYIEGC1Q5F7IIAAAggggAACCCCAAAIIIIAAAgh0TIAAq2O03BgBBBBAAAEEEEAAAQQQQAABBBBAoB0CBFjtUOQeCCCAAAIIIIAAAggggAACCCCAAAIdEyDA6hgtN0YAAQQQQAABBBBAAAEEEEAAAQQQaIcAAVY7FLkHAggggAACCCCAAAIIIIAAAggggEDHBAiwOkbLjRFAAAEEEEAAAQQQQAABBBBAAAEE2iFAgNUORe6BAAIIIIAAAggggAACCCCAAAIIINAxAQKsjtFyYwQQQAABBBBAAAEEEEAAAQQQQACBdggQYLVDkXsggAACCCCAAAIIIIBA1wnMluo6P1rS6HRVpWqgSETqS0e1aSipHRsyikcjXTdmBoQAAgggML8AARZvBgIIIIAAAggggAACCIRKwA8aOnx+VmeulRQ0JDXc/3OXRVYWZMVjET20s0/b1qdDNXcmgwACCIRVgAArrCvLvBBAAAEEEEAAAQQQWIMCFl59+fiUq7py4dX1wGqu1srlWdf/+6gnHdyW074t2TUoxZQRQACB3hIgwOqt9WK0CCCAAAIIIIAAAgggsIjAu+dndPJys/LKKq28BXYJBkGzKivmSc8eHNJwXwJXBBBAAIEuFiDA6uLFYWgIIIAAAggggAACCCDQukC+VNffvj0uP1g8vJq7o/ucpP5MTF/30LrWH8QnEUAAAQRWXIAAa8XJeSACCCCAAAIIIIAAAgh0QuDYxbyOXCi4LYK2PXCpyz5nlVr22b/78DplkrGlvsLvI4AAAgiskgAB1irB81gEEEAAAQQQQAABBBBor8Dn3x3X5GzdlVUttHXw9ifOVWvt35p1/bC4EEAAAQS6U4AAqzvXhVEhgAACCCCAAAIIIIDAHQr8xRujKlUDF15Z/6tWLuuFZdfWdUk9uW+wla/wGQQQQACBVRAgwFoFdB6JAAIIIIAAAggggAAC7Rf4qzdHVagEizZvv/2pc32wtm9I6fE9A+0fFHdEAAEEEGiLAAFWWxi5CQIIIIAAAggggAACCKy2wJePT+ryZNUdL+i10APLxmsBllVsPbq7Xzs2pFd7CjwfAQQQQGABAQIsXg0EEEAAAQQQQAABBBAIhcCF8ZJePznjGrO3so1wrol7IhbRNz6+QZFW9x2GQotJIIAAAr0lQIDVW+vFaBFAAAEEEEAAAQQQQGABAT9o6G/eGlOx2mxstdhJhHPhlWVWW4fpf8VLhQACCHS7AAFWt68Q40MAAQQQQAABBBBAAIGWBUanK3rp2JTbGmjXfJVYN4dX6YSn//aR9VRftSzMBxFAAIHVESDAWh13nooAAggggAACCCCAAAIdEjg/WtJXzs7KKrIsrLLLDiW8/pfN/xyRMglPzx4cUjYV69BIuC0CCCCAQLsECLDaJcl9EEAAAQQQQAABBBBAoGsEZks1vXVmVpP5mgux5sIrC7Ji0Yg2DyVd43b6XnXNkjEQBBBAYFEBAixeEAQQQAABBBBAAAEEEAitQKXm68J4RYVy3YVVw7m4tgwnCa5Cu+JMDAEEwipAgBXWlWVeCCCAAAIIIIAAAggggAACCCCAQEgECLBCspBMAwEEEEAAAQQQQAABBBBAAAEEEAirAAFWWFeWeSGAAAIIIIAAAggggAACCCCAAAIhESDACslCMg0EEEAAAQQQQAABBBBAAAEEEEAgrAIEWGFdWeaFAAIIIIAAAggggAACCCCAAAIIhESAACskC8k0EEAAAQQQQAABBBBAAAEEEEAAgbAKEGCFdWWZFwIIIIAAAggggAACCCCAAAIIIBASAQKskCwk00AAAQQQQAABBBBAAAEEEEAAAQTCKkCAFdaVZV4IIIAAAggggAACCCCAAAIIIIBASAQIsEKykEwDAQQQQAABBBBAAAEEEEAAAQQQCKsAAVZYV5Z5IYAAAggggAACCCCAAAIIIIAAAiERIMAKyUIyDQQQQAABBBBAAAEEEEAAAQQQQCCsAgRYYV1Z5oUAAggggAACCCCAAAIIIIAAAgiERIAAKyQLyTQQQAABBBBAAAEEEEAAAQQQQACBsAoQYIV1ZZkXAggggAACCCCAAAIIIIAAAgggEBIBAqyQLCTTQAABBBBAAAEEEEAAAQQQQAABBMIqQIAV1pVlXggggAACCCCAAAIIIIAAAggggEBIBAiwQrKQTAMBBBBAAAEEEEAAAQQQQAABBBAIqwABVlhXlnkhgAACCCCAAAIIIIAAAggggAACIREgwArJQjINBBBAAAEEEEAAAQQQQAABBBBAIKwCBFhhXVnmhQACCCCAAAIIIIAAAggggAACCIREgAArJAvJNBBAAAEEEEAAAQQQQAABBBBAAIGwChBghXVlmRcCCCCAAAIIIIAAAggggAACCCAQEgECrJAsJNNAAAEEEEAAAQQQQAABBBBAAAEEwipAgBXWlWVeCCCAAAIIIIAAAggggAACCCCAQEgECLBCspBMAwEEEEAAAQQQQAABBBBAAAEEEAirAAFWWFeWeSGAAAIIIIAAAggggAACCCCAAAIhESDACslCMg0EEEAAAQQQQAABBBBAAAEEEEAgrAIEWGFdWeaFAAIIIIAAAggggAACCCCAAAIIhESAACskC8k0EEAAAQQQQAABBBBAAAEEEEAAgbAKEGCFdWWZFwIIIIAAAggggAACCCCAAAIIIBASAQKskCwk00AAAQQQQAABBBBAAAEEEEAAAQTCKkCAFdaVZV4IIIAAAggggAACCCCAAAIIIIBASAQIsEKykEwDAQQQQAABBBBAAAEEEEAAAQQQCKsAAVZYV5Z5IYAAAggggAACCCCAAAIIIIAAAiERIMAKyUIyDQQQQAABBBBAAAEEEEAAAQQQQCCsAgRYYV1Z5oUAAggggAACCCCAAAIIIIAAAgiERIAAKyQLyTQQQAABBBBAAAEEEEAAAQQQQACBsAoQYIV1ZZkXAggggAACCCCAAAIIIIAAAgggEBIBAqyQLCTTQAABBBBAAAEEEEAAAQQQQAABBMIqQIAV1pVlXggggAACCCCAAAIIIIAAAggggEBIBAiwQrKQTAMBBBBAAAEEEEAAAQQQQAABBBAIqwABVlhXlnkhgAACCCCAAAIIIIAAAggggAACIREgwArJQjINBBBAAAEEEEAAAQQQQAABBBBAIKwCBFhhXVnmhQACCCCAAAIIIIAAAggggAACCIREgAArJAvJNBBAAAEEEEAAAQQQQAABBBBAAIGwChBghXVlmRcCCCCAAAIIIIAAAggggAACCCAQEgECrJAsJNNAAAEEEEAAAQTCIlCq+jpxqaBCxVfdb7hpxaOe+jJR3bclp3g0EpapMg8EEEAAAQQQaFGAAKtFKD6GAAIIIIAAAggg0FmBRkM6PDKra9NVVWqBC6/sX3ZFFFE85ikZj2jbupT2bs52djDcHQEEEEAAAQS6SoAAq6uWg8EggAACCCCAAAJrUyBoNPTW6RmNz9ZUrvmKep4SsYgi14utLNyyUCtoSJmkp42DST2wo29tYjFrBBBAAAEE1qAAAdYaXHSmjAACCCCAAAIIdJvAuWslnbhcUKniK52IKrrANsG6H6hUDdSXiumRwTENTbwhlSakzHppxwekoZ3dNjXGgwACCCCAAAJtECDAagMit0AAAQQQQAABBBC4e4FqPdALRyaVL9eVikUViy3e42pg5LPaevYPlK1eUc4rSX5NisalRE4a3C49+Qlpz9fe/YD4JgIIIIAAAgh0nQABVtctCQNCAAEEEEAAAQTWlsCVqYreOTercjVQNhVdcPKRRqA9X/15DY6+rETxsmJBRZFERl4sIflVqVaU4mmpf5u068PS1/8r1z2LCwEEEEAAAQR6X4AAq/fXkBkggAACCCCAAAI9LfDO+VmNjJXdHFJxb8G53Hv4l7Xh4l8oXRhRObFOfqJfiURMqdj17zR8qTQtlcakoV3SA/9Q+tBP9bQNg0cAAQQQQACBpgABFm8CAggggAACCCCAwKoKvHpyWtemqorHpHh0/gArVRjRAy/9mDL5syqlN8mPZtyYrdG79cy65aoWpNmL0rr7pI/9VymzblXnx8MRQAABBBBAYPkCBFjLN+QOCCCAAAIIIIAAAssQePPMjC5PVGTZVWKumuq2+x189ac0OPqSIkFdlfQm2amELsCKe0rPV7U1fUGKp6RdH5G+9deWMTq+igACCCCAAALdIECA1Q2rwBgQQAABBBBAAIE1LHB+tKSjFwuq1QNlku/vgRX1S3rk+e9Udva0irldakQ8BYHkeXKfj3nz9Lmy7YTjJ6X1+6VPfFbyYmtYmKkjgAACCCDQ+wIEWL2/hswAAQQQQAABBBDoaYFixdfLx6bcKYTZZFTebYFUvDKhh7/4MaUL51TM7XZznQuw+tOLBFNjx6V1+6Qf/ispluppIwaPAAIIIIDAWhcgwFrrbwDzRwABBBBAAAEEVlnAdgN+9cyMrk5VVXVVWJ4ikfeqquKVcT38xe+/EWDNhVfx2ALbB+fmQ4C1yivL4xFAAAEEEGifAAFW+yy5EwIIIIAAAggggMBdClhwZVVYhYqvuh8oFY8qFm2GWLHarB7+/EeVyZ9RPrtHlm1FvYhyqfdvN7zl8WPHpPX3ST/8N1I0cZcj42sIIIAAAggg0A0CBFjdsAqMAQEEEEAAAQQQQEClii9r6F4o+6rUAzWCRnM7YcPX0y99v/pnj6ke71eQGnRbDefpfPWeYnFCqualjYekH/i/5VIvLgQQQAABBBDoWQECrJ5dOgaOAAIIIIAAAgiET8APGhoZK8sau9f8hoJGwwVV6699Ufve/tdKFy/IW79HingLT74RSOMnpOE90t//JWn7U+GDYkYIIIAAAgisMQECrDW24EwXAQQQQAABBBDoBYFGo6FCJVCl5rvhpqOBMn/yMenaYak8Iw1sl6Lx90/Fr0rTI1J6ULrnAemjn6b6qhcWnDEigAACCCCwhAABFq8IAggggAACCCCAQG8IFMakz3xMmrkoFa5JyT4pnpOiMcmvSbWCVJmVchul/q3S93ym+RkuBBBAAAEEEOh5AQKsnl9CJoAAAggggAACCKwhgdKU9Lmfl869KFVmpFpR8uvNaqx4WkoOSLs/LH3kZ6Vkbg3BMFUEEEAAAQTCLUCAFe71ZXYIIIAAAggggEAIBRrS1Xelk3/73pbC1IC08QFp79dJ9xwM4ZyZEgIIIIAAAmtbgABrba8/s0cAAQQQQAABBBBAAAEE2i5webqk41dmVaj6GkjHtX9Tn9bnkm1/DjdEAIG1I0CAtXbWmpkigAACCCCAAAIIIIAAAh0VePn0uD7z6oiOX51VuRbIDwLFPE/pRFQPbRvQ931gpw5u7u/oGLg5AgiEU4AAK5zryqwQQAABBBBAAAEEEEAAgRUTqAcN/cfPndRfvHNFo7MV5at1JaOeol5E9ns1P1BfKq6N/Ul991M79D1P7VixsfEgBBAIhwABVjjWkVkggAACCCCAwF0KBA1pdLqi0ZmqCmVfQdBQIu6pPxPT5qGkcqnYXd6ZryGAAAJrR+A3Pn9af/zGiC5OltSfjmsok3Dh1dxlAdZEoapi1deO4Yz+0Uf26Fse3rJ2gJgpAggsW4AAa9mE3AABBBBAAAEEelVguljT0QsFzZbqqvkNF141GpL9zBWNeopHI9oynNS+LdlbfhDr1fkybgQQQKATAiev5fU/fPpNnRsvaENfSn2LBP+ThaqmSjXtvSenP/iRDygVj3ZiSNwTAQRCKECAFcJFZUoIIIAAAgggsLTA+GxVb5+bVakSqB4Eil/f6hKJSEGjobrfkB80lIxHNZSN67E9/YRYS7PyCQQQWIMCP/PHX9Xnj4+6Pzc3DaSWFDg/UdRgOq5vfnizfvrrDyz5eT6AAAIImAABFu8BAggggAACCKw5gUot0JePT7nKK9vgkkpEZcHV7ZfvN1Sq+S7EskqsB3b0rTkrJowAAggsJjBTrumjn3xZZ8YKundda9WqlXqgi1MlHdzUpz/6sQ8CjAACCLQkQIDVEhMfQgABBBBAAIEwCRwZyev8WMlVC2SSi29fsSqsUtVXNhnTk/sG1JemJ1aY3gXmggACyxMYmSjqE7/zmi5MlrRrfbalm1mVqwVe923s05/+xLMtfYcPIYAAAgRYvAMIIIAAAgggsKYELLR64cikZkp1pRPNE7KWusrVwFVobVuX0gM7qcJayovfRwCBtSNwdqygH/2913VpquQqsFq5Go2GTo8WtG9jn/7sJwmwWjHjMwggwBZC3gEEEEAAAQQQWGMCk/maXj817aqqWj1h0LYSluuBNvQn9PR9g2tMjOkigAACCwtcnU5gFKYAACAASURBVCnrBz/1qs6NF7V7Q2sB1lwF1v5NffqTHyfA4v1CAIHWBKjAas2JTyGAAAIIIIBASAQuT1b0zrlZVevBktsH56ZspxMWq4GGcnE9d3AoJBJMAwEEEFi+gP1Z+tHffFnHr85qfS6pXHLpbdZTxarylboe2Dqg3/2hp5c/CO6AAAJrQoAAa00sM5NEAAEEEEAAgTmBq1MVffXsnQVY1gfLthFagPUsARYvEwIIIHCLwH95bUS//vlTujZT0c512XkPxZj7gv152mz4ntG//Af366ld69BEAAEEWhIgwGqJiQ8hgAACCCCAQFgE8mVfrxyfUqFcVzYdc6cQLnXV/IZq9UCbBpN6fO/AUh/n9xFAAIE1JWDVVJ/4P1/TiWuzsoBq80B63v6CNb95+qAdivHglgH95g88saacmCwCCCxPgABreX58GwEEEEAAAQR6UODlY5Man60pFo0oEfMWnUFDUrHsKxn3tHdzRrs2ZnpwxgwZAQQQ6KzA6dG8fvq/fFUXJotue+BQJqF0IiovEnGhVrFS13SppsFsXDuHs/rk9z+hvtTS2w07O2rujgACvSRAgNVLq8VYEUAAAQQQQKAtAhfHyzpyIa9SxVc6GV30JMJKLXA/fA1kYnrmwFBLpxa2ZZDcBAEEEOgxgZGJov7N/3dUJ67lNVmsusrVoCHZYa/JeFTDmbge3j6on/umQ4RXPba2DBeBbhAgwOqGVWAMCCCAAAIIILDiAm+dntG16aoqtWZ1VSzm3bKd0E7JsvAqCKRsKqqD23NuCyEXAmtFoFjxVa4FUkNKJjxlEp4ikVY23a4VIeY5n4D92fnFE2P63NFrujRVUrnmuy2D24Yy+sYHN+nRHRyEwZuDAAJ3J0CAdXdufAsBBBBAAAEEelzAqqq+cnZGE7M1F1TZf456Edd82EKrRqPhQi3bArNnU1rb16d7fMYMH4HWBKxC8czVoqr1hiyMsMuCq0QsonvvyWjruqTbFsaFAAIIIIDASgoQYK2kNs9CAAEEEEAAga4TOD9akv3AXqoGqgcN2c/rtt0lHo2oPxvXvs0Z9aXp09J1C8eA2i5Q9wO9dnJG+XL9evVh40bFlQW6ES+iVNxzFYmP7R5wlYtcCCCAAAIIrJQAAdZKSfMcBBBAAAEEEOhqgdlSXdOFugux0glPQ7n4kg3eu3pCDG5ZAhZkXpsta3S24qqQBjMJbR5IKR4NZ2hjAdWXjkzKtg1Wa4HrVxSP3VplVavbtlpf8ZinTDKqZw9e7wlnWLOXpcKo1Aik9LA0sFXyCH6X9RLyZQQQQACBWwQIsHghEEAAAQQQQAABBBC4LmBZzAsnR/XbL57Vpamy6kHgqvJiXkR96bi+64nt+sYHN7utpWG6Do/kXSViueq7CquFel1Z0FWo+ErFo9o8lNAD1VekV35DmrksBbUmiQVXqQHp8Y9Lh75FiqXCRMVcEEAAAQRWSYAAa5XgeSwCCCCAAAIIIIBAdwlYs+l/8efv6s3zUxorVFSq+op7nqy7f91vKBaNaH0u4ZpR//y3PahtQ+HoixYEDX3+3QlZFWI2GZVne2gXuezz5WJBjx35F9pYOiKvOCrVStcrrqyJXE2KJqTsBmnoXumbf1nq39pdi81oEEAAAQR6ToAAq+eWjAEjgMCaEqgVpQuvS+dekEaPS/aD1D33S7uekzY/IkXja4qDySKAAAKdErAqq3/86Tf1zsUpt21wIJPQcCZ+SyXSbLmm8XzVhTzbhjP69e97XOtzvX8y5ehMRV89k1exUleupX5vDR380o+qP39CqeqYvMywZL9uPsezPNPcUpjqlwZ3SN/9aSnD6XOden+5LwIIILAWBAiw1sIqM0cEEOg9AeshcvZF6a//mVQrSJW8VC815xHPSIlc84eFb/i30qb7e29+jBgBBBDoMoHfe+mcfufls7o4WXIVVonY/L2urB/WhYmS+tMxfc19G/SvvvWBnj+R753zsxoZK9vRm0q1sDVy24nf0qbTf6B06ZJq/TuVTi0Q4tn/lk2eawZX+75e+ob/zY4z7LKVZzgIIIAAAr0iQIDVKyvFOBFAYO0I2P/B/8bvSq98Upq5JAV1KZFtBldqSNViM9SKpRT0bdH0Mz+rc/3PuuPO7YjzdX1xre9PhK4/y9p5AZgpAksLlGuBavXA/kRwTcXtZDhygaXdFvqEOX7PJ1/WO5emXUVVLrl483E7re/cRFE7hzP6lY8+qvs29t39w7vgm2+entHlyYqsP/1Cwd17w2zo0ee/U9npoyqnNspLZpVdLPTya9LkGWl4t/RdvycN7+qCGTMEBBBAAIFeFCDA6sVVY8wIIBBugXMvS//vT0uTp6XkgJS7533ztSa6tamL8uplFXK79NqTv65y8h73A6z9MBv1ItoynNS+LVn311wIIBAOgdHpqk5cLqhctcbiFrtYQUvEnRa3d1NWG4cSXVENZEMrVOoam6lqMl93/aPsZMd1/XEN5xJKxrvrJL/Dl6f1U5/5iguldq/PtRQGXp4qKZOM6Yc/tEvf/8y9Pf2CHbtU0NkrRfkNW6fFm9PnJt/Wgdf+idKF8+5/fxLxqNJLref0SLOp+3M/JT32fT1txeARQAABBFZPgABr9ex5MgIIIPB+AWuC+6lvav7Taju1ad7wSspXfHese7J42fUcKfTt0Rsf+n33w4fvN+QHzR9CUglPHzxw/ZhzvBFAoGcF7O/pN0/NaLpYl1Vf+UGguWzawqKIF3FVWHZ63GO7B1Y1IKrUAtmJdpP5mguu5k7x8yIR1wTdfu3amNaODemuCNvspfg/vnRav/3COVkT900DrZ2YN12qqVj19XUH7tEvfPtDPftu2cBnSjW9dmJG+XJdfUv0wNpx9D9py5lPK1KvqJrZqEwi6tZ00as02dwGv/+bmg3duRBAAAEEELgLAQKsu0DjKwgggEDHBKxh+5//hDR9QRreM+9j8mXfBVW209CLBMrmz7gA660P/778WM59x06Ish+skjFPA9m4nr5vsGND5sYIINB5gRePTMr+3reAxf6+TtxW8VKrN1Sp+YrHPGWSURdcLxkqdGDYhXJdr52acRViNh6rALVxWNjmB82T/OxfFrAP5+J6ZHd/V4RYv/TXx/SHr11wIq02ZbcKs8liTR/cs06/9r2PdUBz5W5pIejz74y7AMveL3uPFrr2fPVf656RP1egqOqpYfWlYktXrFVmpfKUtPsj0rf/1spNjCchgAACCIRKgAArVMvJZBBAoOcFvvjvpNc+JflVqW/z+6ZT8xvuWPfAwqvrP1+kCyOqJod17uA/1tUd33rjO7a9yH7gzaVienzPgAayi/d06Xk7JoBASAVOXi7o7LVy84S4VPSWU/FunrL9PV+o+ErGo9o6nNT9O1a2L5NVib18bEozxbqrArUgbb6+XPV6wwVx1ix867qUDm1vBu+reX3m1fP6j8+f0my5rq2D6ZaGMlmsqloP9A0PbNa//Ae9f5jGlcmKq5yzECuT8BS1hljzXJtO/q52HP/fFfcLagxsc4HXkldxTAp86f5/KP29n1/y43wAAQQQQACB+QQIsHgvEEAAgW4S+OMfkU59Vkr2N48ev+2aLVt4Ndf3pvmb8eqEvMDXtW3fqJMP/9NbvmFbeazqYSAb1XMH7YhzLgQQ6DUBq4yxUMi2akWX2Kplfz5YiGXB9TMHBpfsZ9ROi1NXijp9pSj7cyebjNru5gUv2+pcqjXHaRWiFnat5nVxqqQf/Z3XdWo0r90bsi1VhV2YLGowk9D/+Hf26Vsf3bqaw2/bs986PaPx2aqr4I1GIq7Sz7Z+2mXb1t1hIfkRPfXGTyqbP63ohn22f3Xp50+elbIbpL/7z6WD37z05/kEAggggAAC8wgQYPFaIIAAAt0k8Kc/Lp34Kymek9IDt4zMtnhYdcDN1Vf2gURlzH3u6vZv0ekHf+Z9s5ktNXuafPiB4ZZ+KOsmDsaCwFoXsD5Sb5yekW3NW6o30ZyVq8KKeTq4Padt61rr57RcZws3vnR40gVt1qC9le2LpWqzj5dVYT24c2Wrxeab78d/6xV95cKUMomYhrOJRUks4LkyXdau9Rn95g88oc0DrVVtLdd5Jb5/9ELenUhoQeTclk97bkTN7aC2vk++8H3KTR1u/oOW9BL/cKSal2YvS+v2St/7R/P2dlyJefEMBBBAAIHeFyDA6v01ZAYIIBAmgVd+U3rpVyX7P/j7t7UUYKXzZ1VJb9Kph35WE5u+dsEA62vuH+ZEwjC9K8xlTQgcuZDXuWslV/2y1OlwcyAWPFihpm0jfHjX+ys5OwE3U6rr1eNTrnLHqqpauWybofXKWt+f0Af2r36fvi+fHtf/+v8c0enRvDb0JdWXis87jUo90MXJomv2/t1P7dAnPrS7len21Gdsa6QFWYWyfz3Ekguv7JCAA1tzSp7/gvQ3/1waPyHlNknJBQLIelmyEwgHtklPfkJ66hM95cBgEUAAAQS6S4AAq7vWg9EggMBaFxg9Lv3RxyXbbjG8Vzc3kJmvAivSqCuTP6d8/z698bX/dd6tHHMVWARYa/3lYv69KPCVMzO6OFGRtSNKtNJrSFLND1SrSxsHE3pi762VnJ0yGJ2u6q0zM64nVKvbAS2UK1YCDWZj+tCh7tji/O/++rj+5vAVXZgoucDGGrrHop7bDWmHZ0wVqu4U2Hv6kzq0pV+/9J2PtLwunbJftfv+1T+VTv2tNHVOiiaaWwQ9Cy8jUsOXihNSdVbq3yJtekj6tt+QovOHgqs2Bx6MAAIIINBTAgRYPbVcDBYBBEIvYE1u//N3SFfflfyaNLj9xpSt85WFUe9tIWwonT+veqJfs0MP690P/Or7eOw7+etbCD/ywLqlT4oKPTATRKC3BE5cKuj01aKrgmk1GCrXAqkhbd+Q0gMr1Mh9dKYq6590RwGWOy010FA2pue6JMCyt+O3XzyrP3vrosZmK5q2P3Pt1NdG8+AM60O2IZfU4zuH9XPfdHDthldzfxu9+B+kd/9UKlyTytPNRu12WV+sRLa5XXDns9J/878QXvXWHz2MFgEEEOhKAQKsrlwWBoUAAmtaYGpE+sOPSRNnmj8E2D+9dv9UW+5UQdt2EwlqSpcuqeHFVezbpTc//Jl5q6+sx4z1313XF9dT+1Z/i86aXlcmj8BdCNiJcK8cn3Ynw7XcA6tsJ/x5rq/UxsHkXTz1zr9iW81eti2E5bpy6da2EFooZ4GXbSG0Ru7ddBUqdf2Hvz2ho1dmVaz4lgcqFfe0qT+ln/y6vdq5LttNw13dsVRmpef/jTR6VKoW5dLTWFoa2Cp9+H+SBnes7vh4OgIIIIBAaAQIsEKzlEwEAQRCJTDyqvSXPytNX5AqM80AK5FzlQB+aUZqBKonh1ROb9Hhp39F1fSm901/7jQy+6H3mf1D7gdaLgTCIFCo1lWq+q4qxpqVZ5OxUPd3+/w7E5op1dxc40tsI7RQqGx9qNIxPXtwaEUrhF44MqmpQk3xqI1zkSMIr7+EFgzZ9rydG1I6sC0XhleTOSCAAAIIIIBABwUIsDqIy60RQACBZQmUpqQ/+wlp5pJUyUu1grtdKZJV1ctoJr1TR5/8RcVi7z9+vlZvqFzz3ZYjq8DohhO+lmXBlxGQdGasoF/66+OuybY1KbeqGDvFzpqG/8RH9uqZPetceBK26/JkWUdGCq4Ky7awRaPzh0MWWlsolE5GtWdTRrs2ZlaU4sJYWUcv5lWq+K7Zd8TKPxe4avVA1XrDVZVZ0NbKqYUrOhkehgACCCCAAAJdJ0CA1XVLwoAQQACB2wRqZenk30hXvipFompse0Kv+Y9qttKQbXOxKhT74c+LRFyTYd9vuG2DVpXSn4mtWBNn1g2BTgnYttlf/Mtj+sLxUY0Vqpop12Rtte09t6pEa26+sS+lrUNp/eJ3PKzhbKJTQ1m1+75xalqT+Zo75S8a8ZRMREzgxnjs5MG6HyiViLq/75/cN+D+TFjp69UTU5rI11StBe7UxNvDNgsdazULrwJlUlHt3rjyQdtKm/A8BBBAAAEEEGiPAAFWexy5CwIIILDiAiNjJZ29VpJVW9mpY1aRYtUoc9t37AfDretSKz4uHohAuwV+7k/e1itnJnRxquSC2Xv6kreEM1PFqiYKVQ1k4to2lNFvfv8TGkiH77SzwyOzujZVlTVpt7/nLby2y3KqmOe5bcJDubgeurdvVcIrG4ttYbQQy3pilWq+K5OzEMsF7EHD/Yp6EVcdumkoqYNsHWz33y7cDwEEEEAAgdAKEGCFdmmZGAIIrBUBO5nw6lRFlVpDqXjEbRlstYnyWjFinr0r8BfvXNGvfPaEzo0XtGUwrXT8/VtmbXZWiXV+oqihTEJ/5+A9+md///5QnrpplUvvnp91BzrYiaR22el4Fl7dv72v5ZMKO/1GHLtYcH8uzQXslrVFIxHXG8tC9oPbs1rXF75KuU67cn8EEFijAn5VqpfVPIo6KsVTkhe+f1CzRleXad+BAAHWHWDxUQQQQAABBBBYWYGPf+oVvXV+Sv3p+JJVVVaVdG68qHvXZ/XL3/WI9m/qW9nB8rT3Cdi2x2vTVVcxlrOefENJt7WQCwEEEECgBQE75fPLn5SO/Lk7wKfZ/THSDLEe+T7p0e+V4ukWbsRHEAiHAAFWONaRWSCAAAIIIBA6gdNjef3kf37TNW/fvSHb0ra4y9NlpeOefvDZXfrvn9sVOhMmhAACvSHg+r3VA12erGhitqaGGhrOJbR5KKFEzA456I15MMrVEmhIZ1+S/vJnmgf5zF52uVXz/7NTTCLSwFZ3QrX+u09K6/et1kB5LgIrKkCAtaLcPAwBBBBAAAEEWhX49Cvn9evPn1K+UnfbB1u5rMG79V/6yIENrqE7FwIIILDSAhZcvXh0yvV8q9svv9mwLuZF3KEr1gfu6fsG3KELXAjMK3DmS9Jf/qw0eboZWg1sl6I3bbuul6TpC81KrKHd0nd8ShreDSYCoRcgwAr9EjNBBBBAAAEEelPgPz1/Ur/70jl3QMGGvmRLkyhW6xrPV/X07mH9xseeaOk7fAgBBBBol8BMsabXT82oXG0etmC93yy0ssvCLAu17NCFdNLTgztzWt/f2p9t7Rof9+kBgeK49LvfJk2ckuI5qW/TwoOeHpGCmrRun/TDn22e6sGFQIgFCLBCvLhMDQEEEEAAgV4W+MPXRvRrnzup2XJdW1utwCrVVKj6+roD9+gXvv2hXp4+Y0cAgR4TqPuBvnh4UvmS73KEbGr+CqtipXkIQzYd1QfuG+yawxd6jDu8w/38v5W+8vuSBVlDLWyFHzsuDW6XPvDj0uMfD68LM0NAEgEWrwECCCCAAAIIdKXA+YmCfuz33tDp0dZ7YF2aKimbjOmHntulH/jgvV05LwaFAALhFPj8OxOycMqqrBYKr+ZmXqr4bmuYfe5r7h+mcCacr8Sdz6pWkn7r66WxE9LQvbduG1zobvadmQvShgPSJ/72zp/JNxDoIQECrB5aLIaKAAIIIIDAWhP4od9+Va+fm1QuFdNQ5qb+H/NAVOuBzk8UtWt9Vr/6PY9q94Zc13I1GlKhWtdfvXtFr52bUEQRPbVrWF9//yYl49Fmr14uBBDoGQHfD/SFw5OaLdXVl461NO58qa5sKqYP7B9QJtnad1q6MR/qXQFr1v573y5NnpXW7W1tHvY/KOMnpA37pR95vrXv8CkEelSAAKtHF45hI4AAAgggsBYEvnB8VL/wF0d1eqygzQMpZRLz/5AXBA2dmyhqXS6hb3xws/7J3zvQtTwzpZp+4FOvqFZvuBCrUKm7sVpIZ/NLRiP69I88o0TM69o5MDAEELhV4PxYWccu5FWpBUtWX81906q14lFPe7dktHtjBlIEpKnz0u9/tzR9Xhre06JIQ7JthOsPSD9KgNUiGh/rUQECrB5dOIaNAAIIIIDAWhH4l//XYb10asxVV6XiUW3qT7lTvOauiUJV9mt9LqFtQxn91g8+qXS8O0/3+srIlP7nP31HV6bL7nTFRCyivlTcTcWCrZrfUF8qpo39Kf3Kd1sVWXatLDPzRKCnBd48M6PLExVZv/ZEvLXw2U4rrAXSpsGEHt8z0NPzZ/BtErhRgXWm2Zi9lYsKrFaU+ExIBAiwQrKQTAMBBBBAAIEwC/z7z57QXx++qvF8RZPF2i1TTSeaodbWobT+/Ucf7drwamy2oo9/6lWdGcu7qovtw/NXXJwbL7geOrYF8o//0Qdb/mE4zOvP3BDodgECrG5foR4Z3y09sHZK0RZOqayWpFl6YPXICjPMZQoQYC0TkK8jgAACCCDQDQIW7Pzlu1d0+PKMMv8/e+cBX2dZ9v9fzh7Zs03bpE33oIXSUqAgooKyFARkyxJxi3vgetXX8aqvviqiguwtAooIyi6rpYuW7iZNM5q9zt7n/P+/+2kgbZOcJ2lOcs7Jdfvpp8U8476/93OenPt3X9fvshhx6twyrJ5TCkMWldRmhNIP/7kDu9s8hyBn6t3NZy/EkmnpG8HAFMeL/vg6mnoCiMbjKlJsuEYRi9FmM4rtePTTq8UTKx0+ZNIHITAMgaauIHZJCqE8I2NB4JX/BTbfC/i7gKKaJFc8mD5YWA2c9Dlg+VVj0QO5hhBIWwIiYKXt1EjHhIAQEAJCQAgkJ0Ax59uPbUUomoAnFEEgHIMxJwe5dpOKRFowJQ8/v3ApcrJIyEokEognNDYcViaIdK19AVx/9wbs7/Zhtk5z+doOL2aX5+KRG09SoqQ0ISAE0pdALB7Hmu1i4p6+M5RBPfP3APdeAPTUAiYnkD916M7TMysR1dINpQJhBk2ydHW0BETAGi05OU8ICAEhIASEwAQTuH9dIx56sxHNvX4EI3HYzAY4rSaVfuYJRsGon9I8q0qvu/XK45XBubSJIfDAmw3408v7lM9Vsuir/h4yCqskz4qb3j8XHzl22sR0XO4qBISAbgIvb+sBjdn5DnbahhedeRyrj/K49ywuVmK8NCHwDoHGdcC/vgr07gO4YVM449B0QqYaupoAowkomg1ccq92jDQhkOUERMDK8gmW4QkBISAEhEB2EnhuRzv+99k9oMjBFLqyXNsRC6BILI7m3oCK3pk/JQ/3XHdCVkViZdLMfv3RLXhhV6eaiwK7ZtqerPX6wwhH4zhz0RT8+IIlyQ6XnwuBtCDAd9KzO9vR3ONHkdOC984vx9LphZMiDTYWi2PNjl54AzH1Ph5KxKJ4FY8DTrsRJ84rhMMqEZZp8fCmWyeaNwBPfQUIewF3y6G94wOWPx2wOIGL7wKKqtOt99IfIZASAiJgpQSrXFQICAEhIAT0EOjyhvD8znbsbvfAYTFh9ZwSrJpVkhEpYXrGl6pjgpEYLr9tLfZ1+eAwG1GSO7TJazyRQEO3HyVOC85ZOhVf/9CCVHVLrjsMga89ugUv7upQz/lIBKyQErAq8N8XHCN8hUBaE+DzfcuLtQhEYnAHowhFYqpYAatqstDCWUum4oZTa7I+0sjtj2BjnRvBcBzcRGBKt4mlCQFE4wkVnWUyGmC3GHBMdR5K8yUyNq0f7InuHCOt3vwzsO0xgNUGVTgWc+cNwPHXAsdeDhj1bYpM9FDk/kJgLAiIgDUWFOUaQkAICAEhMCICu1rd+MGT2+ENxuClb1PkoG+TzQSnxYRlMwrx/fMWSbTQEFSfeOsAfvvcXnT7wqgaopLdwFPJt8MdxPwp+Xj4xhNFIBzR0zo2B9+7dj9ue6Ue3kAE05IYuPffsbHHh2KnFZ973xxcuHz62HREriIEUkDg5se3YUtTLxp6/IjGEnBajLCajUrA8YaiKlVuWhErhTpw6xXLVYGCbG4c9+s7+xBLJBQP/mEzGTQxy2jIwap5BbCJt102PwZjO7Z4DIiFNQErxwAYzIAhuz9HYwtQrpYtBETAypaZlHEIASEgBDKEwP1rG/Dw+iaV2kZhhb5NTKuKxaHELG4wluVZUVloxy2XL1cpKNIOJfBfT27HU1tbYTEZUOTQx6e+y4fKQht+duFSLK8qSoq0zxdBe5+Wwma3GjGl0KJSFaWNjkBTrx833rNRpXzWjMTEvSwXD37yRBXFIk0IpCOBXz+7R1VAbezxozTXinyb+ZAoK0o3jBpt6Quod/txM4rw60uOzfpILI47Eo2jtTeEHk9ETV1RrhlTiyywmIxZP/50fFalT0JACGQ+ARGwMn8OZQRCQAgIgYwh8J/t7fjN83vQ0NXv22Q9IsqKgsmBvgCcViMWTS3AHdeskEisw2b4hns2YH19jzJoZ6VBPa3NHVTHfua9s3HpCVVDnrKvzY/m7qCKGOBccBFmyIFKBTIbczC30okpRUOnLOrpy2Q8hmlDF936ulrks1GgHa419fhVmtGMYjse+/RqWexOxocmA8bsCURw5V/Woa7Th4p827DVMvlOaejxYUaRA985ZyFOnVeWASOULgoBISAEhEA6ERABK51mQ/oiBISAEMhiAtyBv/L2dajt9Ko0weJhIqtYPY+pKKW5Fnx0+XR84f1zs5jMyIf2ibvXY/3+XhXNMFIB61Onzcblq44UsMj8zb0u+IIx+MNRFQnHVBdDTo7ybOEf/ptmw4wiOK4mf+Qdn+Rn0NT6U/dtBKPhmEI1lIjFqpIUDxmpdf8nViFfp+n7JMcrw58AAjc/8TZe3NWp/K6SibLsXo8vrKKxlkwrwF3XsqjEBHRabikEhIAQEAIZS0AErIydOum4EBACQiCzCDy6sVkZ/HIBM6PYkbQiFUWULk8YC6bmqRQqiifSNALf+/s2PL2tDTaTAYU6Uwj3d/kwpdCGH5+/RBnlH9421bnQ5YkgGI4pw+V+0+GBxzEdJhiJq+i4qcU2LJqRK1MyQgKv1Xbhp//aiVZXUC3krSYDcm2aAa8nGAFN2ynwMpqFc3VsVeEI7yCHC4HxI3DF7euwtalPiVdMLVENTAAAIABJREFUaU7WGNG5r9OLmSVO3HntSvWcSxMCQkAICAEhoJeACFh6SclxQkAICAEhcFQERiO6MFJlWpEdv7hoqSrDLk0j8MiGJvzhpTr0HRQDk3GhUNLmCmJuRZ4ycWc64MDW5Q5jy34PfMGoKvs+nFgYiyUQCMeQZzfh5IVFuhatyfo32X7OSKzPP7hZiVXecBT+UFRVlaIwSPGKvnB/vmqFShGVJgTSmQDTYne2elBd4lDG5Hoaq6JOKbDh/y49FgunSiSnHmZyjBAQAkJACGgERMCSJ0EICAEhIATGhcBo0t4YpcJqVl/4wFypwjZgltyBCK76yzrs7/Yj32YaNgqLqYCsZsc0tDMXVeB75y0+Yr7f2N2LXm9UeV1ZzcmjKAKhuKrgXV5gwfLZBePy/GTbTZiSSVHxxd0d2NrsUhGJjLY6fX45yvOsMOgUA7KNi4wnswhceOvr2DVCAaux24+KAht+c8mxWFQpAlZmzbj0VggIASEwsQREwJpY/nJ3ISAEhMCkIXDdXeuxsaFXLc71llDnAp/pbJ9/3xxcvGLGpGGlZ6B/33wAt75cp0zBWYlwME8xiiQ0xGfpdkZf3XnNSsVzYAtF4nhtZy+8waiKqtLT4gmoqKEChxnvWVys55SMO6bXGwEj02g87bAZlVh3OLuMG5R0WAiMMYHLb1urBNjpRfYjIjuHuhVTCKtKnPjL1St0+WaNcZflckJACAgBIZDBBETAyuDJk64LASEgBDKJwLceexvP7mhXEVV6Tan7fZt+csExWDkzO4WS0c5hPJHAH1/ehye3HEBLX1CZrDssRiWy0JDdG4qqFDWKW+X5VvzyomWYXX6kZ5UnEMWbe/pUWqDTpk/AYlQXBa98hwnvXXKkn9Zox5QO5+1t8aGtN4RwNIFITKvCaMzJgdmUo6LTFk7PVSb20oTAZCPQ0O3DK3u70OkJoshpweo5pfjDi3V4va4biURCl5+VKxBRXm/zp+Th/k+cqDvtcLKxlvEKASEgBITA4AREwJInQwgIASEgBMaFwL1rG3D7K/vgDkTVbn2ypnyb3EHMLc/DQ588UbyWBgFGEev12m784t+7lLk6RStyY/qZ02qCw2zE7HIn/uvDS4as+igClgaWkVYbal3wBqIIRGKgcmU8rAojPX5YhXFaiQ3zKp3JHmH5uRDICgIv7OzAXa/Xo9sXVsJ1KBaHxWhArtUEizEHXb4wen1hTCtyqKIEQzW+r/Z3+VFZaMOXzpiHs4+ZmhV8ZBBCQAgIASEwfgREwBo/1nInISAEhMCkJtDnD+Pjd7ypFjCFDjMK7ENHsfT7NvGYs46Zim+fvXBSs0s2eAoue9o9eHVvl6rwxRTN5VVFOGl2iTJLHs6UPRiO4/VdvcrAPVdnCiHnx5dlKYQb9rrQ7Q0jHImrKDaKVwMbxxyOxhGJJZTZ+uypDlSXJRdik82d/FwIpDOBm5/Yhi2NvWjqCSAci6soT1YbZHSiLxRTaYO0a+PP2Pi+YSGCwxuPP9AbQL7dhAVT8/HHK4/XnXKYznykb0JACAgBITC+BETAGl/ecjchIASEwKQm8PD6Jvzl1X1qIcMUFKa3Hd6YCtfSF1CpJfMq8nD71StUNJG01BCgMPPqzh64/FEVVcFUuWSNohdT60ryzFg1L/OrQzZ1BbH7gBeBUEz5XQ0n+CkRK5pAnsOE1QuKYDpM6ErGTn4uBDKFwC//vRvP7WxXPnuluVbk2UyHfDaYNugNxdDhCaoh0WuPOhbf3RR5GY3FyEZGhvJzw1Tm8nwb/nDFcnU9aUJACAgBISAERkpABKyREpPjhYAQEAJCYNQEKE799vm9+Pf2NuXblMBB3yazETFG9TA9JRpT5uAV+Tb8z4VLlfm4tNQSaO0JYXuTRwk4TpsROTlDi1j012LkBQ3fT5hbqI7P9MYINJq2M5pEj4DnD8VgMhowq8IuqYSZPvnS/0EJeAIRXH77OtR1elFZYB+2gAHf2c29ASVwMa2Q7w+KVpFoXIlZ/P/sZiNWzy3FF943F7k6vfZkaoSAEBACQkAIHE5ABCx5JoSAEBACQmBcCVDEenFXB377wl5lHO4LxxCib1OO5i/ksJgwtzwX3zl3kapYKC31BOhNs253n4rCYqoP04Too3V4i8USas5sFiNK8s1YXlOQ+s6l+A7eYAzr9vTBP4IUSkaVMKKkrMCiRDxpQiDbCHzp4bewdl+3es4rC49MlfUEo2BaeDSeUAbuTCGkWFVT6sRXz1yAN/f3oM0VQIHdghUzi7ByVjEq8mwYRhvPNoQyHiEgBISAEEgBARGwUgBVLikEhIAQEALJCXCHfnuLG2/UdaGh2w+byYhjqwpwYk0JZhQ5BhVQkl9VjhgtgVAkroQcpgfSCJ6LUc3EHIjHNZNzCl0UGRlBccK8gmFT7Ubbj/E+r8MVxpZ6t1qoc2x6GqPQ/OG4qkZ4ysIiPafIMUIgowh8+HevYm+nF7NKnIdUCqRgxRTwcDSGyEHxqn9g8QRU2iArxn7/w4vVRoQ0ISAEhIAQEAJjSUAErLGkKdcSAkJACAgBIZDBBBh9tbvZB4o6jJTjf9Mji9Fx9HrinxmlNtRMcWSFeMWpau8LYet+z+gELKcJpywqzuAZl64LgSMJ0N+OAlZthxezy3PRH4tJ8aqh26c+K7FEQnleGRlSxQMSQCgaV/8utJtRVezETy88Boum5gtiISAEhIAQEAJjRkAErDFDKRcSAkJACAgBIZAdBOjx1O2JoMcTRjiagM1iQGmeBcV5ZljNhuwY5MFRMG1yw94++MMx3d48FPeCkTjK8i1ZYWKfVRMqgzlqAkMJWPVdPhWdyUgrViI8PMmYXlgsBMF3BEVvil93XL0S+cNUnD3qzsoFhIAQEAJCYFIREAFrUk23DFYICAEhIASEgBAYSIDpgK/u7IXbH1ULbz1VBQPhuEqtnF5iw5JqKTIgT1T2EVAphIzAKstVvlWeYARtriBCsTisJuMR4hUJBKMx9bNZJQ409wVUpcFrV8/Ex0+amX2AZERCQAgIASEwIQREwJoQ7HJTISAEhIAQEAJCIF0I7G3xob4jgHAknrSqojKyj2jRWqvmFer2zUqXsUo/hIAeAlfevg47Wt2wmQwoybWC0Vf+SBSmHMMhnlj912J6IT3y6GU4q8yJQDiKdndI+WA9dONJyhtLmhAQAkJACAiBoyUgAtbREpTzhYAQEAJCQAgIgYwmQIP6tbv74A5ENaN6i3HQamk8LniwCuO0EhsWzRCT6oyeeOn8kAT2tntw08NvYV+nD7NKndjf7VPCLQWqw1sCCeV/ZTUaMKXAhjybWR3Cc6tKHLjjmpWYWmAbH9o07evYCbRsAsI+IH8aULUKcJaNz/3lLkJACAgBIZBSAiJgpRSvXFwICAEhIASEgBDIBAKeQBSb6twIhGOIROOqAiMrMdLLh55XjDBJJBKwW4wozjXj2Jr8rDGyH2p+KEo8urEJG/b3otsbUhwYeTa9yIFLV87A3ApJn8yEZ3u0ffzMfZuwvcWFLi+LOsRV+uDhAhY/E+FYXH1W7GYjqoodyGHOIaBEr2mFdtx65fFKBEtpo3C16V5gx98Bb5smXsVjgMkKWHOB0nnA6puAikUp7YZcXAgIASEgBFJLQASs1PKVq6cRgaYeP+5f16gq6PT5w8qAl1/Ea0qd+PCyShxXXZT1i5E0mg7pihAQAkIg7QhQvNrZ5EWvLwpGW8VYhRGHVmGcWW5Hdbk9639fvLirA7e9sg+triBcgQiiBytSUqiwWYwocVpwUk0JvvrB+bCZj4zKSbvJlQ6NmAAFzOvvXo+W3gDqu32qIqnZmKMJVAmoSoSMWDQbcmA2GlW0FSsT9jemHU4vsuO2j6/AjGLHiO+v+4SwH3jqK1rUFcWrWAQwO4AcIxALAbEwYMkFCqYDy68Gjr9a96XlwFEQSMSAXU8Du58GvO0af7MdyKsEjrkImLl6FBeVU4SAEBACGgERsORJyHoCLPf8u+f34sXdHWoXkV/EWSmHi5L+xh32Kfk2nLesEt/40Px3dg+zHo4MUAgIASEgBA4hwEU6o7G63GH0+SIq8qo/6qok3wJbllVhHGz6//5WixKvDvT6EYsDxU6zZtydA8XDE4jAG4qhNNeCJdML8KuLl4mIlaWfI4pYf3ypDn9aU6dSCDV9KkeZuBsMFHcNyLUaUZ5nO8Qbi4JnQ49fbRI++MmTkGczpYYQP7BP3gTsX6OJJc4KLeIqZ4DnVjwK+LqAiB8ongW852vAwvNS05/JftWuWuDZ7wE9dYC/WxOvEnFNTDRZtFTOiiXAWb8A7AWTnZaMXwgIgVEQEAFrFNDklMwhQPHq5ie2YeP+HrWLzC9i3C0cqnHnkGHud193AioL7ZkzUOnpURMIRWL426ZmbGrsQ6dHS5Vh6e+ZJQ58bMUMzEx1+sNRj0AuIASEgBA4egJ1HV589dEt4N9OqwklTuugfmDBSEz9Xi3Jtago5q+cOf/oby5XSFsC//uf3XhofRN6fGE4LUYYDAblFcdnZDCD9pa+gBI1z1xcge+ftzh142LK4Is/AVxNQEGVljI4VFMilg8oXwxc+agWFSRt7Ai07wD+8XnA1ailcDpKNcYUE5nOSfb+HsBeCBTVAJc+ICLW2NGXKwmBSUNABKxJM9WTc6B/eaUeD7zZgAO9ARXqHom9K14d3ERUYAZqWkyPKM+z4j9fes87RqSTk97kGfXzO9tx+yv1aHMH4Q5E1HPC/1HQtFtMKHaY8d755fj8++dKJaXJ81jISIXApCTw7cfexgu7OpSIT0Pu4Rojclr7gphZ6sBvLz0Os8vF1D5bHxpuCF765zewl8KmxYSyvKGFIto09Pgi6rn4wxXLUV2SIv8rfnl78DKgeT1gcQD24uHx8/i+BsBRAqy6UfsjbWwIBN3Ag5cCXbu1L9X5lVrU1eGN0XB9jYDFCUw9Frj8obG5v1xFCAiBSUNABKxJM9WTb6Dc/fvkPRuwv9uPSCwOfvnql68O+oseAmWgiEXhYnlVIR751MmTD9wkGzGjru58rV4TOeNAUX+qDJgqE4c7GFWmzvyyflxVEX760WNExJpkz4gMVwhMFgK9/jCuvuNN1HX4MKPYDrNxQBrWEBDaXEFYTAZcdkIVPve+OVmPimb2W5td6PQG4bCYsKgyH7NKc1VKXba3V/Z24edP70RDt189G/y9yLnvb0wbpFWDPxxTz8+1q2fhkpUzUoelpx54+Eqgtx4onn1o2uBQdw15gGAfUPM+4KLbU9e3yXblDXcCb/we8HYARbMwaNhmPxNGY/XUAsU1wId+Csw6bbLRkvEKASFwFAREwDoKeHJqehN4ZEMTbnmxFh3ukBKw6NvBNph41T+SgSIWQ+Pvu/4ELK9OsqOX3hikd8MQYJnwrz26Ffs6vci1mlA8RKoMowy4SGNk3sUrpuPT783+RZo8OEJACEw+Amv2dOK/ntyBLm9IVZPT07yhqPKWPG1eGX59ybF6TsnIY3a3efCXV/dhV6sHPlaqjMVgzDEoQ3salZ9/bCXOWVqZkWMbSaef3dGO37+wF93eMHr8YeV7ZczJAb9icdOnwG5GsdOCy1dV4bKVVTAMMHUfyX10HbvvJeCprwL+LqCwWtcpiIYA9wFg2grg44/rO0eOGp4Amd51DtC5C8idokVXJWuBPiDkAiqPA66SeUiGS34uBITAuwREwJKnIWsJfPeJbXhmexv8oajaDaR8NTBtcLCBU8DiMTyWX8ret6BcVc+Rlp0EvvzIW3h1b5eab5r4D9f84Sja3SHlicWS4CmtqJSduGVUQkAIpDmBRzc24bfP16qo02Tpg/1DoRcWN4qWVxfizmtPSPMRjq57D69vwoNvNqK1LwBPKAqL0aAikGhNwPHT4J4bHKtqSnDz2QthzXKjf1Z1fmh9I9bs6dK8ReMJJVSxQuHx1UVKvFowJX90sEdy1t5ngWe+CQR6gQKdkV40FadfVuVy4Op/jORucuxQBFwHgAc+BvTuB0p0bvCxUmHPPs2P7BPPClshIASEgG4CImDpRiUHZhqBT927EWv3dauKg4FIXHV/uOgrdUBCE6/6ha4FFXl4+qb3ZNrQpb86CNCI9po730Rth1dFGuhJlWFaKg1rrz9lFq4+eaaOu8ghQkAICIHMIfDU1hb88t974ApGME1nIRNuEDGt7sSaEvzxquMzZ7A6e/r02634/Yu1aOzxw242quiigb8vWBjGHYiixxdCRb4N71tYju+cs0jn1TP7MHcwgubeAHyhqDJs5zNDPuPWWrcAj90IuJu1FEI9LRIAfB1A9Wrg0vv1nCHHJCPQtRd45OOAi/NQk+xo7eesTNhdC5QvBG54Qd85cpQQEAJCAIAIWPIYZC2Bmx7aDPo1ML2BO4RsyQSs/gis/jCs6hIHXvra6VnLaDIPjGkQP316J3q8Yd3RVDR4Z+rIBxaW42cXLp3M+GTsQkAIZCEBplN/9oHNaOj2qYq8hmS/NAFVlY6pY+ctq8w64YbRVfQE29XmOZhmPrQ4oxnaBzC92IHvnrMQp8wty8InJM2GRDHq7g9rqWt5UwCzjrRXTxtgMAKLLwA++N9pNqAM7Q69yB66Qqs+qFdIpIBFH6yyRcANz2fowKXbQkAITAQBEbAmgrrcc1wI3PpSLe5b24gOTxBRVVVOp4CVczACC8D8KXl4+osSgTUuEzbON7n7jf24bc0+Ze7PXXM9jQuULk8IK2cW47arJbVUDzM5RggIgcwhwE2cG+7ZgI0Nvci1mVBoNw/beVYqZGTS1AIbvnX2QpV2n03tz2vq8MC6RvT6ImqjI5mex0g0VrE9YVYxfn/F8klh7D7h873mV8DmewB6KtEHa7hJouBF/yuKLBffCZTojNqa8EGmeQeCLuCuc7WIKkZgGUzJOxwNahFbU44Brnsm+fFyhBAQAkLgIAERsORRyFoCmxt78c3H3lYG3boErP70wYMmWPRzoCntHdeszFpGk3lgf93QhN+/UAtfOIqpBXZdKBjN1+4OojTXqsRNFgcoclgwpzwX5xwzFTNLdRiX6rqTHCQEsodAIpGAyx+FL6h5ETptRhQ6TMhJpgZkD4KMGsk/3mpRKXMHev2oLLSr1LDBGsWuNldAeR+xQustly+HyZhdtfhuvHcj1u3rVmlxTB9P1phOWN/lw8wSJ/5yzUol7ElLMQF/j5a+xigsRvXkVWoRVoe3sB/wtAC5FcDC84Az/ivFHZtkl3/yJmDvfwB6jOVPSzL4hOaX5SgBll4KvPcbkwyWDFcICIGjISAC1tHQk3PTmgB3hr/88FtYV9+jRAetBuHQm3MqffCgeMVjWZXuqx+ch2tOnpXW45TOjY7A7jY3vvjQWyp6QE+qDIUuemBxd50GvlaTQVVd4oLNbjGiyG7GBxZV4NOnzYZ1iAXf6HoqZwmBzCRA4Wpvix9tfSFEonHEDr6EqXGYTQaUF1gxr9KR2iplmYluQnvN34Xf/fs2vFbbqczZCx0WFDrMh6QT9kejUryih+BPP3oMFk4dB9PucSZz2Z/X4u0DLlVlUI9PIrvH3yk0dP/5RUuxvKponHs8SW93YDPw9Ne0iJ6QB7DmaemEFLIoqIS9QCSopRlWHg985LeAScTFMX1auvYAj16nGbM7ywFbwdCX93UBITdQNh+45inAZB3TrsjFhIAQyG4CImBl9/xO+tE1dvtx08Nvoa7TA1cg+g6PgRv//LKuhK2D1Qf5b1YgXDa9AA998iRYTIZJzzEbAXDeaeK+palPLdDybEPvrnuCWuQV/VD47DACK9/OBR2UoOUNRsEFXVmeFcdVFeKnFxwjIlY2PjQyJt0EwpE41te64A/FEIrEtcquB4NzKGTxn3y3OmxGLK/Jh8M6eJSP7hvKgWNKgO+6nz29C2/UdaPbF1KVfDlfBuSoyFNOYKHdgspCG772wQVYMVO/UMNngdFdezu8qtoho5sY0cpo1nRrl/zpDWxvcWNGkR0mo77vAk29fpQ6rfjJR49RqYTSxokAjcRf/AnQsVMTR5iiFo8BRgtgcQDWAs336qRPi3iVqilZeyuw6W6grxGw5msRVgPTCSkm+jq1uSmaBbz3m8CCc1LVG7muEBACWUpABKwsnVgZ1rsEdrS48aN/7sC2Ay5V/jpZ4yKLJqw/Pn8JThUT1mS4MvrnD65rxB2v1avIqmlFDhVVdXgLx+JgyXAKVFx0MzKvqsR5hLcJF3gUuShifXhZJb50xryMZiOdFwKjJcDIq1d29KqUwWg8AZvZcERqWSyWUNVhTYYcJV6dvKBQRWVJSx8CFPmf39mORzc1g5tBLIbCuaWQ47Qacfr8cly+qkoJ+nrbS7s78LeNzajr9CEYjSEe167nsBhVtNJVJ1Vjdlmu3sul/Dhucmxq6MOUAtugvx8G6wBTCKcV2fH7y47D3Iq8lPdRbjCAQDwKNK4D9r8CMCKInlfOMs1nae6ZQFG14EolAQqGb9wCbH0E8HcCQbcmIDISjnMTiwD2Ii2Nc9WngWUfS2Vv5NpCQAhkKQERsLJ0YmVYhxJwBSK4f20DaNzd4QmhP+qq/ygVGJADWI0GVJU48OUz5uNDS6YIxiwnwOfga49uwfr6HnR5QyoSQIusetfHpbnXDz4/jBqwmYyYXmxXfw/WGE3Q5g6C1SvpByOeWFn+AMnwBiXwVr0bHX1hJXg4rYZhva4oclG4Kss347jZBWJ6nYbPFN+TB/r8aOphCnVcvSdrynKV6KS3sVjGr5/bgxd3dah3LQV/bhjwXUuPykg8jgK7WRXUuHb1THzk2GQeOnrvfHTHffNvW/HCrg7VT25OJGv+cBSdnhDmlOfhgRtWDekfluw68nMhkNEEmtYDm+4CWrcC0dDBSDiTFvlWfTKw4jqgdG5GD1E6LwSEwMQREAFr4tjLnSeAANMinn67FX/d2KzSAqKxuFpc8Ys0hYv3LyhXO8DVJWLGPQHTMyG35ELqh09uV1W3un1hhCJMlTGqVMFwNKYWWlzA0eeKhrwOy/BGvm2uoEq1uWTlDHzh/fIFbUImVW46YQRoYv3yth54AlEVpUOPpOEaP1tMwWXFu5MXFsqCf8JmLrU3/tV/9uBfb7eA78cCemrZzSpVv79R4OL7l+9cemp9+cz5aVHRcFerG195ZAv2d/swvcgxrKUAn2VG6xY6zbjqxGp84tSa1EKVqwuBdCfgaQO664CwT/PEomjlkLTa/mlj9H9dp1fZU9DKYm55rvpbmhAQAsMTEAFLnpBJS6DVFVTVgtQvDrsZs8tz1Q6wtMlHgAuPp7a24Im3DuBAX1AtomjQTuPpTm9IuaNNOVipMAea4DmUNxorFTJi6z1zy/CbS4+dfDBlxJOaQHtfCG83eBAIx5Fr0xehwygsq9mAhTNyMb1EjJWz7QFihCtN4SnuMMJquGp+/dFZC6bk4Z7rVqnnYqLbzY9vwyt7O9HjC6tNjMGqMrJoDKNvqcnNLc/DrVcul4XoRE+c3F8IpCmB12q78MiGJuxt96pIZS2VWisItKK6CFeeOBM1ZbKRnqbTJ91KAwIiYKXBJEgXhIAQSA8CFLIae3xo6ParVJk363vw4JuN8IVjyqunv1Ilo7MsRiOKHGYVuTewhaIxtLlCWF5ViLuuOyE9Bia9EALjRIDiVXNXEDk5Cd2FDGjyTsF4WrEVy2ZlXyW7cUKflrdh6vWXHtqM1+u6daXhae9gP0qcFlxxYlVaRDHR//BLD72FnW1udHnCKnWSIpzZmINYIqGM6N0BLYqQpvY/+sgSLJk2TAW2tJwp6ZQQEAKpJsDvlb97oRbPbm9DlzcMVrdmVWtGo7IgUHRAKvX1p8zCecsqU90lub4QyEgCImBl5LRJp4WAEEg1gVf3duGH/9yBfZ1eZUTNnfV+aywutumJQlGLpu40+O33zeJihx4oK2cW4/arV6S6m3J9IZBWBDbvc6O1NwQWbNNbwZWRjpE4MKXQguNny8I/rSb0KDvT4QnimjvWqxS8mSXOQ9IGh7q0LxRV6YTp9A7le/33z9eCJvR9gYiK3KZ3F1Nk+y0I5lXk4stnzFP+YNKEgBAQAocT+O3ze/GPLS1o7QuozU9WXj0ylTqkorKq0yiVWmZSCKQbARGw0m1GpD9CQAhMOIHNjb34wT+2q0UX/XkoWA1MG2FUQSweV8KW2WBAntp5t6t+9/o18+qzlkzBDz+yZMLHIh0QAuNJoLbNj7pWn1rcs7qgnsYIFgrAsyrsmD9NFv96mGXKMVub+5SHVIc7pAqk6Gn0pmzqDagopoc+eaKeU8btmNoOL57d0Y697R4lZPH3Aot2rJ5TipNqSnQJdOPWWbmREBACaUOA3yu//fg2NHb7UJ5vU5ufQ7X+VOr5U/Jw7/WrdFdATZvBSkeEQIoJiICVYsByeSEgBDKLAEO8b7x3I7Y096lFdTAcgz8SgzEn54jFCX0LwvG4CgGntwuFLJab579vOmMuzl0q4d+ZNfvS26Ml4A9FsXa3Swm/efbhCx7034vHsjjC8bPzUZgrPoRHOwfpdD6LY3zjb1vR5QlhRrFOASueUH5Zi6bm45FPnZROw9HVF/og0l+TmxmsbMxxTy20S4VNXfTkICGQnQS+8shbeLW2S5U8L09S0bTfzqLEacXlJ1bhBikIkZ0PhYxq1AREwBo1OjlRCAiBbCTwz60t+M2ze9HuDqqIARqyMyUwHNOEqv5Uwf6x07OAEVpOiwk2swE08z1megH+fNUK3SlU2chxdGNKAO4WoLdBK73NakXFswGrROWMjuf4n8XoxJff7oY3GFOmtMlMuMORuPL+oOH7qYuLJYJl/KcspXdkxNLnHtiE5t4AZpXqMyVmRcIWVwDHzihU0QeZ0lhh8YF1jVizt1NVr2UkGX9fMJWWRWIuWTEdp8wty5ThSD+FgBAYIwKMqLr6jjeVsK3/bktcAAAgAElEQVQ3ldofjiqfrOOri3DHNSvHqCdyGSGQHQREwMqOeZRRCAEhMEYEbn78bfx7ezvsZsM7VaS4+KIvSyQeVymDAz0LuGCncTsXKk6LETNLnfjeuYuwYqaUih7RlOx7Gdh0D9C1G4iGgUQcMJgAixOY8wHg+GuA/KkjuqQcPDEEejxhvFXvUVFYFLCG8sKi9xUN3B02E5ZU5aKi0DoxHZa7powA00OvuH0t9nR4UZFnUwboyVq3N4RIPIFT5pTi15dkRiVXRlb85tk9qhJhnz+i/BL5uyKeSKjND25wlORa8L4F5bjpA/NkcyPZQyA/FwJZRGB7iwtfengLKHIz5VhPo0UFI1EXV+bj4RszLxJVzxjlGCEwWgIiYI2WnJwnBIRAVhK4/q712NDQq0K8+32vuAhp7QuqijH8UsH/7o/ESiT431CG7jTv/eZZC9QiRZpOAoy0eunnwJ5nAH8nEPYCBguQYwDiUU3IcpQAeVOB078N1Jym88Jy2EQS2H3Ai+buIAKhuLaYNzF6UesRPy8Ur5gmYbcYMLXYhoUzciXFaiInLIX3/vOafbh/XYMSdmYUOd4phjHYLZnCzSqEjFL42YXHYOn0whT2bGwuTW+b7/9ju0ofz8nJQWmu5RDPREblMp3QHYiogh9nLp6Cb3xowdjcXK4iBIRA2hN4q6kPX/vrFnR4QqjSmUrN9wYrYi+qzMNfP3Vy2o9ROigExpOACFjjSVvuJQSEQNoT+Phf1oFfNqYU2I8wzuQihCmFXGRxEY6EVpmQaYQ05Lz5nEX42IoZaT/GtOrgcz8Adv1TSx20FWppgzkDojSiQcDboXW5aCZw9i+A6VLdcag5ZERThyuEXm8EgbAmHtGLqjTfgpI88xEpsKl8Fho7A9jX7kc4mlDpVPG4djcKWUajAVZTDqrL7ZhZ4RDxKpUTMcHX7vGF8en7NmJvh1fNc0WBTXkKHt5U6uDB6lwnzy7BLy5eNsE9T357/i644Z4NeLvZpSoS0v/wyJFp12FKECMw6In1rbMW4LT5stGRnLAcIQQynwCrWX/m/pGlUvPdcqA3oET8+2/InFTqzJ+tEY6AO3F9DYC7VdtwzS3Xvqsaxc9zhCRHdLgIWCPCJQcLASGQ7QQ+e/8mvF7XjWKnWRlLD9aYMhiMMIIkAZPRoAyKubP+3xccgxNmSeqg7mek9nngP98F+vYDeZVauuCgjd5Ybaz9CFQuBy59QL4cHMaJUYFNSjAKKE+pGP8kEmoxzZRX+lE5rUYsmpGLAuf4fbFiNcKGzgBc/giCYU3BoldcvsOEqjK7pFLp/rAMfqAvFFOFJtisZiOcVoOKAkq3tqWpT0UpcUFGf6gihxk2i1EJqqzo6g3F4AlGUOy0YF5FHn532XFwDlOlK13G98TmA/jdC7XKM5GpQYd7JPb3k2scCliMwODClOmEZyyqwLLphSpVklXJpAkBIZCdBAKRGC6/ba0S8fWmUlP453fNk2aXqvehtDQjwJf6jr9r1hfediAW1jpoMAO2AmDpJcCySwCzVqFc2tgSEAFrbHnK1YSAEMhwAr/49y48tumAMmPnbnqyFjoYNTC7LBf3Xn8C8u3jJw4k61t6/zwB/PU6YP+rgNECOEuH7y53tnrrtVTC074OHHNxeg9vHHtH8WpHoxdtfSElElG/oGDVv5hm2isjoEwGA2wWg/KbKisQv6lxnKIxv9WB7iD2dwSUhxjnnwGhnG+zMUcJgzNKbWlniL+7zYP/fXY39nX60BeIgBFXXANQYKWoWeSwqA2Ar31wfkaIV5xUpgW9sKtD9bdgiHd/MBJDOwuBRGKIJvhZ1FLQuUmSazWr6rWXrpyBj62cAbPRMObPilxQCAiBiSdw+yv7cO/akaVSV5c48d/nL8Hy6qKJH4D04F0CtLr4++eB9h2a9QUzBfg9li0W0fxb+Z2WkVjn/gYolMyMsX58RMAaa6JyPSEgBDKawJ42D7708FvY3+1HZaHtEC+TwwfGRWNrXwBWkxFnHzMF3zl3UUaPfVw739cEPHQZ0FOnVRocmDY4VEeCfZpH1twPAeffMq7dTeeb1bf7UdfmRyAUU6bp9Js64llNAFxIUzDItZuwam6BioCRllkEKH5sqnPBHYhq4lU8oSKuKFqqfxtyVOqz02bEcTX5sKfZHFNMfXFXB17Z26l8BRlhkGszo7rYgXOXTsXiaQUZNSHX3PkmNjUw5dyqfg8c3hh11dIXPJh2rglXjIykZ2K+zazER84p0ypXzy7Fd85dKCJWRj0B0lkhoI8AI6o+dd9GsDIrY2QZtT9YxCaLPjCVmsL2CTNL8JtLM6OQhT4KWXAUv0Q98DGgaw/g6wQcpYCdXo0DIp9DHsDXAVjzgIIq4LIHNXsMaWNGQASsMUMpFxICQiBbCPzkqZ14Znsb+IWjssCmUnMOb1x4MHUwGI1jTnkufnPJscrbRJpOAvteBJ76urZ7VVit7yTucnlageknAFc+qu+cLD+Kqaxv7OqFLxiDxZQzqHg1EIE/FFMRL6z4R4FDWmYReG1nr6ruGI7EYTEb1ZwPbEwfDUViKrWZKaMnzi+UNM0UTvEVt6/D1qY+VBbZYTkseopRjzSk5+8INkZXcbbCsRiMOQZMLbQpEcsTjKLTE1QL2ktXVuGG99SksMdyaSEgBCaKAP1Vf/CP7WBla1ZoZRQmiwVpqdQJVe3aFYyoaFR+r7zliuXKX1VaGhFY8ytg68OAuxkomqVFWw3WmDVAbyxbkVZJ+5xfaMWJpI0JARGwxgSjXEQICIFsIsAvFl/56xZsO+BCtzeMXKtRRQlw15zJOhQNaOjOBcn0Qju+8IG5+MDCimxCkPqx7H4a+PfNAKOqCnSGV9NjwNUEVB4PXP331PcxA+6wv8OPPQf8KsLDYU0eUcUoHXoQ0dj9lIXFKtVwJI2+b/5wXAkobIz40nPfkdxDjh2cwK5mL5q7gmrhwwirobyu1ByF4kq4qii0YOmsfDHJT9FDdeO9G7BuXw9K86ywH7bR0eoKqKIf3OywGN/9bDLqTP3uKLK/47PoDUXVhsjMUidu+/gKJWZJEwJCIPsIMJX6l//Zjf1dPvT6+4sCJVRhC26W0gdweVUhvnX2QhGv0m36GX31lzOBju1A/vTk/lZMJ+yrB4pmA5fep6UUShsTAiJgjQlGuYgQEALZRoCLxF/9ZzfeqOtGjz8MmnByhywHjHLJQaHdjOlFDnzmvbOxqqYk24af+vE0vQn84/OApwUo0hlxEPFrIdvVq4FL7099HzPgDm/Vu9HSE1RRVRQs9DRGa1F4WjozT0Vi6WlchB/oDoGCGasKUiRh484xrzWrwoHKYn3X0nM/OeZIAi9t64bHH1VpgcYkwiOFShq859pMKgpLRMbUPFE/fHIHnnq7VQmEZXnvPv/kX9/tU2m7FKv6U4X4OaLYzHTDWaXOQ3zKmDbksBhx5YnVuPG02anpsFw1awjQ77A/LZzvfrv13ecsawaZpQPhd8nndrbj5d2dqgAE0wadFhOmFdnx4WWVWDaDKWnS0o5A83rgH1/UCg+VzDk0bXCozroatQrbp34VOO6KtBtSpnZIBKxMnTnptxAQAuNCgLtlf9vUjKYev0r1YGpOeZ5FiVbnLa3ULRqMS2cz6SZBF3DP+ZqPACOwTDrED28HQLvqRecDZ/0sk0absr6u3d2HLk8YNpMhqajR3wlWrTMYDJg71YGaKcnTXum1RN8lVfGO1TcP+i7xehSyDPRdOlhZcHlNwYijulIGJ4su3OMNY3OdB/5QVHmY6WlMF+XCdsF0J2aUSiUkPcxGegyjdL/+6Fbs7/ZhRpHjnd8HTAU60MeKoJpY1d+4UDXkAIV2yxFRVkwNdQcjeO/8cvzqY8tG2hU5fpIQ6HSFsa/dr9LGKYiyMRqzv4DD9BKbvIMnybMgwxxnAi//j1Z1kJFVeVP03TzQq5m8zz8HOO/X+s6Ro5ISEAErKSI5QAgIASEgBFJC4NnvAdseAxhZVTB9+N2saAjgThajtWjgPlUWeJyTdXv60OkOK+NuvemANHs3Gg2YP82JmeXDCxv08Xl9Vx8ohvQvxhmBOLAxIosV1ixm+i6ZcMoiqZg01p+Xnc1eNHQElGCo13yfaZ6xBFRk3LGzMsPvjOvx+i4v1u7rxtZml9o0KMllSk0RVs0qxtTC9BPivvfENrywuwMufwSVhXYlYjHFvMMdUobt/d5Ykbhmuk/PG/olHu6ZxdTCNlcIx1cX4s5rTxjrR2jE1/MEI2h3h1SUD1ObKvKtyrNL2sQQYNTOtgYPutwRsPox3839kX20NmB0ODcSGIlVmGfC2v1d2NHiVtU+ma66YmYxVlQXodBxsFraxAxD7ioEMpfAM9/SvrMazYBDZ+YFDd1plVFzOnDRXzJ37GnWcxGw0mxCpDtCQAgIgUlDoLcB+NsngO49gNEG5JYPbnIZDQPuJsBeBMz9IHDOLycNomQD3dboQVNXUKUwcfGip3kDMZVStnxOPoqcwy9I327woLUnpKrF0RR8ON8lRgQwvW16qQ0Lpufq6Yoco5PAlv0eHOgOqugdvfNMwTEShfLBWjEn/av79fnD+M1ze7GuvkdFmtGrLRqPqxQ8CqNMr2PU63WnzEqryFdfOIovPvgWdrW5VeEPijyMi+G/4/E4jAaDGgcrRdILq3wIIYhCUYcnhJUzi3H71St0Phljfxgjxx5Y16jSm/pFN0ZZmg0GnDK3BFesqpaCJWOPPekVN9a50O2JIBSOqWId3DAYuJXAapbcaODz6AqG8eT2ZrR7gipKi1GA/Aw5LUZ84tQanL10qvL0lCYEhMAICLx5G/DGLUDIrd+7lbYX3JlZejFwxg9HcDM5dDgCImDJ8yEEhIAQEAITR2D3M8DLPwP6GrWwbGcpYLRqQlYipn1RYLohd7vKFwMX3g5YRRzpn7DW3iC2N3pBPxSKUlwkD9e4yGFKYIHThFMXDV/WmamGjL5iahPFKy5ih2uMEOACigbxpx+jc3dy4p68jLpzXZsfta0+cP70+lkx3ZOtqtSGxVV5aT1e+sB87sHNaHcF0eUNKUN0Lri5yGbaHVPyGHUytcCGWWW5+MPly9NOxPrpv3ZhU0Mvun2hd4SEeAJgcUKTwaCEuPI8qxrXYK3PH0EwGsOHFk/Bj85fMiHzRV8eiogufxhdvjBMOTnqc8/IsWgigRKHBYUOMz77vjn40OKpSd83EzKILLwpoy9rW/1K2LVbjYd4p/UPl4Jva18AdrNJVbqs7/Fhzb42tenAyqS+cExFcE4psKuiM18+c56IWFn4rMiQUkigrwl4+ArN+qJkHnN3k9+stx7IrQDO/DEw74PJj5cjdBEQAUsXJjlICAgBISAEUkZg/6vAml8CrmYg0KMJWYxhyDECZhvgKANmrATO+JGIV4dNAheWb+zug8sfBWtkDpdexsWLLxSHzWxAVZldpRAO15q7g9jZ5FWCF6ve6WneQBQOqwnH1eSjOE/SjfQw03MMBZx1u11KTKRAqKcxIs5mMWBpdR7KdZr167nuWB9DYepT927E7jY3WI2PaXgUew5vLKTBBTrN0k+YVYL/uWjpWHflqK9HT6y/bmhS/lcbG3pVCiRTCoscFhQ5zMNEMAKNPX6U5lrwuffNwUeXM6V6fNuaPZ34+TO7sL/Lr/pMsW1gYQhG9DEtkvNVXeLAl8+Yhw8skuq74zFLr+3sRa83oubj8BRu3j8aT6Cx268EUMZlFTut8IYieLW+HV3+0DtdZFXMbm8IlUV2XLd6Fi47oWo8up8R92CQjDsQUSmafb6IEm0dNhNK88wozjWrqDdpQgB3ng20bwes+YBj+E1AMH3Q1w4UzwGuekx/2qFgTkpABKykiOQAISAEhIAQSDmBWBjY8jBQ/zLg6wbiUcDiBPKnAcuvAiqPTXkXMvUG3Z4wtu73KFNflWJmMaq/B7ZYLIFAhOlYOSh0mrFqXsGQi+n+87bsd6vKgyNJW2PUFnf8q8psWDQjvaN+ks03U28o3jHqiY0pO/Qam6i2ZnsP3P6omkP2ZbgWiSZU2ierEK5eWJRW0UqH9/tfW1vx6+f2oNUVVMJIv6/PYOOjiEKhhxX8fn/5cvV3urZ739iPu17fr3ytZhQPLsr1951RZ3zWFkzNw53XrFSeU+PZGNlzyZ/XYl+nD3k20yEVFQ/vB/vqDkQV+3uvPwFFTvFUSuVcuf0RbKh1K/GaBRwGi/lgBUt3MKoqJfMd5TCblP/arg4X3m7rPaR7FGno0TazxIk7r12JklwdBVRSOcA0uLYvGMW2Ri+8wZh639NfjI3Vfektyb+54TO1yKYr6CYNhiRdSBUBbrj++2agey/grABsQ/hL0tvVfQAoqAJO+qz2PVbamBEQAWvMUMqFhIAQEAJCQAhMDIHWniD2tDDFhF/A6bfDL90qjg2xmBbpTu8kRu8sn52vS9DYUOtCe18YXEvr3X2mYTC/+2eScfjhM8ZFIP2m9ncE1GKGkWtsZJprN2LuVCeKcsc/uqzTFcK2Bq+K6rFbaNo/uIilxMpwTKUasa/VSYz6J+aJ1e7KyJErbluL3e0eFNjMyLcn59rp0czRaUh965XHT2T3h703H5vPP7gZmxt7QX+vigKbEhYGZp3w+eryUbyKoarEga99cAFOm1c27mP6v+f24PHNB9Dt04SNZI0iYoHdjI8cW4mvnDk/2eHy86MgUN/ux54WH/i55mf68Eahvb7Th2BU26CgAMwCAYxiPODyY019+xHnNPcGkG834YZTa3DlidVH0bvMP5WRbdysYRp+JBpX1XyZusz3PX8X9G9g8J1bWaz5O+rJHMt8MjKCIQk8/yNgzzOa9YXBpFlfGA7+7qL1hb9HK06UXwlMPwE47zea8bu0MSMgAtaYoZQLCQEhIASEgBCYOAIUr3Y0ecE0vkgsoRb53K2n/47FnIOyfCvmT3MkjbzqH8H2Jg+aOoNghStWTtPT2AfuWNdUODC3MvlCWM81x/MYRrG9Ve9WAhAXNBSvuFihhEVBgqIRUzDLCixYXJU7bLRQKvrNKmTtLnossQKZJkr2L6bYP1aEjMXjKpW0JNeM42oYaZeKnozNNdtcQVx313o0dPtQU6bP246LyoYePxZPzccjnzppbDqSoqtQbPz6o1uwp92DTk9YzY3DYlLiMj3KGFFGT6xphXZ8/OSZuOC4aSnqydCXpYh4wS2vobbTi6oihy5xuz8SjnP2t0+fPKGRieMObJxvSPFqX5t/yPcw04uZssp3fn+EKAUYm8mEdk8Az9e1HtFjphLSM+vMxRX4yQXHjPOI0ud23HBZu7sPnkBUdYpFSAZ7X/I4VnVVmwKVTlSXpV811PShOkl6su5PwNa/Ar4OIOQC4rGD1hcmLXvAWQbMPQN47zc1kUvamBIQAWtMccrFhIAQEAJCIO0IhL3ajhi9tUxWzYfAnL1fQLmL3OWJqJQTY06OihYaTcRQhyukUhMp5jAVTU/jQoDHrppXqNs3S891x+MYjvPNPS4tii0eV2lcjGjobxSItJRCTSCiiHXsrCHSB1LYYZq5058sFEmoiAEKjGw50NJdKGqx8uDC6XlpLV6xz3vbPfjcA5vR6gqgWkfkD89RESddPsyfkofHP7M6haTH5tJ8bv60pg70mGKEE58vVRnObECu1YTqYge+dMY83QLe2PTq3auw+uFFt76BfZ1ezC7XJyLybB4/s9SJB244UUVjSUsNgaauAHY2+9RnfbACDqx2yahEFgzof1+x2iVFrMY+H15v6DiiY+9WvCzC7VevTE3HM+CqW+rdaOsNacUxkvg8kj83COgHefKCIt3VYDMAg3RxtARCXuC1/wM6dmjFhvi72JIHFM0EVn9Bi8CSlhICImClBKtcVAgIASEgBCacgOsAwLLH+17QPLW4kmR1Q4ZyL7pA8yRIZsI54YOYuA4wyuLVHb1KCLOZjDCZhg/lUbvU0QTy7Ea8d0lmVSHko7F5nwsdrrBKa2O5+UHNZpiSGU8gEIops/oF052YVmIb90mix9WeFi88gZiK4mGjeMVqkYwQYCRBJrTaDi8+e/8mtLgCulLXOKZ+AWvBlHw89pmTM2GYqo98xmjy/lZTHwKRKKqKnVhVU6wM3ieyUbi9+I+vY1+XD7N1RsGxv/TLomfZfZ9YhWLxwUrZFHJ++qOEuDlweIQQ/axors+IW6YOsjktJvVeoP/V7k73EX3jNelldsKsYvz54ytS1vd0vjDf46/u6IE7EIPDYkhaZZdjofjMdPp5lQ7MLHek8/Ckb0IgqwmIgJXV0yuDEwJCQAhMQgKJOLDjSeCVXwHBPsDXCRj4xZ6mUFzsJ7SyxrYi4KyfaxUOpQ1KoKEzgNoWP5imwt1/mtkO1hiVFAjHVfQVU+sq0rjq3WD9pw/Kpn0uZYQ/2CLx8HO4G8+UHVanOmlBkTw9oyTAimhX3fEm9nf5UFPq1JXeyoU5PXwWV+bj4RvTO4VwlFjG9TRWFbzwD6+jrtOLOSOIwOLxNHJ/8JMnIt8mEVipnLR1e/rQ7Q4rkYWRewMbq3M29fgRjiVgMxnUO9ppMcMTDOOFujZ4Qqzqe2ij6MUNh3OXVeJ75y5KZdfT9tqdrvA73ld6q+xqHo8J5YU1EdG3aQtTOiYExpmACFjjDFxuJwSEgBAQAikmsP3vwJr/AXr3A0YLkDf1UAPNaBDw0BckARTVAOf9FqhcluJOZeblGTWysc6FXl8ErDBoNLASn2Zwy8ZoGHqDcPffQd+l/IlJqztaursPeFHfHlCeV0wPTNbIRVUFs5lwwtwCVR1M2sgJMPnxxns2YFNjn0p/KtVREY1+P3azEacvKMOPz5+8/j0jpz34GfwMU8Da0+FFRZ5VeXIla/5wFO3ukBK8Hv3UySr6T1rqCPR4KLZ4VJU8vn8HFtXgu4gptRSy6IGVbzWrf9d2u7Gl9dAKhOwhj6cJf1meRaWunrt0cqY5aeb4fsQPegbqmT0a6dMsvyTPgpPmF+o5RY4RAkIgBQREwEoBVLmkEBACQkAITBABVzPw4OVATx1gK9CMNIdq7hYgFgJK5wPXPQMYkgsXEzSqCb0tFzw0dOeONY2n+SX+cN8lGptPKbZiwTT9HjoTOqjDbr6+1oWOvhDMXBwOUd3v8P6qdBKjQaURVomp76inc8P+HnzniW1qUT0jiYk4IwE7PCGV6nb/J1bp9mYbdecmyYlPbD6AW16sxYHeAGrKc4fKnlU0KDqy6t3UAhs++Z5Z+NjKqklCaWKHufuAT1VH5Xunv6osKw6y0QOLlSzpfRWMxtAbDOHlfe0qWujw1sVjo3HMm5KLu689QXn9TcbGKrNkysIKelOu6ZVFdqX5Fpw4TwSsyfjcyJjTg4AIWOkxD9ILISAEhIAQGAsCz/4A2P4YEPIAhckWVv+/zn13LZA/DVh5A7Dqk2PRg6y9BlMEdzV7VfUqilhsjLzItRmxcHruIVEBmQaBHjNdnrCqMDhUmuThY2JEmsFgwOwpDsyZKn4oRzPn3378bayt60abO4iKfJvy8Bno9cMoIVZOo2F1VbEDH15Wic+cPudobinnDiBA37dL//SGSiOkYD2tyD5ohU3OQ0sfIxWhDN8pIuqtUCrAj55AfYcfjR1BrYLlgAIOvLI3FIMrEEZDjw+bW3vUu3lgXBzFrE5vSEXS0rvsG2ctwKlzh9ngOfrupvUVerwRbK5zwa9S3/WJeIw2piY4vdSGY6rz0np80jkhkM0ERMDK5tmVsQkBISAEJhMBVhu882ygay9QNOvQtMGhOEQCgPsAULEEuP7fk4mWjHUAAaZJtveG1KJvYHrOcJD6DX0XzcjF9Akwcs+mCaS3zFf+ugV72j1KIOFimyIW54M/o2jK9KjpxQ6smlWM705S355UznmbK4hP3bcRDd1+sEpdRb4VdgqJB6OuKHy0u4MqYoci4v9ddqxu4/1U9nuyXZtRQHtafOjzRVT1PDaK7gwcvX/DfmxrdamILEbJssolo7Ro2h6OxeGwmDC9yI6rT56JC46bNtnQHTJepou/urMXLl9U27jQkQZLj0R6kPGdPxHFOyb1hMnghcAAAiJgyeMgBISAEBAC2UGgrxF48FKgrwEo1hmdQVP3nlqgbBFww/PZwUFGMWICta0+1LVRONGXTtLvgZVnN+HE+YW6U1BG3LFJdsLDbzbi71ta0OuPKI+xaDyuKqvRa6wk14pPnlqDU+aWTjIq4zfcDncQX35kCzo8QeVxRSFRFW/N0USS8jyripD72YXHYHqRRB2O38zouxNFmV/8ezfW7+9VEYtMuWXUHKPk8qwmlOdb8e2zF6JmBNUmj7hzNAR01wG1zwEdOzWfSRZCqTkdyJ+qVfrNkLazyYum7iBCkTicVsOwRSR4DD8P+XYTTl5YpDtSN0NQTIpuhqIxFanI3/Mmg0EJvBZT5jyvk2KSdA5SBCydoOQwISAEhIAQSHMC/FL98JUAfbCKa/R1lquz7r1A2ULgky/oO0eOyjoCnkAU6/e6lGgyXLXF/oFzMROPJ5QXygnihTKmzwNjSna3efB6bRf6/GFMKbDjPXNLVfRV1rZ4DGAEaSwMMObJ4gDMEzfef73dgkc3HlACCNMLTYYcFb1zwXGVOG/ZtEPSO7N2TjJ4YBStNjX0YsP+XmXoTs+4U+eVoshhGf2o+LvywCbg6a8BkaD2vEb8mrppydOe14JpwEduAZyZITJT8Htjd5+KwuJz7rAYVKXHgY3D5vueP3dajVhSnYvyAuvoOcqZ406AVTfveb0Bz+5sV7+3+TuGs8wI3/OPnYaPrZyhxCxpmUNABKzMmSvpqRAQAkJACAxHgMLVA5do1QdLJAJLHpaREdjR6EFzNw2OY0rE6jdIPvwq9J6hkS+jgpbOzFMVqaQJgVERoGBV+zzw2m81QYARoVxaMYplyjHAaV8HiqpHdV+idqEAACAASURBVGk5SQiMGQGqOJvuBtbfDrgOaEIrBSuLU3tmwx6AkVnWAi0K68O/AyoWj9ntU3kh+lqxiAfTA/nu5+ePQTmstEvRioIHhQ5W2aXf4Qwp2JHK6RjTa1Ooeq22Cz97ehc8gQg6vCEYwCrKrMapCVlT8m3Is5nwswuXYuHU/DG9v1wsdQREwEodW7myEBACQkAIjCcB+lndeRbQtQcomAGYbMnvHvICvg5tsXjtv5IfL0dkLQGmh6zb0wdGY3HHnakFA9ML+IWX5sk08XVYDZhWbMOC6ZlZdTFrJzGTBuZpA574DMBqqJ5WIM7oK6azJLi6AuxFgKMEWHw+cMpNQI4+o+lMQiB9zRACdS8B/7kZ6K3XRKrc8iM7TiGrr0kLbSmdB1z1uCZwZUDju31bgxc0do/E4spbjOIG02bNxhzle7W0Og+5donSyYDpfKeLr+ztxE//tQsNPX4Yc3JU5dSBv9Pp9dfqCqpHdmapE/97yTLMLRdz/kyYYxGwMmGWpI9CQAiMHYF4FKDQwb+5y02RwyTh4GMHeIKv9Nr/ARvvAvzdmpH7cI1fuJk+WDQTOO0bwOILJrjzcvuJJkARa/M+N9z+qBKr6JWhPIDYsZwc9eXXas5BVZkdNRUTl+I10Zzk/kdJwNcFPHQF4GoAgm7AWQ7YCt69aCIGUOBiiharqc79EHDGD47ypnK6EBgFAT6Dd50L9NQDJjuQO1zlwgTQ26AJV1UnAxfdPoobTtwpFLK6PRFVkTYWA/IdRlQUWsUnaeKmZNR37vKGcM2d61Hf5UOu1YjyvKE3NFk4hEUOmGr72GdOHjL6etSdkRPHnIAIWGOOVC4oBIRAWhJgePv2J4D1t2mh7v1Z8IwlrnkfsPoLgKN46K5T7KDoxYUFl7MGk/ZHWnoR8PcA918EdNcCRquWznBIMfGD3VW7xY2AwaAZuF/7VHqNQ3ozoQToibLrgFdFYlHAYuOjUuQ0q6grppRMpsa0yQ53GF1uLuwSKhJhSqFF/T1UquVk4jOisfKBevKLQN3zQMgDFM7UfIQGa4wQ9bZqnn5n/AiYffqIbiUHC4GjJrD3WeDf3wa87ck3hXizWEQrpFI2H7juGc3kXZoQGGcCv3luDx7fdAB9gQjmF+VgbmQ3lkc2IT/hQrehFBvNK1BvqkEoR9vAruv0orLAjqtXV+OqE2eOc2/ldiMlIALWSInJ8UJACGQeAe4IPn4jEOjR0jX6RSiVqgEtHJ6736d8GVj0kUMXEzy2azewfw0Qj2jHs3HBUVAFzDodsErIcVo9FE3rgX99VUt3oOiYP+3QdMKwD/C0AGY7UFQDXPZQkl3ltBqddEYIjBsBptJs3e9Gnz+qhKtITHsBGhm8ajSAOt6S6jxlZi9NJwG+n/75RS2ihcJUso0QRpMyCmbmqcDH7tZ5EzlMCIwRged/BGx5ULuYc7joqwH3690H5E4FzvwxMO/MMeqIXEYI6CPAwgUX3/oGGrpcuMn+DE6LvgYTonAmfDAlIojkWODLcSIKE/5lPwcvWD8AXySB1r4A5lbk4YnPrtZ3IzlqwgiIgDVh6OXGQkAIjAsBGo4+8nFNzIgGgbzKQ30ZuFvoPqAJHUwlO/kLwLJLtK5xd3z7I9rfIRfASlH90Tw5CcDs1IxMp60Epq8aPNJnXAYpNzmCQMsWrVpSoBdwtwKIa74yFB7pJcNqSY5S4KI7RbySx0cIDEIgEIrhzb0ulUoZisRUpBUjz/gRYqolBS0aHdPwflqJFfOniR+YrgfpxZ8Am+/TzK9zK5Kfwk0UVlhlYYpL7geKqpKfI0dMLgI0Ved3Ge6wURBl1BMtEsaiPXI1UL8GsBcDVp2fcW+Hdv8V1wLv+epY9EKuIQR0E2hzB/HpO17BN3p/gKlGNyri7YjBAH+OAxGYYUEYjkQAOUigzTgFHYZy/Djvu6jr9GNORS7+8blTdN9LDpwYAiJgTQx3uasQEALjQYCCxf0XA62bNfGJEVNDpWpwl5tiR/Fs4KK/aKlnW+7TorZUdZ28Q6N4uPgIuoBEVPtiN/U4oPo94zEquYdeApzzDXcA2x47GD0Xf9f3bOUnNHNkaRNKgB9RlnzvbxRJhvqITmhHJ9nNOSev7+yDOxBVVbgoUg02L6zgFY7G4bAZMXeqU3mDSUtC4K/XAvUvA7ZC/dG7rkbAVgS8/7vi1ScP2LsEKBQ99wOgfZu2QaNajvZcnf5toOpEwHCU5v9/vebg8zoSAatdu++K64FTvywzJgTGlcCBXh/q/3AxpofrUJHTh3ZDuYq6OrxZE0GUxTvRYazALtMC3OS/HnPLc/GPz4uANa4TNoqbiYA1CmhyihAQAhlCYMffgRd/qvkxcPc62Y6ku1kTqRZ+GJh+HNBTp5WLVt5YQ3iU0BCe5c9ZLWrh+ZpIJk0ICIFhCbCSX2OnH/vbAyorl3/6P2GM5pk9xakqQEmbGAI7mrxo7goiFI0j1zb8Apj+WOFoQh23elGxqtolbRgC938MaFoL5E7R0pj1NFYp5O+mU76kRbVISxkBvovCkRhaesPo80aUcMsUWXq+MW02LRrFqjW/BHY+Cfi7tM03Nn70OAAWpsmvBAqmAxf8GbAXjr7b/A61+V7twiw2oKfxuxOj3c/6ufi26eElx4wpgci+19B832dQEWtFi3EaEsN89zckYqiMt6LZOB3Xhb+GoorpEoE1prORmouJgJUarnJVISAE0oHAwx8H9r+i+VsNrPA0VN/ocUVfkunHA3NP1yKsmGaWTPhiiiG/3JXMBRZfnA4jlz4IgbQl4FepaX2qVLk/FD+44urvbg5sFoMSQY4Rb6UJmUNW4nplRy9c/ijsFoMuIZFzajYZMGeKAzVTpDrjsBP36PXAvhdHFoHFghPcSHn/94FFH56Q52Iy3FR7N7lU1CHfT1Eq7YB6HzF9llVIT5xfACMrOkxk+/fNQN0LQN9+wOTQIsaZGt/fKGj5OrVnhptqlz8M2PJH1+N9LwH/+jpAEZWebckaN/34vJYtBK7/j1b9QpoQGC8CiQTid38E7oa34Iub4TMWJo3qLo73IIEE3k7U4LdlP8Lj4oE1XrM16vuIgDVqdHKiEBACaU/g7g8DLZuAghn6K+HQfHTWKUDZHM3jyqLD84HphNwFdZQBx10NWEf5RTHtgUoHhcDREeACcd2ePviCMZU6yNS0gZFWXDj6w5rXnNNqVCJWWYEYhB8d9ZGd3eONYHOdC/5w8uir/itHolzsxzG1yIbjauT9Nyzxl36mRbTQd5FRWMkaU6F7arUNEhacoH+ftDEn0NYbxM5mH+j9RuGK7yXTwShQFi/g+4oCls1swMq5BXDaJqgKce0LwHPf156JvGmHenoOpMLvJfT+pMXB/LO0aKjRtGgYuOscLSLdYAbyhnlmGRnGTUBGfM08Bbjg1tHcUc4RAqMnwErU93wE4Y69qE9MU7+X+LkdrtELqzLajAbjTOw492+4cPmM0d9fzhwXAiJgjQtmuYkQEAITQuCOs4C2rZo5e7JKT/0dZLoho68Yfs+0QL0loOmVRbFr/rlAybwJGa7cVAgcTmCgx5Tyr6fH1ARienl7DzyBqOoDxauhWjDMRSRUWtrJC4pgNcsu/nhNW2NXALuafIjG4rAPM0cD+0NT92A4juI8s5ovacMQaHkL+PtnNUGAVVCN5uFxMZImFgJmnQZcdIegTQEBtz+CDbVuJawzS3Co554/Z8u1G3Ha4mL1Ph339uDlQNMb2vcNilPDNRq7c1OO3p4f/RNQsWR03W18E/jXV7Rnlht7/H50eKPQyorPJjNQOh+45imJvhodbTnraAjwGXzwMsT7GlAXm6I8GqlDD5f+G43FMDNxAM3mmZj7nfVHc3c5d5wIiIA1TqDlNkJACEwAgdFGYC04C8gr19IH9QpfwT7No2TOGUDFsgkYrNxSCLxLIBiJ4Xcv7MWaPV2HYOFO5GfeOxvvW1gx7kJWQ6cfe1v8YBRWnj159AIXixZTDqrKHVgwzSnTO04ERMAaB9BPfQXY+x/Nu6ho1tBp6kE34GsHiudoETTVJ41D5ybXLRhZtWZ7L/zBqPKQsluG93zje4nphPkO0/iLtb37gYevArr3ahF5yewNOJWeFsBoBVbeAJzyxdFP7vbHgVd/A7iagYhP+75jydOqaaoqzVHtOxMjtD52z+Ai1+jvLmcKAX0EDgpYcDXCnzcTB3oDSsRiMrDFaDgknZAbfOFYHAYkUJPTAuOURTB/6iV995GjJpSACFgTil9uLgSEQEoJPPJxoH4EHlhqt7IeWHweUFCppQJKBFZKp0guPvYEntnWhlterIU7EEGHN6SZ+h5sXHhVFtpR7LDg1iuXo9Axful5a7b3KF8lpuCwH8ka0wl9oTjy7Ea8Z3GxLi+mZNeUnycn0OuNYJOkECYHdTRH0DeRZu6sLsgKuDTHtg+IXGM0i/sAEAtqUVoLzgVO/9bR3FHOHYIAjdo3quc9hlwdaYFc9HqDUeTbTThtyThHYW15CHj555o/J60R9LSQG+Cf2R/QorCOplEcePQ6rapvyKsVsKGIxu9KLEjAPlG8Et+ro6Es5x4NgYMphFra9TwEInE09/pVkU6KVYc3ilqGnARqDK0wlC8EbnjhaO4u544TARGwxgm03EYICIEJILDzn8CL/62JUnp2K11N2pewOadrAha/mIkH1gRMnNxytAQe29SM21+pR0O3Xwk+lYU2mAdUzvIEI2h3h5S/VHWJE3+5esW4iVgvbeuG2x9Vi0S9mTdcKDqsJpw0v3DYlMPR8pLzjiTQb+LOuaLYaNQhNr5j4j7VgZoKMXHX9VxRxKIY4G7RxKpo8NDT6KlIE+5llwInflrXJeWgkRPY0+JDfZsf9GtnAQk9jVFYTGteXJ2HyiKrnlPG5pg3bgHW3nrQP61C3zUjfsDbAVSfDFz2oL5zkh0V6AN2/gNo2axVPGR669wz9EesJ7u+/FwIjJpAArjnfKB9G2C0Ac5StYfX7Quh1xc54qqluRYUxbq1Ep7Tlo/dZ2TU/ZcT9RAQAUsPJTlGCAiBzCVw/8WakXssChRW0wRo8LH4ugCmAZbMBj7wPaBzu7YzPqIqhPOAxRdlLivpeUYTqO3w4qaH30J9pw+FDjOKnYNHV3EnsrHHB6vZiBXVRbj1yuPHZdz9Apae9MH+DvULWKvmFSo/LGnjQ2BnkxdNXUGEosmN3JmeQRN3zs8pi4p1RdeNzygy4S78MK4Dnv8hEPYdrMh58HfUtOOBD/xg9NXjMmH4adDHDbUutPeFVKVBVtLU00IRLSVpRqkNS6ry9JwyNseMNgKLqahzxiACa2xGIVcRAqkl0PQm8ORN2uY1068PiwjkZ/edlUB/5kXpPODKx4D/x957gMdVXev7r6Zo1LtcZFm25Y4BY2OMgQRCr4FQAiGUUAOpN8nNDWk39ZebcG9ILgkELoTeWyBACBAghGZjG+OCjatsybZk9TpFU///dbYMtpE0x7LazKz9PDy20Sl7v/to5uxvr/Wt7OKh7ZtefVAIqIA1KBj1IkpACYxaAp318OgXzRdZyG98GfaMqpIvr44dICkbRVPgmG/DIefDB48bw1IpCS274H05Bsk1JYxehK7Zn7Mf1j9qgWnHEpXAz59dy4trdyEVs8bnZ/Q7DDHd3trkpaI4ix+dMZtjZ5QO+bA1AmvIEQ/sBptfhbd+DxKpIeqmyChpDmryj2H95C8TTEu3IvZ60/5lIS8CVnaGk+njs6kozRxYH1L+rBhEo8ZPSFZWaU57/kYpz+3AASzb3E5DoghYA/LAqjNWCEdcA5/61oEDG41XEH+ud//PvK/1fIbhcMJBn4NF12tk2Gics6HskzwDT1wJ9auhsw7yJ5lIwX2bbBrI+3/hJChfBGffPJS90msPIgEVsAYRpl5KCSiBUUqgYxc8eaUxzLXEqvDeglTOWMjIh+NuADFwlxWELOZW3g9SXVBSO8SsVNILdzdZaIgPRSxsKgGNnw+TPj1KASRzt2JmTps2mDmTuSg9KH51piRD0uINcvldS9nS1MWkoqy90gb7GmqrL4g/FOH4mWP47eeHvvDAgXhgfVojewb/iZXPwyevhs5dPX5LwY/vkZZGNGsMXWl5bJ52PTtKT7QqrkmUighZ4UgMEUEdaWlWamd5cQYz1Gh/8OdIrzjkBA4ohbAih7Ki/jcLBn0A+1WFMNgThTIVzr0dxh0y6N0Z0Qt2NYJ4nQZajbm8bETubvJBlVtmIhhPuxEmHjGiXdWbDzOBUAAevtCkz7Zt+9irTQoahGXjudN0qHAq5Jeb1EG73gbDPBS93ScJqIClT4USUAKpQUBEqw+fA/GQCO+9ULO8G475N/DskwoguzMfPAriVWJV2ZGXo57AY/lDykm7s2DCQiiXl6P4xtSpAXs4RhmDbW9Aw1pjKCsio8yP0wXOTFOafsrxppx3CrQV1a3c8NRqy99qUrE9DyJJD9vVHmB+RQH3XrVwyClta/CxuW7/qxBOLM1kdnnOkPcvpW4g4tUjF0NrFUh6Uc64ns+/ns+waNDyZorFovizK9haeTV15edY0X0SoyW2auKtJuXJD5mcS3Hu8BUDSKl50sEOOYHWriArtnQMyMT92IOLLBF3WNumV+DVn2OZVOdOgPQ+KrTKJptEbElxgBmnwRn/PazdHPKbiXj1yBfMZ5gVXT/BvJPtbpFuI2qJl6lE15/yXzDlU0PeLb3BKCIg74Tyzv/BkyDZFrLpLFF6UkFThE2H2/gLHnqRilejaNrsdEUFLDuU9BgloASSh4C81MkXWSxiXmwcrv7Dy+X45o2w9XUjlHzU0qCgAqac2PcLZPJQG10jkflb/SCIkaz4lsn6QXbVJGVAfiYvKJKCI9FYMkezzhld/R+C3ryxqZGf/XUtbb4QEwrtpXGFIlKdx88hE/J55MuLhqBXn7zkv9a20OkLWxudErnTVwuEIoQjWL5KR80qtMzEtQ0iAUmvqFlsohYtb8A++Io3YHcb0aJpNJ10K7ucFYSjkJfpZHyhxzLYH+71+yBS0EuNYgL1HQFe+bCeqsYucjLcfGpaCQsmSdW/we20VDt9Y10r3kDYEqPiGbmLgbsUyMjPcnH07D0qRw5ut/q/2os/hKp/msgSEW1yx5nvvN1NBGpvo7E/yK+ALz5qosyTqd372Z4NrEj//qaSQiafc1LI54uPQc6YZKKgY7FDQDY4d66ATf8AbwPkTYSZp8LYOfYrjdu5jx4zbARUwBo21HojJaAEEpqA5NRLuuCe/gp7vjAm9OASqfMxWPMYdGw33mOeAhNttVeLgYSPW95kRTDmEKg8IZEGud99Xb6thR/8ZQ0Nnd1UFO1fBNa8igLuG4YILBmUmLIv29SOLAKl2l2mx2ktBnc3WUz6g8YgWXyX5lTkMLZgGKt87Tf5BDyh6nWQBbBELhRNje8PIxXyxEPnoLPhtN8k4IC1y4lEYGVNG7958UO6AhE6u0OImO10OMj1uKzPhKMqi/nuqbMGVchq84asKCxLnHKmkdlHNUL5ubScTCeS1rznZ9ewMpaNtTd+C1Jp2ddk7BGsj9E0844ifj+SPiepUZI6aPl4JlETz6t/3WgizOxUmN4diTbvUjj2u0kEQoeiBFKTgApYqTnvOmoloASUQGISaFoPm140nheZxf0bHUskVncHZJfCvKvBPcxeJcNIuKmrmy/dvZSqJi+Ti7JwSY5XnCbRWr5gmONmlPK7iw6Ld/ig/VxELKn8Jelo/u4orlAHc9b/hpyuatJiQSstLeZwk1E4jswz/x8UTh60e+uFgL9+HTa+aNIosmxUXNqzStNlTyffYlgfilFD4PbXt/C3NXVsb/UhBQIy3Q4y052EozFL/BaBZmyeh/KiLG65eB55mftuXgx8KLUtAdbv8BIIRqz7iTglnm+iB8m/xfNN0mYlQuvwqXnkZQ3evQfc6446eO2XUP/Bx5trImJ5cuAz34dJR8cXqAd88xE88f5zoPZ9UzxnX+uH3roV7oa2GpBKc1f+TaPmR3Dq9NZKYDAIqIA1GBT1GkpgoASat8Dmf0D7TsgugaknwriDB3o1PU8JJDmBGKy4BzprTUSI+I/Fa5JiKBFaJbNh1tnxjk7on//46TW88mEDkViMcXn9i3US6bS12Ut5YSb/cepMTj5o3LCOXRaDNY0B0l7/FYV1/8LT3WgJWWlWFbY0HI400qRaqHgzlR0GZ/5WQ/0Ha4Ye/DzseBdyxxsRy06TKq5y/Nl/hIlD75dmp0t6THIRePK9Hdz9VhXVzT5LmCrOTrcKB+zZusMRdrb6yc9yc8iEAm6/9PBBjcTq8odZvqUD+XyUQgUiXElzOdNwOdLwuB0cMT2fdFf8DYKhmB0R/T/c3km7L2wVrYSYxciTFmL2eLeV2mt938nvdV9pwUPRseG+5l2nGNGusNJYB9hp4hkm1eguflg3Rezw0mOUwCgmoALWKJ4c7VoSE9jwIiz+ozHPlf/EbBJ5IZLQ73RjCC6m4paYNciGD0mMVYeW5ATEgHPlfeBvhqxSe4MV8345L38izL/K3jkJetTa2g6+9+QqtjX5KMp2U5DVu7G2RBTsbPNZaTmSPnjHZQsGdRFoG99z34IdS4m1biPNlQlSDXT3YkSELF+zKZ4gqTBixn/hvSpi2Ybbz4H3ngV1K403zifSb/s4r327MYM+/UaYdtJg9EKvoQQ+IiCRoJf+eSlbGrvIy3D1+dklJ4j4Xd3sZWx+BlcdPYVLj5o0qCTl89EfjLCrtRtJLRSBqDjXzdiCdNLdzhF7I9tc52VHc4BAKEooHLNSsKWJxief5eITmJ/t4rApeSOX2jioM9HPxe48ERrXQdE0+0KdJcKXwefvgTGzh6uneh8loASGgIAKWEMAVS+pBPol8Ow3oXYltG01htNiIm5VUBOPpZ4SwPL/3JnGYFCqYyy4UqEqASUgXjxrHzdVIcWg3U4TIUQEr5wyOOI6O2ck9DEPLqlG/tve4reiBMblefZKJ/R2h6nv7CbD5bC8sm754nzbpu+DCmbjS/Dar6BlE+SWQ3of0XSSBtpWDXnlcPgVcNRXB7UbKXmxB86HncvMYk68cuw08ZARgfGzN8Oko+ycoccoAdsE/vxmFQ8sqabdF2KiDQ+/zkCYNl+Qg8ryeOiaRSMjwNse3YEfuG57F3WtAXzdUSvFWsSqPaPTguEo8p9EiOVlulg4oyC5RawBRWBtMaL9Fx6EosoDnxS9ghJQAiNGQAWsEUOvN05JAq/8wvj3tGw1iwHx5wn6eiKwYj07SWkgUSOyzye748XTTN7+eXfYX2ykJFwddNIT6NgBa58YoIA1Ho64PukRRWMxnnpvB/e9s402f4hmbxAHadYCT34mvi5jczMozknnvy84lEnFfZRgH2pS95wB9WuMj1m86lhSQUrmvmg6XPqE+ezUNnACT19vqjF5siHDRhU1+T5qqTLfRZc+pVW8Bk5ez+yDwHceX8nrGxrJz3CTk+GKy0lij7Y2dlli1x8unseMsblxz0nUA5o6gqyp7kTSGz3pDsuHq7cmn+++7gget5OJJRnMLs9J1CHH77dUIKx731RflCqM8dpHPn7T4Yq/2fPNindN/bkSUAIjRkAFrBFDrzdOOQKSxiTGk00bTTSB/Fv8eSR90OHeO49fQsN3/3/xMZBKMpOOgbP/kHLYdMBK4CMCYty+8n7wt+xHCmHEGL5bKYRXpwzMXe0B7nxzC+9WtVrClSz4ZOfe43Jy6aIKzjhkPBlum94hg01NxJDHvwTNm6B4hsmBidekXLykjZ74E1MNT9vACXz4nIl+a6+2l4IjZejle2j6KfodNHDqemY/BC6/+11W1rQzLj8Dj01/qZ1tfvIz3fzojNmcdFDyitpLNrTS3BmyPLjS3f17b0l6pYhYIgJKFFZOxgh9xg/10778Xljyp56NDUkjjPMd0l4D4qk45zw4+edD3Tu9vhJQAkNMQAWsIQasl1cCHxH4y3Ww7U0IB40ZrqTOSGUUS7zq5aVEdoykSYqHCFqFU+Cs30PFkQpVCaQmAUkHfO/P0FVvKgqKb1K8JlGO8nIr0TtzLoh3dNL93B+KWAsaEbFk5z7H47IMiUe0LbkNltwOoS4j5ttpUio+GoE558Jpv7Zzhh7TFwH5PXr0Etix3ET7irjb1wLQ3wa+RiiaasSrsnnKVQkMOoHL7nqXldvbKMvPtG2QXtvmt8zef3D6LE6ZM7xFKAYdQB8XlM/udze0ISmTIkrF02nkMnKOfNZPL8tiylgbhU6GazCDeR+x27jnTGj8ENLckD+h76t7m8xmsXyGSfpgQcVg9kSvpQSUwAgQUAFrBKDrLVOUwJ9PgoZ1RoiSKmri4yMLCamm1lcTbyypJuPJN8eWLzAVVEbMRjRF506HPXoI7FoFVa+a9FtJP+vvjT4aMi+uErkz97L4qWqjZ5TJ3ZOXfgRrngKnC7KK7Y1VPi9lLis/Axfcbe8cPapvApLG/tQ1IJFtspEi1R7T90jFEWGrcxeE/VAwCeZfDou+okSVwJAQ+OYj7/PmpiYKs9xke+KnEEontjZ5mVCQyU0XzeXgsvwh6ddIX7Sm0c/6HV5CkShZHnvRVOKFJZFY4wszmFeZN9JDGLr716+Dv37VpDfLJq9sDIt37O4mm8Dyri1/Fk6GY/8D5nxu6PqjV1YCSmDYCKiANWyo9UYpT+CO46FxPRRPBynnG/Ib8aq/BbgsLOQYEb12p3tc9jRkl6Q8TgWQogRkYb36oY8X1+Lh01sZbfndEZFL/JWKZ8LMM1MU2Cgc9pu/g+X3mDRpWXTYaZI2KnM66yw463d2ztBj4hFo3AjPfwu8Deb3STZJJFVQFoPydxEXpfLg4VfCgi9Bmr0FdLzb6s+VwL4Ebn51E08s325V/ysriB9ZK1ULGzuDzBibwyNfXtSnL1SiwT9/qwAAIABJREFUk95Y66Vqlw9JAreb8h2OxOgORynNS+fIGQWJjqD//tetgue/YzY3JNVZ2p6fYdmlkFEAx34XZp9lv2JhclPT0SmBhCegAlbCT6EOIGEI7ClgifeL7GxLdFV/bU8BSyqwiRfWhfdDyfSEGbZ2VAkMOgGJxlnzsIliFJFKqnZKqq0ssEXgkt8boubFVQSSORfqi+ugT8IBXLBuNTzzFbNzbn2W2UhpbKsxYsqx34PDvnAAN9dT9yIQ7IK1z8B790Io0CNipZnfJUlXP+rrUDhJoSmBISXQ1NnNlfcuY1uTl5Jcj5Xq3FcTfbWmxUthdjoXLZjIV4+fNqR9G8mLb633ISKWiFJ2I7BC4SihSIxxhR4On5qckWl7zYn4ya56BFY9ZqKtLCE+zWxsTT0Rjvyy/Y2SkZxsvbcSUAK2CaiAZRuVHqgEDpDAnSeafH3Jw2/ebFPAkhRCjzHalQWc5PlbAtaMA+yMnq4EEpyApNdKKmHLFpBUQRGt5MVVXlqdGaaCZ/lCKFug4tWom+oY3HUa1H9gFhZ7pq711tdIEFq3mc9OSaFWD5PBn1FhLH5Xli+jEzLyjOmxNiUwTATu+FcVT7y3HfG2KsnxWP5W+7ZwNGb9XIzepfLgHZcvICt978jAdn+IxVuaqGryWsfNqyjksIkFOOwYSA3TWO3epsMfZvmmdrrEAyvTZUfqt6LYnA4HU8dlMm28jQp9djsz2o+Tzy6JxLI2ft3GeiM9ST3ARvtcaP+UwBATUAFriAHr5ZXARwQeughqV5hoke52k0LoEv+rPqIPJJJEFuQSpSXly0X0KqyES580pYO1KYGUJxAzUVitW6Gt2ojC8tJaVGnMwd368jpqH5Glf4bldxkPpoIpZsHRW5PPQJlfSQWR9MGTfxG/4tSoHbR2TAkogb4IiG/Tr/72IW9vaaK21W8F0WSlu8hwOyxPJ293hEA4QlF2OmPzMrjp83OZXPKxQFPT7OPGF9ezvdVHV3eYQChiiVbZ6S4KstwcOaWIb588g7QEE7Le/rCV1q4Q6a403HEqNEZ7OGVnuFgwNZ/8bHt+YvpUKgEloAQSiYAKWIk0W9rXxCbQXAVPXGFKx0uOvkSQSOtt4SYx8uIPI/5XeRMgGjWi15g58KVne/f8SWw62nsloARSjYBUwhNfQPEukXTPrJK9xSmrAl4TZBVCfgVc/KiJDNKmBJRAUhIQoeqF1XXc8WaVJUCJECWm5JYQ5XFagtbBE/K44bRZFOd4PmLw4ge7+L9/bWFnm98SuqTSaqbbaVVf9QbD1vkS1VVZks1NFx5mCVqJ0rY3+dm404e3O2ylETodvW96xmIxfN1R3K40xuZ7mFuZZytiK1E4aD+VgBJQArsJqIClz4ISGE4Cf7kOdi6DdjGbjICkbTjFu2ePFxJLvAr2+PpkmApQEoEg/lcn/gRmqRn1cE6Z3ksJKIEhIiCpHn/7Dux83xiJh7yQ1hMxIGXS5bMxZ4wpYnHOH00UljYloASSnkCHP8Sane0s3tLMjlafJVzNqyjgyMpiygsz90oHXLq1hV8+v47qZi/pLgelORmWgLW7xcASw3a1B8jNEAEsnzsuOzyhIrFWbGmnuTNEIBixorDS3Y69xKlQWIzbRbhzWCKXmLdL5Jo2JaAElEAyElABKxlnVcc0egmIMPXIJSZtRgyMoxHTV0krlPctSZexfHzcJjJL0qCs6IR8GDsHLnygJ+1w9A5Re6YElIAS2C8CNe/CW7+Djlpjwi9NTMTlc+/or8O0E000qjYlkMIEwpEoz6zcyb82NNHqCyJ+UCJSjMnN4MIF5SyYXJRydCQ666p7l/FhXQcuRxpj8voujCO8trf4KM31cN78CXzjhMQphiOpgR/UdNLYEaI7FEWeBdn3tF4bY7IHmkZGuoNMj5N5U/JsG76n3AOjA05IAlLc4Z53trHTSg+W1GDIz3RzaHk+Vxw9hcx9fPAScpDa6f0ioALWfuHSg5XAIBAQEWvJ7bDmcWjZalIJrUWbVE1xmIWbLNZE1JJjc8YZz6sL7zPRCNqUgBJQAklHIAbeZmPCKysyTx5kl2i6dNLNsw5oIARWbm/jdy9vZGebjxZviHA0av2aSGqciTpKZ3ZZHj8/ew65GYmTHjcQFnue84919ZbvVX1HgElF2XsFs/d2bV8wTGNnkIPK8nj42iMTzti9pTPE5jovXYEIkjJoaf1paVbEWeXYLMYXefpMMTxQ1nq+EhhuAiJQ/89LG6yiDE3eoFWgQNKMRbh1OtMsEWtMroeLF1Zw3vzy4e6e3m8ECaiANYLw9dYpTqBzF9QshvfuN+buVsR7T9i7CFhSmcudDZXHwXHfM9EI2pSAElACSkAJKIGUIbC4qplfv/AhO1r8BCNRSnLSyXA5mBjdwbTgelyhTnaEC9iSeTD5Yybyp0vmp4yI9Zu/f8jT79fidEBx9seeWH09HKL5bGvuYkJhFv99waHMLS9IyOeoOxwlGIpafRfxSiLxEs2cPiHBa6eHjYA84997cjWrd7TR0NFteeCJYLXbA07ErRZv0BLyJxRlcv78cq7+1JRh65/eaGQJqIA1svz17krAELDErCXmv656Y2hcvgAmH2M8sBKsao5OqxJQAkpACSgBJXBgBCSy6KsPrWBLQ5flfSTRBicE/8mx3f+iONpMRiyAkwhB3HREPdQ7y1g35Ut8/dILD+zGCXL29Q++x7tVzVZlQvHJstPEC0tSjr7ymalW5IY2JaAERh8BKcrw2PLt1LcHKCvIJMPt/EQnJQax3Rek1Rdiamk2v/zcwRyaoKL06JuB0d0jFbBG9/xo75SAElACSkAJKAEloARSkMAfX93EE+/toCMQorLAxXXe25kZXk9RtAV3LEQgzUMEp/X3dEJ4Yx6aXWMoPeoSik76dtITu/b+5Szb2kJJrseqOminiSjocTm49thKLj9qsp1T9BgloASGkcDOVj/XPbCcrU0+xuV74orTjV3dhMJRjphcxO2XHT6MPdVbjRQBFbBGirzeVwkoASWgBJSAElACSkAJ9ELA2x3mkj+/y6aGLsryM/hm8E7mBVdQFG2mzVGILy0L4wZjmoMIuZEOsvHRllHOhNO+A4d9ManZ/uczH/Di2l1kupzkZ9nz/pJqhWL2/tPPHsSnp2tl06R+QHRwCUngsWU1/On1LXT6w0wozIw7BvHF2tbsZWppDnddcYQVqaotuQmogJXc86ujUwJKQAkoASWgBJSAEkgwAut3dfBvj6ykts3P2fmbuKbrTsZG62lwlBJK670qpxh7Z0Y6KXb6yJowBy57BtKzEmzk9rv76LIabnt9Cx3+MOU2Frrim7Ozzc+0MTk8fO0isrR6mX3YeuTeBKTI0ponYdub0NUAkTB4cqGwAg67xFQO1zYgAj9+Zg0vra23vP4KsuxVIN7R6rOO/fZJMzj7sLIB3VdPShwCKmAlzlxpT5WAElACSkAJKAEloARSgMCybS384Kk1NHcFuMV9MweF1hLCTbuj74IuYmgcikSpcDSSW1AMcy+Gz3w/aWk1dXVz1T3LrOiLwqx08jL7jsISNlLFUbx0jp9Zyn+dd2jSckmqgcWisGM5NK43FWpLZhiPWKe9iLshYbHtbXjzt9C2HQKtEAmB9FOqh7syTQXdScfAiT9JagF5SNgC1z+wnCVVLRTn2Pe2a+zstgzeL1s0ies/M3WouqbXHSUEVMAaJROh3VACSkAJKIFBIBANQfsO8DdZSTXkjIXcCVoIYRDQ6iWUgBIYPgKrtrfx3SdWEe2o4w7njZRFatnpnLBX2uC+vdktYOW6QlS4O2DikXDJE8PX6RG406NLa7jrra1WpFpxjseqVLZvi8Zilhl0JBazoq9uu+RwyzdL2ygmIA/zqz+H6sUQaIewH8S1250BnjzzbJ/wY/Pv4Wwb/g7/uhHaaoxwlVUMLg+kOSAahu5O6O6A7FIYdwice4eKWPs5P99+bCVvbGwkN8Nlu6JqXXvAiqj88rGVXLpo0n7eUQ9PNAIqYCXajGl/lYASUAJK4JMEQn7Y+qrZEY0ETDi/2MM43ODOguLpMPkzCStkVbVV8VzVc9R01tAZ7MTlcFGaWcqCsQs4dfKppDvthdnro6MElEBiEJCIgivuWUpW02p+67rdMm7f5RzXb+dFqAlHY+S4YZKjAcbNhStfSIwBD7CXMt7fvbyBVz6sRyoMOtLSyPa48LgdVsCOrzuMNxixFrfj8zP54RmzObKyaIB309OGhYCk5D11jRGJ/M0m8koim+RLPewzf2YWQkEFfPZmKB6miJvWanjqWmjeAM4MyBljhKt9W7gbOnYYcWvWmXDqfw0LtmS5ye3/2sIDi6utaNKxefEFSkmdrmryUlGUxe8vOozZ4/OSBYWOow8CKmDpo6EElIASUAKJTaBjJ2z8mwnlFyErLc0IV/LSKxFZ8m93ttkRPejzCbUbGggH+NOqP7G4djFt3W34Q34isQhpaWmkO9LJS8+jLKeMaw65hgXjFiT2PGrvlYAS2IvAfzyxivZNi/l+8I+U0EZ9HAErGInicjgoyXJQHKw1ESBXvZj0VEXEenblTu59extdPYKV+F3JR79UJxRBq6Iok++dNosZY3OTnkdCDzAagXtOh9ZtEPRBXhm49zHyDgWgs9ZEPhVOhkuehMyCoR/2Sz+Cdc+A3D9/ghHS+mrhALRvh6KpcO7t6om1H7Mj0affe2o1O1r8VBRn4XL0wxnoCoRp9gY5tDyfB64+0vq915bcBFTASu751dEpASWgBJKbgL8V1jwC/hbjQSGpBeJDsWcTs1UJ6ZeX3eyxMO/KhIjEEvHqP9/+T9Y2r6XZ30y2O5uc9BycaU5ixOiOdNMWaMPtcFsi1nWHXsfxFccn93zr6JRAChFYWdPGrU+9xHfb/h/laY3UOmXR3HsTEUciEcTjaUqBizQR9iccDpc/kzLEWrxBllQ1s6Km1UopTHc6mTE2h4WVxRxWXoDLqSvbUf8wPP0VqH4HfM1QVNn3d7VsULVtM9/5FYvgvDt6j4YarAFLGuMD50LjBsifaN4n4rWuXaZPh1wIJ/883tH68x4CUlXwP55cxZItzfhDESYUZPUpSolQLQbuZYWZXHHUZC7R9MGUeI5UwEqJadZBKgEloASSkIAIVmsehfZq4z2RITuwfSxQ5FgRudJzoHQ2zDhz1AP53xX/y8vbXqYl0MLY7LFkSMrCPi0ai9IcaCYYDjIlfwq/OfY3TMjpe5E76getHVQCSmAvAnf+80OOeusqKsLbaE0rIOjcu6qgrOMt8YoY6U4HZQWZZAcl7SoCU0+Ec29TokogMQiEg3DXydC0wUQu7bsZ9YkvwAi0bjHHShRWbv8ptgcEQby4nvsWdNVB4RR7lwp6jRA35Vi48D575+hRFoEdrX6++cj7bG/10R2KUJLjsSIpdzcR69v8IVq9QcvPbt7EQit9UKOvUuMBUgErNeZZR6kElIASSD4Csrv5wWNGmMosjr/7KiKXpBnmjIMF14/qKCzxvLrhzRuo6ahhXPY4Mlx9+0DIwrXeW2+lFJ406SRuWHhD8s21jkgJpCiBcCTGuud+T9HqO8mPtlETG2t9dolUL57Wlj2QI82KLhK/mFxnBNprzKL+/DuhdFaKktNhJxyBjS/DP/4TJHpQnl87ra3aeE0ddwMceqGdMwZ2zLpn4ZWfQqAD8svtXcPywkq9SEh7cOIftam+k589t46d/7+YJdGV4vHndqZZn3nijyXRplKpcH5FIT/97Bwy053xL6pHJAUBFbCSYhp1EEpACSiBFCSw/R2ofstUAsrou7T8XmR8TSZSa9Y59ndRRwDtrStv5a+b/0ooGmJM1pi4PQhGgtR21VJZUMkdJ99Bbrr6vMSFpgcogUQhEOjE98DFRBs+JBLqptFRQgSnqVORBjkZLoqz03FHexbMOaVQeTyc9ftEGaH2UwnAiz+AtU+bzSjxrLTTfC0Q6YZZZ8FZv7NzxsCO2fQyvPhDE1El5vF2mnhlScTWxEVwyeN2ztBj9iHQGQjx5Hs7+NvqOjq7w4igb9maOh1MKMjgoiMqOGn2WI28SrEnRwWsFJtwHa4SUAJKIGkIrH0CmjaCK72nQpGNkUmJa4cDyo6AyhNsnDAyh3zvje9Zxu0FngKypIqijba9c7tVmfDHi37MEeOOsHGGHqIElEDCEBDvnb9+nVjHTqK+VgLObBzp2aS73ThjIQh2mSIWEmE6do7xBNrX/HqIBisREet3dbC1yYv410wsyuKg8Xmku3qp0DZEfdDLJgGBZ/8NNrwAEnGc9XGlSF8wQnsghPgdRaMxHI40S8DIy3CRE/VCqAumnwyfG8J0WTGVf/RSaK0y0WG9VR/cdwrEozPkg5lnwtk3J8EEjdwQZO6rm72WWbvTkUZZfqaVLq0pgyM3JyN5ZxWwRpK+3lsJKAEloAQGTkDM21s2gyvLnqGq3EkWeZJ4M34eTDtt4Pce4jOv/8f1rG5cbXlfpTvTbd1tl3eXZfT+9Xlf54wpZ9g6Rw9SAkoggQi0bYd//grqVpnCFCJYib+feAWlZxtDa4lEOeabwyJeiXB1z9tbeeXDemth2R2KWp+vIlzlZrj51LQSrj22kpw9vGsSiLZ2dbgJLL0DFv/JPNv5E4nEYtS1BRABS/4uvkfyzIloIZV4nWlpjE1rISc7G+cRV8Onvz2EPY7BY5dDzTtmw0zSFvtr8nvZuhVyx8Nnvg8Hnz+EfdNLK4HUIqACVmrNt45WCSgBJZA8BDa/BHUrjHG7mLPbaZaRexZMOQHGz7dzxogc843XvsGK+hWUZJb063+1Z+ckhTDfk893Dv8OJ1SM3uiyEQGqN1UCyUJAzNl3roCqf5mKaGIULYvpcYfA9JNM5bZhaO3+EN99YhVbGros8Src40kj4oIlZKVBYVY65YWZ/Pzsg5k+1uZn9DD0XW8xSgl01MLDF0HzJiLFM9jW5CUUiVlFCiTqRtJlxf1NvN/ED0mi/aZQR6NrLIWX3E1+5eFDO7D1L8BrvwTx3cqdYN4lem0x6NxlxOWyefCFh8HpHtq+6dWVQAoRUAErhSZbh6oElIASSCoCzRthw/MQ7DQm7vGabN2KB5Z4a8y/EtzZ8c4YsZ//6t1f8Ur1K1b0laQRxmtSjbC6o5qK3Apu+sxNTMqbFO8U/bkSUAJKYEAE5KP0S3cvZVNDJ52BMKW5pkLYnjVg/cEIDZ0BKxqroiib2y6db5nMa1MCfRIQwefPJ0FLFa1BJ7ui+ca42+HoNVUsL9pORszHjrTx3FT2v/zpiqMtY+8hbeLTJX5YnXWQWQSZhXunE4bF96rBdKFwMpzxP1C+YEi7pBdXAqlGQAWsVJtxHa8SUAJKIFkISPrMirvA32xC+uN5RUlagrwg55XBvKtGNYWXt72MGLk3+Boozy3HEcdvo727HV/Ix2FjDuPm42+20iu0KQEloASGgsBv/v4hL62tp7EzYIlTEh3TWxOha0erzxK3Fk4p4qbPz7X8i7QpgT4J1K2h64nrcLZsoSWWg8/V+wZObrST/Fg7tc7x/CJ0GbUFC/jWSdM589CyoYUrAtWrv4Qtr4G30XhcSZq/fEdLQRmiRtiS94zjvg9Tjx/a/ujVlUAKElABKwUnXYesBJSAEkgaAvVroOpVCLSaNEIRsnpr4n0lL55ZpXDw5yE7fmW/kWQk1Qe/9c9vsbZprSVGlWaVWqkTvbVAJMCurl2U5ZRx/dzrOXXyqSPZdb33gRKQVb+3HiTdVZoshuR5tWMafKD31vOVQBwC8nief9s7bNjVyYTCDDyu/iNeJM1LzJdF6LrlknlMLdVUQn3I+idwx29/wLFdLzCeZhzE8KZlE0wzXpDuWJDsmM9KJGxylvC653juTzubFl/YSlN99MtH4RoOkXTjS7DyYWjeAuFusznmFC+6HCNaLbjKiFjalIASGHQCKmANOlK9oBJQAkpACQwbAXlprHoFGtZBd7sUlQd3BqS5TBeiIQj7zeI/owAmHg1lQ+yTMUiDFxP3Xy/9NTs6d1hXLM4sxuP0fHR1SRvsCHbQFmizvLKOLjuaHy76YZ9C1yB1Sy8zVATkWd6+GBo+MObc0Yi5k8NpDLlL50DFUZA2xCkyQzU+vW5SEFi2rYUfP/2BFVlVaVOMqm3zW0buXz6ukkuO1PTmpHgQhmgQkjJ4zi1vU9H4T77hfo6cWBdZMb8lXEkLpbnxp2VaotYzmefyludYYqSxpbGLKSXZPHjNkZb32vC0GEhhhZYqI2Jll0DJDPDkDs/t9S5KIEUJqICVohOvw1YCSkAJJA0BWfjXroAdS0yUVaR7j8W/y5Tkll3RKZ+B4hkJNezFtYu5bdVt1HvraQ+2W+KU2+m2qjF1R7rJdGZSlFnEEeOOsMzbM2Ss2hKPgEQIrn0CfC0Q8n5cWU5GEg0bAVY826S0/EEX6AIp8WY4aXr8v69s5PHlO4hEo4zJtfd5I4bvUknuxNljuPH8Q5OGhQ5k8AlIxN7nbn2bzQ1dHFTq5ujg20wPbWJMVHylYjQ6xrDFNZXFnmPwpX1sor61ycvEoizuueIIxuXbey4Hv/d6RSWgBIaDgApYw0FZ76EElIASUAJDT0CqcUn0ipirit+V+EBlFFrluCk9KGGrAIl49ciGR1hatxRf2IekFzpwWNFY4o91VuVZnDjpRI28GvonbGjuIAKV5eXWYnbx03PB9XGknXVT+f9SrED+v6QUioebVrUamvnQq/ZL4FcvrOPZlbWW71Vx9j7PaR9ndgVCtAfCfHpaCTdfPE8JK4E+CeyOwBIBa9oY++mmImBVFGVx71ULGZNr77nUaVACSiAxCaiAlZjzpr1WAkpACSiBFCPgDXnZ3LaZZn+zVZ1QKg2W55SrYXuiPwfrnwWpqClRWFJNsy8DfjEfkoIF6dkmknDW2UhReW1KYDgJPLashtte34JEVZUXfhwB018fmrq6rR+fN6+c/zht5nB2V++VYATkY+7sW95ic2MXk4uycDkdcUcgUVvbmr1UluTw2PWLyE7vsRCIe6YeoASSk0BjZzevfljPB7Ud1HcELF84SbFdMLmIT00rsarDJnJTASuRZ0/7rgSUgBJQAkpACSQuAYmseu8OU81KxCvxu+qviS+WiFjZpXD4NX0XLUhcItrzUU5AFkZX3rOMKvEcKs3GYaPiaXWzjzF5Hn5y1kEcO6N0lI9QuzfSBH7+3Fr+sa6erkDYSguM1+ra/NaC/LiZpfz6PE1RjcdLf568BMKRKI8t286jy7bTETCp26Fw1Nro9Lgc5GS4mFCQaVXsnFdRmLAgVMBK2KnTjisBJaAElIASUAIJTaBpPWx8waS8ZpXYG4oVhZUL008zqbHalMAwE7jkziV8WNdpiQalcdK1JFKr1RdkSnE2D1xzJPmZ7mHurd4u0Qj4gmEu+r8lVDV6Kc5J7/eZ6QyEaewMMLkkm9suOZyK4viCV6Lx0P4qATsERLy68cUNvL6hgV1W1JWD3AwX6U4HUWIEghHk98XjdjA+X0SsGZYvYSI2FbAScda0z0pACSgBJaAElMDoJhBoh02vwM7l0FZjjNiLpsLEhTDtRONntfF5qF9jUgGl0ICdJl5vRGHMITDzLDtn6DFKYFAJrN3Zzg+eXkNVg5f8LDeF2em9JrN2BkJIxJakGn7jhGmcNbdsUPuhF0teAo8ureG+xduoafZbi/DCLPde6YSSNijCqEllzeSCwyfy5WMrkxeIjkwJxCHwyLs13PX2ViQiUTYWcjM+uVkgHnPymdwdjjK1NIc/XnwYE2ymgo+mCVABazTNhvZFCSgBJaAElIASSGwCUhVz3XPw9v+ayCrxtpJUQVniS5VIT46Jtjr+R+CvB4nCcqSDO9PeuEN+iAahZKapSKhNCYwAgXvf2cbjy7ZT2+YnBhRkuq2ILMkoDIZjVvpKKBJlXF4Gx88aww2nzbKM37UpAbsE7nyzir+urKW+PUBXMIzH6cDlTEPEK1mAZ6W7LMP2U+aMswRSfb7sktXjko2AiFJX3bvM8oIryk4nrxfxaveY5fNaRC6308Ex04q56cLDEg6HClgJN2XaYSWgBJSAElACSmBUEhDx6u0/wOrHoKPWeKyn5xnhSpb5Yb8RtRxuyJsAB59joqmiIfDk2xtSdzs4XFB+JEz+jL1z9CglMAQEXlhTx91vbaXZG7RSU8RrRRZHbmca2R6XJWqdf3g5ly6apOLCHvzFP+zNTU2sre2g3R+0WM0el8cx00qYPT6vzzoOQzCFo/6Sq7a38eCSaitl1R+KIGlSIlRlpjuZPiaHLyysYFFl8agfh3ZQCQwlgSeWb+fWf+4urhF/M0w2F7a3+K1Knw9cs7BfwWso+z3Qa6uANVByep4SUAJKQAkoASWgBPYksOlVeOU/oXWbMWXPKuqFTwy6GiHYCWMPhhknmigtMWa303xi+F4EB18EOePsnKHHKIEhI+APRnj6/Z2s2dluVbuSFJWSHA8zxuZy/vwJFOd4huzeiXZhEWBueW0z/1zfQGd3GGG3pyCT63Fx+KQivn3yDMv7SdvHBBo6ullX106bL2SlRs0en0tZQfyFujJUAqlA4Cd//YAXP9hlGbUXZNn77Khp8VGSk84Pz5jNibPHJhQmFbASarq0s0pACSgBJaAElMCoJCAi1L2fhZYq8ORCVpyogI46E30150wjSEkKoTuOAXHIB5JCmF0CC64zkVjalIASGPUERLz68v3vsb3Fi4gxEkEkkVcSrSYpcd7uCN5g2Er/EYPlP148j3H5ErmpTQkoASXQP4EvP7CcpVUtlvAtqbV2WkNnALfDwZWfmsLVn5pi55RRc4wKWKNmKrQjSkAJKAEloASUQMISqF4Mz3/LpA4W2TATlnTD5s1QvgBmnAD+VvDsTjfshUI4AN2dRhiTCoTFMxIWlXZ8CAnEYtAbDw68AAAgAElEQVSwDra+AbvWfFzhsuwwqPwMFE4ewpvrpfsi8PWHVrBqZxut3pAVOSSREvs2SesRTzERtmaOy+X/LlvQ63FKWQkoASWwJ4GvPbyCdzY3W8UO5PPDTtvVHrCEdCl+IGneidRUwEqk2dK+KgEloASUgBJQAvYJREIQaAURf9KckJEH6bn2z9+fI1//Dbz/AETD9lP72qpN9NXcCyE9EwJt4HCYSCzpr7RYBCTyKhqFjAIonQXTTjGm8NqUwJ4EvE3wz1/D9iVG7LSemzA43eDONpGBs86CY/4N3BrdM1wPz7raDr77xCq2NXmZVJKNqx8ze0nBrG72MT4/g38/ZQanHTx+uLqp91ECSiBBCfzu5Q088d4Oy2qzJDd+2rbsc2xt6qK8KIv/ueBQDi0vSKiRq4CVUNOlnVUCSkAJKIFRRUCiZlq3QPsOCHnB5YHcCVA0tcfTSEWGEZmvoBfqVkD9BxAJgkQ7SXm0NIcRl8QAvWCQdxyfuha2vGrM2EUos9N8zcbAfc65MOdzUPceBH0QCRjBSpoIWs4MSM+C8fNh4iIVr+ywTbVj2nfCU1ebCEBvI6RnQ3qOSTOV3wGrGqYfcsebz6cLH1ARa5iekSvuWcrqHe1kuBy2PME6/CHa/SFmjMvl4WsX9St4DdMQ9DZKQAmMYgJvbmrkF8+to649wKTiLBzyvtNP8wXDNHYGmTMhj4evWZRwhSNUwBrFD6N2TQkoASWwFwFZ2NYsgZp3oGmzWYyPmQWTjoaJC8Fpz7hRqQ4CAYlq2PYGNK6FcHePSBIxcyLRDiI4FEyGqSfF9zUahO7oJfYg0L4dNr1gIlBk0S5N5kW2JiWayRKDsqF0Dkw5Hhw9kU4HCvGvX4ONL5lIl0ybu5ldDUZYm/sFOPEnJlJsxxLoqgcR4aRJX7PHQPki45OlTQnsSyAUgMcuNamD8sznlZvPod6O69gBOaVGCD33dmU5DATOvfVtNtR3MqUkO+7Ccnd3pFLhpOJs7r96oWWKr230EWjxBlm6tYX3alqpbfWR7nJa5vJHVhYzpyxfhcfRN2VJ2yNJP77ugfesYhryqjM2P6PPGG0pHLG91c+YXI9VJfZrx09LOC4qYCXclGmHlYASSDkCEutb9Qa8+nOzONm9ky5fT7KglV32jHw47TcwYX7K4Rn2AYt4tfpB8DYbfxmJcJDIKxFCJNLHErRCRniQeTnkYuNtpG3oCXTtgnV/AX+LmQv53dhT2JX/J8KQRDhJpNSYOTDt1MHp17K74J0/muqCIiDYaS1bIG+C+d2derydM/QYJfAxAUkRlM+gbW/B4luhZSvkT+wRbPsAJZ9NrVuheBqcd6fZBNE2pATOueVtNtV3UlmaYzvSQdINJxRmWj5YElGhbfQQCEdjPLuylnve3moZ74sBfzAcscTJ3eb8U4qzueH0WZZoqU0JDAeBD3a288On11DT7MPhSKM0x0P6Hl57spSQyKuGzm7yMlwcUl7A7ZcebvszaTjGYPceKmDZJaXHKQEloARGgoB846y4D5beaVJDJIJEhBGXvNDGjMeJCFpOD+SVwXE3wOyzRqKnqXPPDx6H9hrDXUSQ3iIdohHjZyTClqSszb1UK8YN9RMi4tSqh8zcyO+GiId97UGKyBjsgIwimHH64BiiN22CJ74ErdtMipYV9dVPk7Qu8cAST6trXol//FDz0+snDgERaiVSr227+U6Q50iisKT526GzwYjofTVJMZTnb+KR8IWHEmfcffVURGkRjuUzQL4LJYXX0UsE2giN1BKwGjqpLMkmLU5qz+4u7haw7rx8AROLVMAaoan7xG1FvPrtSxt4bX09YoIt85ntcZLhciL+Zb6gVJOMkOtxWVUkf/rZOcyrsBmRO1oGqf1IWAJvbmri5lc2srPNT2cgjNjtZbjl2QR/MIzLIWnM6VZ68o3nH0p+5uj5nNwf6Cpg7Q8tPVYJKAElMNwEti+F578DrVXgKTCpH721zl1GUJFd9YseggKbESDDPZ5Ev5+kfK19DMQsOavoY6Pt3sYl4qO/2QgplSfD2IMTffSju/8Na2HLyxBoh8xik5rXX5NFbywMhZUmSu5Am4iWj18OtSuMmGBFwvTRB1loS7SMVBSsPA7O/sOB3j2hz/eFfKxuXM3yhuVUt1fjcriYXjidI8Yewezi2da/tYkuG4Ud78LOZWbzIuyDWJrx35PPG/FLi4QhHIKWagh09I5NnlX5Thl7CFz9UuKi7dgJ2xdDZ50R8kS4FuHYkQ7jDoXx80ZFCvd5f3qHDbs6LCHK7YwjbIMlhGxt8lrRO+KBlaiLzMR9sPru+QOLq7l/8TarWmRxjqfXuYnEYpa4Jb+T08bmWlEuRdlq8ZCMz8NoHJM8eze/upEP6zrp6g7THYpYQqtEBxZnp3Ps9FKuO25q3Fek0Ti23X1SAWs0z472TQkogdQmIH44d59h0j1cGZAzpn8eVoRWFIqnwtUvpza7oRr9yvuhY7sRriQ9LV4L+Y1xskRhHX6NRtnE43UgP//wGeNJJpEXUsUvXpPfFREYRew67DLIKIx3Rvyfi5H245eZ31kxYZeoyH296eSZkN9VMWUvng5XPB9fbIt/54Q8IhqLsrhuMbe8fwsiYsl/gUiANNLIdGWS5c6iJLOEGxbewLSCxPPpGPRJEbFGBCyprCkijXwGSRGAlm0mokoqC7p6Fsqhbmiqgu4eH7g9O2MJqJuh9CC49tVB7+aQX1AEuOo3oH6NEe/kMxan+T2yCjYA7hyTuj3jTJOmO4Ltx8+s4Z/rG63onPLC+D52DR0mmm5hZRF/vFhtAUZw6va6dVNnN1feu4zqZq8lSOVm9B29InryjlYf2R4Xp8wZa0ViaVMCw0lAxKsV1a1Ut/hIdzo4qCyPg8vyE1q42s1PBazhfJL0Xkog1QlISkPnTrPz620w6T2ysC+qhJyywTNTThbOdavh6etMSlSRncVbDJo2QskM+NLz9iuhJQuv4RjHstuhq64nwif+TrrVJV+jOX7elaaMvbahIbDyPpNKJYztpg9JFUlJyZ151uCkEcrI6lbB379vfm8ljVQiQvZM+ZXPPYm8KpwM590RX5geGlojflURrx5d/yhPbXqKem898u9Md6YlXMWIWWKWP+S3/j0mewzfPvzbLBovFRhTtEmU0donjOgq4sxuQ39Jh5VoPhGwJGVZmoimkjvS7YO6dSYyac+2W8ASDzhJX020VvWKEa/k90tSBkXI2zNl16q62Gk2GjKLYM4FphDCCLWuQJhL/ryEzQ1exuR5yPH0HVHoD0Ws6B4xcL/p83OtRae20UFAIq/+/OZWZD7Fnyxe6w7LXAaYPjbHqvQmETDalIASOHACKmAdOEO9ghJQAnEJxMzCcuML5iVbDJQlzcF60ZaKbR4TYTT7c0bQ0mYIvPW/sPwuU5kst8weFeEsL+yf/g7Mu9TeOXqUfQJL/2QqxGWX9O2vtO/VfD1phHMvgaw+UkDt90CP7IvAirugfYdJ2bSbcmb5lGXA9NNgzCCmeErq1sv/CfUfmGqIEnUl0SESGSb9Kz8CTvllykZeyRS+U/sONy2/iR2dO8jz5FEkfmT7tFgsRoOvgWAkyOT8yfzhhD9YEVkp2STCsGk9SPSR5e/W06SoRPMW8z0hz/LuJtFYsmnUVgud9Xsjs/zXakya3VV/TyycUvhg4/OmUEN63sei3SefHpNOLIJxQQUcesmIRsDe8UYVT6/YQU2Lj4KsdCv1zCki4+5pjMUsz5qmrm7K8jM4YfZYfnjG7MSamyTv7Q/+spp/rGsgO91Jnk3vIInWGpuXwS8/dzCLKouTnJAOTwkMDwEVsIaHs95FCaQwgRjUvg81b5mXSfGpkBQHh+wUx3oEraBZcMpL+dRTTQSRNvjLdbDlFUjP3XvB0h8bXwtEumHWWXDW75TiYBPYLWBlldgXH3xNJj3NErBSdPE92PPQ2/VWPWiiO/etPNjfvSWaRdKMZn0OCqcMfi8lOqb6HWjaYKJBxh1sjLPjGbwPfk9G1RUluurql69me8d2K+qqN/Fqzw7Xeetwpbk4qPggbjnxllE1lmHpjKTJvXc3+Bsho/iT0cqSsiqebtJ2Rx+KH5ZsEAU6Ydf6vbvZvt2IqTNPhzP+Z1iGMGg3+eAxk/5oJ43b8iGUz98CmHqKqTo6gu2/X9rAmxsb2dHqJxCKkOl2ku5KIxSJIZFXkuYzPj+D+ZMK+dnZc2z5ZY3gcFLu1lffu4zl1a2MyfVYxth22q6OgDXPXzt+GhcdMdHOKXqMElACcQiogKWPiBJQAkNLoGNHT1n7ZrM7LGJMb6273YhZEqFy2OVmUZnq7a/fgI0vmoVGps0qNmIuLiLhnHPhtF+nOsHBH/+y/4OuWlO9zmHjBXb3AkqiRg6/2p430+D3OjWuKBGe9atMtpSdVE2JXBEvIfnMmX+Vzs0wPiVL6pbw63d/TaOvkYl58Rd1kViEmo4aKvMrufvUuy1vrJRqkj4owo1sAkn66b5NxCsRpUQwlfRBEUgl4k9SCru9ULf24zMkIlCiSEtnwuXPgseGl99ogS0Rk+JDKKKUfKbaEYLF7F58wsTva/a5Iz6SxVuaufedrexs9dPVHSEUieJySCU7U7XugsPLOeOQ8SPeT+3AJwlce/9ylm1toSTXY4lSdlpdu5/sdBffPGk658/X4jp2mOkxSiAeARWw4hHSnysBJTBwArJAXH4HSAqVRFjFW1TKy6k0iVI54vqB3zdZznzvXnjrZhBxTyqa2WmSXiHphif/AmaeZucMPWZ/CEgaT/MGI7baMf22SrvHelJYNKVzf1Dv97G7xXL5vMksjJ9GKGKAiJASlTHzs/t9Oz1h4ARuXXkrz2x6hihR2ymBkmookVpfn/d1Tp186sBvnohniji17kmTjiop4r01SZ/t7jBpgxKFJc92eobxwar9wGxs+NtM6p1EG879Ahz9jcSi0bwRNjxvKu72xWHfEYl4JdwKJsFhXxo145Uy90urWmjsClCQmc6CyUVUlmaPmv5pRz5J4OfPreVvq+tIdzkozIpfVVC++rc2d1FemGX5mR08YY/UXwWsBJTAgAmogDVgdHqiElACcQlYu8aP90Q52EmdioG30ZitHn5tP94Wce+cHAe0boNHLzEVzYqmxt9tFm8UEbBKZsK1r5mS6toGl4D4zIjXkhQh6Nd/RWqh90T4yEJr9nn2RcjB7XFqXW39X41PkHhOicDYa5RczKRbSaqtRF8d/Hn1Jhvmp+R7b3yPxbWLyffkk+22t2hvCbQgnlhnTz2bb87/5jD3eIRvJ583qx82puV9pSHLalmELok4EoFdvJ8kukrO2fhP8zshvlj5FTD1BDjppyM8qAHcvmEtbPq78fuStEA7zfoclk2gcph/tZ0z9Bgl0CuB51bV8vtXNtLUGaSiKCtuNTdvd5hmb5A5ZXk8eM2ROCQqUpsSUAIHTEAFrANGqBdQAkqgTwJS5nr7EhO+77G582QZs2bBlONh/OGpDVd2zB++GHatMS/sBRKF1ccLkCxeWqpMqmHZfLjo/tRmN5Sj3/Y67FoF4jcmFexcmXv7YclciDgiu/7i61Y8XSN8hnI+9ry2cF/9CHjrIegzldokddlKNZJ5CZvoDVlISJTWpGNh3Nzh6p3ep4fAD978AW/Xvk2uO5cc8Syz0Zr8TTjSHJw77Vy+ethXbZyRRIfIc/3en41w7ikw3lZ9NfkO9bWa510EXEkr37naREBLdO7RX4PJn05MOOJxJyK1RJpJZVc7zapI2AWFlTBXo2DtINNjeifQHYpyxT1L2VDfafmVleb2VP3s5fBwNMb2Fp91jHhfXX/c1N4vKs+mREaK0Copv/K9tGcxBp0MJaAEPkFABSx9KJSAEhg6Amsfh6aN5svY7hey5VcRNmk9s84Zur4lypU7d8EjF5soLBFG8iZ8cvFiVZTaAS63idS66iWNvhrq+d30gol287ea59UqW++EaNREP0j0m4i2Ml8SfWXHL2uo+5wq15fF/vrnoLMWJIXTqngqxlii/zpAIn5kMT/5OBOtqG3YCdyz9h4e/fBRgtEgY7LG2Lp/dUc147LGccORN3DU+KNsnZNUB1W9BnXvmUiqeOlzsaiJZpbPHXce5IyHyZ/q2QRJYCryfrDibvCJmb2NNGEZarcI1jEYcwjMPCuBB69dHw0ExIT/xpfWU93ss4zcS3M8e1WTlNe0QDjCrvYAuRkuDi0v4PZL55O2b/RV23Z493bY+qZJ75UTd/vWHXqRSfHds9roaBi89kEJjBICKmCNkonQbiiBpCQgnh1SfcuRbiIh7DRJ7ZGX77H6svkRrrrV8MJ3QTxOJB1E/MSstBtJheoyLz6yoJEUiQvugrwyO6StJX2nP0RXtyzwIaunNLSGudvCB82bTXVNibQS0USELFkwOj0mMmv8PBg/3+bF9LBBJyDpVNsXm98RiQIV8cqZAUVToHxRfI+sQe+QXnA3gbVNa/nx2z+mrquOiryKTy7u9kEViobY2bmTaYXTeOD0B6xIrJRrEnUklTalqulHnpK9ROTK96cI6xKlJemCyRZ1tOE5kFRCSZmPt8CXz2RhIcb3YuBu10sy5R4uHfD+EHhm5U7ufXubZcTvDYataKzMdCeRaAxJG5R3KDF6ryzJ5ncXHkZ+1h4Rk/L7ufpJWPxH8z4nEZKW3UOaefeVP3PHmXe6M2+C8YfuT9f0WCWQEgRUwEqJadZBKoERIrDjXZA0QqmMZNevQqoLibfQ9NNM1SBthoCIJM/+G7RtM3+X9ChZu7hzICPXpKmdc6vtyKsPdrbz+39sREo8R6MmOsXhSCM/0803TpjOwilFe+0q6jT0Q0AWSK1bTFqLVEcTg+TssYpMCSiBPgiEo2G++upX2dS6iWgsyrjscX2ykp+Lgbv4ZS0ct5BfHPOL1OUqUZ/iASVpgrLYlaq+H6UTxsx3rQi2EvEsXllzL7O/eZQoVCWyTKK7ZeEvKVeyWdBbav1u03phUTJjVFQgTBTE2s/4BKoau7jxxfXUtQXo7A7THYpY71BScVAEq0WVRXz7pBmfFOfffxiW3AKt1eBKh9zxpujC7iYRluIfK5th8i7xudtgzKz4HdIjlEAKEVABK4UmW4eqBIadgL8ZVj0E8qdlPBvHwFJeyGV3WUzcF341vmn5sA9oFNxQFihV4sG02vARv6spx9kWrqRk9w/+soa1tR00dnbjC5rdQmnRWAyP28mYXA+Ti7P5nwsOJS+zH6+VUYBDu6AElEBiEtjStoUfvfUjajpqcDlcViqhc59U21AkRJ23jnRnOlMLpnLXKXfFjdZKTBr70ev2Gtj8Us9GRk+VUyueNu3jyCzxhzro/OQTr3Zj2rUSqt80Qp40EfIkKs1qMQgFjJm9RH7L+8Shl2hRmP14xPRQ+wTafCHe2tzI1kavlVJ4+ORC5k0s7N3gvWkTPHlVj19poYkM7LVJQYadRqQedwhc/jSkOe13So9UAklOQAWsJJ9gHZ4SGFEC8uX7/r3Qtcvk+ItnRZ8tZoQuSfERo9nDLh/Rrifrza+5bzlVTV2WP0NehpuSHM9eL1qtviAt3iDFOelMKMjiniuOsELjtSkBJaAEBpvA0l1LuXnFzVYqoTfktQSsLHeWVW1Q/i1/FmYUUpZTxo3H3khpZulgdyExryfpc7XLTcVN2dSQ71ortTwTJiw0EbnJ3ho/NBHeEpEcEusBEfF6hDyJShNRS8QrSR2USC1tSmCkCfz9+8afUYry5JX33xurMM9mc9ynvgWHfXGke6/3VwKjhoAKWKNmKrQjSiBJCXS3w8oHQVIDZYdYUgn39S8RcSsgVZMcJlLriOs1+moIHoeHllRz/5JqqzKOlIB2O3v3kZFILDEolUiss+aO59snz4wXOzcEvdVLKgElkAoEmv3N/GLxL2jwN9AV7MIf9ltRVtmubKtCoURe/eyon2nkVSo8DPs7RvG4qnkbpDqhFM+QRb8l5GVBxTFQMGl/r6jHK4GhISBWA/edA82bjA/jnmmDfd1R0oElVXbikXDJ40PTL72qEkhAAipgJeCkaZeVQMIR6NgJ6581hpWy8ySGlWJ0LS0SMC+drixjyHrIxfGNWRMOwOjo8Hl/eocNuzoZl59hGbb314KRKDXNPipLs7n7iiMYm5cxOgahvVACSiApCfhCPt6pfYcNLRuslMK5Y+ZanlcpadielDOsg1ICKUygfp1JH5T34aJKeyBEoBXf03Fz4coX7J2jRymBFCCgAlYKTLIOUQmMCgIiXH3wuClrL3+PhEy3nOnGcFYisw75gkZeDdFkra1t57tPrKa6yUvlmBxbEVUSqVWUnc6/nzKTMw8dP0Q908sqASWgBJSAElACSiCJCexcAU9fD131UDjZ3kAlVViiC8ceDFe/bO8cPUoJpAABFbBSYJJ1iEpgVBGQHaXmDWYXSmQUKfMtfh2pWBZ9GCfmD69t4rGl2xETd7vRVOKFFY5EOf3g8fzsnDnD2Fu9lRJQAkpACSgBJaAEkoRA43p44kpo3w5FU+0NKhqCtmoYdxhc+Td75+hRSiAFCKiAlQKTrENUAkpACfz02Q/4+5pdlu+VRFXZaZ2BEB3+MJ+eUcLNX5hn5xQ9RgkoASWgBJSAElACSmBPAlJs4N7PQtNGKKz42EajP0qBdmO9UXEUXPyI8lQCSqCHgApY+igoASWgBFKAwO3/2sJDS2rwh8KMz8+0NeLmrm6iMTjr0PH8+KyDbJ2jBykBJaAElIASUALJRCAG3V6oWQxVr4O/DYomw/RToXSmVnm0O9Wv/QpWPwbdHfELDEhxo+bNUDgFTvwJzDzd7l30OCWQ9ARUwEr6KdYBKgEloARgS2MX33j4fbY2eZlamkNaWnwqUomwNNfD90+fxckHjY1/gh6hBJSAElACSkAJJA+BcDeI8CLClRTdCXSCpLZZ3qV54EiHY/8dZp2pVhDxZr19Jzx2qalE6M6B3DHGSmPfFotCWw043VA2Dy55It6V9edKIKUIqICVUtOtg1UCSiCVCZx/m6lCWJLrIdfj6heFPxihts1vVSG876qFFOf0VI1MZYA6diWgBJSAElACqULA12IEFzEeF99Shws8Ilq5IeyHYJcRrQomQ/kCOOv32NodSxV+vY1z0yvw2i+gZSsQg7wJppiRJWTFDNPOOkjPhsJKuPhRyC5OZWI6diXwCQIqYOlDoQSUgBJIEQIvrKnj1n9upqrRy8SiLDwuR68jD0di1LR4KSvI5AsLJ3L1p2yWfE4RjjpMJaAElIASUAJJTUAq4D16CTR8AL5WKBDfpl78M8WnyaqsNwkOOhc+c0NSYxmUwW17G/7xUwi0QucukIgraaJhiTgoolZ2KVxwj4pXgwJcL5JsBFTAGowZlQ8eXzM0rgN/E7gyoXiG2ZGQ3QptSkAJKIFRQuCbj77Phl0dbG/xk5XuZExuBo6efMIYMZq7gnT4Q4zLz6CiOJs7Lz/cMn7XpgSUgBJQAqlHIBqLEY7GiMXM+trlTPvoOyP1aKTQiFc9Bm/+Fjpqoaiy//TAoA+65LjpcPnTkFmYQqAGONRICJbcBuufB6nObf2COcCdAYu+BrPOGOCF9TQlkPwEVMA60DmWahJV/wDZqQgHTF64fABJbrio6BL+Of00zQs/UM56vhJQAoNG4BfPr2P51hYaOrvpCISsqPWYbP6lQXa6i7F5HqaPzeW/LzhUxatBo64XSjYCsrCPSJUD63cnDWdammbPJNskp/B45Nl+bFkNjyzdbn0/mC8JI2KdO28Clx01Sb8fkvX5kI15qZjXsBYyCiAjP/5IJcXQ5YFZn4XTfxP/eD1CCSgBJTBAAipgDRCcddrGv0HLFvC3mPBPp8cY7snfRcySPz354MmFuZeB217lrwPpkp6rBJSAErBDoN0X4kfPrGFHqx9ZiEuTSKzCbDe/OPtgK8VQmxJQAp8kEAhFkKqer37YYBb2PZkfEplyzaemcPoh4zVCZZAfHOHcFQjz8rpdvFfdYomFR1YWc/JB4/pMhR7kLqTU5Xa2+rn+wffwhyLsbPNb4lWPQ4/1l7L8DLLSXdYmx+zxeSnFJiUG21IFj10GrVuheLq9Icu6R7ybKo6CLz5m7xw9SgkoASUwAAIqYA0AmnVK9RtQ+z74myE9t3dxSqKyAi3gzoKccTD3cjU3HChvPU8JKAEloASUwAgTeH1DAze9vJHOQIj6zm4TldLTnM40a2Gfn5nObZfOp0QLHwzKbLV4g1x97zJCkRjeYBhvd9i6bk6Gy4oYzfY4efDqI3FpqvOg8N7R6uMrD66wKtZKFFZ5YSYZbudH1+7uEbUk6nBycTY3XnAIc8psROgMSu/0IsNCoPodeO7fwNsIBZPs3VLS4Nq2wbi5cOUL9s7Ro5SAElACAyCgAtYAoFnRVSvuMh/sIl5JyGxfTSIbxBdLIrEmfRomHDGQO+o5SkAJKAEloASUwAgSeGntLv7w6ia2NflwOCQKJZP0PQohdHWH2dUeINPtpKI4i7u+tECrdx7gfC2tauGXf1tHXbsfb3eEdFcauRluSzfs9IcsUSsvU9KeM7j14vlMLNbI0QNBLoLV52592xKv3M40ygv75ilzEghFmVKSzSNfXkROnMq2B9IvPXeYCaiANczA9XZKQAnsDwEVsPaH1u5jN78Eu1ZBJGhyw+M1EbxCfsgZCwuuhdZtsOUf5vyPWprZ5Zh2Su9VPuLdQ3+uBJSAElACSkAJDAmB7S0+vvLQCrY2ei3BpK/oKtmz2t7qw+VI45AJ+dx71cIh6U8qXNRi/uB7lpgiQmFvYorwloqp8mdlaQ5Pf/VoHA5JdtM2EAIPv1vN3W9vQ1IIp43JiXsJmZvSXA+XHFnBNZ/WarVxgSXKAS1b4bFLNYUwUeZL+6kEUoyAClgDmfDVDxnvq/Qc+2KTr54kghsAACAASURBVNGIXVKhMNIN3e0QMWHwVpP3LXeOSTcsP1IjtQYyL3qOElACSkAJKIEhIPCbv6/n+VW1+IIRJhT272cpnnJVjV4qirL491NmcMqccUPQo+S+pEQCff72d6hp8SE++RMK+mde3ewlM91JpRUNdFRywxmi0clze84tb7O5sYvygr3TBvu6paQT7mjzM7U0h6e+cvReEYlD1E297HAQEA/f+z4L9euMgbsdE/f2naaC3qyz1MR9OOZI76EEUpiAClgDmfz3/gwdOyCjEBwf+wL0eyl/K0SD4HCZioUiflmm7j07hfL/RNSKRSCzGMbPMymH2pSAElACSkAJKIERI9DhD/HFO99lS1MXFYVZthbpck57IMSRU4r5v8sOH7G+J+qNtzR28fWHVlDT4qeyNDvuMER8keg4iRp6+mvH4NQorLjM9j0gFIly7p/eYUtDl63oq93nVzV2Mak4m4euOZLC7PT9vq+eMEoJrH4c3vitWe8UTe2/mnrQC111xvD9smcg00Z2yigdtnZLCSiB0U9ABayBzNFuASuzENJsCljeBhCDQ4cbskr6NnOXVMNQlzlm9rmQVz6QHuo5SkAJKAEloASUwCAQ+LCug289upLadr9lWm2niRggFT4PKc/nkWsX2TlFj9mDwL3vbOWut7bh6w5TFif6avdpEoUl6WzfPXUmpx88XnnuJ4FgOMp5ImA17p+AJWmEEm1431ULLf7akoRANAqPfhEa1oKvBQoqes86CbRDVz0UToY558Jx30sSADoMJaAERisBFbAGMjOrHoTWKmPg7nTHv4J4XUkKoURbiTDljLND1d0JRKF4Bsz5fPzr6xFKQAkoASWgBJTAkBBYUdPK955cTVNnNxOL7JmESwpcdbOPg8ryeOJ6TWnb34n598dX8q+NjWR7XORl2HjPAqRaYTga5YyDx/PTs+fs7y1T/viBR2B5mVScxYPXHEmRRmANz3MkKX5bXodtb0AoAOMPhZlnDH7kk7/NiFhdDSYSS7JIPLngSIewD4JdZiNfxKvyhXDmTVptfXieAL2LEkhpAipgDWT6N70I9WLiHrJn4h5og5AX0lyQPSb+h7t8MfmaIbsEDvsSePIG0ks9RwkoASWgBJSAEjhAAut6IrB2tfutVCk77aMIrAn5VoU2bftH4DsiYG1oJCdjPwWsSJTTDh7Pz89RAWv/iMOeHlgTCzLxuONnGHSHI1akoRjoiweWZ4+qnPt7fz3eBgGpVvDXr0HjepC0ve4OkDWDO9sIS/Lf2X+Eoik2LmbzEFnrvPYr2PKa8fANdEA0ZDx9M/LMRr5EXc04Pf76xuYt9TAloASUQH8EVMAayPMhXxrv3wO+JvNl4ewnZFq+bLz15gtGjpWoLTvN32J8smacASWz7JyhxygBJaAElIASUAKDTKDNH+LSHg+sSUVZuJ2OuHfoDIRo84VYOKWIOy5fEPd4PWBvAn9+q4r73tmGPxhhfH7/Bu67z5QUwpJcD98+aQafnVumSAdA4N63t/LAkmrq2gP/H3vnAR5Hdb39V7vSSlr13i3LveKCjenFNAMJBJLQe4AQAgQIJJBAki+0QAihBAgQYooJLSGhmd6bce/dlmz1Xlbb2/d/70jgImnH1q626FweP2B2Zu69vzs7O/POOe9RxuyBWlWrFTkpJpw1uww/O3pMoM3l88EQYJreKxcDnXWArUmLfOIzBb14GQnlcWqFoDLLgEOvBaacMZje9t7XZQN2LgK2fwzQ1zerAhg3D8gbGzizJLgjkaMJASEwzAmIgLW/J0DlJ0DDSu0i/q0h+x4HozG7g+btHk3AMufpSznkYZhTHm8CRh2nGbpLEwJCQAgIASEgBMJC4PY31+PttQ1g1bVAnkzKULzFqirnXXvsWBFT9mPFNjVa8IsXVqjonorcwFFvfFfY690k1fD2A3jPLp4eI3eev4ymGuhcb+xywOryqvX512VzkJ6sL9Vz/0c3jPfkCf7saUDTBoBeucqPag/efM6wNAAeO5A1SqsEWH7oMIYmUxcCQiBWCYiAtd8r6wc2vQG0V2oiFvxaJBZN2vkj4nVo1QaZ/ue2AfzxUdFaOiu0KGHMDIw9GcibuN+jlB2FgBAQAkJACAiBwRHY3mzFtS8sR2WLDZnmeGSn9B157QdQ225DHOIwpSQdz1w6B3E9xYYHN4LhtTdTMH/8969R3WYDCwoWBojC4nameANG5pjx8pXy0D6Ys2VLowXXv7wKVS1WdZiijCQk7ZJOyLTB+g4HnVoVb6ZrzirPHkyXsm8gAgt/BWx+V7MXYXpg3ABRoJZGrep57jjgwteAeDHWD4RXPhcCQiC6CIiANZj1oijVvAGo/EgTq5Ro5dF+WChm8e0IQ2y5XdMaAAYtWitQ6/XAMucA0y/U57MV6JjyuRAQAhFPwOPz44VvduCddY0q0sNHXdwQh5REI86fU47jJhVE/BxkgEIgVgn8b2UtHv90G3a22pFgjENhRtJu6YQ2lwcNXU6YjHHKK+vhc2boNn2PVWaDmReFlOteWqmElGSTsc9UQiUYttng9vmUD9OLlx8Mc2L8YLqVfQEwAu7Gl1fB6vSgvsvBEkRKlPXzZS2AgrQk5U/2h1Mn48DyLGEWSgJ8JvjnPKBpPZBeAsQnBejND7RVAmlFwAl3AONOCOXo5NhCQAgIgSEnIAJWMJDTzJAVOlo3AfSuMiYB2aOAzAogIUmL0tr4uhapRVFqoDcnHA9z2SmIZY8Gpp4djBHKMfaVAPkvfwZY/7oWrs0bCFZfMaUAsy4BJpyyr0eU7YXAgARWVXfgzrc2oNXqRJPFCVaw5sMCHxri+bCcnqQemP961nSp9CTnkhAIAwG+i1q4th6PfbwNXXY3mq1OGNSjvfZdNcRp39NMcwL+/ONpulLfwjCNqOmSUslHG5pw//ub0NDpgMPtQ1KCQVUm5GfdDjecHh9SE+NRkJ6Eu0+fiimlGVEzv0gfqM3lxUtLduLV5bXK4J3nP6MJeZ6fckAhzpszEmn/J2JJCzGBqi+Bt24Aumq15wI9zcrK535g2jnAsb/Ts4dsIwSEgBCIGgIiYA3JUvmBta8A7du0yoXJfFvVT06BxwG4LEByDjD+FCBL54/VkMxjmHRStwp49xaANwD0E/B7eybOO7d4IL1Ye7N1xpNASs4wgSLTDCWBxVVtuP2N9djZZoPX50dBeiIS443qYUHVgXB6lKhlNhkxMjcFT144S0SsUC5ICI5tc9vw6MpHsal9E5xepxI8TAYTcpJz8LMDfoYKvvCQFhUEWrqdeOqLSny+pQU+hknyFz0OMBkNOHfOCHxvWjGSdVRwi4rJhnmQpFvVbMX1L69UYhWvhYx0o7BvTjQixRSvRJRHz5uJnFRJlQrFcjGdk2IWf5sYEcxoOJ7r0oaIwNePAIv+DnhdQFqhvk75ItzWBlQcCZz5jL59ZCshIASEQJQQEAFrqBaKpW5XP69FYfFHiKmEu4YBM8LHadHy1pOygIIpmoG7tKElUL0EWHgT0FEJeD2aUMV1UkqCT/Mzs9Rr68cou7NfEBFraFco5nrjw/BlzywFPXZomstIgr48c/gGvKbdhniDAVNKMvDMpQfFHItYndCC9QvwdtXbaLG3oMvZBR+vJT0pOckJychNzsXknMm4Zc4tSByoqm2sAorSeVFQoZhCESveaFBiCqMlpQWfgMfrR22HHZ9sasK6uk4VBTR9RCaOGpevBH/+XZoQiEkCXz4ELH5CsyhJ1WkjwGrprJQ+8gjgrOdiEotMSggIgeFLQASsoVx7Rwew/j8AxSz+YY7QtzddfiA+GUhIAYqmASMOD5xqOJRjHw590Rzz+TOB1q2a2T7Fq75uivnw2bETMMYDBVOBC/83HOjIHENE4LFPtuLFxdXosLsxIts8YC8UsSh0cbubThwvnlghWpNgHvZvK/6GT6o/QW13LeIN8UqsMhqMKoKEQlansxNdri7kJedhTNYY3HvkvSJiBXMB5FhCQAgIgWgmsPUD4J3fAN31WnVBPY33sxS8pv5I88GSJgSEgBCIIQIiYA31YtIvi8bvO7/SIrF6G4WStBJg5FGaT5a0oSfAt1zL5mtVXmi+P1CjiNW6Rdtu7q3iiTX0qxUTPTIt45wnvsaW5m6UZCTvVumpvwnSe6fT7sa0skyJworws2Bp41L8ecmfUdVZhVxzLlIT+i7i4fa5UWupRb45H6eOPhWXH3B5hM9MhicEhIAQEAJDQsDjBOafDDRvBDJH6Ktm3l4FpOQBx94GTDptSIYpnQgBISAEhoqACFhDRXrPfiiA0O+KgharE7LMLaN+pIWHAFMD558CtGwGMkp1VHmBFkVHsat4hlaqWJoQ2EcCO1qt+Olzy1DTbtdt+Ewfkh2tNkwqTscrVx6yjz3K5kNJ4OoPr8aq5lVIjk9GFlPDB2gOjwP11nqUp5fjgWMeQElqyVAOVfoSAkJACAiBSCXwv6uA7Z8CTA3MGtG/jy7Hz/tSWpLQ5uKi14HEtEidlYxLCAgBIbBfBETA2i9sslPMEWBK4AvnAHxrlTNG3/Ro7t62HcifAlz2nr59ZCshsAuBTQ0WXPPCcjR0OlGeM3D6YO9uTCOsbLFiQmEaXr3qsIA8P9r5Ed7Y/obyXvL4PCqNLc2Uhnkj5+HEkSciTrxjAjLcnw0oRv3i41+gqqMK5RnlMASqPgugvrseqaZUXDb1Mpwx9oz96Vb2EQJCQAgIgVgj4OgCnv+x9pKVjS9a+/pNsbYAjnYgayRw9G+BiVIxO9ZOBZmPEBACgAhYchYIARJo3gS8fBFgqdXvMcAouratQN4k4PIPhaMQ2GcC25u7cdXzy1HbblfVBfW03gisiUVp+PfPDu13lzZHG2794lYV1UPzcKap+f1+JVgpL6akXBSmFuLWObeiNK1UT9eyzT4QeG3ra3hi9RPK36o4tVjXnvTDcnqcmFs+F7cdfJuufWQjISAEhIAQGAYEWCH7reuBrnrA2an55rKgEIUsj02LzoozauLWtHOBQ34mXrrD4LSQKQqB4UhABKzhuOoy570JMJLqxfOBzp1A9mh9hJSAtQ3Inwxc9r6+fWQrIbALgS6HG+c+sQjbWqwozzYjQUdpclY9a7I4cUBJJp6/fE6fPFvtrbj2o2tR010Dm9uGPHMekuKTYIABPviUSNJsa1b/j+LVXUfchZHpI2VtgkiA4tUrm16BH37kJOvzNeRatTvaMbtwNv56zF+DOBo5lBAQAkJACEQ9gc46YOGNQMcOTbBydQN+P5DQI2bx38f9Aag4QsSrqF9smYAQEAL9ERABS84NIUACDM9++nuaMXt2BWBICMzFZdOqwhROAy55K/D2soUQ6IPA7W+sxzvrGuBwe1GcmTwgI96nVrVaVdn4iw8biQsO3lt0YmW7S969BJUdlfD6vSr6p6/0NW7XYG1Q/VVkVODx4x9XXk3SgkPgxY0v4pl1z8DmsaEwpVDXQS0uC6xuK44oPQJ3HCaVo3RBk42EgBAQAhFAoMPmwsMfbVUeld1O+tsCqYkJyh7gmrljkGkOks+tz6vZXVR+CtSuALxOIGcsMOoooGAyYNIXzR0ByGQIQkAICIH9IiAC1n5hk51ikgDLFG98HaAwlVEWYIp+oHUbkFYEHHQ5MOenMYlEJhV6AlUtVvz8X8tR1WJDljkBWSn93+Q2dDrg8vowviAN/7riYMQb4vYa4HtV7+GxVY+hxlKDiswKxGHvbXp3YnTQjs4dKDAX4JIpl+D0saeHfsLDpIct7Vtwy+e3YKdlp4pu0+M11mhtVFFx5008DxdMumCYkJJpRi0BnweoXQK0bwfcdoBRySxGk5gOlM4B0qUQQdSurQxcNwG+WHrowy34cEMjWqwuWJ0eMNWfzWiIQ0piPHJTTDhuUgGumTsWYjupG61sKASEgBDok4AIWHJiCIFeAnyj9dIFmjF7chZgHiDtx1KvVZHMmwBcshAwxAtHIbDfBP6zrAZPfr4d1W12JCYYkJ+WuFs6IaOzmDbIG2W+zb3z9Ck4oDRzr/7ocXX+2+dje8d25CbnwpwQ2Bje7rGjydaE0Zmj8cy8Z5Q/lrTBE6A4eMV7V2BdyzpVgZDm7AM1GuxXd1WjLL0Mdx1+F8Znjx/8IOQIQiBUBFo3A1WfaV48bivg82k98emcEcw839NLgfGnAMbEUI1CjisEwkqAv7m3vbYOSypbUdvhQGK8Adkppm9fLnl8frRZXXB6fCjJTMLsihzcftpkXS80wjox6VwICAEhEMEERMCK4MWRoYWBwKqXgK8eBNp3APFJQFrB7umEFK0sTLvyaWbvJ98HlM0Ow0Cly1giwMqC/11Ri39+UYkOmxttNhfi4+LUTS4/4z+5KYnqxvg3p0zE7JHZfU6fIsi5C89V6YOjMkfpRlTZWYny9HL844R/ICMxQ/d+suHABP679b94bt1zqO2uRVFqERL7eZBnOmddd50SuQ4vPhy/Pfi3uqoWCn8hEBYCjWuAqk8Be5vmv0OxisI3gz35d/5OMiKLqUypBcDUs0XECstCSaehJvDuugY88MEW7GixoigzCWZT3y+A6F1Z3+FQxVquO24sTpisL6081OOX4wsBISAEopGACFjRuGoy5tARYArE6peBrx8B7O2ArRUwGDUzTL9XuzlPyQfM2cDxfwRGHh66sciRhx0BphMuWLQDi7a3wePzgVkIzBLkW92TphbhxweWIie1/2gGVho8b+F5+yxgVXVWoSytDH8//u8qckta8Aj85vPfYE3LGhXllm5KV9FYu6YTdru60epoRWpCqvIru//o+yNmDWj2v7x5uYroM8YZVVTYtLxpIq4F7/SIviPZWoC1LwO2Zi1dUEUW9pGmzPRCRwfAKNDcCcCEU6NvrjJiITAAAZfHhx899hW2t1iRk2pCetLA3qks2tLa7cKo3BRVQdgUbxC+QkAICAEhsB8ERMDaD2iySxQQsDYDNd8AjnbA49TSGhJSNG+rkoMAYwCTdqYRLnkKqPwc8Lk14YoiVrwJmHgqMON8IDU/CkDIEKORgMXhQWu3U/ldJScYkZuaiGSTMeBUBiVgpZfhyeOfVAKLtOARcHld+POSP2NZ0zK02duUqXt8nPaWnib7TNlklcLilGL87pDfKREr3I1m8vcvvR+bOzaDApvD61BeajT5TzOlYXredFx/4PWSBhPuhQpH/5veBJrWAjSSTgoQrUkRiy+CmI4/6YfiiRWO9ZI+Q0ZgXV0nfvnyKlS32TAqb+AU8d5BbG+2oiw7GX85czomF6eHbGxyYCEgBIRALBMQASuWV3c4zo03zNveA9q2aSWGvS7NWJZviA0UoJI1g9myQ4GCKYEJOToBimEUwfgmmaKVVHgJzE22CAsBpqKd89Y5YEpgaVopEnRU0/R4PajursbIjJF47qTn+k1zC8uEYqjTZY3L8Nx6LZ2QqZ5MC2VUE9MGzxx3Jo4dcawycA93W9+6Hvcsvgf11np0ObuUSEXhiuOlXxqFLIqcjNi764i7kJM0gFdguCcj/QeXgNsGLJ8P2JoACt16/PKcFi1Ai9V6x54c3PHI0YRAGAk8/NEWvLi4Wr1oKkzXd+1u6HLAZDTgnING4Oq5Y8I4eulaCEQvAabkLtvRjsoWK+KNcZhclIGppRkwSIWE6F3UfRy5CFj7CEw2j2ACFK/W/wforAZcFs1zg4IVI6fg194Y02yWjSbtrJLEaCxpQiCGCDy68lG8tf0ttDnaMCJ9RMCZ1VpqlYhy4sgTVVSNtNARoAjEKKx2ZzsoNjKaKS85L2KM8yla/fKTX6LaUq3Gl2/Oh4lpYrs0h8eBRlujErUqMirw1AlPSSRW6E6ZyDpyeyWw8X+AswtI1ilc8iWSqxvIHg0ccF5kzUdGIwQGQeBX/16FjzY2wWwyIiO5/+rBu3bRaXfB5vJh7oQ83PujaYPoXXYVAsOPQIvFifvf34z19V3odnrgdHu1l2wmI7LMJhw6OgfXzB0j9yTD4NQQAWsYLPKwmWLlx0Ddck28YmpDn9EnfsBlAzx2ICUPmHQGkFo0bBDJRGOfAAWGi965CDs6dyhhiulp/bV2R7uKsqHQ9ehxj0aM91Lsr1LkzZDpjDd8coOqmuj0OpXpPKOt+moUtyhyZSVm4ZDiQ1Tqo7RhQICpg1ve0Uzak/augtr3yUIvrE4tfX/mpcMAkkxxuBC44631eHNVvXKoYJq/ntbSrVUT/v60Yvz2lIl6dpFthIAQALC4sg1/fncjatvt6HJ4lD9sUoJRfZ/sbv7dgJwUE0bnp+K+H09DpjmAVYxQjWoCImBF9fLJ4L8lwGpIq58HaDDLKmp7RA3sRYpvkBmVlT0GmHKWgBQCMUXgi9ov8ODyB1HdVY0EYwLyzHm7pRMyha3F1qKEipK0ElxxwBUqAkva8CVAo/abPrsJNZYaJWjyZnCgRr81Ru+NzhyNBScvCLj98CUbQzNv2QRsfktLz2cUs55GD0mmEWaWA9Mv0rOHbBMlBBo67VhZ3YE2qwtpSQk4oCwD5dkpUTL6wQ/zk01NuPOtDWjo1KoL6mks1FKYkYRbT5mEo8bn6dlFthECw57AlkYLbnxlNXa2aVk0+WlJuxVB8AOwu7xo7HIgNdGIicUZ+OdFsyQSK4bPHBGwYnhxh9XUqr8CdnyheV7peTPMioIUvcx5wIyLeyopDStiMtkYJ/Dhzg/x+OrH0enoVClr9FuiKMHoGUbbZCZmqj8XTb4IJ1ecLD/0MX4+BJrei5texDNrn1Em84Up+kq87+jaoba9+aCbcXDRwYG6kM+jnQAN2Vc9B9hbtRTCACKnmi59syhi5U0CJp4e7QRk/ACW72jH019VgYbk9KJxe32INxhUGs+IbDN+PKsUx04siHlWVqcHZz2+CNuauzEix6y8rQZqrFq4s82G0XmpeOmnByMlUSvmIU0ICIH+CXi8fly5YClW13TC6/OjKCNZRT321fg5v2OMiDx5aiF+NW+CoI1RAiJgxejCDrtp0fuqZaMWeUXfKz2NAhYN2cfMA/In69lDthECUUWAhuGvbH4FX9d9DVbDo3hFEYvm7rMLZ+PM8WeiPL08quYkgw0Ngd99+Tt8WvMpzAlmpJv0VcdqsbeoNMNTx5yKa2dcG5qByVEji8DqF4D27ZqBe6CCJiygwt9ZpvSPOl5f4ZTImq2MZg8Cj36yFW+vaUB9px1WlxdJ8QYkGA3w+Pywu71IjjeiICMRh43Jw83zJiiD5VhtjPq4Z+EGvLe+EU0WJ8pzzP2aSPv8fuxotSE/LREnTC7Ar0+a2E+CdqzSknkJgf0jQLP2W15dg7oO+4Dfsd6j8zrU2OnAhKJ0JRSLsfv+cY/0vUTAivQVkvHpI7DqWaC9SoukCpQ+2HtEphHyJrz8cK0qoTQhEKMELC6LqipHf6zE+EQUmguRwVRbaUKgh8CvP/u1EjrTEtOQmqCvJDw91JiOelLFSbhp9k3CcjgQYBohfbAcbVpFXxZL6bP5AQdT9aH5X007D4gzDgdCMTvHBYt24PlvdmBnqx3pyfHINJsQTyOanubz+dHpcKuUwpLMZJw8tQjXHz8uZnlwYoyquuCpb1DTbkOHza0iP9KTd/fe6bK7Qe8revKUZpnx3E/m7Jb+FNOAZHJCYJAEKJo/v2inivQs0FHtk8JyVUs3ijPNuPuMqTiwXGe6+yDHKbsPLQERsIaWt/QWKgJrXgDatgLxZiBen5mmMpaNNwEVc4HiA0M1MjmuEBACQiDiCbB65X+3/Bc++HSb+TPCL8OUgSumXYHTRp8W8XOUAQaJwNZ3gKb1gJO/oclAgnn3dEKvWyumwjyP5GwtdTCtOEidy2HCQcDm9OCcJ7/B1uZu5KaY9hJpdh0T0wrr6QuVk4K/njUd4wvTwjHkIeuz0+bGL19ZBfpbtVqdStRiVBobH7pN8TSXTlQ+WWIuPWTLIh3FCIHrXlyBz7e0KJ+9tCR9abf0wuL37qJDRuLyI0fFCAmZxq4ERMCS8yE2CGz/AKhdClWOIlHHzZIqW9Gi3VxPORtIjX2/hthYaJmFEBACoSCwtGEp7vjmDjRaG5WJe6DGdFRWuqzIrMATxz8hEX2BgMXS5z4PsP0joHkD4LYCXmdPdFUcQH9JNqYXMkKLKfo0cJcW1QT+3xvr8P76RlW6vizLHHAufIBk6s6hY3Jw/5nTA24f7Rsw+uz1VXV4cUk1Ou0uuL2MAwESjHHISDbh7NllqvKgcZeItWifs4xfCAwFgaueX4avt7Uiy2zS7RvXbHGq6885c8pwzdyxQzFM6WOICYiANcTApbsQEaAnx8bXAUe7PnNZlgGnuSxTG2jiLm4EIVoYOawQEALRQMDqtuKydy/DTstOpJhSkJU4cNh9k61JeaqNzRqLf5zwj2iYoowx2AT4u1uzGLA2acIVXwzR2J1p/DRtL5klBVKCzTxMxzvj0a+wqcGCsuzkb6OLBhoKzZSrWq2oyE3BC5cfPGDEVpimFJJu6XVV3WZHs8Whjp+XlqSYiQ9PSHDLQYcBgTvfWo/XV9WrdOXsFJOuGdPIPSfVhBtPGK9SmaXFHgERsGJvTYfnjGgWu/YlzQfL7+mpRNiPeSjfHlPoYrXCEYcDJbOHJzOZtRAQAkJgFwKf13yOB5Y/gBpLDTKTtCqVezY//Gi1t8LqsmJkxkjce+S9uiK2BHQME6CfpKMD8HmBhGQtslmvF2UMY4mlqZ32ty+xpcmCUbkpuivWVrZYUZqVjH9cNEt5P0Vboxj11dZWfLypCTXtdjjcXhUBQrP2EycXYnrZ3tfHaJujjFcIRDqBt9fW48/vbFLeemXZga8jLCixs9WK0fmpym8uYw9Pukifr4xPHwERsPRxkq2igYCtBVj3MmBr194G72nozrfDHruW8mBKAzJHApN/KNFX0bC2MkYhIARCToARVfPXzsdblW+pS1DnfAAAIABJREFUVEJWGGQ0VqIxERSuWASAwlW8IR6FKYW4ePLFOHnUyXuNi9FZm9o2gcUD0kxpGJc9DgVmSdMO+QJKB0IgRASUgNVowai81H5L2O/ZNT2hSrKS8fgFs5ToE02NgtW972xUUWftdhdcbh8oaBkNBiQmGJCVnICZ5Vm45eSJSE3U58sTTfOXsQqBSCHQbnXhon8uVhGdLBwRSJBihVRGPNK8/bHzxd84UtYx2OMQASvYROV44SXQVQtsWai9DWaKIEUrgxGgHQEjswwJmrBF8WrcKYBx92ox4R289C4EhIAQCC8Biljv73gfT699Gha3BTa3DS6vS2VZU8hKSUhBdlI2fj7955hduHv06qrmVXh508vY0r4Fdo8dXr8XxjgjkuOTVarhmePPxLS8aeGdoPQuBITAPhM4/ZEvsanRolIC9abDbW/uRnlOCp659CDkpeksrrPPIwv+Dowc++XLq1DbYYfF4UZmcgKSTfGgLztTI61OL1hZMCvFpIS5Jy6cJSJW8JdBjigEviXwvxW1YDXC2nZ7n5U+uSEf95i6a3d7MTovFQ+ePQMjokw4lyXXT0AELP2sZMtoIUDhqnYJ0Lwe8DgBpheyGeK1tEFWHMyfJJFX0bKeMk4hIASGnACjp5hSuKZ1Deq762GIM6hUQQpQhxUfBtMuKWKMzqLgtbByIVpsLeh2dyuxi5FaHp8HTq8TqQmpyDXn4qSRJ+GSKZfoTkMa8olLh0JACOxF4MJ/foM1tV0wJxh1+dBQ+Gm3uTGuIBUvXH4I4o39WDpEGGur04PLn12KLY3d8Ph8KMpI7tN4ndUFKXAx+mpqSYYSsaQJASEQGgJMC/zr+5vx/voGNHQ61HeS373EeKOKDre7vLA4PTAZDSjOTMbPjxmDeVMKQzMYOWpEEBABKyKWQQYREgIs5c20Qne3ViEpKQtIpmdBdNxIhYSJHFQICAEhEGQCL258Ea9sfkV5Z6WaUpGVlKUir3obI7E6HB0qpbAkrQRnjjsTZ084O8ijkMMJASEQKgKrqjtwy6trwOgkRmENVE2PkRBM9ynMSMIvjh2rqu9FS/vPshoV6dHU5VTRY3ED3C4yGos8RuaYcfsPpmDWyOxomaaMUwhEHQGKWK8ur8GCr3egy+GB1eWB2+NT31EKWalJ8ShIT8R1x43DbPkuRt367uuARcDaV2KyvRAQAkJACAgBIaAItNnbcOWHV2JH5w7kJOcoz6v+GgUsGsCXp5fjseMeU9tLEwJCIDoIXPncMqyp7USn3a28rRjtsGfjQ2Zdhx1JCQaMK0hTkUnJCd+J2ZE8U5fXh3OeWITNjRaVpqTH26rd5gKjthiF9exP5kTy9GRsQiAmCNDM/cONTVhb04H6TgfiDQaU55oxqzwLR4zNgyl+7+tSTExcJrEbARGw5IQQAkJACAiBQRPocnVhW8c2tDvaVfoYK9QVpxYrI3BpsUvgzkV34rOaz2Dz2NR6B2p13XUwx5txZNmR+O2c3wbaXD4XAkIgQgjYXEyvWwaWqG+1OFXEg9kUjwRjHChc2ZjG0+MZVZSZrDxoWIUwWlpjlwOXzF+CHa02jMpL0TVsGrszCmtCYTpevepQXfvIRkJACAgBITA4AiJgDY6f7C0EhIAQGNYEartrwRSypY1LYXfb4fa7lV8SRSxG2pw2+jQcWXrksGYUq5N3+9w4b+F5qOqsUv5Yu6YN9jdnphPu7NqpBM4FJy3YzUsrVjnJvIRArBCgiPWX9zbj622tKhLL4fYq8coYF6eirtKTE3BAaQZuPGE88tOTomrarJr40wXLVATZyBx9Apbf78f2ZquKNvvf1YdF1XxlsEJACAiBaCUgAla0rpyMWwgIASEQZgIfV3+Mp9Y8hSZbEzqdnUrAoHG3Dz5VuY7V55gmRtPva2ZcI2JFmNcr2N1b3VZc/M7FKn2wIrNC9+ErOyuVuDl/3nxl7i5NCAiB6CKwsb4LH21swpambnQ53EgxxauopSPH5mH6iEzdlQojadaMLLvi2aWoabcrny89rTcCSwlYPxcBSw8z2UYICAEhMFgCImANlqDsLwSEgBAYhgQWNyzG/UvvR7WlWglXFKp2rUzn8/uUqMU/+eZ8zB0xF9cfeP0wJBW7U2a1wUveuQQ7unagImPfBax/nvjPAT2zYpeczEwICIFII9Bld+OcJxf1GLMPbFTfO3aXx4eaDjsmFqbh3z+TFMJIW1MZjxAQArFJQASs2FxXmZUQEAJCIGQEGF119UdXY0PrBiVaUbzqz+vK7rGj0dqoqs/deOCNOLREbvJDtjBDfGCHx4EL375QpRDuUwRWR6VKIXzmpGdUlJ40ISAEhEAkEPjVv1fhsy0t8Hr9qopioMaorYzkBJxyQBF+PW9CoM3lcyEgBISAEAgCARGwggBRDiEEhIAQGE4E/rP5P3h63dNosbegLK0McQPVGmelOkcb3F43ZhfOxr1H3SvG7jFysjDKjhFYWzu2IiMxQ1c0FSsRMipvdOZoPD3vaeWXJk0ICAEhEAkEtjRa8IsXV2JHq1V5eA1UibDD5kK7zY0x+al44fKDkWyKjmqLkcBZxiAEhIAQGAwBEbAGQ0/2DQqBGksNvqj9AhvbNqoH3aT4JJWOMqdwDqblT9NlDByUgchBhIAQ0EXg15//Gl/Xfq0Ei1RTYA8jCh1MM6PR98NzH0ZRSpGufmSjyCfwWfVneGD5A+B1fGTmyAHFST/8KlqrJLUE1828DkeVHRX5E5QRCgEhMKwIPPrJNvx3RQ3q2u3ISDYh05wAo+G7aroerw+tVpequjgi24zLj6zA6TNKhxUjmawQEAJCIJwERMAKJ/1h3rfT68Rz65/De1XvweK2aBXMfFoFM4pYNPcdmzUWV0+/Wj34ShMCQiAyCPz0/Z9idfNqFKYU6jZmp8DBVMPbDr5NRWJJiw0CHp8HV314Fba1b4Pda0dxSjGMhr0jEbw+L+qsdUg2Jqvoq0ePe1QZ/n/b3HbA3gJ4nIAhATBnA6a02IAksxACQiBqCLCq4sMfbsH76xvRZHHC6vIgKd6gRCyP1w+X16ciswrTk/CjWWW48JDyqJmbDFQICAEhEAsERMCKhVXcYw6MdmA006L6RdjSvgU2tw2ZiZkYnz0ehxYfqrxHwt0oXv3uy99hXes6NNualWBlTjAjwZAAjp++Od2ubhXhwYfkWw++FROyxV8g3Osm/QsBEvjJuz9R393i1GL1ndXT6rrr1HXo5oNuxmElUq1JD7No2YaRs9d9fB3qu+vR4exQ6YS8ntPc3+v3qpcTvf+f58z9R9+P3ORcbXq2VqB2MdC2DfB5AL8PYEpqXDyQXgKUHARkSHRDtJwLMk4hECsEvtzagpeXVmNLYzccbi+8fj/iDQaVKjilOF0JV5OKM2JlujIPISAEhEDUEBABK2qWSt9Am+3NeGTlI1jTvAasEMUHBz5A8CEzOSFZRTUdVXoULpt6mRKNwtXuW3ofPt75MVrtrchPye/TyJfjpvkzH4L4xp4PPXwwkiYEhEB4CVzz0TVY3rhciRB6ryM7u3YqMfqOw+/A5JzJ4Z2A9B50AhSo/rzkz9jYuhEdrg44PU71MoIRtYnxicg0ZWJCzgTcOOtGZCVlaf03rQEqPwPc3YDbBig/LP7xA34PQIP3hBSg+ECg7JCez4M+dDngEBFot7rw+ZZmrKzpVOlZ8cY4jM5LxeyR2ZgzKhsJRvFDG6KlkG72gUBdhx0b6y3odrqRaTZhUlE6ctMS9+EIsqkQEAJCQAgEk4AIWMGkGeZj1XbX4pbPb1GiT7ujHSmmFJjjzSqdg6l5jMSioJVnzsPI9JH4y9F/0f3wGcyp0QPlV5/9SnniFKUWIdHY/40APVNqLbVKuPrRuB/h0imXBnMocqwoJ8BqeIsbFmNF0wpUdVWpB+bS1FJMy5uGg4sO1uXPFOUIwjL8O7+5Ex/u/BAGGFRaYKBGMaPB1oBRGaPw5AlPIoWihLSYJEBh86Pqj8DfI/7e8MUJPa+OKTsGMwtmfueR1bIJ2PaeFoHFVEJ6qe2aUshILFc34HUCFLxK52gilrSoI+D1+fH6yjrM/7ISFqdHpWS5PD4YEIfEBINKxyrKSMKNJ4zHAWWZUTc/GbAQEAJCQAgIASEwdAREwBo61iHtiSl3TOFgNSiWNmekw27+Ij29M3WvobtBvQGfnj8ddx9xd0jH1dfB/7T4T/hgxwdKbKCYFqhxbkwzHJM5Rj386o34CHRc+Ty6CSxvWo4Hlz+IDkcHrG4reG5T8Ew0JMJsMqtow8unXo6jy46WSmdBXuoNrRtUCvBOy06VRmgymvrtgWvC1DKKVt8f/X38fPrPgzwaOVzUEWCq4LInge4mID5RE6/6a/TGYoQWhdKpZwMp+VE33eE8YIpXD364Be+srUdDpxP0wqZgReHK74cywrY6PUhMMCoR64bjx+GYCbLGw/mckbkLASEgBISAEBiIgAhYMXJ+vLX9LTy++nE02ZowIm3EgGXtabpb3VWN8oxy3HX4XcoofSjbtR9di2WNy/Yp/UhFa6UU4U9H/gnjs8YP5XClrwgk8G7Vu3hqzVNosDao6EJGG9IcGnFQqUsUtNgo5J42+jScP+l8EbGCvI53LLpDVQ/tdHb2a+ZOkbrF3gJec1hZ9L6j7kO+WR5Og7wU0Xe4yk+AuqWAywqYA0fwwdEJ0Bg+dwIw8QfRN99hPOL/rajFo59sRW27HTmpichI3tszz+f3K7Nsl9uL0fmp+Nu5M1GcmTyMqcnUhYAQEAJCQAgIgf4IiIAVA+cGH+Ave+8ybG3fqkyS9ZS1p+mu2+tWUVgPHPPAkFIYjAH0b+b8BocUSxrJkC5YhHXGanY3fnojmIrKSCv6MMVRudqjtTvb0enoRGlaqfLdkfMmuAtp89hwy2e3YFP7JpWyzOsOo6zoWceoK0aCMjqO/keM0rpu5nWYUzQnuIOQo0UngaVPAJY6gJ6GRh1FAJhOaG8FzLnAgZdp3ljSIp4APa8u+udiVLXakGlO6FO82nUS9BqKN8ThoIpsPHzuzIif37cD9HuBzhqgoxLobgB8XiApE8gYAWSNAkySMh09iykjFQJCQAgIgUgnIAJWpK+QjvExCuXqD69GtaVad4VBGqQzCoumus/Me0ZHL8Hb5PL3LsfalrXK/0pvBTP6YGUnZ6tqhAcVHhS8wciRoo4ABVCmysbFxaHAXDDg+CmsMBprRPoIPHXiU8oTTlrwCFDEemj5Q1jWsAwUDCla8drCtTEZTMq7jgLildOuxNTcqcHrWI4U3QSWPAZYGjRBihUH9TRbi+aFNe18fVFbeo4p24SUwJur63D/e5vRZnWhLDvwtdfj9WFnmx1j8lOx4LI5SEuKD+n4gnLw7kZg6zuAvV3za/O6tSIE9HNjajU9PkccDhQeIEUIggJcDiIEhIAQEALDnYAIWDFwBmzr2KYiUmjeXpZepmtGTO1hWh7TB58/+Xld+wRrI471m/pv1MOtHjNnv9+vxlqWVoYH5z6oDIGlDU8CTFe74v0rUNlRqVJgWeEsUGP1u4KUAvz+4N9jRsGMQJvL5/tBYFPbJjCNuaa7RlU/pTBNfzsa6R834rg+/fj2oxvZJVYILH4U4IP/PglYrUBSBnDAueKDFSXnwR1vrscbq+tVVFV2Sv8+ebtOZ2ebDTmpJtw8bwJOmFwY2TNtrwS2LIRKcfW6vhOsKMr63IDHqYlZjDTMmwiMPl5ErMheURmdEBACQkAIRAEBEbCiYJECDbGysxI3fHKD8gNipIme1itgjcsahwUnL9CzS9C2eXbds3hp00tg2fWStJI+07927YxpSA6vQ1WWe/CYBwf09wraIOVAEUng9W2v4/FVj6PT1albyGy2NyM+Lh5njD1DRQJJEwJCIMwElvwd6K7XjNl1iNBqtIzASs4Cpl+kpWdJi3gCP1uwDIu2tyIrxYQUk75oqmaLE0ZDHM4/uBw/O3p05M7RaQFWPw9Ym7RzmCJVX9GEvUUIeM6OOAIomRW5c5KRCQEhIASEgBCIAgIiYEXBIgUaItOkGJXCKKXydH1RKS6vC/XWekzMmYj5J84P1EVQP2ea0ZUfXKk8u+hhlJWY1e/xWVmOFczooXPNjGswd8TcoI5FDhZdBO5dci/eqXxHRfSwkqaexoggi9OCQ0sOxZ+O+JOeXWSbSCRAXxlnJ+CxA+ADYypgSovEkcqYAhFYMR/oqgZYeCFBh58Vo1ucXVrk1azLAYMO36xAY5DPQ07gmheW48utrcr7ipUH9bTGLgdM8QZcclgFfnJ4hZ5dwrPN+leB1s1apFWg3yJes1w2LfV1xsUDV90Mz2ykVyEgBISAEBACUUNABKyoWar+B0rD5Js+vUlV9mNKFU2tA7W67jqVvnfsiGNx0+ybAm0e9M97q8jRtys5PlmJERQlehvTBuldxApmnA/Nn2875LaA0VpBH6gcMKIIPLj8Qbyx7Q01phxGb+hoXa4u2Nw2HFV6FP542B917DHITfjGvXMH0FGl+aKwelpaMZBZAaQV6Y84GeQwYmZ3iheNq4G6ZYDHAdDQm6b9jHpIzgZGHKoZJUdyo8mzpR5o3679m3Pgw2zmSM3oOT4pkkcf/LG1btFSr2w9xuwDRmH5AVubJliWHQqUSRGP4C9IaI740Idb8OKSanh9PuSnBT7H/QCqWrpRnGnG3WdMxYHl+l5ShGb0AxyV16Rl/9CirxhZtcu9S7978beAYm3F0UCxRGEN+ZpJh0JACAgBIRAzBETAipGlXNO8Bn/4+g9ghbbC1EIkGfu/WbS4LGAVwlEZo/CPE/4Bc0Jgc9VQYHpl0yt4deuraOhugNVjVabPJqNJmUDbPfZvfXSm5kzFbw7+jRK6pA1vAl/VfYV7F9+LBluDijbU05haS/P2i6dcjLPGn6Vnl/3bhqJE0zpgx6eAx6UZ+vo8mtjSa+ZrzgbGniwm1HoJU+DY+Brg6ABc3QCFoDij5itD3uSakApkjwLGnqTvQVJv38Hajg+5m9/q8cnZ1eQ5QTN4jjcBFXOB3An6Dc2DNbZwHmflM0BXrWZ6zdTAvkQsv1+LuuN6M/pq2oX6IrbCOS/p+1sCTB/83WtrUdfhQHmOGYYAhv12txeNnQ5MKkrFCxdNhsHLaMs4rYqfKVX770hojLza9CbgsmhpsHqa26ZFa+VPBSacqmcP2WaoCPB3mkUl+DvD6xC9+VLzIud8GyoO0o8QEAJCIEoIiIAVJQulZ5h/XvJnfF77uTJzz07KVmXtdzW5pjBEE+wuZ5cyRP/h2B/inInn6Dl0yLbZ1L4J89fOR1VnlYq4Ymqj0WBUYhVNoE8sPxE/GPsDibwK2QpE14Hp3Xb+wvNVFUJWtwtUxZLb08Sd29531H2oyAhRSgrFlO0fagKWeuCGJk6oVCd/T3UqmvwmaUbU47+nRd5I658AU8ZW/+u76l58gN01UonihtuqpRQmpgOZ5cCkH0UWUUZcbX5bOye+NXmmmXWPyTNFTv43/XOKZgDlRwwfEYuRique06KwuIYJKUB8ojZ/ri2FLXe39h1ipN3EH2iRjNKihoDb68MVzy7F2rouMKq6MCO5XwnK6/Ojob0bpxR14NKRDajIMPZEW/IrYtCum6zmR7E63EJW9VfAji+0FxS89uhp/P5ThM+qAKZdoGcP2SbUBNwOYONbwNKntBcMTFNXv93xQEYZcMjVwMjDQj0KOb4QEAJCQAjsIwERsPYRWCRv7va5cfc3d2Nl80o0WZvg8rmQFJ+kDKz5mdPjVH8vSi3CMWXHRJShdau9VY1bRcskmDE1dypGZ4wWw/ZIPuHCNLbbvrwNSxuWot3ZroTY/ioRMrWW/mmJxkRMypmEvx7zVxhV9E4IGtPbdnwOOJgmkgL0FdW4VzTJ+dq20vYmQFYb6DGzVRP/GKHT30Mroxr45pw+NCOPBIpmRgZRRmesWtBj8mwcwOTZCjA6IykbGHM8kDcpMsY/FKOgiMUIO2uj9nBPQYBrTxGL31VG3lC8YnQdI7CkRR2B9XVduPnV1djRalPm7PlpiUgwflc9lmmDDpcXHkcnbh+7GRWpLpSYPYhT0ZY92/EFgcGknQ/ppcCE0wBjGH3Qar4Bqj4DfC7te62nKQHLqglwB5ynZw/ZJpQEOmuBN34BdOwArM3aCwaVCurXrkOM7E3JBUoPAk6+Z/ileYeSvRxbCAgBITBIAiJgDRJgJO5Ok+vXt7+OJluT8v7x+DxIMCYgNSFVmaFfOOlCzMifEYlDlzEJgYAE+Cb/0ncvBatvsjplYUqhEql2bRRsKeKysTLnX47+C4pSigIee7824EMJTantrZpwNWCqq1+LKOJ4c8drUSV7NW7TAXRUAh07eyKM0jS/JEYZDQfjcqaWrf+35n1Er6hAlerojUURiA+3My/dr2UM+k5rXgDaqwC/J7DJs4okc2pznfmT4few1LYNaFgJsLIbBcle8SpvIpA/JfD6B33x5IDBJPDFlhb89YPNqG23w+L0wBgHJJuMSqu0uTzIiPfgkSnrUJLkQG6iH3EUqnYz9/drJugem3b9Sy0IbxQTCxCs+48mnDPdTE+jQEtxhJGWY+bp2UO2CRUBayvw0nna7ysjryiOJ+0SSadOzFbthVRaIVA4Dfjx0BY7CtXU5bhCQAgIgVggIAJWLKxiP3PgAz6jmpgyyHS8mfkz1cO+NCEQ7QRo7n/z5zej1lKLDmcHGG1FnysG6bDKpc/nQ5opTUUb/vqgX2NyzuTQTbluKVD5CcBoEhUpFKDx7S4ffHjTfODlu0cSUIjZ/hHQxsgj+mi5NN8nvhlWPlomoHCGZmRNc/hYbYxuqPlaS+nQk6LDBw57ixatM/VsIKUgvGSUyfOTWvQVx6Qn8s/epvn8jJ03vKKwwrtS0vsQEaC31b3vbsS2ZissDg+cbq8KtDMnGvHzkk04NL0JOSYv4tT3pR+vK14PHG2aIMzIGJr6h6PxesPvd3e9Jqjxujxg6y1EkN7z/Z4YjlFLnyTAaL6Fvwa2vKcJVHwp1N8LEnpZsiALtznoCmDWJcJQCAgBISAEIoCACFgRsAgyhDAR4BvdhjVA5WdAy2ZNSCiaDow6EsgZG9sCQZiQB7NbRmLds/gerG9bD1YapPE//x/901hhc3TmaPxq9q+UkBXSxhSoprWaV4/eggiM1kpMA8afCmSP0YbHN/Srnwfo/cRIFB5PeQIZNCFHmcJ7NS+YlDxg6rmxe46ufVkrUU/PK70V+vgmnYboI48CSg4K6ZIHPHjzemDLO/tm8twboUGBkiKWNCEQgwSsTg++qWzD9uZumIwGTM/zYWrrm4izUYDOCXxNozjMa2RqETD7p+EjRM/D+hXadVuJbt+lRe41KI6Xwgmr0E6/KDKLTYSP5ND23LwZ+PclQNt2zY8sUCoq17e7ESiaBlz8Zvj914aWlvQmBISAEIhIAiJgReSyyKBCSoA3klVfAu//Xks74g0K/80bUJW6QJ+NYuCUvwBZ+irdhXS8cvABCdCofXnTcmxo3QD+95isMZiVPwuJFH+Goq16VksVU2/idfqy8IGGUVX0bCo9WPPcoHjV3aBFcjHCoK8IKxpbK78nmpZXAJPOGIoZDn0fNPdur9QikgJGN/QMT4l+BqDsYKD8qKEf8649Vn4E1CwB4NOf8kmBktehrNHAAeeGd/zSuxAYKgL0D6z8WH8EK9PwrC0AK7pO/nH4jP0ZhcXrlKVWS/+lF9ae13/ea/C6xDRiinMs3sFUcGnhI7DkKeCrh7WXC0w5D9S4zm1bgKxRwOmPA4VTAu0hnwsBISAEhECICYiAFWLAcvgII8AbysX/AJb3lHCncEDRiulnvDFWYharmqVpb0tPuhcomx1hk5DhRBQBGnUrsSVlH8QWClgJQEVPtBCrF25jSkMHkJw7cCU6RmEx3YwGs4zCom9SrDUauDdv0Iybd/PCGWCiykA/GRh1HFA4PbxEqj4FahYBPp92LdHT+BDManyMyGMapDQhMBwIbPhvz3c9Xn8Ea+8LgNI5WsRluBoF53WvaCbgvRGU9DdkCiRfNjD9m39PytTGmR/CVPZwMYi2fl+7Gtj8rnauJWfqG31XnfbbMudK4JCr9O0jWwkBISAEhEDICIiAFTK0cuCIJLDlA+CD32kRM7ypZCrWno0iFyvU8OYzdxxw3iv6b3QictIyqJAS2PI20LBC8znSW1WQ6TI8/yb9EEgvAZb9Q0tTYLqcHsGGb/UpuNKbIxYrWrHK147PtMgGcgrU+J2l6S5FvekX6q8MFui4+/t5+3atuh7TGnWbPHNN4zRvn4q5+9uz7CcEoosAix3Q848vkfRGzbJwBqMbaa499uTwzpcROtveBzqqtAhK5VvoB4z0LUzSfBGZEsw0Q2nhJ/DyRZptBCP4GOGrp1Gg5JrOOA+Ye6uePWQbISAEhIAQCCEBEbBCCFcOHWEE+Ib06VMBPlxSaODDbr/ND3RUa4JC2RzgzKcjbDIynIghwOipre9qqSK8KaYIMVBT5dQtmocLTdz53yue1qoYmvsQVPs6FgUbRmExSnBWGH1gQrUIFKPW/EtLFaKAFSg1k99tRlMyPWfa+aEalf7j8mFn6eNaSijHr8qzD9R6ql5x2wmnaukq0oTAcCCw+U2gcQ2AnhR+PXNmpCrFrhGHawUtIqHxO9+1E+is1q5FFK6zRweoShsJAx9mY1h4E7D+dS1aWv1e62hcUxYTOfw64MCLdewgmwgBISAEhEAoCYiAFUq6cuzIIrDlfeDd32iRLjTvDNR4E8rUsNwJwCVv6YuMCXRM+Tz2CPA8WTFfO6/oWzWQaXyv8MQ3v4weGH08YG0EVr8AODs1nxQ9TZX5bgFSC4GDfqZnj+jbZleT5IFEIKbdUcCi+Df++1pUWiS0ja8DLZsAt1Vb1/4qq3GsXHs/tJLt0y8ObGQGn6pUAAAgAElEQVQdCfOTMQiBYBBgAQy+AGBUlZ4oJXXta9a+79PO07dPMMYpx4gNAqtfAj65B7CzAuGIwHPib3brViB3LHDWAn37BD6qbCEEhIAQEAKDICAC1iDgya5RRuDDPwKrXtAiZPpKHexrOhSwUgqA4/8fMCHMqQpRhntYDbdtG7BloZbGxmghilh7VqWi0NUbOZBWDEy7UBM1rE3A6n/1pJuJgPXteeNzA2te1IRBRrep9Erzd0IQvcAoXDHVlw++BVOBimMi57Tjg/aKf2pRWPTD6UuEUybPrFDGOeQAE0/XUkojqDk8DljdVnj8HiQYEpCakAqTXmP9CJqHDCVCCfC7vfJpTZBXRuimgQfKND2K1ryGMoJVmhDYFwK0h3jhHC1tldfaQJWD+ZvO35niGcAF/92XnmRbISAEhIAQCBEBEbBCBFYOG4EEer0P+LCbqNP7oLtJe2Bm2PhRv4rAScmQIoZAw2pg5+eaSOVxaVE0fBijkMEKc2yMvKLp+uSzABMLB0C7OV7+z54UQqa1BkhB5D4Ub2hazoe4WVdEDIKgD4Qi1qY3ga4aTcRi+qUKVYrTvpf0zeF3uWgmQEPnSGvObmDti9rbfkZisX1r8kyvnF1MnkcdC+SOj5gZtNpb8cLGF/BZ7Wequqff70dcXJwSsb436ns4bcxpSsySJgQGTWDnlwB97xiJqCqw9pNyy+uoo0tLzxt7IpAzbtBdywGGIYEvHwJWPAfQnD1jBBDfj2jK3xy+gMgZC5xwO1Bx5DCEJVMWAkJACEQeARGwIm9NZEQ6CDAqwO6xqwerBGMCUuJTYKRgMFD796XA9k+0SAi9lcF608JmXQoc8UsdI5NNhjUBRhFsfqtHbHFqkTcUWihaMIKIKQtjTto7nWzlM0BnTU8Kog5RgCIZqxjyxnrSGbGPnEJy1ccaV0aykSnnzzfoI4/Wb/4cDlIUMDe9BljqAY9DEzcpwjFSjybPSWnA+NOApIxwjG6vPv3w47Oaz/DIykdgcVrQ6mhFXM8//Iwt35yPtP+LMvzDoX/AuCwRESJi4aJ5EBTkKfRSLKBARX8rVnXtFfMZqdjrc0dTdHrEMV1YmhDYHwIsDvLvnwDN6wFLg+ZvpfywDNrR/B6Avzl8YcKU9NFzNQFLmhAQAkJACEQEARGwImIZZBB6CdR31+PJNU9ibetaJV7xeYpRAcnxybhg4gU4suxIJFIs6Kt9ei+w/BkteiW1QF+XTA3jQ/JJ9wKjwliuW99oZatIIcA0l9YtWnoghQqai2eU9++DxFRVeiY52oCk7IE9kHhTzUiFlHxgxqXizRYpax5oHBSyOrYDHTu1yCteg7LHasJmBLWPqz9W4lVNV416KVCQUqCirnqbw+tAo7URxjgjytLKcOfhd2J05ugImoEMJSoJ8HeZhu6dO/eItuRs4rTrHCNY8yYDFUdH5RRl0BFEgCLW2zcDtcs04ZS/2bynVKebQYsETM0HJp0GHHZtBA1chiIEhIAQEAIiYMk5EBUEKFYt2LAAb2x7Ax3ODnQ6O1VMABujAuIN8chPzkeeOQ+3H3Y7ClMK955X1ZfAWzcAXbVANqt86agWx5vpvEnAT97d29MoKsjJIKOGwPp/A+07NE8kRuOoynu7nKMUQBjBowzLs4H8KQDTzqQJgSARoDB1zUfXYGfXTqSaUpEzQFGBBmsDPD6PEq+envc0DHt6vgVpTHKYYUaA1VW3vf9dtCWnTwGVvpVjTog4wXeYrU7sTbdtO/DxXVoklkpRZ2p6ElAwCTjmN/qj9WOPjMxIPWD4tPOCL514bvC+bJcXOgJJCAiB8BAQASs83KXXfSTw+KrH8W7Vu6jtrkWSMQl5KXkqAqC3dbu60WJvQUpCCkpSS3D/MfcjLzlv9174I/Ts6VplMIaKpxf1Pwr+aLVVakIBI69OfXgfRyybC4F9JMDUOKbRWFs0Hy0KVkyl4XlOLyiev0yTZYRWZhkw4Qf72IFsLgQGJvDQ8oewsHIheD0tSRvYTJ4vDqo6q1CUUoQLJl2AH437keAVAkJACAgBIRD9BHg/1rwBoD8frSB60ueVfQGj6RkFytRTaUJACISFgAhYYcEune4LgaWNS3HP4ntUVECuObdf42A+UNVaalU64ezC2bjr8LtUeuFurW4l8Ma1AN+60X+GItaekQP8sWKaT0ISkDcBuOiN/lO/9mUisu3gCFDAsdRpAqSrC6CBNE18M0o1j6lYadWLgMZVPX5JTu3NH02Neb7ynCw/MqLMvmMF+3CfBysNXvLuJUqUKk0r3S1tsD829CFssjVhfPZ4PDPvmeGOUOYvBISAEBAC0U7A0QmsewVwWbSIeJ9vl2B4P5CQolWvLDlI+7Pnc0a0z1/GLwSigIAIWFGwSMN9iDd/fjMW1S1SaYIDpbSQk9fnVUIXH8BumXOLErL2apveBuiHRdNspmOxAg3FEGUUa9H+zSpH9L768XwgrY90xOG+KEM5f0Yi1S4BahdrBt5Mo6PJaly8FurPqKSCaUD5YVq0Uqw0inX00WL1Ovpx5I4DBkjpipVpyzzCQ4DRrdd+dK16CVDON8w6GlO7d3TtwNissXj+5Od17CGbCAEhIASEgBCIUAIsFLN6AcBUZr40/b9iJbv5VPL5gB6kvBdlNHzxTKD8iAidjAxLCMQuARGwYndtY2Jm9FmhJwsfkkakj9gtbbC/CbY52pTB+7yR83DT7Jv63qyzFnjt54C9Q/PaoEjASCxWJ2T1I0b2nP6YvFkJ91lE8Wrl01plKntrT0U/ilbxWmSSErN8msDDam7TLurxjgr3wKV/IRBdBBh5df0n14PXXF5r9TS/X0sjHJM1Bv865V96dpFtooYAPfecAAuZtG/T0mhoap07EWAlwFh6WRA1ayIDFQJCIHQE/MCal4D27ZpAxetcf165bjvg7tZeKk78AZCh7zczdGOXIwuB4UVABKzhtd5RN9tPqz/FfUvvQ7uzXXlb6WlMa2mzt2FW4Sw8cMwDA+/isACb3wYaVmtpaOWHAqOPEcN2PaCHYpu1L2um+452TaRSxuZ7NN5o2Ns1P4K0YuCAswMb9A/F2KUPIRBFBOq669TLAonAiqJFC9VQGXmw8TWtOhuFKwpZ8GnXX6YyM+p13PeATD60BSiGEqoxynGFgBAQAsEk0LYV2PSmFn3FLIxAhUn48pveWHzhPVk8IIO5FHIsIRCIgAhYgQjJ52El8Ob2N/Hoykdhc9tUOXc9zeV1qTLvB+QdgL8f/3c9u8g2kUiAUVerngWsTYFvJhiFZWvVTPcnngFklEXijGRMQiBiCVD4v/idi1HZWaleFpiMpoBj5XWZxTMmZE/A/HnzA24vG0QBAfq/rPmXFpnMFHuKVRSt+DDndWqCliomkQkUzZD0mShYUhmiEBACOghQtG9aq9lTMBMjUON9JzMDknOBGReJqXsgXvK5EAgiARGwgghTDhV8Ap/XfI57l9yLdkd7wKpYvb3bPDa029txUNFBuP/o+4M/KDni0BBY8U+ttDWbnmovfNhiNFZaETDzUokMGJpVkl5iiMCTq5/Ef7f8Fx3ODpSlDywCM32QYldpaimumHYFTqo4KYZIDNOpMC17+XzA2qgJVcnZfUch8FrrsWufjzwGKDxgmAIL0bSZOk+fHVZB664HDAlA9mggewygQ1gO0ajksEIgtgmsfBboqNJ8r/qK9u9r9ozWMqUC478P5IyNbT4yOyEQQQREwIqgxZCh7E2AFa6u/uhqVHVUYUSGPg+sVnsrWJHwlIpTcMOsGwRrVBLwA988okVfpeTrn4G1WYvWmnX57sab+o8gWwqBYUuA/oFXfXCV8hxMik9Cvrnv7x6vr3UsMhAHjMkcg6fnPR06ZnzLzQd6NlZ7CpTWEbqRxP6Rt7wDNK7RPCHNOQO/BHDbNA9CbjfzMiA+hirBhnOl+b3a8D/tZYyKeHMBMGh8KV6l5AKTfqT5QEoTAkIgeASWP6UVd0rK0P/9cnRo95pjTwTypwZvLHIkISAEBiQgApacIBFP4NYvbsWXtV/CEGdALsWJAZrH51FVCGlCfNvBt2F6/vSIn58MsA8CfGhd/Oi+C1i2Fi0qYMbF+qK2BH5EEGA0j48eO35qFHHaH/HWCcvaLGtchnsW34NqS7UqhlGcWowEY4JaDwpXDo8D9d31SDQmqiith+c+jFymUAS7uazApjcAfqd3bXxYGHeKFmkpLXgEeM1d+gTQ3ahdO/VEIDD6gCXlRx4JlPRR8Td4oxseR6r5BqhZrHk+UsBSnmOJmoDrtQM+nxbtwWIzU88DktKHBxeZpRAYCgKDicCacKoWISlNCAiBISEgAtaQYJZOBkNgTcsa3L7oduzo3IHs5Gykm/q+aePDVo2lBqmmVBxSdAj+eNgfB9Ot7BtOAiJghZP+kPVND6VHVj6CpY1Ld+uT4siVB1yJQ0oOESFryFbju47WNK/Bnd/cCavbikZbIygw9jajwYgicxFSTCmqSEZIxKstb2vV75iqxkifXRujUCiwsPrT1DO19CppgyfQuQNY/ypAD6wAL4q+7YxphIwQyp8CTDht8GMYzkdguuC29zVPHYq0TGPasynPnTYtOiS1AJj5E4lIHM7njMw9uAQ2vg40rdEqrFIoDtR83u8M32de3Pd3NtAx5HMhIAT2i4AIWPuFTXYaagJPr3sab257U0UFJBgSlKF7/C4h9F2uLrTYWpCRmKEiBh459hGk9XUDONQDl/72k8D+phDS8D1PUgj3k/pQ7vb6ttfx/Ibn0eXsUkbguzYaiBemFCInKQf3HX1fv6L1UI53uPXl9XmxYMMCLKxcuNvUjXFGnD/pfJxccXJokKz/N9BZqz3IK7EqQ0sd7G29ohajUGgkzmhLEbEGvxZ1S4DtnwA+t/7oVW5Ls/fMkcD0Cwc/huF6BPqNLXtSizbkOT/gw7NfK1iSYAbyJgDjTx2u1GTeQiC4BNq390T9siCQniqEXVr/uROASWcEdyxyNCEgBAYkIAKWnCBRQ+A/m/+Dlze/jE5nJ+hz1dcDL6MB7jvqPhGvomZVBxjoivmApV7bQLeJuxdIK9TeTEuLWAIvbHwB/D5TkKYQTbFqV0Ha4rKg2dashKuStBL87di/iYgV5tVk+mDI0zqb1gPbP9Ae5JOy+k9j663+xJcUhdOB0ceFmU4MdC8CVvgWsWEVsP1DwGXRIgsDNaYX0nuHUVizrtxd4A20r3wuBIRA/wTWvgS0bdciS1nVuj8rA0YGM82dQtfkM4C0EqEqBITAEBIQAWsIYUtXgyfAlKOHVjyEFU0rdjsYDYd/Pu3nmF00O/QPWYOfhhxBDwFnN7Dyac0Hi0bBDOvur/GBlg+9vJmY9EMgXW4m9CAOxzYb2jbg91/9XqUEZyVlqajJvhpTgmsttTAnmDG7cDbuPuLucAxX+hxKAsueAiw1QHwKkJA0cM98iGc6Fb/z0y4AkrOGcqSx15ekEIZvTTe/BVDEMhg1TzE9TYm8GcDEHwCZFXr2kG2EgBAIRIDCFL2w+NvCIhV8SZKQ/N1eTBtkhVBWbKXYXDILKDs00FHlcyEgBIJMQASsIAOVww0NAT7cMiJATJ+HhnfYeln3CtDFdKK2/iMyvHwb3a4Z2vIt2NSzBq6eFbbJSMck8Iev/oDPaj5TMPKY7jlAYxobK+KNSBuBWw6+BbMKZgnEWCXAB/LV/+oRovP0RZXY27WHi4pjgOIDY5XM0MxLTNyHhnNfvax6Dmiv1FIHmUKopzm7NC+s8iOAskP07CHbCAEhoIcARaw1L2gejIx0pGjV25jOTpGZKbz83snvjh6iso0QCDoBEbCCjlQOKASEQPAI+LUoLEeX5vvBcG6WE+eNO28qvA6tQhMrDyamAtPphyPlxYPHP7hHotfVVR9eharOKpSlle2WNthfT22ONlDIOr78eNwy55bgDkiOFnYC71S+A6aUuh1t8NNPyQ8YjUacmDYa52ZNgTHO0P8Y+aDBSKy8SVokirTBEdjyDtC4BnAzNYapbLt4j+15ZLJnhAK3m3mZdl2Ohla/EqhZBFCw48nGxnOMqailc8Jjii4CVjScOTLG4USA95Wtm4HKj7XfmN5rBa+JWRXAqGO1YgvShIAQCAsBEbDCgl06FQJCQD8BP1C7HKj5Wgvb5kMTbyiYUsgbCApWRdO1MO6BHnb1dyhbhojAorpFuGvxXcrDrjStVFcvdo9dbX9g4YF46JiHdO0jG0U+Aa7pLz/9pfI0bLA2wEvPEX6/lWxiQEFCCtKMJtySfximJOf3PSGvU6tSmDUKOOC8yJ90pI+Q/JfPB6yNAI3F+WKgr2sqIxNYgZCfjzwGKDwg0mem+Uutel77/XAyqoLiFf/EaTodU5n5ezLpdCC1aGjns/lNoGH1/qUQsvojz39pQkAIhIAAMz182otS9eNkkPvMEFCWQwqBfSUgAta+EpPthYAQCA8BRlx11wPNGzUPAqZbsPoL/a4k6io8a7KPvb6/4308sOwBdLu7lXG7nubyupTAMTV3Kp444Qk9u8g2EU6A4tU1H12jTPwdHoc6F5IpntAU1++HC37Uu60wxsWhzJSOm/MPwwxzH+eLisBy90RgnR7hs46S4Tk6gTX/0qoLUqiiL5MxSXtoo2BIYYv/jxUgi2ZoKWyR3ihe0deGUbx8+aHEql1S9ZiGTlELBi2ijNF86foE9qBMvWFlj4m7VRMFA7XdTNx/Kg/UgXjJ50JACAgBIRBTBETAiqnllMkIASEgBCKXwFd1X+FPi/+0TxFYFDiYejizYCYenvtw5E5ORqabwCXvXoKt7Vvh9/tRnFqMOPqKUBihpxUfzo3xKjam2WOF0+dBuSkTj5adhCzjLma67I3ed/HJwMijgJLZuvuXDQMQ4Fps/B/Q3aCti8cJwKdVhaSYRQFr3PeAzBHR4Te45O9aMRA2ZfbfT2okxTuefym5wIxLdzdvDuVJQ77L/6EJbEzFHNDI3a95QvK8zx0PMAJLmhAQAkJACAiBYURABKxhtNgyVSEgBIRAOAk02Zpw9YdXo6qrCiPSR8A4UGXJnoG2O9rh9rlx3Ijj8NuDfxvO4UvfQSBAz6vHVz+OGksNKjIqNPGqt9HI3ePSBJKe/1/t6kKmMQk/zJyIn+RM/27bXasQMn1QeTZJCx4BvyZctW0D2nvKyqcWaFGvFIF0fHeDN5ZBHImeV1WfaKJPCotGDODrxW4oIiWmACVzhja6rGkdsP2D78QpRhjv2ZjKRNGW7FMKgJmXSPTxIE4N2VUICAEhIASik4AIWNG5bjJqISAEhEBUErj1i1vxZe2XMBgMyE3OHXAOXr8XOzt3Kr+sm2bfhEOKpdpWVC76LoO+9N1LsbFtI7KTspGyZ6SJ266lrlGc6hGxGIFV7+5GRWIm5o84DclMF6Yfib1VSyMumAKMmRftWGT8oSKw+DHA1gAkpOszmmfEGdMJWSF19k8BQ0KoRrbHcf3Azq+BuqVa5TOm1LIioYGpjhQTe7wf+Z1hxd3JZwFmHemGQzR66UYICAEhIASEwFAREAFrqEhLP0JACAgBIYBVzatwx6I7sLNrJ3KSc5BmSuuTih9+1FnqkGhMVOmD9x557+7ROsIyKgmcv/B8bG7fjPL0chj6MghnpAw9iVShBgNgMGCHsxMlpjQ8XDoPxTBqXlmmFCA5E5h2kT5hIippyaAHTeCbRzRTej3RV72d2ZqB5BxgxiVAYt/Xp0GPq5+rHjp2AjR15/nPCDh6vH1bfdekpTdOPF0qoIVmAeSoQkAICAEhEAUERMCKgkWSIQoBISAEYonA/LXz8cb2N1BrqVUCVX5K/m7phFa3Fc22ZpgTzChJLcFfjv4LCswFsYRg2M7l3LfOVf5XIzNG9i9I0ouIhuE+Vn/yYafHikJjMu7Pm4OKxCzAlK6ZXU/+0dD5FA3bFYvyiX/zN83/KqWfSpZ9TY+prEyTnH4hkETPrCFuLFjCCMOWTZr4xiiwrJFA1hjAZA6cBjnEw5XuhIAQEAJCQAgMJQERsIaStvTVJ4El9UuwYOMCdDm74PF51Fv5pPgklS507oRzYWIYvTQhIASiisCKxhV4dv2z6HB1wOP1KLGC3+uDCg/CeRPPw/+2/g+vbnkVnc5OdDg7ENfjTcPIq3hDPPKT81WK4R8P+6My+pYWGwTOW3getrRv6T8Cq3eajEBxdqlIlN4IrAdLTkQpU7tGHQtkjpTqa7FxSoR2FvsVgUUBKxuYcTGQmB7a8cnRhYAQEAJCQAgIgX0iIALWPuGSjYNJwOKy4Hdf/U6lEjHawuVl8XTWnoKKxshOzlYpRldMvQKHlRwWzK7lWEJACISIQLe7G3/46g+o6qxCk70JLs/u3+uspCz1vb548sWYlDMJT619SqUV+mhQ7Kd3tyZ0nT/xfBxddrSK0JIWOwQufudi5YGVb85HMiupBWhurws13TUYmVaO+Sc8iZTEzG8N3gPtK58LASx+VIti4nnDKoqBGoVTGqWbc4FZP9V8qKQJASEgBISAEBACEUNABKyIWYrhNRCKV9d/fL2qRsbIK4pVNPRl9BVFLIpZFLX495K0EiViHVd+3PCCJLMVAlFGgOLVDZ/cgMrOSnQ6OpGVnIXUhNRvv9dur1t9rxlsVZpaigsmXYDvj/4+HB4HbB6bErEYcWmON6soLGmxR+CljS/h+Q3Po9HWiPKM8m8j7/qbKX3Q+Nswb9Q8XDfzutgDIjMKLYGdXwI13wDOTs2YPVCjB1tCMlA4HRh9fKCt5XMhIASEgBAQAkJgiAmIgDXEwKU7jcDNn9+MpQ1LYXPbUJxWvJv/TS8jCllt9ja1Df1S7jnyHpSllQlCISAEIpQAI6++qvsKFKiZ9teXCMXvdbujHd2ubvW9vvPwOzEqY1SEzmhoh0Vxb1H9ItRYapRoc2DhgZiUPSmmzOtZWZJRWNs7tiPBkICClP69zdocbbA4LRiRPgIPzn0QRSlFQ7sg0lv0E2Bk55K/az5Y9JJKyuh/TqyA6XVo0VfTmT44lAbu0Y9aZiAEhIAQEAJCYCgIiIA1FJSlj90IULi6e/HdqO6qRll6WcBIi/ruepVSNK9iHm448AahKQSEQAQSYBrg7V/frlKCS9NLlTgxUGu0Nqrv/rEjjsUtc26JwBkN3ZDWta7DYysfQ7O9WQl7Tq8TRoNRRa+lJ6bjqNKjcNHkiwJGKw3diAfXE6sQ3vblbai2VMPv9ysRa9dUUbfPjSZrk/JELE0rxZXTrpQI3MEhH957W+qA9a8CNGdn+Cd9rXZNJ+z1W/N7teqDY04AcicMb2YyeyEgBISAEBACEUpABKwIXZhYHtbvv/o9Pq35FCaDCfTDCdSYTljXXYeKjAo8cfwT6oFOmhAQApFF4J7F9+DdHe/CAIPyuArUKFIw0ojRV38/7u/ITMoMtEtMfv7sumexsHKhusYxlTIxPlGJOYxUYvQp06jpF0VOdxx+h4rMioW2vnU97lh0h0ohp3DHxrkyjZRRejlJOUgzpSnx6piyY2IqCi0W1i/q5tBVDWx4HfDYAZelZ/hxPf/2A6ZUID5JSxvMHS+V/qJugWXAQkAICAEhMFwIiIA1XFY6guZ51QdXYWXTSuSn5Os2aGa0Fre//bDbMTV3agTNJvqHQoHw5U0vY3HDYtDDqNeHiBXgzhl/DqbmCe/oX+XQz+AXH/8CyxqWKT87PebcHBEjcPKS83DbIbdhVsGs0A8ywnp4Y9sbqlIjr2+pplQl6FPE6W0Uchxuh/KL4mcz8mfgriPuiplIrC5XF17b+poS8OiP5oNPzY3RZ4cXH46zJ5ytxDtpQ0+g1d6qfhMoMpsTzJiePz3601nddqBuCdCwGmBqoSoaE6cVBWDEVenBkjY49Kea9CgEhIAQEAJCYJ8IiIC1T7hk42AQuPTdS7G+Zb3yvgqUZtTbH6MTMhMzVarRocWHBmMYcgwAn9d+jv/P3neAR1ml35/0XkkPKXSkl4CoCIJg/7mubRcrShHbqosV17q4a9dVFlCwrH13FXWxoCIKIkgPhB4gEBJCeu/t/z/3ZjCJSeZLMkmmvO8+eVydr9x77jeT3DPnnPfN3W+qYG3mEtXW1Sr1AzfRVIKEeIZgUPAgLDh9gc0rP0jMJWYnYnf2blD90y+wH8ZFjLP5eVnLgzzn2znYnbMbET4RKojdSJ0sPalscveMvcfhLGLlNeW45btbcLjgsFIaBXi0ns3D5zW9OF1hO3fEXFzc92Ij8NrMMbRMkswimU5bqb+7v2ES1GYmaSMDPZB3AEt2LkFGaQZKq0u1ndXJRX1O8hmlnfWGoTfYNolaVw2QzKqrBZydAXbDNPiZZSPLKMO0ZQTyDgHpW4HqUv2M8ksNPqOhg4HI0frfpQQBQUAQcGAEhMBy4MW31NQ3pG/A54c/R35l/qkNSIB7AKbGTlW5Vfzjt3Fx07Yre1e7Nrr8FpiKoMfOfAxjwsZYaugOfZ1vjn6jyCtujEnu0PZF4oEKCNqXuHkpqChQ1q7+gf3x3OTnbJLsYcbOi9teVM8cN8nsdsf/5uniCR93H8T6xeLehHsRaqRDlUM/MW1P/vbvb1fKSr5PmVlnpPjsUbH14PgHHY6Yfmv3W/jvwf8qCx3JfL7v2ioeR4XksJBhWHzuYrHUGXnA5Jh2IcAOkZ8d/kzZWUmw8veByc5aXl1+ys7K3wdPnvWkTf4+aBcgcrAg0J0IkFTd9ynATr1sKEDySqkE6a92Btx8AVrtB1wA+EV158jkXoKAICAIWBUCQmBZ1XLY1mAK/39b6sc3Po5jhceQU5GjLCAkBpycnNS36MGewYj0jcR9CfcptYup2IGQpBctM1QemCuqglKLUxHnH4fF0xYry5FU5xA4VnQMD/30EI4WHlX2EK4V1615UfnBEH0qIib2nohHJjzSuRt389nsYrbgpwXq+aHCjOoy2lUiXFcAACAASURBVNuoMOMGjc8Wn0N2N7tj9B2YEDmhm0doP7d7YuMT+CH1B6Xco1rSXDV+X7869VVFaDtS3b/ufmw8sVGpWozkWvHZ5WctQ81fPOdF9XkoJQhYCgF+obE8afkpyyAtq42/fOLzRxIrqyzLLu2slsJRriMIdAgBklc739WNBmoqNFnl6q7VVvX1AFWDVSUAvxD2DgYGXQIEyO+ADmEtJwkCgoDNIyAEls0vYc9MgOTVn9b8SWXYFFcVK/WOiRjgH7qVNZXIKc9R395G+0Xj0TMexWnBp6nBfp3yNZbuXArah9gevXHmS0uzySnLUcTDxOiJ6ltfqfYhQFJxb95eZZ2rqK1AjF8M1qWtw8/pP6OqrsoscUBbD5UyXKsnznwCQ0OGtm8APXQ05z1v9Twk5ycr1VWEd4QiVxoXu5zRPknFGXF58swnMTB4YA+N2LZvuyZ1DV7Z/oqyHhl5XzNjh/ifEXUG/n7232178h0YfUcsl8pK7RmIBeMXKNykBAFLIMDmAfysPJR/CN7u3gjyaL25SmM766xhs3Bp/0stMQS5hiDg2AiQvCo8DtRWA15BLdsESWRVFgHslukTBoy8TjcfkBIEBAFBwMEQEALLwRbcUtPlH7vMymA+RpRv1G9sgrwPbWn8tpb/ZAfBRVMXqQ6CVF7c+cOd2JOzRw2HLdRbs8+QHONGN8Y/Rql/RoaOtNQU7P46JP1oUyJRRXsnO5pxLZg7RtKG5BXVHEbUH1wDXu/8+PNx/7j7bQK757c8jzXH14AqLM6zuZXVNAnOK6s0SynQBgcPBtVAVBBKtQ8BkoDzf5yPndk71Xs8wjei1fc1rXAkprkuD4x/AOMjxrfvZnZw9OxvZ6vPQKpU25sFSMxI6EsJApZA4IN9H+D9fe+joLJAfeFk1M7KLzOWnLtE7KyWWAS5huMikJsMJH8FlOUC3iHmM67K8wA3byB6PBA/yXFxk5kLAoKAwyIgBJbDLn3HJ74+bb3KFKL6Kj4gvk0FFckBdthiS/RrTrtG/bAO5h/EYxseU3YFbnZDvEOahPZyM5xblquUMyTILu13KW4adlPHB+1gZ5L4e3TDo+obdZJPxNPLTVvnyqrKFK4s5kAxg6itAGkeR7tdXnkeEiIS8PKUl60eTRJ1M1fNVM8ZrWlUArZVVGulFqUqMoFE6ZhwyVnryCKnFKbgL+v/grSSNGUpbvF9XZ6ryFTaNkmI3jrq1o7cyubPuefHe7AlY0u7ujbS+kvcnp70NAYFDbJ5DKx3AvVASWaDIqIK8AwAAuPtVu2wYP0C8Pe6n4efaqpgrhrbWV+Y/IL6O0BKEBAEOohA4jtA4TGAf6eQmDJXVGn9/wgPpcIaO1saEJjDS14XBAQBu0NACCy7W9Kun9Dc7+Yq5QBJDyMZViQ/qMTqG9AXb13w1ikygR3LntvynLIa5lbkqqxKEiz845iEC3OXaJcheXXN4GtEFWNwaYnffWvv06HllUUqnJzklelbdQaZZ5Zmqk58znBWQb1UwbWlxKKNkJZPBkgvO2+ZwZH03GHbMrdh4S8LlZ3NaFZQdnk2XJ1cceXAK1WnN6mOIbA/bz+e2fyMUvnxfU1ysPH7mp8ZtCixwcPMoTMd9n394tYX8fXRr1FTW4MwbkTMFPOH+FnZP6g/lp+33HCnR3PXldcbI1APpG0BsnYDVcVAbRVQXwdQkcnNJdUR8ZMBv0i7gm3ed/PU7wv+HjDaQdTUGfi+cfdhUm9RgdjVAyGT6V4Etr4OFJ8AvILNq69MI2NWFq2GI67Vn0tSgoAgIAg4EAJCYDnQYltqqtd9dZ3KFTKSc2O6J8PCaRdadO4ipSAwFS0LXxz+Qm3kmMNB4opECy1cJEtIXA0IGmCpoTvEdd7b+x7+feDfikCgHaS5Ha6kqkSRUVS+0TZHwotd45gB1VoeGa2iJCFHh43GP8/9p9XjSOvkh/s/VBlLRrsL0tZWXFmssoWemfRMt8yRpMSO7B1K/cV1GhQ8CEN7DTWbC9ctg+vETUiSfnnkS/WjwvIbva+ZhUclJu2a7Smu5aqjq7DhxAalBiQBywYE4d7hiuQeETqiPZfr8WPZHOHuH+9WwewksJgh2FrxPZpWlKbCs68aeBVmDpvZ4+O3uwGQrNr/GVCYrskr5sw4M0TZCair0f/u4q67gEWP0/YdO6m5385FUk5SuzoDq+YeHv6YnzAfU2Km2AkSMg1BoAcQ2LIEKDkJePUyTmCV5wIeAcCwq6UjYQ8smdxSEBAEehYBIbB6Fn+bvPs1X16jrGm0DbTUua6lSXGDTisXu2cxD6t5kbyiAobWNubB0HJoztZmk+B18aCpdqFCbm/uXrXZbUlVRWsX7Z8kpfhtO/+d5AmJntYwZ2g/12hK7BQ8dsZjXTyLzl/+tV2v4eODH6vMrxAvY99O0tZGQnVcxDj1nHZlMZdr0Y5FoFqptLpUhetTDUcikapDZkLNGzHP8PurK8famWvzGVPv6+oylUHGZg9GOhQ2vyfVmv9M/Ceo+mCeG1VLdahT16Q9lF00mcdDNYgRC1Rn5mTJczkndn+jIpLvv5berySaT5adVJ+L/QP746UpL9nUHC2JV9ddqx7Y+ymQf1h3+mJ3XCquGndmJYFVVapVWd69gPgpQPiwrhtSN1753rX34pcTvyDIKwjergYsTABMdtaFExcq0l1KEBAEOojA1tcaFFjtILCYl0Vr8/AZgG94B28spwkCgoAgYJsICIFlm+vWo6O+9qtrlQKL1ixzHQRNA+Ufu8yy+seUfyilj1TXIEBChHkm7BoYFxDXahgvs8dIKsAJcKp3UmQAySuSjM2LJBBzzGgvuXP0nZgWN61rBm/Bq65OXY1/bPvHqQB3I5cmqVRXV4eL+l2E+WPnGzmlQ8dsz9yOl7e/rOyNVHw5OzsrEoYqG5KEJLJIPpLo5eawI4RPhwZmpSdtOblFZe6RvGJ3U2a2ES+S5yR3SHoXVhQq4q9fYD88N/k5myF4qCKj1TUxK1GRWCSSqSojscz3Hd+jVLDxvUml2eNnPq7mKGVhBDKTgCOrgYoCwDNIWwZbK0ViVQK+EcDomwAXNwsPpvsv9+qOV7Hy8ErQKs7PeXPFZ5IKXxKqtLM27+5q7nx5XRAQBBohsP1NoOh4A3Hubh6aulqgIg/gl3NjZxnLzTJ/VTlCEBAEBAGbQUAILJtZKusZ6I2rblQdCI2EY3PUtP6owHf/eLxx/huGcrOsZ7a2NZIvjnyBxYmLlaqnJTLKNBva5bhh5oaFKhaSJ/zmnd0eGxf/O4+jrXN46HC8fM7LcHF2sXpQaJOc890cHCk4oqyrRroKktQjOXL36Ltxbty5XTLHI4VH8PD6h1XzAhbVYY0zZ0wkFu2aVBLRPrv43MU2r8TqKJhUb7GzIcPh+dyFeoW2SJqTCKKliflaVNA9NfGpjt6y28/j2Fckr1A/JKz43lX5dE7OylZIVRbtliSP23pPd/vA7eaG9UAiW9inaoug2RDleqA8Xx8XcwYQe5bNI9FeOyu/IGFG5WX9L8MtI2+x+fnLBASBHkUg9Wcg7RegslirO/nNYltVUQjw77CQwcBpl/Xo0OXmgoAgIAj0BAJCYPUE6jZ+zzeS3sCnyZ+qgGYSHuZabp8sOam+oWVOxkOnP2Tjs7fu4XNdXt/1Ospry5Vio60iScKQd26WWdwoM9fMVFQDMTSaBBdJIFoHmdFkK0XiY0fWDtTU1zTJXWtp/LRIsnMj1YGvT39dZbtYukjksvMcGyAwE4pKh9beO3ydJBettNPjpuPusXdbejg2cb3Xd76OTw99qtYmyi+qzc8aPsfMieIz/MgZj2Bk6EibmKNpkHyvbT25FTtzdiKrNEs1XmBeGAk5Kl2Mql1tatLWMFhmyex8D2BreuZbUZlKhQPD21ncKJ4itho2ljUVQE05EDwAGP5Ha5hFp8ewZOcSfJ3yddt21vpa9Tp/J1AJSDsriSwpQUAQ6AQC/LzZ/obOwXJ2Azz8Wr9YdTlQXaLzsph/RSWolCAgCAgCDoaAEFgOtuCWmC4zk2765ialbqHdhbk2rRWJgfyKfLWpfH7y84Y7wllinI54jc0nN+OpX55S9o7maqrmeDAvi5tm5j6RXOEGmetJCxtJHxazhcK8w3DP2HtsjhDILMvEn3/8M1IKUhSBSvVOS5ltpmc02jca80bOw3nx53XJo8MuX49teEwphbg25ggJEoicw6CgQap7p7nju2TQPXhRqpFmfzsbVK2RjGU+mLniZ01VXRXOijrLplRY5uYlr3chAnmHgP2fa/sglQ+KuKoH6uv1TZmD5eQMOLkA7r4An0OGulMFERADjLm5CwfXfZcmAczfHST9SVK5ubhpO6uzuyLcaRvke5KEFcn3RyY8YlNfaHQfknInQaADCOSnAAe/BEiow1mTWI2tzCS5qhvsy7Q59z5dK0ClBAFBQBBwQASEwHLARbfElDee2IiXtr2krIEqdN2rVxMrFAkRdgpjPg2JAXYdu3LglZa4tVyjDQS4waB17nDBYaU6MtISnWvI9fJz84Ofhx9IbPEbdipApsdOx6X9L1VEli3W+vT1KiydXRcZKM4NGW1ZJLKYp0S7Fosk3QXxF2D2iNlq7l1Rb+x+A//Z/x+leDPSGZF2QjY/4Do+esajqgOkI9XB/IN4YN0Dau0aKwPbwoCWWB5P9dXS6UsdCS6Za0cRyNkH7P4PUFOpr6CC20lYNVyQRJYitZy0GoskFgPeK/IB/97A2NkdvbPVncfPpk8OfqJUj/xs5O8TvqeY06fsrK4+GBg0EHeMvkOpcqUEAUHAggjkHgQOr9aNJNTfJg3kuSLU6zR57uYDRCcAvScY71howSHKpQQBQUAQsAYEhMCyhlWw0TH8cPwHZVcjUcXOYNz484fhw1Tw8JtahlGTuOJPVxEDNgpflw376c1PY03qGvWNeaRvZJu2K25ScstzFUHw5JlPqm/auYlhlhCJE25abL325e5ToelUM6mOfzUVKvPLw9kD3u7ealN287CbVe5VVz6jD/30EH5O/1mRhEY75VFJx/yuGYNn4KZhN9n6UrRr/Nsyt+GJjU+oz5dov2hD55KIZT7P4F6D8fYFbxs6Rw5ycASSVwGp6wF2GVSKh1byZ7iB5A8tPu4+AG2EQX2BkdfZHYD83KGaNyknCbSaU/1I4mpc+Dj13urKz0m7A1MmJAi0BwEqQdO3AjkHAMY7kEBXKlAXIKC3Vl75RbXninKsICAICAJ2h4AQWHa3pN07ofSSdPWN7YYTG5TChQQIrU60HYwIHYGrB12t/vCV6j4EaAtk/hOtV1wLqotasp8xyD2nLEcFQ1818CpcN8T+NmIm1EnKsdPbtqxtyvpKooPKQCp1xkeM75LMq+YrzjXhppBdBakEM1IkF5mTdcXAK5S90ZGKlstHf34UWeVZhjuXcp3ZrXBoyFC8cd4bjgSXzLUjCDD3ivlXzJ5hcZOoFFitFEkufaBWYoUPBwZe3JE7yzmCgCAgCLSOAAlykllUhpJYZz4fiXMpQUAQEAQEAQiBJQ+BRRBgyDLJLFoOmDcU5ROl1FdSPYMA1SsvbH1B2am4Jj7uPkpNRSKLRCP/G0kckltnRJ2B+QnzlRVUqusQ4Hp8deQrZccxaslUnRE9g5Vl5/z487tucFZ4ZXYgvG31bThWdEwpBI2oPqiwY6Ybg89fOuclK5yVDMmqEGD3L/5UFulhUe3QZpfVep1/RQLLNxwYcV1D1zCrmpUMRhAQBAQBQUAQEAQEAbtFQAgsu11amZijI5Ccn4xFiYtUjhLVVso6V19/KpyXNrYrB1yJywZcJuRVNzws3x/7Hi/veFlZ4ozkx9TW1SK1OBV9A/p2WWfEbpj2qVscLTyKVUdXIaUwBYVVheqZo/ovITwBU2OmqueyeS1YvwC/nPhFZZaFeIW0OVw+28xz43HXD7leqT+lBIE2Edj7CZC9H3BxBdjdS1l2GjoPtnSiysOq0UqtiJHA0KsEYEFAEBAEBAFBQBAQBASBbkRACKxuBFtuJQh0NwJUWdE6tzVzq7IUMpCXqqthIcNwZtSZZkmB7h6vPd+PyqB5381ThGKAZ4DZ9vPsBEbihjbHl6e8bLPQVNRWYPmu5ViXtk6po5jNRnKOc2OTAeat9fbtjbkj5mJU2Kgm82RHtIW/LASVaAy+92GAbQvFTDPaLfl8DwoehCXnLmmRELNZEGXgXYNA4jtAwVHAnW3r67Vlx5R1payEph9TV8KGzoQu7kD/84CYM7tmXHJVQUAQEAQEAUFAEBAEBIEWERACSx4MQUAQEAS6CYGvUr7Csl3LVE5TsFdwiyQWlUQ5FTmoqK5AfEA8np30rCHFVnunsDtnN9YcX6MINVrvGNRMIuns6LOREJHQYm5ae+9B8urxDY8jKTsJzGZj9hdJKAbTc558vaiyCB4uHkqNdfuo23F277Ob3GbpzqX4OuVrZYcl2RXoGdjETkjSiuQV8/eobKMdlrlmUoKAWQR2fQDkHwaYScfOgrQH0k5oCk9WcixTmTqCQbe473suEDnG7C3kAEHAogiQYM09BOQlA+X5+lllsxWfECB0KOAXadHbycUEAUFAEBAEBAFrQ0AILGtbERmPICAI2C0CVB4t2bkE36d+DyqsXJxdFKFDJRJVRLR5llSVqH8noTN7+GxMj5tuUTxIVr247UXszNqJgqoCVNZUKkUU89GYXxfgHoCBwQNx15i7VCfKztSrO17FqpRVimAK9wlXJFnzYtdSklvVtdXoG9gXz5z9jOqeaSoGs1PBtTp1NfIq8hTZRvshx0uFIc9nMD4VWnOGz8HkmMmdGbKc60gIHPoWyNj2ayi7mns9UFMF1FY25F2xC5gz4OwOuLprlZZXMDDsD4BvhCOhJXPtaQRKs4DD3wGl2UB1WbPn000TscH9gX7TAKoEpQQBQUAQEAQEATtEQAgsO1xUmZIgIAhYLwIki1YeWYmP9n+E4upiFahPFREtdVQiMZuMZMxtI2/DmHDLKjxI/vxpzZ+UJS+/Ih9+Hn7wdvVWRBoVTCTQCisLlTKM5NVTZz+FWL/YDoHJzKv7192vQthJxrVEXpkuTPLuZMlJdQwJu/vG3febe249uRUrklcguSBZ4UXiiuNmc4IJkRNUJ80oX2kv3qHFctST8g4BB774lZQiUdVWsTMYiYOAGGD0zAaLoaOCJ/PuVgSK0oH9n+tnleSqK1WDbrprJlVZ7FbHH3aqY4OB4TOExOrWBZKbCQKCgCAgCHQXAkJgdRfSch9BQBAQBBohQAJpbdpa7M3dq+xxtNXF+MVgdNholU9GFZali+TVvrx9SuVFlVNLnSdJsHE8DFXvF9gPr059VZFE7a3FiYvx2aHPQAUVc9fMFUmpjJIMpcJ6ffrr8HX3bfGUzLJMFdZO5ViARwDi/OOUtVBKEDCEADf5pSeByhK9+WcXQipaSAJ4BrROStFeWJEPeAQCcROB6HGGbicHCQKdRoCk6c73gdJMfSkPf60KbF7qGS1oUGL1A4Zc0elbywUEAUFAEBAEBAFrQ0AILGtbERmPICAICAJdgMCOzB14atNTShEVFxDXJEeq+e2oiEotTEWYTxjmDp+LS/pd0u4RUX218cRGRTK1Fr7e/KIkpkK9QvHIGY+o7oRSgoDFEKgoBI5vBPKPNNgDazWBxSKZVV8LOLvqQPfGHTHZebCmHKguBUiqBsYDQ68U9ZXFFkYuZBaBY+uBtF/0M0j7qmou0ErV1QLleYB3L01g+UebvbwcIAgIAoKAICAI2BICQmDZ0mrJWAUBQUAQ6CACc7+bi325+xSZRFLJXNFuyMyp/oH98cb5b7So1mrrGuy4uCt7l8q+Mqomo/KL47tz9J24sM+F5oYorwsCxhCgVfDwaqCyEKgu18SVk4vOu6JqhYQAFVgsk7KFZBbJq/oawNlNW7MC4oBBl4g1yxjqcpQlEKitBrYv1+ord39jz14VCdk6oFd/YOjVlhiFXEMQEAQEAUFAELAaBITAspqlkIEIAoKAINB1CFz71bVIzk9WljsGoBsp5ljF+Mdg6bSlCPEKMXLKqWPu+P4O7Mjaoc5rK/+q8UXZnZHk2j1j78G5see26372djCtlxvSN2B71nZlmeS/9/LshUHBgzAlZorKFZMygEDhceDA/4CyPC1coYqKhJSpGiuseIBSYfkAdXWa6HJ2ATyDgIhRQMRwUV4ZgFwOsSACDG7f9aG2r3ob/AxWVsJCndU25mYLDkYuJQgIAoKAICAI9DwCQmD1/BrICAQBQcCBEWAYeWJWIjZmbAQJo/KackXiDAgagEnRk1QmlCVqxpczcDj/MOID4lVgvJFKLUpVWVn/mPIPlc/Vnlr4y0LVbZHB9EYUX8SB9+vt1xsvnPMC4v3j23M7uzo2KScJS3cuVWH7JdUlKu+Ltk5mlnm5eamQ/Yv7XowZg2e0WxlnV0CZmwztVLveAwrTNHnF7KDW7FdUulQWAFQnhg3Tm3+SV169AG8zti1z45DXBYGOIlB4DNizAqgqbrAPGrgQ1Ve0EfpFAgm3GDhBDhEEBAFBQBAQBGwHASGwbGetZKSCgCBgZwhQcbQocRH25+5XHQnZBZBEjquTKzzdPBVRMTF6IuaOmNuhIPXGcHWEwGJeVrRvNF6Z+or6Z3tqVcoqLN65GNll2YqUMqf6YvdD2hZHhY3CK1NeMUyytWdMtnDsz+k/Y9GORcgozUBlbaUKs6eCzRnOqKqrQmlVqVJjsVPl+IjxeGD8A0JitbawWbuBQ99p6yCJKHPELcOy2eGNVsFR14vayhbeMNY2RpKmtKwWHAXKcnS2GnPV/KKA0NMaSNR2DLooDdjzX6CyPQQWc7DyAb9oIGFOO24mhwoCgoAgIAgIAtaPgBBY1r9GMkJBQBCwQwRSClPw6M+Pqo5/RVVFiqhgtz8XJxdFUJRVl6GspkxZ8PoG9MVzk5/rFIl13VfXKQthtF+0IcKD3QhTi1OVEooZWO3t9FddW40//fAn1WWRcwrxDoFTK+oXEjXsQEi1F0PjL+p7kR2uuPkp8Vlg+P2RgiOqCyTXviXij0QfiUHmi10x4ArcOPRG8xd3xCP2/w/IStKWQTdv8wjQTlieo5UuI641btkyf2U5whEQKDoOHP5e2/1qKnS+Gp8pKvnYVZbdXKPGAtHj9X8zUpVFwI63gfLcBhLWgP27tgpgDhYbDoy6wchd5BhBQBAQBAQBQcBmEBACy2aWSgYqCAgC9oIAbWF3/3A3DhccVmRVhHcEXFrY0JDYIakR5BGEhIgE/PWsv3YYghe2voDVx1ajuKpYkVjmKqs0S43pzKgz8eRZT5o7vMXXmd/07OZnlRWOREwvr15NAt2pNiupKlFh8SRrTo88XXUgbI3o6tAgbOgk2i7XHl+rlFcRvhG/wYF4VdVWoaa+Rqn1qMaKDYhVFs9In0gbmmk3DTXxHa2Ead5ZsK3bVxQAbl5A/wuAsKHdNFC5jc0jkHsQOPwdUF4A1FUDrp4NgetsEFDTQGjVagVWrwHAgIuMk1hJHwL5KbrBADPc2iySsHmAmw8QPQ6In2zz0MoEBAFBQBAQBASBxggIgSXPgyAgCAgC3YzAxwc/xr/2/As55TkqJL0twoYEFwkghq8vPGuhCvHuSDFba9Y3s5S6J9AzsM1cKpPCh2N79uxnO5XDtS5tHZYlLUNmaSaKKovg7OysFGAmMoYZWcFewRgTNgb3jbuvUyqzjuBiLeeQyGOnSK4PlWiNOzfW1NUgvyJfkX11qEM9VR0AqJLzcPXA1YOuxvyE+dYyFesZx463gMJUnWvFcHYjxfBrVw+g3zQd3C4lCJhDgKRn0kcAA9f5RQS7BbZkV62pBKqK9PPY+3Qg9ixzV9avk7yimrAiT59LNVdrVVWqbbC+EcDomwCXRg0LjN1NjhIEBAFBQBAQBKwaASGwrHp5ZHCCgCBgbwhQQTP729k4VHAIwZ7B8OE35WYqrzwP1fXVKvPo2UnPmju81dc/O/QZ3tv3HtKK0tR9SWS5NtrY19bXgllUJJpIolzS5xLMHjG7w/czncisr/f3va+6EpIcIylHRZani6e6z4V9LlQ/jqq8Ik4bT2zE05ufRnZ5dpPAfFpJs8qyFGYkrFimEH6SgCxmpV3W/zLcOeZOFZov1YAASYW8ZG0fNIoLrVpUyQz+HRBkmQYKsh52jsC+T4GcA9oy6BnY9mQViVWs7akjrwc8A4yBc2gVkLVX57nxdwYVXo27yfKzoZrkVbVuOtBnqigIjSErRwkCgoAgIAjYGAJCYNnYgnG43OBwQ0ibCTcuDEj2dTMnK7fBiRocMjd1u7J3YUvmFmXJIi60Iw3pNUTZn6TdvEEg5bBuQeB48XFlH6Sqih0BjRQVOOnF6RgaMlTlUXWm3tv7HlYeWalIEZJJVEPxh7Y0kmvM4Qr1CsU5Medg3sh5TQiuztyX51JBtD9/v8pvItHCDotxfnEOG9jeGM8VySuwbNcyVNRWIMw7TL1EmyA/60leqS6ETm5NsCKBZSID2SWSgf8MdZdqQODI98CJrZpYoHLFXPE4qml8QoExN+vMIilBoC0EmHW1/U2tviJ5ZUTpx2eMKr/YiUDMGcbw5bN56BsgN1nnW9GmqO7lrIPi+UNSi+Rr7wk6a0tKEBAEBAFBQBCwQwSEwLKhRU3MSgStRwfyD6iNJjc0DEdmh6qJURNxxcArHI6sOVp4VHVxI3HFzbipixs35N5u3kpl8n/9/g9/GPSHJpYcG1p2hxsqN+VpJWmK5GCx21pvX/Nd7GwFKIaaL1i/4FR3PiPjpjLqeNFxDAweiHcvfNfIKW0ewzF8tP8j9VlChQ/JK9X50NUTfQL64PIBl2NC5IRO30cuYByBLw5/obo28nOMpDttgiQ7+ZmmyCsGkTcrvlf4bNBuSPUaO0XePup2Ldn0YAAAIABJREFUnBt3rvEb2/ORpdnA7o90NziPQPN2KhILJAWYfTXo/+wZGZmbpRAgoXRgpVZVsdOlkaopBxi0HnIaMORyI2f8ekz2XiBjB1CWq0ksqjCdGkLi/aOBmDMB3/D2XVOOFgQEAUFAEBAEbAgBIbBsYLGovnhr91tYdXSVzkGpLlGbGdpIqD7iJoYhz+zydevIW3FWtMFcBRuYe1tD3J2zG3/f/HeVrcNgah93n1Nd3EjwcWPOf4b5hGF02Gg8fPrDQmJZ8ZpzI/7Vka+w4tAKZWGjsoTFZ93fwx+X979cdacjaWvLdSDvAB786UH13DJjykiZCKzBwYPxrwv/ZeQUQ8cwg2tf3j4UVBSoLoiDggYhyjfK0LlykGUROJh/EA/99NCpvDN+zjNIn+8DdiRsyV7J3w0svj9ox2TO2djwsXhxyosObcdssjKHvgUyd2nVisoPaiETiJliJlUL1VfD/qA7EbZW1WVA3mGdr8WOc/xM8gnTXd/4Y7TDnGUfIblaTyCQtgk4urZB5edvbAS0+ZHw6kyXQAa1F5/UeVcMdveLAtzN29GNDVCOEgQEAUFAEBAErBcBIbCsd21OjWx50nLw2/mM0gxlFQzyCmqyiadlLrc8VxFZtJHcP+5+jAkfYwMz6/gQCyoL8Ocf/6yUV1QqkKRqidgw5cfQknNRn4tw66hbO35TObPLEGDu0sPrH0ZqcarqSFddW31KcWLawDMvKtYvFgsnLkQg1RQ2WiSNbl19K44VHVPB7MyCMleVNZXK8jc8dDhem/6aucPldRtEgJ9j81bPw56cPSpgn3bLoqoi9UVFa6QtCXpmmPHzj78b+EzF+sfixXNeVO8VKWiVyp5PgKI0TRowC+tUflA9UFsDkJAi6UQLWN+pQOiQlqGj2iUzCUhdr7vKMc+I2UNOdHK5aVsYSbL+5wNUw0jZPwIntgEpa4CaKuN5VlRfMWydGWsjr7V/jGSGgoAgIAgIAoKABREQAsuCYHbFpXZm78RfN/5VWUmosGot64oWk5yyHPVtPVUai6ctbtFy0hVj7IlrLk5cjJWHV6oNXrRfdJtqA6oSqGTgxu6lKS8pm42U9SDATfgt392C9JJ0FSDey6sX/Nj2vlFRYUeSlht7rh9JnMZd2qxnNuZHwvfqfWvvw7bMbYqY4HzbKh5/oviEwuSSfpcoi5iUfSJAW+cH+z9Q6jwW87Bo7WyJ5KT6is8GM8v4xQWJLuZl8T3CjoRTYqbYJ0gdmRVJrMPf60B3Egf89zpar0g8ueqsK68gIH5y68HtJK9SftRqLgZp82QSViSuqOCqq9KEFv+dwdz9pgMhHesY2pEpyjk9hEDxCWD3f3WHQAazq4fKTPEZRJ3ucjngQnNHy+uCgCAgCAgCgoAg0AgBIbCs/HH4y/q/YMOJDYqgIYHV5ka3ITOFAeY3Dr0RVw680spn17HhMROGXdyovqKyirk95oobQhIezMO6c/Sd5g6X17sJAW7AX9r2En5I/UFlQtFS15oiiQpD5kAxE2tq7FTcPfZum7VJ7cjcgYWbFiq7GPOO2nqGTV0B+wX1w+vTX1eEhZR9IsD3w4PrHgS/uMgoyVAElbuze5Pgdiq1mFnGor2Wzw/z/lgnS0+q3L87Rt+hFKdSzRBg0HZGIsBOg9XlWnXl4QcE9gHCh7cdwE3i6sgabRlkF7gGzJveoR6oLNJ2Mgbxj5hhviudLJKNI1CvQ9yL0hu6A5rpAkqyU3W6DAAGnN+62s/GUZHhCwKCgCAgCAgCXYWAEFhdhawFrtvYakT1kJHsHwYA0143LmIcXjrnJQuMwvouweyrR35+RG3WiIuRKqspUzk/p0eejucnP2/kFDmmGxDg83rTqpuQUpiiVCTM+mmrqDAkicWg8bcueEtt1m21Xtj6AtYeX4vMskwEeQYphVVj8o4KG76XS6tKFbF33WnX4Xf9f2er05VxG0SA2VdU3a5LW6cC3Vl8LvglBklc07/zvcIvKxqrFanUZQfJhyc8jPER4w3eUQ4ziwDJrh1v6jB4EsgtkleNrsIweFqDA+OAEWIRM4uvrR9AS2naZk1eega1nYHGY0hi+UcBI6831rXQ1vGR8QsCgoAgIAgIAhZEQAgsC4Jp6UslZSfhkQ2PqOwbbu6NFDf4tJEMCxmG5ectN3KKzR3zfer3eHHbiyq4PdIn0tD4aVMj4cUMIapYpKwDgZ/SfwKJHCrkjJKRqUWpCPcJx70J92Ji9ETrmEgHRsFn8vmtz2Nr5lalPmOWHYO4XZxdVAZYVV0VvF29lcLm4r4X4/oh13fgLnKKLSJgspn+ePxHkMjklxf8bySxSGZRsUfyqrGNls8Mbbh9A/ti6bSlykpoi0XSjqRueXW5mh9Vtj0+l6w9wKFvdNB7W+HuJsBJNFJlQxXW2Fk6c0vKjhGoB5I+BAqPa2UfLfCu7k3thMxKYwYbnw0+Q+xySYJTShAQBAQBQUAQEATahYAQWO2Cq3sPZkbOExufQF55nsp5MlLc7KQXp2Nwr8F4+4K3jZxic8esTVuL57Y8p/KSjHZMIznAHKyRYSOxZNoSm5uzvQ6Y68jumszv6eVprAV5bkWuCu6/oM8FuC/hPquHhsRCZnkmiiuL4ezsrObJ3CtTV7lvj36LlUdWqiYN3LSz4yCtYbSFUWlG4mpor6FWP08ZoGURSM5PVl0JGcxOlRXD2vlc0EJKkrN5kaDn6+fGnouHTn/IsoPphqvxi5oVySvwY9qPqKqpUmozfi5wTqPCRuEPg/6AfoH9umEkLdwi+WvgZCK1cMY7vbFLHLvC9b8ACJP3b88sXDfelaH++1bozoAkOutrAWd3wMlJZ65RdcXMNCq0+pwDhAzuxsHJrQQBQUAQEAQEAftBQAgsK15LtlV/YN0D7bLKmZRGI0JH2G23MtrN7l1776l289zkmCuqtfjN/tm9z8bCsxaaO1xe7yYEaAWlVYpKI38PYy3IiyqLQEvopN6T8Nez/tpNI23/bdgBk+TcZ4c+U88eiSmSViQiqKi89rRrMTZ8rLow1TUkKtiBjhYyqmtGhIxQeV9SjosA1YmrU1cjvyJfqU1balxAMpedO9msIj4gHn+f+HfDakZrQfaXjF/wyvZX1Dw5F1PnRZJYfN8EuAcg0DNQkVi/H/B7Q3Z6i85t1/tA/hFtHWQXQyNFtQ0DvXuPB/pMNXKGHGPzCNQDx34Gcg8AlSU62J/ElWoU4AH4RgJ9p2gSS0oQEAQEAUFAEBAEOoSAEFgdgq17TuKmd863c3Ck8IiyEXkY+MOZGwCSWGdGn4m/Tfxb9wy0m+/CDdtt398GZmGxK6M54oPH01rDnKEbhtyAqwdd3c0jltu1hsDru17HJwc/QWVdJcK9ww0BRaUGg62vGHgF5o6Ya+ic7j6IZNRTvzylVFVUjNXW1SriyhTA7ePqgyCvIJwecTruGXuPzXZU7G5cHe1+JKUW/LQA+/P2K2LH191XfeZRgcVniTbT/PJ89e9Uo84aNgvnxZ9nUzDtyNqBpzc/rTrtOsNZNStp/LuOqmJ2ICUWVCJfO/ha9d7v1tr9EZB7SOdfkYgwUpXFgLMzEHMGEDfJyBlyjN0gUA8UZwDsUMhAf1oGA2LFSmo369uVE6nXCj7VqZKqPS+AX+4xU09KEBAEBAFBQCEgBJaVPwhLEpfg88Ofo6SqBFF+UW12XeMf+gy4ZuDzXyb8BaPDRlv57Do+vP8d/h/eSHpDqdOICwmN1oobP3YuHBA0AEvOXQIPoxuQjg9PzjSIwL68fWCnTW5eaZczUkcLj6K3X288NfEpDA62PhsGn8n71t6nSFNuumkXbBw2T1UJiWaqApnvQxXW42c+bmTqPXIM58CGEnwP0c4V7BUMf3djarkeGbCd3ZT4v7ztZWzP2q5ILK6DSc3H9WA+FDPhbh52M86MOtOmZs/fWbO+mYVDBYcUadWW4pCWcb5vmJX33KTnlNqs2yrlByB9M8AcI4NKURX47hkInHYZENiNY+02UORGgoAgYDkE6oG8IwAbAlQU6qw0FokrZuj1ngCEDZHQf8sBLlcSBAQBG0ZACCwrXzyqTeavnY+UghTVoY3WosadykzD50aA4e38hj4hPAF/P/vvVj6zzg2PlisSH9sz9aaOGx/a0BrbCYkJNzzcANKyNW/kPEyNFStH55C37NlUC97w9Q04WnQUwZ7BTTqqtXQnkj5c73j/eLxz4TtWp1wiOfXYhsewKWMTaCFsi3RmLltGSQaifaMxa/gsFdRuTUWcPz/0Ob499q1SdZoyiVydXBU5PmPwjO4lEawJnB4YCy3lHx/8WKn6+GxRdRXkEaQ+79mdsiV7YQ8Ms123fH/v+/jowEeqiUFsQGybX9DwwiSHSXRNiZ2Ch8Z3Y85XwVFg32cAuwt69dK5Rm0VM4+4CfWNABJuMX98u1CTgwUBQcCuEKBKb/9nQGG6Vl/RempSXJHIcnLRjQGo5Bvye+Mkul2BJJMRBAQBQeBXBITAsoGngZvhl7a9pAgqbiSp6OBmhUQWv4nnZqagogABngHoG9AXL0x+QRFZ9l60WD658Ullr+EGiFgw4JhB2QwBpr2GVq1I30hcOfBKXD7gcnuHxCbntyZ1DRbvXIzUwlSE+4YrIrKlYu5VZkmm2ujePvJ2tYm1tmLn0Mc2Pqby2WL9YlsM2248ZhJyVJYws27xtMVmN/DdNd/ErETVIZEkFu1bpu53JI75Pgt0D1SfNz2WSdRdQMh9uhSB2d/OVrlv/AKCn93mSqmMi48rAnv5+cu7TwlI5dXOd7UljLaetjo8qg6EDHD31YqJAReZm5ZjvM4sKOJSkAIUpgI1lYBngFanBcQZD8d3DLRklvaMQG1VA1FVo8mp5C+BkizdpZJ//7jzb6BGJHlNubYUUonlFQSMvF7n8UkJAoKAIOCgCAiBZSMLvyt7F/6Z+E/17TtVRfxDnhkoJLFoiWNns0HBg9S30o5AXpmWjRvqD/d9iB+O/6A22yTzuMHmt/S0bdFuwpyk/oH9bWSlHW+YfI7/tulvYNdNkrR8nhnYTKUPq6a+RhG0lTWVioyk4mTB6QuaqO2sBbVlScvw3wP/Ve9PIwHsVDUxL4tk17OTnkXfwL49PpU9uXvw141/VSQc31+cR/NMIpOlkOqxGafNwFUDr+rxccsAbA+B67++HgfzDirbuws3cgYqtShVfQ68OPnF7lUAlmQAe1YA5blaUUUbbfNukLXVQGUh4OIO+EUCo2aK+oprys334e80ccXNe22ltkgx3JzZnsQrehwQnaA39FKCgD0iQHVV+hYga4/uUklSl+RUdZl+P1DdyfdCS2UigElchQ4GBl3SlOSyR7xkToKAICAItIKAEFg29GhwU/zFkS/wc/rPKKgqUMHQKjfEK1Spi9hq3FGLJMiB/ANIyklSJBY31swWYnC7lPUjwPUj+UM1FolI1bWPqgdAqZhIRtJiODVmKuaMmGOV5BXH+uC6B7HhxAb4efipsG0jRVsU5zdn+BzVYa0ni5jP/W6uei8xdJ4ZXVRftVSNM4mePvtp9Avs1+mhc9335u7F5pObQaKCn29DQ4ZifMR4RUYbJTk6PRC5QLcgcO1X1yI5Pxlx/nEtWuNbGgRzHpn5RcKXuYbdWnmHgcPfaithTYW2+aj8xXpNzPC94u4DePcChl4tqiIuTnk+sOffQEWRJrJcGkgrYkfrFHHj5p2qtoBoYMgVtk1icS5lubprZVEaQDspiYngfoBflAS5d+sb1opuxufh4FeasFIdShnK7qTJXH5+8P1A8tbDTwe3t1T8m4gqRn6+jLhW/1NKEBAEBAEHREAILAdcdJmyIGCtCBRVFoGdCVOLU1FSXaKGSSKICiUq6cx1nOzpef1pzZ+Ukow2XyOWKI6X9leSRdeddh1uGHpDj06BGUvv7HkHzN4jYdQ4U66lgWWWZqpgd9o5qYrraFE1+VPaT1i6cykqaitQWlUKZoRRYert5q2wJMnxwLgHFHkhZR8I3Pj1jcoC3h4F1rHCY6ob4T+m/EM1c+j2qiwCklcBZdnaBkeCghtRKifcvLQdrv/5orziwlCRtus9oOSkJqo8An+rWuNxxLGqSJNYobRdXtDty2qRGzL37OCX+tlQSjOSc/VaacbmMXxG+kwFQgZJVzmLAG4jF6HycP/nmtgkUUX1JolcPh8kw9VnCAmthmelLRKrIl8TXH3OAaISbAQAGaYgIAgIApZFQAgsy+IpVxMEegwB5qNRFUMCgPa79qiAemzQdnZjBrivPb4WXm5ehvN52K0w0CMQd4y+AxfE9+zG7bbvb8POrJ1K7UbiyFw1ziR6/bzX1TzaW7RRLtu1DN8c+wYkxPjvvLenq6f6/1Rl0T7KzodUhD1yxiNW2X2yvfOW44FbV9+qVLNcWz+GFJspdmDMLMtUHUvfPP9NwySxuet26HUqJ/JTgNIsrZzw7w0ExApx1RjMtM1A6k9AZbH58HtlvywAvEOBkdfpDo62VMUZwL5PARKcVNk4u2l7JO2mJChqGMwNTeKFDwP6TBESy5bWt6NjpSJvyxKgNFsTmI27mPJ9UV3aQHK6aCWiyVpLdVVLdlraDfk8keg9rWcV2x2FRM4TBAQBQaCzCAiB1VkE2zifmy9m+tAOw3BnEgtUNUyImKDyqoxsELtweHJpO0GAG/yvU77GZ4c+Azd4dahTti/arUaGjsT1Q65Xz51U1yPwwb4P8O6+d5WNNcInwuwNadmj2owb8lenvqoImp6smatmYn/ufqVwoSrMSNHqx7k+M+kZDAwaaOSUJsesPLwSb+5+U31WMvusJRKMn6XM/3OGs8oJWzR1kUNl/bUbVBs5gao7NihRwewB8W3aCJnHll6syd6rBl2FmUNn2sgsHXSYzPjZthwoydSB0wygNlfMD+OmPfQ0YPDvzB1tPa/TTpr4jiYzqbhiOL2pi1zjUZJ8IGHBaIO4SUDUGOuZg4ykaxA49hOQvlmTuN4hTe/B553PBJnNU10HGZ3gpNWcLTWLoFqxpgwI7g8Mn9E1Y5arCgKCgCBg5QgIgdVFC8TOXc9seQZHCo6gvKZcqQi4CaOqgHk3zHa5bdRtmBg90XD2RxcNVS5rwwgcLjiMv/7yV9UpjsHafMZou2KmFIksbvYCPAJwxYAr1KZPMoS6drEZyH7v2ntVMHukT6R6v7dVXLfq2mokRCTghXNe6NrBGbj6DV/fgAN5B9pl6WLYe4hXCJ6a+BSGhQwzcJdfD6Fi8JbvblF5V/6e/ghwD2j1fBOBQUvp5JjJnbIsmh0ks3po+8g/rHN7mGsU1Fe6pZkFrv0H3Lb6NuzL26c67DKcvaXPKH6e0dZKxR+JLpK9km/Yfqy79Qza6HZ9oDOwmm/cWxsIM7G4qWdnwlE3dutwO3WzAyuB7L3aCskuca3kBqp7VJdrAoKYjL5Jusl1CngbOHnzYqA0UyvvXNyaDpih7vxRNlNT84J6gFlX/AKJakQq+BqXUmzVAmEjGoLcbQADGaIgIAgIAhZGQAgsCwPKy5FUoJWIf3AXVBac6ohHYoEqrPLqcqWQ4R/r0+Km4ZYRtzgciVVdV43iqmK1aeGGhZ0TjWYGdcGS2eQlSZI89NNDSpVQVVeFEO8QeLMFc0NR3ZNdnq1UWQy1Z0A41VhSXYvA4sTF+DLlS+SW5SLSLxLuKuS5aZGM4fOfX56vNuTMjxoROqJrB2bg6jd/czP25uxtlwKLz2GUTxSeP+d59A1oXxfFT5M/xfLdy1FYUajuaa74eUElFgPjaSFr3B3R3LmGXufGIfVnIHOnzu+hTUxtJlwauqW5AWHDgbiJeoMh1WkE+Dvyrh/uUiRmSVWJ+hzj7wITEc8sNObEubu4q8+xB8c/6NANSzoNeHddoCAF2Pup3qB7BRu7K+1TDKlm2HnCXGPn9PRRJN22LtMkBW2PRj4XSOpRYRM/WXdflLJfBDb9Uz8bPqG/JTb57PB55z8bPzemf2f4f/NOpzyeX6j0Ow8IH26/uMnMBAFBQBBoAwEhsCz8eNA6dMeaOxSJxW+LW/tGmX+0F1QUqD/IGdx8Wf/LLDwS67wc8aHdbcWhFSqkmd+sk8xzdnZGQngCbhhygyHrlXXOrvtGRaUVN320pvL/R/hGtNotrqiqCHnlecpG+NgZj7VbJdN9s7KPO5EwfGDdA0guSFaqOOb7MHyeG3IWPxdyynLA4HKSNhfFX4Sbh99sFZPnM7U9c7silDluc8VsKhJKtPUtP2+5Upe2p57a9BRWH10ND1cPpRQ0UiQ6aLV8eMLDqjuhxYqbhsS3dbc0BuvSysTgZW4sSGLVVuh/cpPKkN1RM3/7jbrFBuNYF+Lvw0d/fhRU85F0pyqRJK+yQju7qKYIXPP5Y+fjtF6nORY4tjrbgqMNBBbzr4wSWOyylg/4RwNj59jGzNldjgHdVI55NbOItTYDqrDqqoCwYbZllbSNFbGuUW5apK2lPq3EA5Tl6C9LqLQy2QgVgeWic+MaE1sMfedzRvUef//w95CUICAICAIOiIAQWBZe9Oe3PI/VqatB0oAdklprQc/b8hgqD0gsvD79davvsNZZqGinfHzj44q4yyrPOkVecaPC/wV5BKlNLLuxXdLvEodTpbUH39XHVmPRjkU4UXrCUAt6Khj4LJ7d+2w8fubj7bmVHNsBBKi0fHrT09iTu0eRWCqbjOoCQCkO+ZxzU/77/r/HFQOv6MAduuaUxplEcQFxZi2nVP8xfJsE/C0jb2n3oO5cc6cizGhBNGe3NF2cylYqr24adhP+MOgP7b5nyyfUA7s+BBjEzBBm2oBaUlJwY8EuUAwcp0qEGSTNLR4WGpEjXmZ9+np8cvAT9buRKl2SVz6uPpgaOxW/6/c79e9SNoIAiaid7wLluQ0WwmZWqJamwY18VXGDhbBnO7IaRjl9E5CyTgdrNw7obusCtjhPw4DIgU0QaEuBxQNpOyUpxd8tJLD4Y1JgNQ5yN/3u4Rc9vU8HYs8SoAUBQUAQcFgEhMCy4NLT3kILDtVXbPVuxN7C4GJuABlIe/Wgqy04Guu6FFUTD/70oPqGnTiF+YQ1sQxSlcKNKV8j8Tdj8AxcOfBK65qEFY1mwfoF+Dn9Z2UZpLrHXFHtwzWI84/DkmlLFGEg1fUI8LNgWdIyRWLx2XZyclLP/dBeQzF72GzVrdDaiqTS7pzdSiFJhahJOdZ4nFROKmKutgLx/vF4ecrLHQqgp+Jr28ltCPYKNmwhZhc6LxcvzBo+y3KfEQya3v1vgN+G89vtlgKYTQCQiDQdN+QKrRaREgQEgWYI1AM73gaK0nX3NQNdTRU5zM59ESOB/ufbBqLpW4CUH7WiyqCKFFTS0FoZ1AcYKbZ+21joDo5SdSBkIwM/rehtqaj4NdnV+YWIysRiBhb/TqvXOYwkuvi3nl8EMOyPv7UWdnB4cpogIAgIAraIgBBYFlw1Kgme3PikavNttOsbv2lmJtbUuKl4dMKjFhyN9VyKypPbv78de3P3KtVVW3Y3k7WS+P1t4t8wIGiA9UzEikYyb/U87MrapYhSZsMYKVPYNm2EY8Kl+5ERzBzxmJYyiaiCIflGpSSJuKzSLKWGIdl8z9h7MCFyQoegem7Lc8pS7Obi1mL3wZYuagrIp5KQXTYtUtvf0Oorbhrcfc1fkptPfiPOzcSYWW2HNpu/mhwhCNgnAlm7gcPfaUsubYS05bZW7OTHjTqtVmNubn2zb21IFR4H9n6i52g0rJ6d5/j5EW4FQdwcBwk1EvMk7kkgitLRck/ZyV1AyhqdddVSDpbpTuxSWENraY0mrZxcAWfGDjjpNfHwBdhNetAlsj6WWx25kiAgCNgoAkJgWXDhViSvwLJdy1BeW45w73BDV6a1iEqG0WGjsejcRYbOsbWDVqWswtKdSw3b3TJLM+Hq7KpsIwy3lvotArO+mYU9OXsQ5RcFN+dmnW1aAYxqP3YlfGD8A6r7pZQg0BoCJLEeXv8wMkoylN23SSaRk84k4s9dY+5Sn10drW+OfoNFiYtU4H1v/7Yt17wHO7oyP2xg8EAV4t6SOqzdY+GGQX1Lnt16TklLF1W5JqFAwi1aYSIlCAgCzRCoB3b/R3f0JOnbUic2qk1I6LAzHzN/ohKA2DNtB0mOf9syoCRDW4uNfBbQVslj+56r1WY9USRLjm8CSDI22NsVWUIFUOQoHS5P4kSq8whsfQ0oydLElGdQK7bzeqC8UCuxXEwdCJ31lyrMuuo7HfA2mCXX+RHLFQQBQUAQsGoEhMCy4PJ8dugzvLbrNaWoojLGSJkILCpi2BrcHmv+j/Ox+eRmZZXkj7minfB48XFlTXpt+mvSLr0FwNh6PjErUVkxjVhVeYnjRceVzeuJs56wnHLF3GLK6zaNADOJPtz/IUqrS1X4PAkjZlVNiZmCqwZepYjmzhRtinO/nYsjhUdUkHsvz16tXo5KTn4u8JgL+lyAO0ff2Zlb/3ouNwxbXwdKcxq+ITd42bJsveFm2LQVWkENzkIOEwS6FgGqe3Z/pN9fzJfjJp7ECNVYzI3i6/wcYe5cyECgn41YBxujRpXZyZ2/dlxsy4JMIo8ZWL5hwOibe6YRBAP2D3wBKNVbEVBP4kovDZzqtRWSazT0CsA3smufD0e4Otc88R2gLPfXrDRFdDaAXlsDVBXq9wSVikMu1xmLUoKAICAICAItIiAElgUfjKScJNVJiV25mDVkpAorC1XWzPS46XarNprz7RyVqcOOjEbVQops8QnDwokLMazXMCNQOtQxj254FOuOr1ObfqqqzBUVNGklaegT0EeRgkbOMXdNeV0QsAQCzHJ7efvLimD1dvNWyq7myio+v2xYwMw3qq+WnLtEWRotUtxA8xvyDhFYIcDY2UJgWWQh5CL2i0A9cPQnIHuvzvJhR0+qfkhcuXoCrl5A36lAUF/bhIAqLHYrrTRrAAAgAElEQVQwpQ2ZnyfsVNqc3OcxDKjn6yS++58HhAzq/vmSvNq/Uofrk0DxDGjW6a5ah4qzGCI+9GrA19gXst0/GRu6I0mspI80yUl8+fwrwpA/zlplxS6+gy8TvG1oWWWogoAg0DMICIFlQdypEGCI+8G8gwjxDjEUSsxcoiDPIMwdMReX9rvUgqOxnkvNXDUT+3P3I9ov2rBig93NGOzMXLCEiATrmYyVjGRTxiY8u/lZpBbrYHZz3blOlp6Eu7M7psdPx/3j7reSWcgwBAGNwOeHPldKL1oWaRN0d3VXZBWbD1D9xew8EltRPlF4bvJzllVlKgvh0oZW56HG86xOWQjn9YyKQh4eQcDmEKjXoe55h4Dqcq02IYlDwsfWi/ldSR/qLqUkKchMqNBudpWr0qorqm4415gJ2irZqaoHqNypr9VXIWFmThFLzJn3xyYUzhxLGw1gmOnFz0bmeo2/te38sk7Nw8FOzkwC0jfr54GkJr+I4bpFjNDPRFvqPQeDSqYrCAgCgkBrCAiBZeFnY3HiYnx55EvkVuQixi+mzYyW/Ip8lFWXoU9gHyybvsxwG3kLD7nLL0eLENVpET4RhgPH2TGPxz818SkM6TWky8doize4f9392Ja5TVlWSQ62lgeUV5GHkqoSRXQ9ffbTiA+It8XpypjtHIGUwhT8bdPfwMYWfF7Z4ZDPtK+br1JmsXPjQ+MfspzyqjGetHcUpen/YqCrp7ZCQXcgHHWjna+MTE8QEAQMIUBC4sBK/VlCazLVZpTZMKdSKc08gcGXti9rr/mNqdxhphhti7QAUsXDopLHOxQYcEHrhCC7JZ7YqsPyqa4yV8wFpEKr9+lA7FnmjpbXBQFBQBAQBASBbkFACCwLw0ylwK3f36pUWGU1ZUoxwA5bjYvHkODiJo3d9m4beRumxE6x8Eis53L3rbsPVAyxk5m/gc1hY7vbsvOWwd+9jW8JrWea3T6Sosoi/OmHP4FkX3FVsVL9cbPvBN0tjplFDMTn/2e3uJlDZ+Livhd3+zjlhoJAexAoqCjA2vS1SM5PVirWcRHjkBCeYJnA9tYGUl4A7HpXB7nT3tNWF666Wm2/4WZxxAzjncfaA4IcKwgIAraLAImsghQg74hWXzETNXSwtoh1pkhYMRSfKi+S6FTxKOaKVa+tzOyiGjwA6H9+07Bwk9K0LAvwDDav1uIlef1KdlcMBcbf3kr4OAB+JpqUYFQQqc9PC1m8O4OXnCsICAKCgCBglwgIgdUFy0pl1fy180HbFjsMUkXg4+YDFycXZY9hcDuDkKN8o3DFgCtw9aCru2AU1nPJn9J+wkvbXlIBzHEBcQqHtoo2IuLDoOY/j/2z9UzECkdCEuvBnx5URFVmeSaqVDtsPVBmBIV4hSDQMxCzh822a5LUCpdGhmRrCOxbARSk6nbnzJVzbaGzIN9ftNawk1RgnA7blRIEBAFBoKsRoKIr8V8AyXZaFN19mhJiJM0UqcWMLX4+xQKnNfp8qi4Ftr3xK/ludLzKKh3Wso2Qn4VUnFUwM8skBYMm0gZcDPhFCJFlFGc5ThAQBAQBQcAwAkJgGYaqfQdSZfXUpqewN3evIq2okGFGFokZduKjsuDh0x/GgKAB7buwjR5NpVBSdpIiWEjctWZ3MynT2IGQWTe0YUqZR2DjiY14c/ebSvXH54wqLOZinRV1Fm4edrNh66b5O8kRgoCdIsANIFVY3CCyWxQ3ZMywYT4JFQZUP1BVwFbmXoHAiOslr8ROH4UWp6VCuIuA7H1A8Qn9XAT1A3oN0NlGUoJAVyKQ/DWQtVvb/6gSba2JBVVTJJZoEex7LhA2VI+KAfLb39IEPXOtjJYp62/crb+qtpRV8nOg8DhQWQLUlDdVgvH9QLU97zPsKm2hlBIEBAFBQBAQBCyEgBBYFgKytcuQTNhycgt+yfhFEVkkrKb0nqICyh2pCioLcOeaO1WnMYYys8MgLYUmlTltg1SssWh3Y6g9OzNKCQKCgCDQrQic2A6k/aIDjLkxI3lFSww7pZG06D3eAgHM3TojuVlnESjJBPZ+op8FdtCjykWFdHvqAH/+Ph/2B2O2rM6ORc53PAQYur7rAx2+bs7iTHSqK4CaUsA/Bhhzs8arugzYttwyCqxd7+murSTD+B5gB73GlkEqxHg/kljM0Bp9k7w3HO+plRkLAoKAINBlCAiB1WXQyoWbI0AS69619yKvPA8ny06iprZG5TOxqMii3Y0ZWbePvB0Te08UAAUBQUAQ6DkESFpk79W2HG7EQk8DfGmJkXIoBEhopv6sVS117CTnBriwu1y9VuWR1GK2ETfxw6/R6jwpQcCSCKRtAo6t06HwRjo2UiFVlq0VUCOu0f9snIHlEWSsc2pLGVgZiXosikxrI0uLYfPMCvQIACJHA33sN+fVkkst1xIEBAFBQBAwj4AQWOYxkiMsjMDa42uV3a2yrrJJXtPk3pPF7mZhrOVygoAgIAgIAh1EIO8QcPArvREnadVSExKSBRW5ALMdmRU0ZnbbTQA6OBQ5zYERoPovZz/g7K7zpYwUCVdaoOMm6S6CrGPrgfRNQGWxMRsh7YPM04o5SytPWVuWAiUZAJvr8PptFUkzZVkMBUbPbFBqGRm8HCMICAKCgCAgCLSOgBBY8nQIAoKAICAICAKCgCDQGAGqT7Yt03loLq6AO21SzYu5WMXassXNOjuwkehi/lDc2UD4cMFUEOg8ArTs5R/RSj+l/jNQfC5p64sep7OwWFRwqWc6R1v62lJzlefrzoJUb42/TT/bpZlA0r/1+T6hxgLaSWCxM2K/6fJ+MLBscoggIAgIAoKAeQSEwDKPkRwhCAgCgoAgIAgIAo6EAMPaGZxNIoC5Q82LXeFU97U6oK6u4VVa4p20PYudKpmbNvI63TFOShDoKAKWUmDx/sUZwN6PNTFL9SBJLD6vplIh8PmasCJ5xefXRHQd/RFI26yttLQGGimGzqMWCBsODPo/I2fIMYKAICAICAKCQJsICIElD4ggIAgIAoKAICAICAKNETj0DZCxXRNSVJA0LmZfMRuNqisWQ/55nFJhuQBu3roBgAp47wWMuuG31xC0BQGjCFgiA6vxvUpOAns+1s0IKgtORTmoQ9jdkIQVOwc2Jq/42oGVQGaSfsaNkrJ8r/C9wG6dw/5odMZynCAgCAgCgoAg0CoCQmDJwyEICAKCgCAgCAgCgkBjBHa9D+Qd0Rt1F/dfX2FoOzOxTJZBKlVMRcuVifDiebRh8XW/qF+7wQnKgkB7EWh3F8JyoKasaRfC5vfks3p8UwNJ2+xF1Wl1nCazGldHFFjVpdqKKAqs9q66HC8ICAKCgCDQCgJCYMmjIQjYOQLlNeVYtGMRErMTUcfOQGqL5QQfNx/cPup2jAobZdUIfH7oc3yc/DFqTGoHAC5OLri036W4cuCVqoOllCAgCAgCFkWgNQKLyqvqMt2FkEqUxnWKwPLRmVmmbnDs1sYMoLChFh2iXMyBEEheBWQlAbTkUdXXnFwyQaEsgAU6h63fNCB0SNsg8RmlDbbB/aoIV5KwLRU7s+42ZWCFGQNfZWD5AP3OkwwsY4jJUYKAICAICAJmEBACSx4RQcCOEfjk4CeK/MmvyFc/9eqPVV0erh4I9w5HlG8U/n723xWhZU2VXZaNe368ByVVJThZdhJ1p3JmKGpwQoR3BHzdfbHwrIXoE9DHmoYuYxEEBAFbR+DQKiBjR1MLIb8AoBqGZLrJNth4niYLoWcA4OqpX2HAe20ZEBCvrYRS9oEAf5eyS2X+YZ0JRZVdyBDjXQLbiwLtfolvA+UFQFWJDnRvbOPjeEiu8jh2DgyMBU67vL13MX/8qS6EfMYbKRNbOpO4UIWouhDe2HIXT/N3lCMEAUFAEBAEBIEmCAiBJQ+EIGCnCPxrz7+w8vBKpBWnwdXZFWE+YXB1clVfrpLIKq4qRm55LoI8gxDjF4NXpr5iNSRWZmkm7vrhLhwvPo6q2ipE+kbC08VTfzHMv9NrK5FRkgFXF1c1dpJYA4IG2OlKyrQEAUGg2xHI3gtQ9dI4xF1tyPMA2gjZxa1J1f/637lhNylkqMriJt4vGkiY0+3TkBtaGAESRQxBL80GGOTPzn78b65uAH9HuXpo4ogKKEsX77X7P0BFXgNZVd1ILVWvs9dIavUaqBVPram0OjOuE9uB1J90CDyVYIrIbaFI9tJq6+EPRI4G+kztzF3lXEFAEBAEBAFB4BQCQmDJwyAI2CECSTlJWPjLQhwtPIpgr2D4u/u3OMva+lqkF6fD38Mfk3pPwsOnP9zjaNDmeN1X1+FY0TE4OTkphRgtj82rHvUg0VVdW424gDi8cd4b8OYf8FKCgCAgCHQWASpZti0DyvJ0GDuD3Pnf2KGNatDmG3dTJpaLh1bAmMq0kfeNBMbN6+yo5PyeRKCyBEj6QFv0aOUjQUSlHf9JconPAPPSGIIeNwmIGGH50ZIsKzwOHP4GYEC6SVTNMbBr4IALASoAu7J2vacJPBKznL+HX1PbIbFh9hXJK45l9E0tEL5dOUC5tiAgCAgCgoA9IyAElj2vrszNYRFYsH4BNqZvhLOzM0K8QtrEobquGseLjiPOPw5PnPUEhvbq2ZyWz5I/w9t73kZ6STr6BvY1u4bHCo8h1DsUM06bgWsGX2P2eDlAEBAEBAFDCOQe1CosKkm4UedPSwoslc/npDfpJBEaK19OKbCigIS5hm4rB1khAiSOtr8BlGYCzJnyDPoticljqmjjq9YKrIGXAEFdZW9vUPyp3DU+fq6tq6EsDSfnuf9zTaRRoUgijc+/UkjXaxKP5BUxGHpV0yYIlh6LXE8QEAQEAUHA4RAQAsvhllwmbMsIrE9fj/f3vY/S6lJQPUVlkruLOyZFT8K1p10LNxc3ZJVl4Y41dyj1VaxfLFxak/g3AiKnPEeFof+u3+9wx+g7egwiqq+u/epaHCk4ggifCHiacmTaGJHJTsgcrHcvehdubP8tJQgIAoKAJRBI3wIc3whUFOqsI9oHGXrNsGtTpiD/P38Y1t7cWsjNPUPfA+OAUTdaYkRyjZ5A4MD/gOz9ei3bClHn2Ejq8DnxCQXGzLJf9RHViclfakXaKSUYAFcvrQRjLlhX2Bh7Yv3lnoKAICAICAJWg4AQWFazFDIQQaB1BAorC/HQ+odwsuQkssqzlG2OFjoSWCSeenn1QrBnsOoqyK6DL2x9QYW2RzN3xUCREOM9JkROwHOTnzNwRtccwk6D13x1DVIKUgypr0yjSClMUQqyZectQ6BHYNcMTq4qCAgCDohAPVB0Atj/mSYlaCFk9pHq2uaiN+hUv3gFahKrcakuhDn6tfhzdBaQlO0hwHXc+hpQclLbA3+Tf9bClJgRRRXSwAuBkMG2N+f2jPgUsdvwnnBhPlwrnQzbc105VhAQBAQBQUAQaAEBIbDksRAErBwBEksMNGcmFDvyhXiHqLB1Uy4UQ86pumJeVG+/3ujr3xc7s3cqIivcJ9zQ7KhiyirNwsiwkVgybYmhc7rioKq6KpV/1V4Ci2ozhrkvnb7UrGWyK8Yt1xQEBAE7R8BEXp1MBFI3ArUVAPOuPAJat24xI4hFJcqYm0WNYquPSH6KJjCpwqNF1EixUyBZzsixQP/zjJwhxxABdlLMPaBD4qnADuoHBPQWQkyeDkFAEBAEBIFTCAiBJQ+DIGDlCNzz4z3YmbUTFbUViPaNVoqr5kU1FjsKlleXI9AzUNkLy6rLVAC6keKx+ZX5GB8xHi+e86KRU7rkGOZx0ULYIQLLPwbLpi9TXRWlBAFBQBDoMgRO7gSOrtXZWFRhNSexGPbOjTg/q5kDNOyPXdOVrssmKBdugkDqeiB1gw5pp6rKSPEZYJh5cD9ghGQzmoVMBdN/p8PfVSB+tX7/kCSmJTFkINDnHCGyzAIpBwgCgoAgYP8ICIFl/2ssM7RhBDakb8DzW5/H8eLjqtOeCzdLbdSJkhMqA4oEFhVYtNW1RHg1vwTJL9bFfS/GPWPv6THEmIE148sZoCWQZB3zvcwV7ZRpJWlgBtY7F74DD/7BKyUICAKCQJchUA9k7gaO/ghUlwPVVNvQMuWkc7FoKyTRwa6oQy4HfMK6bCRy4W5A4Ng6nYPG7pOq456BOkVg9QVGXGvgBAc+hGRwZlKDPbdad/1kliU7eNKuy/eVKRSeZLCr/I534KdFpi4ICAKCAITAkodAELBiBO5bdx82ZWyCt6s3Avgtv5minZAklquzq7IYert5m1Uk1dbVIrUoVdkPF0xYgITwBHO36dLX3979Nj5J/kTZIuMD4s3eix0UqTpjAP0tI28xe7wcIAgIAoKARRCoLAZSfwbykn8NdOeFmZEUlQBEjpIObBYBuocvwm6UB77Q4ewMcDdSVBKRgIkYCQy4yMgZjnnMiW36PaQ6fXoBbj6/tdqyq2NlgX4tIAYY/kdRYjnm0yKzFgQEAUFAISAEljwIgoAVIzDn2znYnbMbkb6RhrvrkYzydfdVSqTssmyEeoeqzKyWitbDE8UnVLe/0yNPx8KzFqosrZ4sKqqu+/o6lfnl5eqFMO/W1QvsnlhaVYrYgFhlHzRC8rU2N6q/ErMTkZiViMqaShUif0bkGfA3ahnpSdDk3oKAINBzCNDuRNsT1Vfs+koVqIHurz03YLlzuxCgdXDr60BpFkCLupG1Lc8D3H2BftOB8OHtup3DHFxTBex4EyjNbCCvvFufen0tQEz5RV78ZCBqrMPAJBMVBAQBQUAQaIqAEFjyRAgCVozAzFUzsS93n1JHUVVlpNKL0xHsFawseBmlGcgoyVBEEMPfG1sQS6pLkFuWq1RaPPaFc15okywycm9LHUPS7smNTyK1OFUpySJ8IprYCZmVlVmaCarHYvxjMH/sfEyImtCh29fX1+Ol7S8p4qq4qhjsyMj/5uHqAV83XxWEf2/CvSokXkoQcBgEyguAlO91cDUJGhYtvT6hQN9pOmBZShBwFAT2fAzkHQJoDfRizmIbX/SYcpyYfzZmlrxXWntGaB1M3wJUlwFeweafpJpyoKYCYHflMTeJCss8YnKEICAICAJ2iYAQWHa5rDIpe0Fg1jezsCd3jwpjZ7aVkaKlLswnDE+e+SR+yfgF3x37DvkV+SiqKoIznBtiWurh4uyCUK9QRVo9fubjisSypmInxb9t+pvqvJhdnq2ILOZ5USlF5ViIZwh8PXxx95i7cUbUGae6MrZnDgWVBXjop4eUhVLlgDlB2TV5H2aIkSjzcfVRCriZQ2fivHjpJtUefOVYG0SASofkVQA7r9EyRZUE6vRmkepM2nyoLAkbqpUQUoKAIyBA4mTHv4CyLD1bj8CWu0qy+yCJFs9grb4KG+II6HRsjkkfafutq7fBXKt6oCxHk10MxvcO7dh95SxBQBAQBAQBm0ZACCybXj4ZvL0jwA6EW05uUdY4qoHMVU1djQp8j/ePx2vTX1P5VwxEf3P3mziQd0CFu5P8IUFDombG4BmYEjNFWQitsUgwrUhegW+OfqPUVnWoU0QVybepMVNx9aCrEcyNQgeKKqs71tyB/Xn7leoqwjsC7q7uTYgw4pVTloPK2krE+sfi/nH3Y2y4WBc6ALecYgsIkLza81+g6ARQWaitcAwiN3U+ZaYPN+i0VFGFwg5rAy+xhZnJGAWBziPA98X+z/R7g4QWv1Tie4TELpVZ/OF7xTMAiBwLxJ7VMsnV+ZHYxxW2vwEUpmm8DCrMUZGvs7AGXQL0GmgfOMgsBAFBQBAQBNqFgBBY7YJLDhYEuheBlYdXYnnScpwsPakIFHMdBbNKsxS5c07MOfjLhL80GSwtg1QzkZQhYRXgHmDYlti9s/7t3SpqK1BUWaQUUVSi+bv7d5p0+2fiP/HVka+QW5GrLJptdXhk1hbJwQGBA7B42mJD3RF7GjO5vyDQbgTSNgGpG3Rgsmeg3qC3VMx7qiwCvEOAgRcAwQPafSs5QRCwSQRoqT3wP6A8X3fII2nF7DN2ziOZxX/2Px8I6ifklbkF3rYcKCKBZTBXjNerYJi7FzDwYiBksLk7yOuCgCAgCAgCdoiAEFh2uKgyJftBgGTTbatvUzlYDFdnHhMVSC1VYWWhsgqS6GIY+6DgQfYDhIVnQhsi7ZlUpTEbjBlhbRXVWlS2MRD/nrH3KNWalCBgVwhUlQI73gLKsnVQMvOu2irm1tAq5RsJJMy1KyhkMoJA278Q6nSgeN5hoChdKxKZDUdFom+E+feOwKsR2PW+xpCWZHOfNybMaCEkuT7sD4BfpCApCAgCgoAg4IAICIHlgIsuU7YtBA7mH8RjGx5DWnGastGRRGls+aMyiAqhipoKlWNFW90fB7PNtFRrCOzK2YXHfn5MhdyT8GuNFGx8fl5FnsrfuqTvJYrEkhIE7AqB7H1A8tc698qrl4Gp1QOl2TqHZuS1xkKYDVxVDhEEBAEHQeDQN8DJRKC2RtsIzRXVbvx88gkHxs42bjs0d115XRAQBAQBQcCmEBACy6aWSwbrqAjsydmDp7c8jfzyfORU5KguebS8MROKpEqgR6DKybp64NW4fODlbdrhHBXDxvP+z4H/qFwwWhPDvcMNQVJWU6bwHxc5Di+d85Khc+QgQcBmEEj+Cji5U4e1UxFhpGjncfXQWT8xZxo5Q44RBAQBQUAjQDvmznd1MLuHvxkVVr1WvTH/Kno8ED9JUBQEBAFBQBBwUASEwHLQhZdpWw8CZdVleHvP20guSFY5TwxZ93X3RYxvDG4ccqPqKMiiRXDlkZUqt4mh4iSuaCt0dXLF6LDRKpA9PiDeeiZmxSP5YN8H+Nfef6G6tlop2owUuxKyUyFD3F+Z+oqRU+QYQcB2ENj9EZDLjmBegNGmDrQdohYIHyFh7raz0jJSQcB6EDiyRquwGIzv7tfyZw+bR5AsZ9C7bzgw8jqdNyYlCAgCgoAg4JAICIHlkMsuk7YWBD7c/yG+OPKFIkYYsF5TX6OGRnWVt5u36rA3KXoSbhl5y6nAdZJXPJ6WQVcXVwR5BMGPf/hJGUZgw4kNeGbzM8guz0aMX4yh80ggEvvpcdOx4PQFhs6RgwQBm0Fg36cAbYTcJLLzoJFikLuzCxA9Dugz1cgZcowgIAgIAr8iwM6n+1cCBSlakcUujszDYgMJElcqKL9afyZ5+gNDrgJ8QgRBQUAQEAQEAQdGQAgsB158mXrPIvDqjlex9vhanCg5oToHBnkGKZKKeUzMtSJhQpKKwe1UWLGrIF+X6jwCVFMxxP1IwRFE+kYa6ip4ovgE/D39MWf4HFzW/7LOD0KuIAhYEwIZ2wGqIarLAa8gYyNj4LtXMDDkCsC/t7Fz5ChBQBAQBBojQBLrxA4g7Rfd1ZGkFYPxTWQWCS3/aKDf+YCHfFknD48gIAgIAo6OgBBYjv4EyPx7BIFtmdvw7JZncbTwKHp59WpVQUWiJbM0E1G+Ubhx6I1CnFhwtZ7Y8ATWp69HeW25wretIPeiqiIUVhSqwPcl05YoslFKELArBMrzG/JocjUpRWVVW8WNJm0/7Lo2bp7OzpISBAQBQaCjCNCSXJgKFBzVlkHaBElcBfUFvEMAJ/mM6Si0cp4gIAgIAvaEgBBY9rSaMhebQeCmVTeB3QV93XwRyJbQbVRpdSlyynIQFxCH16a/pgLbpTqPQH5FPu764S6kFKaoLDGGuTvzG99mRSUcjyXJNXPoTPyu/+86f3O5giBgdQjUAwe+ALL3A9VlmsRqbcNIxQQDlflZFJ0AxJ1tdbORAQkCgoAgIAgIAoKAICAI2B8CQmDZ35rKjKwcgYySDNz1411IKUhBn4A+ijwxV8eLjquw8fkJ8zGpt3TfMYeX0dd3ZO1QSris0iyQKPRy84KXq5cisph3xYB9dnykjXNa7DTMGzVPOjwaBVeOsz0EaB/c+Q5ANVZNhe5G2CTQvV6TW/zha2wwMeoGUV/Z3krLiAUBQUAQEAQEAUFAELBJBITAssllk0HbMgIf7f9IdcAjYRLpE2loKrkVuUA9cFHfi/DnsX82dI4cZAwB2jhf3PYi0orT1JrQUkjSyt3FHT5uPvB29cZNw27CtLhpQl4Zg1SOsmUEGMy+d4VWWFWVAFRbOTXYCfn/Ga5M8sovEjjtcsDFzZZnK2MXBAQBQUAQEAQEAUFAELAhBITAsqHFkqHaBwJU/KxKWaUC2Y1mKZVUl6C4shgToibg2UnP2gcQVjQLhubvz9uPrZlbcTDvIKrqqhDtG63C8/kT4BFgRaOVoQgCXYwAA5Qzk4D0LUBNue4GxiKRxRDlmDOAkEGivLLkMhDjwuNAaZa+qm8Y4B8ruT+WxFiuJQgIAoKAICAICAI2j4AQWDa/hDIBW0Ng6c6lWJG8QnUapC3QSDGHiZa2KTFT8OgZjxo5RY4RBAQBQaBzCJBUYWv76lJNVnn4Ah7+Qlx1DtWmZ5MsPPwdUHBMk4W1Nfp1F1fA1QsIjAP6n687skkJAoKAICAICAKCgCDg4AgIgeXgD4BMv/sR2Jm9E09sfALpxekqmL2t7nem0Z0oOQF/d3/MGTFHOhF2/5LJHQUBQUAQsDwCzBrb+zFQXqBzxegTd3HX92GXR5KGbt6AVxAw9GrAk+ShlCAgCAgCgoAgIAgIAo6LgBBY/6+9O4+x67rrAP717ItnbMdLnInjOIuTZmtI07KkUQuFtBUtbVUolKUUVIqggT8qKqGyqMk/Vf8AqSrij0aFgkpbdgQIopatlEBY6i5uU5q9TuJk7NjjbcYznu3BmesAIY7nzeS9zHtvPleKFGXuPfeczz22NN+c8zvr99sb+RoJlPpK77j7HXnw2IPZObwzA88qkvzcTpWVWqWI++7R3fnwd304u0Z2rVHPvZYAAQIEGiIwfyb50m9XtcYW55K+Tc+tJ7Ywl5w5Uf33cirkze9Ounoa8nqNECBAgAABAgTaUUCA1bb516cAABY2SURBVI5fTZ/bXuCu/Xflrx75q4xPjS8FUqUe1rmuxdpiDk4ezKa+TXnlxa/ML33bLy2dkOciQIAAgXYVqCVf+6Pk+KPVaY8lnCqrrc551ZLTR6uVWFsuS657W7sOWr8JECBAgAABAi9YQID1ggk1QGDlArXUcvvf3p5HTjySYzPHcsHABRnpH3nWdsJyIt7R6aMZ6h1aKij+kdd8JJv7N6/8ZZ4gQIAAgdYRKNsF9/1WcvrpZGjb8vWtSi2y00eS4e3Jy3866e5vnbHoCQECBAgQIEDgRRQQYL2I2F5F4P8KlIDqjn+5Iw8ceyATMxOZXZhNbzmifkMyvzCf7q7upVMKd23ctVS4fWzjGEACBAgQaHeBcsLjw59NZieTwa31jWb6aNI3kux9fbL92vqecRcBAgQIECBAoMMEBFgd9kENp70Eykqszzz6mfzZQ3+WI9NHMldqoSRLWwpH+kbyhsvekDdd+aYMdA+018D0lgABAgTOLfCNP08O35d0dSe9w/UpzZaTIBeTHTckV7+xvmfcRYAAAQIECBDoMAEBVod9UMNpT4FS2P2JySdy6PShlLpX2wa3ZffI7uetjdWeo9RrAgQIEFg6efDI/UlXX9I7WB9I2XZY/gfH9muSa95a3zPuIkCAAAECBAh0mIAAq8M+qOEQIECAAAECLSxw4PPJ4/9aBVL9m+rr6MzxpKcvueSVye5X1veMuwgQIECAAAECHSYgwOqwD2o4BAgQWFOBqaer7VFTh5OyaqScsDm4JdlyRbJ1b7VtykXghQqUuTU5nvx3LcGU2oHDF1bzrB2u8mfjq59OpieSoe319bj8uRramtz4Y2dPLazvMXcRIECAAAECBDpJQIDVSV/TWAgQILBWAmU1yaOfS458owquFuaS2kKWTiUoIVbZKlVOXLv8u5MRBxKs1Wdq+/eW0/gevzc5/liyOJssLlSn+JU5VubX2MuSbS9p7WEuzidf+Ghy+mjS3Zf0bTx/f2dPVX+eSoD1ip9d/tTC1h693hEgQIAAAQIEVi0gwFo1nQcJECBAYEmghFf3/Uly8omk/LJdavv09FerrWq16pfv+emkuzcZ2Jzs/d5ky2XwCKxM4ND+5MA9yZmT1XwqwdWGs3OsNl+txCon9W27KrnitirUatXr2DeT+/8iKacLlkLuvUPn7mlZYVYC4cFtybVvSUYvadUR6RcBAgQIECBAoOkCAqymE3sBAQIEOlzgwb9ODn89mZ2savqUoOr/XyXIKsFDOUlteEdyw48k/SMdDmN4DRM4en/y0N9Ugc+GnqRv+NkBVW0xmZtO5k9Xc3DHdcmVr2vY6xvfUK0K4576YjJzomq+Z6AK4cpVQuH5merfS+g7drPaV43/CFokQIAAAQIE2kxAgNVmH0x3CRAg0FICpZ7P1/4gKVu7yi/az/wCfs5O1pLpUoy6P7nopmqVjIvAcgJly92XPp6cemr5LXcLs8mZE8nABcnVb0wuuGK51tfw57Xk0FeTA/+UzM0kCzPVlshyldVj3f1J70Cy59XJjuvXsJ9eTYAAAQIECBBoDQEBVmt8B70gQIBAewqU1Vfj+5OyAqZ/dPkxlO2EJWAoq7Buflf1S7qLwPkEHv+Xqu7Vmclk6IKqrtr5rrISsMzHLZcnN7y99W3nzySHv5acOlgFvOUqBelHL66Cq1Iny0WAAAECBAgQIBABlklAgAABAqsX2P97ycQjVSHqen/RLsWrBzYl1/1AMrpr9e/25PoQ2P/J5NjDSc9wtXpvuauEV2Wr4eDW5KafqC9YXa5NPydAgAABAgQIEFhzAQHWmn8CHSBAgEAbC3zxt5ITjycDW6qi7fVcM2Ub4WBy1fcm26+p5wn3rGeBfR+rDghYyRybnqhqrF37/cmm3etZz9gJECBAgAABAh0jIMDqmE9pIAQIEFgDgVKb6MRjVeHsek99mz5WFeG++vuSrXvXoNNe2VYCX7grOfVkta2unDpYz/XMHLvmLdVWQhcBAgQIECBAgEDbCwiw2v4TGgABAgTWUOC+P0qO3F+doFb+We4qpxFOH6m2d934Y8lgqWnkInAegdWEpM8cKlBqYG3ciZfACxMoJ0WWrdKlRlnvYLJlTzJiXr0wVE8TIECAAIGVCwiwVm7mCQIECBB4RuDgfyQHPl9/ge25qaQUct98aRVgLVeQmzSBr/9JFZJu6KpqrS13LZ1EePLsQQE/VX9ttuXa9fP1J3DssWTfx5NHPpfMTSflRMwyD0sttguvT25+Z7L729efixETIECAAIE1EhBgrRG81xIgQKAjBMovdF/63WqLV3dP0jfy/MNaOoHweFXL6IrvqU5YcxFYTuDkwaSEWKX4f9lGeN6tqmWF37FqlczYK5LLvnO51v2cwLkF7r87+fyvJ5PjSampVravlr/jFheTEpIOjCZD25Lrvz+55eeT7l6SBAgQIECAQJMFBFhNBtY8AQIEOl7g6APJQ5+tTn7bUEKs4WeHDGXb4PxMMjdZBVyl7tVL3mT1VcdPjAYO8Ot/mkw8lMydTgY2nzvEKvOsrLzKYjJ8YfLSH6lvxVYDu6mpDhF49PPJZ381OfZoNdeGdzz7BMzFhaRsUy3zbdMlyY1vT259b4cM3jAIECBAgEDrCgiwWvfb6BkBAgTaR+DQ/uTAP1crrEpYVVYrlFMJS6iwOFf9EljCq817kqveYLVC+3zZ1uhpWfHy1d+vVsPMTp2tudZfbed6Zo6VcKurNxncnFz1xmqbqovASgXKXPvEW5NDX6vm2cYLn7+FmZPJ1KFky2XJm34jufhlK32b+wkQIECAAIEVCAiwVoDlVgIECBA4j8DUkeSxe5Ky5WvhTFJbqFZZla01ZdvgzpcmO2+08sokWp1ACRYe+ky1KqbUUivbV2uL1XwqYWnvUHU4wBW3JSMXre4dniLwb3cl//7RZPJwFUxt2HB+k1Pj1T1Xfnfy5t/kR4AAAQIECDRRQIDVRFxNEyBAYF0KlJUwJcSaPVWtiCmnwA1vE1yty8nQhEGXemvj+6u6RGW1X1ndN7ApueDKZPtLqtV/LgKrFfjU25PH7q3+zqrn0ICynXDi4WTrlck7/jQZ3r7aN3uOAAECBAgQWEZAgGWKECBAgAABAgQIECgCH39DMv7lZNOl9W91LqsCy6q/t96VXFRWmboIECBAgACBZggIsJqhqk0CBAgQIECAAIH2E/jt1yfjX0227FnmxMv/M7Tj36wODnjLbya7XtF+Y9ZjAgQIECDQJgICrDb5ULpJgAABAgQIECDQZIHffXPy5L7qdMHuvvpeVrYQlvvf9jvJ9qvre8ZdBAgQIECAwIoFBFgrJvMAAQIECBAgQIBARwr88buSRz+X9AwmQ1uXH+LcdFXzr9Rfe+dfJH3Dyz/jDgIECBAgQGBVAgKsVbF5iAABAgQIECBAoOMEDtyb/PX7kolHki2XJ9095xliLTl+oDpl9eZ3Jre+t+M4DIgAAQIECLSSgACrlb6GvhAgQIAAgXYQKCcAlsLVJx5L5qeT3qGq6PWWy5KBze0wAn0k8PwCZRVWOYnwzKmzWwl7n3tvbTE5NZ7U5pOtVyU/9Ilk4w6qBAgQIECAQBMFBFhNxNU0AQIECBDoKIH5M8mj/5AcfSBZmK3+qS0kG7qrekHd/cmO65I9r6q/AHZHARlMRwjMnEz+8MeTIw8k08eSoQuSvo3VPC/B1fxMMvV00jOQbN6dvO6DyaXf0RFDNwgCBAgQINDKAgKsVv46+kaAAAECBFpFoNT62f+JpPxyf+Zk0tWb9PSf/aV+ISnh1uJc0r8pGRhNbvpJIVarfDv9WLlAmed3/2Iyvj+ZOlzN7xJebdhQzf2hbVV49ZpfSca+ZeXte4IAAQIECBBYsYAAa8VkHiBAgAABAutMoPzi/pXfSybHk7nTVc2fru7nIizOJzPHkr6RZOSi5KU/us6gDLfjBB771+TLn05OPVXN/e6z4dXe25Lr3yqk7bgPbkAECBAg0MoCAqxW/jr6RoAAAQIEWkFg4uHk/r88u51qW7UK5fmuEnadPpIMbU+uf1uycWcrjEAfCBAgQIAAAQIE2lxAgNXmH1D3CRAgQIBAUwVqteSLH6tWX5UaV6Vg+3LX7GRSVmOV8Ormn1rubj8nQIAAAQIECBAgsKyAAGtZIjcQIECAAIH1IVBLLYemDmXf4X358qEv5+TsyWzv35KXn3o6N6Y3W0Z21Q9R6gYN70i+9T3Jhq76n3MnAQIECBAgQIAAgXMICLBMCwIECBAgQCBTc1P56P6P5t4n783M/Ewm5yazsLiQ3q7ubFyYT38tecsF1+UHN1+bnnoCqf8JsH62KvTuIkCAAAECBAgQIPACBARYLwDPowQIECBAoBMEJmYm8guf+4UcPn04T59+On3dfRnuG07Php7MLpzJ1MyxzNcWM9a7MXv6N+fXxm5bPsSyAqsTpoYxECBAgAABAgRaRkCA1TKfQkcIECBAgMCLLzC3OJf3/sN78+CxB5e2DF40fFF6y0lrz1ylBtbppzM9fyaHFmayo2coLx8eywd2vur5O3v2mWoL4e3nL/r+4g/ZGwkQIECAAAECBNpQQIDVhh9NlwkQIECAQKME/v6xv89HvvSRPDX5VHaP7k7XubYHnp5IFmYzV1vME/NT2dO/KR+++LUZ6x05dzdmjiddPcnmS5MbfrhRXdUOAQIECBAgQIDAOhYQYK3jj2/oBAgQILC+BRZqC3n3Z9+dB449kJHekYz2j54bpJwoOF1CrPkcWZzNYpKXDe3Mr19823PvX5hLZo5VBdxv+smkb3h9Ixs9AQIECBAgQIBAQwQEWA1h1AgBAgQIEGg/gVLz6j1/+548furx7Nm05/wDKKuq5mezsDiXx+encs3AtvzOpW/+32fKtsH5M8nsyWRwa7Lt6mTv69sPRY8JECBAgAABAgRaUkCA1ZKfRacIECBAgEDzBR4+/nDe94/vy6GpQ7lk9JLlXzg9kcWFuRyYPZ69vZvyybHXJl3dSVmhtTBb/fvAlmR0LLn2B5Zvzx0ECBAgQIAAAQIE6hQQYNUJ5TYCBAgQINBpAo+ceGTp9MHxqfGl+lf1XIuzUzkw+WT29m/JJ3e9LllcqOpddfcnvUPJ7luS7dfW05R7CBAgQIAAAQIECNQtIMCqm8qNBAgQIECgswSOzhzNz/zNz+TAyQNLWwg3ZMOyA5xfnM/BUwdzzebL8/Ebbk/mJpO+0WTr3mRo27LPu4EAAQIECBAgQIDAagQEWKtR8wwBAgQIEOgAgVpquf3vbs99R+5Lf3d/tpTtf8tcZbVWX3dfbhm7JXfecudyt/s5AQIECBAgQIAAgYYICLAawqgRAgQIECDQngJfGP9CPvjvH8wTp57IJSOXpKdsB3yea3p+eqle1uWbL89dt92Vkb6R9hy0XhMgQIAAAQIECLSdgACr7T6ZDhMgQIAAgcYK/PI9v5yvPP2VlFMJdw7vzEDPwLO2E5aVWpOzkzly+kh2je7Kay55TX7upp9rbCe0RoAAAQIECBAgQOA8AgIs04MAAQIECKxzgTMLZ5ZOIyyrsJ6cfDIlsBruHU5vV2/Kz07PnV5amVVWaF239bp84JYPrHMxwydAgAABAgQIEHixBQRYL7a49xEgQIAAgRYV+NR/fip3f/PuTM9N5+TsyZSC7aXe1WjfaAZ7B/Ou69+VV+16VYv2XrcIECBAgAABAgQ6WUCA1clf19gIECBAgMAKBcrqq28c/UbuOXhPJmYmMrZxLK/e9ersHt29wpbcToAAAQIECBAgQKBxAgKsxllqiQABAgQIECBAgAABAgQIECBAoAkCAqwmoGqSAAECBAgQIECAAAECBAgQIECgcQICrMZZaokAAQIECBAgQIAAAQIECBAgQKAJAgKsJqBqkgABAgQIECBAgAABAgQIECBAoHECAqzGWWqJAAECBAgQIECAAAECBAgQIECgCQICrCagapIAAQIECBAgQIAAAQIECBAgQKBxAgKsxllqiQABAgQIECBAgAABAgQIECBAoAkCAqwmoGqSAAECBAgQIECAAAECBAgQIECgcQICrMZZaokAAQIECBAgQIAAAQIECBAgQKAJAgKsJqBqkgABAgQIECBAgAABAgQIECBAoHECAqzGWWqJAAECBAgQIECAAAECBAgQIECgCQICrCagapIAAQIECBAgQIAAAQIECBAgQKBxAgKsxllqiQABAgQIECBAgAABAgQIECBAoAkCAqwmoGqSAAECBAgQIECAAAECBAgQIECgcQICrMZZaokAAQIECBAgQIAAAQIECBAgQKAJAgKsJqBqkgABAgQIECBAgAABAgQIECBAoHECAqzGWWqJAAECBAgQIECAAAECBAgQIECgCQICrCagapIAAQIECBAgQIAAAQIECBAgQKBxAgKsxllqiQABAgQIECBAgAABAgQIECBAoAkCAqwmoGqSAAECBAgQIECAAAECBAgQIECgcQICrMZZaokAAQIECBAgQIAAAQIECBAgQKAJAgKsJqBqkgABAgQIECBAgAABAgQIECBAoHECAqzGWWqJAAECBAgQIECAAAECBAgQIECgCQICrCagapIAAQIECBAgQIAAAQIECBAgQKBxAgKsxllqiQABAgQIECBAgAABAgQIECBAoAkCAqwmoGqSAAECBAgQIECAAAECBAgQIECgcQICrMZZaokAAQIECBAgQIAAAQIECBAgQKAJAgKsJqBqkgABAgQIECBAgAABAgQIECBAoHECAqzGWWqJAAECBAgQIECAAAECBAgQIECgCQICrCagapIAAQIECBAgQIAAAQIECBAgQKBxAgKsxllqiQABAgQIECBAgAABAgQIECBAoAkCAqwmoGqSAAECBAgQIECAAAECBAgQIECgcQICrMZZaokAAQIECBAgQIAAAQIECBAgQKAJAmsWYN1xxx258847c+utt2ZwcLAJQ9MkAQIECBAgQIAAAQIECBAgQIBAJwjs27cvExMTGR8fz4UXXrjiIW2o1Wq1FT+V5P3vf38+9KEPreZRzxAgQIAAAQIECBAgQIAAAQIECKxDgYMHD2ZsbGzFI191gHXq1KmcOHEiw8PD6erqWvGLPUCAAAECBAgQIECAAAECBAgQILA+BKanpzM/P78UXq0mR1p1gLU+eI2SAAECBAgQIECAAAECBAgQIEBgrQUEWGv9BbyfAAECBAgQIECAAAECBAgQIEDgvAICLBOEAAECBAgQIECAAAECBAgQIECgpQUEWC39eXSOAAECBAgQIECAAAECBAgQIEBAgGUOECBAgAABAgQIECBAgAABAgQItLSAAKulP4/OESBAgAABAgQIECBAgAABAgQICLDMAQIECBAgQIAAAQIECBAgQIAAgZYWEGC19OfROQIECBAgQIAAAQIECBAgQIAAAQGWOUCAAAECBAgQIECAAAECBAgQINDSAgKslv48OkeAAAECBAgQIECAAAECBAgQICDAMgcIECBAgAABAgQIECBAgAABAgRaWkCA1dKfR+cIECBAgAABAgQIECBAgAABAgQEWOYAAQIECBAgQIAAAQIECBAgQIBASwv8FwSsJYhcJIiuAAAAAElFTkSuQmCC;" vertex="1" parent="1">
          <mxGeometry x="-50" y="160" width="600.63" height="480" as="geometry" />
        </mxCell>
      </root>
    </mxGraphModel>
  </diagram>
</mxfile>
